<svg width="68" height="50" fill="none" xmlns="http://www.w3.org/2000/svg"><path d="M33.47 39.276c-.448 0-.899-.057-1.342-.17l-4.77-1.22a3.298 3.298 0 01-2.478-3.2V13.88c0-.235.145-.45.367-.535l7.167-2.742a5.008 5.008 0 012.78-.235l7.481 1.495c.266.053.46.287.46.559v21.253c0 1.36-.85 2.6-2.112 3.086l-5.604 2.151a5.438 5.438 0 01-1.937.36m.72-28.563c-.555 0-1.111.1-1.639.303l-7.167 2.743a.14.14 0 00-.089.13V34.69c0 1.313.887 2.46 2.152 2.779l4.77 1.215a4.974 4.974 0 003.021-.178l5.604-2.15a2.888 2.888 0 001.837-2.678V12.425a.135.135 0 00-.108-.134L35.1 10.797c-.298-.061-.6-.09-.898-.09z" fill="#101010"/><path d="M33.366 15.718a5.76 5.76 0 01-1.213-.13l-6.78-1.462a.624.624 0 01-.431-.34l.386-.19a.195.195 0 00.133.105l6.78 1.462a5.28 5.28 0 002.986-.219l7.356-2.754a.182.182 0 00.093-.081l.387.194a.593.593 0 01-.327.292L35.38 15.35a5.734 5.734 0 01-2.014.365" fill="#101010"/><path d="M33.365 16.65a5.92 5.92 0 01-1.22-.13l-6.813-1.47a.624.624 0 01-.431-.34l.387-.19a.192.192 0 00.137.104l6.812 1.47a5.327 5.327 0 002.997-.218l7.39-2.766a.182.182 0 00.092-.082l.386.195a.615.615 0 01-.326.296l-7.388 2.766a5.783 5.783 0 01-2.023.369" fill="#101010"/><path d="M32.5 14.061a3.07 3.07 0 01-.508-.04l-1.168-.19a.451.451 0 01-.383-.41.46.46 0 01.294-.478l3.19-1.227a3.16 3.16 0 011.632-.17l1.386.219a.452.452 0 01.387.413.458.458 0 01-.306.478l-3.465 1.223a3.129 3.129 0 01-1.055.182m2.558-2.122c-.334 0-.669.06-.983.182l-3.19 1.227v.053l1.171.19a2.73 2.73 0 001.35-.121l3.465-1.223.028-.268-.032.215-1.386-.219a3.024 3.024 0 00-.427-.032" fill="#101010"/></svg>