<svg width="68" height="50" fill="none" xmlns="http://www.w3.org/2000/svg"><path d="M34.98 20.997c0 .11-.09.204-.203.204a.202.202 0 01-.204-.204c0-.115.09-.205.204-.205.114 0 .203.09.203.205zm-.644 0c0 .11-.09.204-.204.204a.202.202 0 01-.203-.204c0-.115.09-.205.203-.205.114 0 .204.09.204.205zm-.645 0c0 .11-.09.204-.203.204a.202.202 0 01-.204-.204c0-.115.09-.205.204-.205.114 0 .203.09.203.205zm-.644 0c0 .11-.09.204-.204.204a.202.202 0 01-.203-.204c0-.115.09-.205.203-.205.114 0 .204.09.204.205zm2.253-.548c0 .11-.089.204-.203.204a.202.202 0 01-.203-.204c0-.115.09-.205.203-.205.114 0 .204.09.204.205zm-.644 0c0 .11-.09.204-.203.204a.202.202 0 01-.204-.204c0-.115.09-.205.204-.205.114 0 .203.09.203.205zm-.644 0c0 .11-.09.204-.204.204a.202.202 0 01-.203-.204c0-.115.09-.205.203-.205.114 0 .204.09.204.205zm-.642 0c0 .11-.089.204-.203.204a.202.202 0 01-.203-.204c0-.115.09-.205.203-.205.114 0 .204.09.204.205zm-.644 0c0 .11-.09.204-.203.204a.202.202 0 01-.204-.204c0-.115.09-.205.204-.205.113 0 .203.09.203.205zm1.72 4.884h-1.22a.27.27 0 010-.541h1.22a.27.27 0 010 .54zm14.234 11.29c-.978-.67-1.399-2.438-1.933-4.672-.758-3.177-1.703-7.128-4.601-10.455l-.934-.971a4.14 4.14 0 01-1.03-3.906l.64-2.553.359.09-.641 2.553a3.78 3.78 0 00.94 3.556l.941.978c2.965 3.403 3.964 7.572 4.691 10.621.517 2.158.924 3.864 1.782 4.454l-.207.309-.006-.004z" fill="#101010"/><path d="M39.609 24.462a2.146 2.146 0 01-2.137-2.15c0-1.187.958-2.151 2.137-2.151s2.137.964 2.137 2.15c0 1.187-.958 2.15-2.137 2.15zm0-3.93c-.976 0-1.768.798-1.768 1.78 0 .981.792 1.779 1.768 1.779.975 0 1.768-.798 1.768-1.78 0-.981-.793-1.78-1.768-1.78zm5.153-3.431a1.276 1.276 0 010-2.55c.7 0 1.268.573 1.268 1.277a1.27 1.27 0 01-1.268 1.273zm0-2.178a.902.902 0 000 1.804.902.902 0 000-1.804zm2.543 4.655c-.7 0-1.268-.572-1.268-1.276 0-.705.569-1.277 1.268-1.277.7 0 1.269.572 1.269 1.277 0 .704-.57 1.276-1.269 1.276zm0-2.178a.902.902 0 000 1.803.902.902 0 000-1.803zM44.83 22a1.276 1.276 0 010-2.55c.7 0 1.269.572 1.269 1.276A1.27 1.27 0 0144.831 22zm0-2.18a.902.902 0 000 1.804.902.902 0 000-1.803zm-2.653-.34c-.7 0-1.269-.571-1.269-1.272 0-.7.569-1.277 1.269-1.277s1.268.573 1.268 1.277a1.27 1.27 0 01-1.268 1.273zm0-2.174a.902.902 0 000 1.804.902.902 0 000-1.804z" fill="#101010"/><path d="M46.464 37.244c-.206 0-.406-.114-.551-.316-.665-.94-1.534-3.447-2.23-5.463-.376-1.089-.703-2.029-.91-2.473-.53-1.138-3.143-1.058-6.163-.96-.927.027-1.882.058-2.86.058a94.22 94.22 0 01-3.06-.062c-3.037-.094-5.436-.167-5.967.964-.207.444-.53 1.384-.91 2.473-.696 2.016-1.565 4.523-2.23 5.463-.18.254-.451.368-.706.295l-2.506-.718c-.807-.284-1.39-1.19-1.748-2.702-1.216-5.161.548-15.945 3.954-19.487.951-.989 3.077-1.526 5.056-1.276.42.052.686.28.868.457l.173-.034.138-.309.107-.01a94.509 94.509 0 015.052-.337c.576-.024 1.148-.038 1.713-.052h.124a90.872 90.872 0 016.766.388l.107.011.138.309.172.034c.193-.183.455-.405.869-.457 1.978-.25 4.105.288 5.056 1.276 3.405 3.542 5.17 14.322 3.953 19.487-.358 1.513-.94 2.418-1.737 2.699l-2.513.721a.595.595 0 01-.155.021zM24.637 13.352c-1.561 0-3.068.468-3.795 1.224-3.336 3.469-5.056 14.062-3.857 19.14.32 1.36.838 2.203 1.5 2.435l2.492.715c.148.042.261-.094.306-.153.634-.895 1.493-3.375 2.182-5.37.38-1.099.707-2.046.924-2.507.634-1.353 3.015-1.28 6.31-1.176a93.09 93.09 0 003.05.063c.976 0 1.927-.032 2.851-.06 3.281-.104 5.873-.183 6.51 1.177.214.46.545 1.411.924 2.507.69 1.995 1.548 4.475 2.182 5.37.041.059.159.194.307.153l2.502-.718c.648-.23 1.169-1.069 1.49-2.432 1.199-5.082-.525-15.672-3.858-19.14-.875-.913-2.874-1.402-4.746-1.166-.34.042-.544.243-.706.402l-.07.07h-.11l-.458-.09-.127-.288a93.507 93.507 0 00-6.687-.375 93.5 93.5 0 00-6.686.375l-.128.288-.551.104-.07-.07c-.178-.177-.382-.378-.723-.42a7.926 7.926 0 00-.951-.058" fill="#101010"/><path d="M18.816 36.623l-.207-.308c.858-.59 1.268-2.297 1.782-4.454.727-3.046 1.726-7.219 4.684-10.614l.944-.986a3.778 3.778 0 00.94-3.555l-.64-2.553.358-.09.641 2.553a4.163 4.163 0 01-1.03 3.905l-.941.979c-2.892 3.32-3.836 7.274-4.598 10.447-.534 2.238-.958 4.003-1.933 4.673" fill="#101010"/><path d="M27.887 24.462a2.146 2.146 0 01-2.137-2.15c0-1.187.958-2.151 2.137-2.151s2.137.964 2.137 2.15c0 1.187-.958 2.15-2.137 2.15zm0-3.93c-.975 0-1.768.798-1.768 1.78 0 .981.793 1.779 1.768 1.779s1.768-.798 1.768-1.78c0-.981-.793-1.78-1.768-1.78zm9.63-.954h-7.538a2.184 2.184 0 01-2.154-1.831l-.93-3.81.358-.09.934 3.823a1.82 1.82 0 001.792 1.537h7.538c.89 0 1.64-.642 1.789-1.523l.937-3.836.359.09-.934 3.822a2.176 2.176 0 01-2.151 1.818zM22.951 18.01a.393.393 0 01-.282-.118l-.652-.659a.4.4 0 01-.117-.284v-1.096c0-.222.18-.403.4-.403h1.296c.22 0 .4.18.4.403v1.144a.403.403 0 01-.124.292l-.645.614a.405.405 0 01-.276.11m-.651-2.195s-.031.014-.031.031v1.096l.662.68s.03.014.044 0l.645-.614.01-1.165a.031.031 0 00-.03-.031h-1.297l-.003.003zm1.293 5.272h-1.296c-.221 0-.4-.18-.4-.402v-1.1c0-.104.041-.208.117-.284l.651-.659a.404.404 0 01.559-.01l.644.613c.08.077.124.184.124.292v1.145a.401.401 0 01-.4.402m-.64-2.185s-.018 0-.021.01l-.652.66-.01 1.12s.014.03.031.03h1.296s.031-.013.031-.03v-1.145l-.651-.635s-.014-.007-.021-.007m-1.32.42h-1.093c-.22 0-.4-.18-.4-.403v-1.304c0-.222.18-.402.4-.402h1.138c.11 0 .217.045.29.125l.61.648a.407.407 0 01-.008.562l-.655.656a.395.395 0 01-.282.118zm-1.093-1.738s-.03.014-.03.031v1.304s.013.032.03.032h1.093l.675-.666s.01-.032 0-.042l-.61-.649-1.158-.01zm4.808 1.738h-1.089a.395.395 0 01-.282-.118l-.655-.656a.404.404 0 01-.007-.562l.61-.648a.403.403 0 01.29-.125h1.137c.22 0 .4.18.4.402v1.304c0 .222-.18.403-.4.403m-1.141-1.738l-.63.656s-.011.03 0 .045l.654.655 1.113.01a.03.03 0 00.031-.03v-1.305a.031.031 0 00-.03-.031h-1.138z" fill="#101010"/></svg>