<svg width="68" height="50" fill="none" xmlns="http://www.w3.org/2000/svg"><path d="M30.801 40.122H20.73a2.392 2.392 0 01-2.383-2.395V12.089a2.392 2.392 0 012.383-2.395H30.8a2.392 2.392 0 012.383 2.395v25.638a2.392 2.392 0 01-2.383 2.395zM20.73 10.148c-1.065 0-1.93.871-1.93 1.941v25.638c0 1.07.865 1.941 1.93 1.941H30.8c1.065 0 1.93-.87 1.93-1.941V12.089c0-1.07-.865-1.94-1.93-1.94H20.73z" fill="#101010"/><path d="M24.84 11.13c.685 0 1.242.56 1.242 1.248v4.044c0 .688-.557 1.249-1.242 1.249h-3.772a1.247 1.247 0 01-1.242-1.25v-4.043c0-.688.557-1.248 1.242-1.248h3.772zm0-.455h-3.772a1.7 1.7 0 00-1.695 1.703v4.044c0 .943.761 1.703 1.695 1.703h3.772c.938 0 1.694-.765 1.694-1.703v-4.044c0-.943-.76-1.703-1.694-1.703z" fill="#101010"/><path d="M22.8 15.95a1.24 1.24 0 01-1.238 1.245 1.24 1.24 0 01-1.238-1.245 1.24 1.24 0 011.238-1.244A1.24 1.24 0 0122.8 15.95zm0-3.1a1.24 1.24 0 01-1.238 1.244 1.24 1.24 0 01-1.238-1.244 1.24 1.24 0 011.238-1.245A1.24 1.24 0 0122.8 12.85zm2.914 1.584a1.24 1.24 0 01-1.238 1.245 1.24 1.24 0 01-1.238-1.245 1.24 1.24 0 011.238-1.244 1.24 1.24 0 011.238 1.244zM47.01 40.122H36.938a2.392 2.392 0 01-2.382-2.395V12.089a2.392 2.392 0 012.382-2.395H47.01a2.392 2.392 0 012.383 2.395v25.638a2.392 2.392 0 01-2.383 2.395zM36.934 10.148c-1.064 0-1.93.871-1.93 1.941v25.638c0 1.07.866 1.941 1.93 1.941h10.072c1.064 0 1.93-.87 1.93-1.941V12.089c0-1.07-.866-1.94-1.93-1.94H36.934z" fill="#101010"/><path d="M43.483 12.501h-3.025a.765.765 0 010-1.529h3.025a.765.765 0 010 1.53zm-3.025-1.074a.311.311 0 00-.308.31c0 .17.14.31.308.31h3.025a.31.31 0 000-.62h-3.025z" fill="#101010"/></svg>