<svg width="20" height="23" fill="none" xmlns="http://www.w3.org/2000/svg"><path d="M18.729 8.42c-.138.1-2.567 1.373-2.567 4.205 0 3.275 3.091 4.434 3.184 4.463-.015.07-.491 1.587-1.63 3.132-1.015 1.36-2.076 2.717-3.689 2.717-1.612 0-2.027-.872-3.89-.872-1.814 0-2.46.9-3.935.9s-2.505-1.258-3.688-2.803C1.143 18.348.035 15.53.035 12.855c0-4.291 2.998-6.567 5.95-6.567 1.567 0 2.874.958 3.858.958.937 0 2.398-1.015 4.182-1.015.676 0 3.105.057 4.704 2.19zm-5.55-4.005c.737-.815 1.259-1.945 1.259-3.075 0-.157-.014-.316-.045-.444-1.2.042-2.628.744-3.49 1.673-.675.716-1.306 1.846-1.306 2.991 0 .172.03.344.045.4.076.013.199.028.322.028 1.077 0 2.432-.67 3.214-1.573z" fill="#EBEBF5" fill-opacity=".6"/></svg>