<svg width="26" height="26" fill="none" xmlns="http://www.w3.org/2000/svg"><path fill-rule="evenodd" clip-rule="evenodd" d="M20.875 9.882l-.239.178a.959.959 0 01-.068.044c-.387.247-2.07 1.323-2.07 3.525 0 1.38.629 2.31 1.274 2.905.324.299.651.512.902.652a3.457 3.457 0 00.417.202l.255.08-.051.263c-.009.042-.045.16-.1.316a11.143 11.143 0 01-1.385 2.639l-.002.002c-.444.612-.919 1.255-1.47 1.742-.557.492-1.213.844-2.02.844-.745 0-1.232-.204-1.69-.395a6.654 6.654 0 00-.055-.023c-.46-.192-.919-.372-1.68-.372-.739 0-1.237.186-1.73.386l-.086.035c-.471.191-.972.395-1.647.395-.748 0-1.367-.331-1.92-.82-.545-.485-1.05-1.145-1.568-1.841l-.001-.002c-1.241-1.69-2.24-4.306-2.24-6.8 0-4.05 2.768-6.25 5.536-6.25.75 0 1.428.235 1.999.453l.202.078c.21.081.403.156.587.216.24.077.44.12.61.12.156 0 .354-.044.608-.128.172-.057.351-.125.549-.2l.3-.113c.627-.232 1.383-.479 2.224-.479.61 0 2.885.05 4.384 2.108l.175.24zm-8.418-2.294a1.764 1.764 0 01-.04-.362c0-1.038.556-2.062 1.151-2.71.758-.842 2.015-1.478 3.072-1.516.027.116.04.26.04.402 0 1.024-.46 2.048-1.11 2.786-.688.818-1.88 1.426-2.829 1.426-.108 0-.217-.014-.284-.026zm3.341-1.204c.688-.783 1.182-1.874 1.182-2.982a2.14 2.14 0 00-.048-.47l-.056-.24-.247.008c-1.147.041-2.478.72-3.283 1.614-.627.684-1.228 1.777-1.228 2.912 0 .183.03.364.048.435l.047.188.191.035c.08.014.206.03.337.03 1.05 0 2.32-.657 3.057-1.53zM20.4 9.741a4.83 4.83 0 00-.127-.16c-1.403-1.699-3.387-1.747-3.957-1.747-.91 0-1.725.31-2.41.57-.496.188-.925.35-1.271.35-.383 0-.822-.17-1.311-.358-.618-.24-1.316-.51-2.087-.51C6.64 7.886 4 9.95 4 13.837c0 2.424.975 4.979 2.182 6.623C7.224 21.86 8.131 23 9.43 23c.615 0 1.067-.183 1.542-.376.526-.214 1.082-.44 1.922-.44.849 0 1.356.212 1.845.416.455.19.895.374 1.58.374 1.42 0 2.353-1.23 3.247-2.462a10.813 10.813 0 001.358-2.599c.049-.14.073-.225.076-.24-.081-.025-2.802-1.076-2.802-4.044 0-2.087 1.414-3.24 2.008-3.646a5.717 5.717 0 01.25-.163l.001-.001a5.448 5.448 0 00-.057-.078z" fill="#101010"/></svg>