<svg width="26" height="26" fill="none" xmlns="http://www.w3.org/2000/svg"><path d="M6.158 20.176h0c.416.64.895 1.31 1.446 1.82.55.51 1.16.848 1.836.854h0c.57.006.945-.163 1.38-.359h0c.504-.227 1.07-.482 2.039-.487 0 0 0 0 0 0v.15l-6.7-1.978zm0 0c-1.153-1.776-1.79-3.705-1.96-5.464m1.96 5.464l-1.96-5.464m0 0c-.172-1.761.125-3.339.82-4.423l-.82 4.423zm10.95-8.557h0c-.646.842-1.74 1.492-2.803 1.508-.144-1.065.357-2.165.977-2.923h0c.669-.821 1.794-1.458 2.778-1.577.114 1.114-.344 2.204-.951 2.992zm.12.092c-.695.903-1.892 1.602-3.052 1.565l.99-3.167c.724-.889 1.964-1.57 3.025-1.645.178 1.215-.314 2.405-.963 3.247zm4.32 13.77h0l-8.51-11.734.01.004c.558.201 1.119.403 1.754.403.592 0 1.078-.186 1.577-.377l.01-.004c.604-.231 1.25-.477 2.194-.477 1.25 0 2.588.665 3.574 1.837-3.238 1.949-2.7 6.693.603 8.086-.42.937-.646 1.393-1.21 2.262zM9.049 7.834c.779 0 1.407.225 2.029.45L5.02 10.289c1-1.559 2.57-2.455 4.028-2.455z" stroke="#EBEBF5" stroke-opacity=".6" stroke-width=".3"/></svg>