<svg width="21" height="18" fill="none" xmlns="http://www.w3.org/2000/svg"><path d="M4.514 17.161a1.362 1.362 0 01-1.867.489 1.368 1.368 0 01-.487-1.87l.199-.34c.351-.11.72-.17 1.1-.16h.004c.698.02 1.282.337 1.681.804l-.63 1.077zm7.67-3.25H1.668a1.366 1.366 0 010-2.734H4.85l4.002-6.843-1.235-2.113a1.369 1.369 0 01.487-1.87 1.363 1.363 0 011.867.488l.462.79.463-.79A1.363 1.363 0 0112.764.35c.65.382.868 1.22.487 1.87l-5.237 8.956h2.851c.427.284.793.66 1.057 1.12l.002.003c.3.523.366 1.09.26 1.61zm7.222 0h-1.79l1.093 1.868a1.368 1.368 0 01-1.175 2.058c-.47 0-.925-.242-1.18-.677L12.16 9.985a3.42 3.42 0 01.074-3.379l.564-.938 3.22 5.509h3.389a1.366 1.366 0 010 2.734z" fill="#EBEBF5" fill-opacity=".6"/></svg>