<svg width="17" height="17" fill="none" xmlns="http://www.w3.org/2000/svg"><path fill-rule="evenodd" clip-rule="evenodd" d="M8.5 1.75a3.938 3.938 0 100 7.875 3.938 3.938 0 000-7.875zm3.166 8.359a5.438 5.438 0 10-6.333 0 8.748 8.748 0 00-2.586 1.313C1.247 12.547.25 14.159.25 16a.75.75 0 001.5 0c0-1.264.682-2.466 1.897-3.377 1.215-.912 2.929-1.498 4.853-1.498 1.925 0 3.638.586 4.853 1.498 1.216.91 1.897 2.113 1.897 3.377a.75.75 0 001.5 0c0-1.842-.997-3.453-2.497-4.578a8.749 8.749 0 00-2.587-1.313z" fill="#EBEBF5" fill-opacity=".6"/></svg>