<svg width="70" height="50" fill="none" xmlns="http://www.w3.org/2000/svg"><g filter="url(#filter0_b_1125_10877)"><path d="M44.545 0h-19.09C16.544 0 12.09 0 8.686 1.239 5.693 2.328 3.259 4.066 1.734 6.205 0 8.635 0 11.818 0 18.182v13.636c0 6.364 0 9.546 1.734 11.977 1.525 2.139 3.959 3.877 6.953 4.966C12.09 50 16.545 50 25.454 50h19.091c8.91 0 13.365 0 16.768-1.239 2.994-1.089 5.428-2.827 6.953-4.966C70 41.365 70 38.182 70 31.818V18.182c0-6.364 0-9.547-1.734-11.977-1.525-2.139-3.959-3.877-6.953-4.966C57.91 0 53.456 0 44.545 0z" fill="#F43"/></g><path d="M44.32 23.777c.908.544.908 1.902 0 2.446l-12.273 7.336c-.91.543-2.046-.136-2.046-1.223V17.664c0-1.087 1.137-1.766 2.046-1.223l12.272 7.336z" fill="#fff"/><defs><filter id="filter0_b_1125_10877" x="-4" y="-4" width="78" height="58" filterUnits="userSpaceOnUse" color-interpolation-filters="sRGB"><feFlood flood-opacity="0" result="BackgroundImageFix"/><feGaussianBlur in="BackgroundImageFix" stdDeviation="2"/><feComposite in2="SourceAlpha" operator="in" result="effect1_backgroundBlur_1125_10877"/><feBlend in="SourceGraphic" in2="effect1_backgroundBlur_1125_10877" result="shape"/></filter></defs></svg>