<svg width="19" height="19" fill="none" xmlns="http://www.w3.org/2000/svg"><path fill-rule="evenodd" clip-rule="evenodd" d="M9.198 5.42a3.778 3.778 0 100 7.555 3.778 3.778 0 000-7.555zM3.92 9.198a5.278 5.278 0 1110.555 0 5.278 5.278 0 01-10.555 0zM9.2 0a.75.75 0 01.75.75v1.51a.75.75 0 11-1.5 0V.75A.75.75 0 019.2 0zm0 15.39a.75.75 0 01.75.75v1.51a.75.75 0 01-1.5 0v-1.51a.75.75 0 01.75-.75zm6.19-6.19a.75.75 0 01.75-.75h1.51a.75.75 0 110 1.5h-1.51a.75.75 0 01-.75-.75zM0 9.2a.75.75 0 01.75-.75h1.51a.75.75 0 110 1.5H.75A.75.75 0 010 9.2zm4.82 4.38a.75.75 0 010 1.061l-1.067 1.067a.75.75 0 11-1.06-1.06L3.76 13.58a.75.75 0 011.06 0zm8.76 0a.75.75 0 011.061 0l1.067 1.067a.75.75 0 11-1.06 1.06L13.58 14.64a.75.75 0 010-1.06zM2.69 2.69a.75.75 0 011.061 0l1.067 1.067a.75.75 0 11-1.06 1.06L2.69 3.75a.75.75 0 010-1.06zm10.89 2.13a.75.75 0 010-1.061l1.067-1.067a.75.75 0 011.06 1.06L14.64 4.82a.75.75 0 01-1.06 0z" fill="#EBEBF5" fill-opacity=".6"/></svg>