<svg width="24" height="25" viewBox="0 0 24 25" fill="none" xmlns="http://www.w3.org/2000/svg">
<g clip-path="url(#clip0_2160_22027)">
<path d="M12 24.2422C18.6274 24.2422 24 18.8696 24 12.2422C24 5.61479 18.6274 0.242188 12 0.242188C5.3726 0.242188 0 5.61479 0 12.2422C0 18.8696 5.3726 24.2422 12 24.2422Z" fill="url(#paint0_linear_2160_22027)"/>
<path d="M4.46882 12.8291C5.87161 12.0564 7.43751 11.4115 8.90061 10.7633C11.4177 9.70162 13.9448 8.65832 16.4974 7.68702C16.9941 7.52152 17.8864 7.35967 17.9739 8.09567C17.926 9.13747 17.7289 10.1732 17.5937 11.2089C17.2506 13.4865 16.854 15.7563 16.4672 18.0264C16.334 18.7825 15.3867 19.174 14.7806 18.6901C13.324 17.7062 11.8562 16.7319 10.4182 15.7252C9.94716 15.2465 10.384 14.5592 10.8047 14.2174C12.0044 13.0351 13.2767 12.0306 14.4137 10.7872C14.7204 10.0465 13.8142 10.6707 13.5153 10.862C11.8729 11.9938 10.2707 13.1947 8.53906 14.1894C7.65456 14.6763 6.62366 14.2602 5.73956 13.9885C4.94685 13.6603 3.78532 13.3296 4.46882 12.8291Z" fill="white"/>
</g>
<defs>
<linearGradient id="paint0_linear_2160_22027" x1="9.0014" y1="1.24299" x2="3.0014" y2="15.2422" gradientUnits="userSpaceOnUse">
<stop stop-color="#37AEE2"/>
<stop offset="1" stop-color="#1E96C8"/>
</linearGradient>
<clipPath id="clip0_2160_22027">
<rect width="24" height="24" fill="white" transform="translate(0 0.242188)"/>
</clipPath>
</defs>
</svg>
