<svg width="24" height="25" viewBox="0 0 24 25" fill="none" xmlns="http://www.w3.org/2000/svg">
<g clip-path="url(#clip0_2160_22030)">
<path d="M12 24.2422C18.6274 24.2422 24 18.8696 24 12.2422C24 5.61479 18.6274 0.242188 12 0.242188C5.3726 0.242188 0 5.61479 0 12.2422C0 18.8696 5.3726 24.2422 12 24.2422Z" fill="#25D366"/>
<path fill-rule="evenodd" clip-rule="evenodd" d="M12.3955 18.9183H12.3926C11.1983 18.9179 10.0249 18.6183 8.9826 18.0498L5.19995 19.0421L6.21225 15.3445C5.5878 14.2623 5.25925 13.0348 5.25975 11.7772C5.26135 7.84294 8.46235 4.64209 12.3954 4.64209C14.3043 4.64291 16.0959 5.38605 17.4431 6.7348C18.7903 8.0835 19.5318 9.87624 19.531 11.7828C19.5295 15.7162 16.3297 18.9167 12.3955 18.9183ZM9.1579 16.758L9.37445 16.8865C10.2851 17.4269 11.3289 17.7128 12.3931 17.7132H12.3955C15.6644 17.7132 18.3249 15.0526 18.3262 11.7824C18.3269 10.1977 17.7106 8.70764 16.5908 7.5866C15.4711 6.46555 13.982 5.84784 12.3978 5.84729C9.1264 5.84729 6.46585 8.50765 6.46455 11.7776C6.4641 12.8983 6.77765 13.9896 7.3713 14.9339L7.51235 15.1583L6.9132 17.3468L9.1579 16.758ZM15.7462 13.3191C15.8705 13.3792 15.9545 13.4198 15.9904 13.4796C16.0349 13.554 16.0349 13.911 15.8864 14.3275C15.7378 14.744 15.0255 15.1241 14.6829 15.1752C14.3758 15.2212 13.987 15.2403 13.5599 15.1046C13.301 15.0224 12.9689 14.9127 12.5435 14.729C10.8721 14.0073 9.74245 12.3873 9.52895 12.0811C9.514 12.0596 9.50355 12.0446 9.4977 12.0368L9.4963 12.0349C9.40195 11.909 8.7697 11.0655 8.7697 10.1925C8.7697 9.3712 9.1731 8.94074 9.3588 8.74259C9.37155 8.72904 9.38325 8.71655 9.3937 8.7051C9.55715 8.5266 9.7503 8.48195 9.86915 8.48195C9.988 8.48195 10.107 8.48304 10.2109 8.48829C10.2237 8.48894 10.2371 8.48884 10.2508 8.48874C10.3547 8.48814 10.4843 8.48739 10.6121 8.79434C10.6612 8.91245 10.7332 9.08759 10.809 9.27229C10.9624 9.64579 11.132 10.0585 11.1618 10.1182C11.2064 10.2074 11.2361 10.3115 11.1766 10.4305C11.1677 10.4484 11.1595 10.4652 11.1516 10.4813C11.1069 10.5725 11.0741 10.6395 10.9983 10.728C10.9686 10.7627 10.9378 10.8002 10.907 10.8377C10.8456 10.9124 10.7843 10.9871 10.7309 11.0403C10.6416 11.1292 10.5487 11.2257 10.6527 11.4042C10.7567 11.5827 11.1146 12.1665 11.6446 12.6393C12.2144 13.1475 12.7096 13.3623 12.9606 13.4712C13.0096 13.4925 13.0493 13.5097 13.0784 13.5243C13.2566 13.6135 13.3606 13.5986 13.4647 13.4796C13.5687 13.3606 13.9104 12.959 14.0292 12.7805C14.148 12.6021 14.2669 12.6318 14.4303 12.6913C14.5938 12.7509 15.4704 13.1821 15.6487 13.2714C15.6835 13.2888 15.716 13.3045 15.7462 13.3191Z" fill="#FDFDFD"/>
</g>
<defs>
<clipPath id="clip0_2160_22030">
<rect width="24" height="24" fill="white" transform="translate(0 0.242188)"/>
</clipPath>
</defs>
</svg>
