<svg width="92" height="38" fill="none" xmlns="http://www.w3.org/2000/svg"><path fill-rule="evenodd" clip-rule="evenodd" d="M9.087 6.467a91.713 91.713 0 00-2.081-.02l-2.184.004h-.487c-.082 0-.166-.003-.248-.009V4.68h9.242V1.004l-.43-.058a1.207 1.207 0 00-.212-.022L0 .936v17.418l5.29.01c1.256 0 2.51-.006 3.764-.026 3.37-.056 5.9-2.657 5.887-6.052-.011-3.492-2.364-5.748-5.854-5.819zm1.86 5.824c.015 1.265-.741 2.192-1.84 2.25-.631.036-1.312.052-2.144.052-.533 0-1.07-.006-1.608-.013-.428-.006-.857-.01-1.29-.012v-4.462c.41 0 .822-.008 1.233-.013 1.268-.018 2.537-.034 3.802.024 1.09.048 1.834.922 1.848 2.174zM65.724.6c-5.116 0-8.988 3.859-9.007 8.976-.009 2.512.897 4.815 2.55 6.486 1.653 1.67 3.936 2.592 6.434 2.6h.029c5.11 0 8.974-3.864 8.987-8.988C74.73 4.524 70.882.622 65.724.6zm-.01 3.766l.013-.38v.38c2.948 0 4.937 2.1 4.95 5.238.006 1.448-.494 2.776-1.408 3.747-.913.972-2.164 1.5-3.55 1.5a4.879 4.879 0 01-1.922-.378 4.961 4.961 0 01-1.63-1.107c-.955-.98-1.484-2.315-1.479-3.755.007-3.03 2.12-5.238 5.025-5.245zM23.15 11.132h8.392v-3.79h-8.396v-2.63h9.421V.952H19.11V18.31h13.83v-3.75h-9.79v-3.428zm58.903.014h8.403V7.333h-8.388V4.704h9.415V.95h-13.48v17.358H91.85v-3.755h-9.796v-3.407zM41.193 1.02l-.1.218a.598.598 0 00-.074.209l-1.151 8.512c-.162 1.207-.33 2.457-.526 3.676-.122.764-.378.985-1.203.985-.336-.01-.67-.04-1.003-.09-.17-.021-.34-.044-.515-.062l-.32-.034-.896 3.582.411.061c.294.044.58.095.86.146.607.108 1.181.211 1.775.225h.203c2.622 0 4.155-1.37 4.56-4.069.182-1.22.34-2.444.498-3.668l.24-1.847.568-4.153h5.025v13.605h3.899V.966H41.456l-.263.055zM23.68 28.407c-1.14-.225-2.337-.168-3.51-.207-.858-.026-1.716-.004-2.596-.004v-2.851h7.904v-1.492h-9.71v13.305h.624c1.944 0 3.886.009 5.828-.005a6.724 6.724 0 001.225-.12c1.95-.375 3.424-2.176 3.474-4.212.052-2.158-1.231-4.018-3.239-4.414zm-1.024 7.132c-1.675.112-3.363.027-5.097.027V29.8h2.6c.746 0 1.491-.01 2.236.013 1.556.048 2.69 1.132 2.76 2.617.08 1.706-.874 3.004-2.499 3.11zM5.757 23.807c-.66.006-1.341.013-1.987.15-3.52.726-4.973 4.98-2.624 7.718.476.556 1.13.948 1.737 1.445-.86 1.294-1.744 2.62-2.688 4.038.596 0 1.064-.025 1.527.01.362.026.567-.114.756-.418.608-.982 1.258-1.933 1.857-2.92.215-.355.467-.466.86-.459 1.236.022 2.472.006 3.708.009.185 0 .367.022.613.037v3.706h1.703V23.799c-1.858 0-3.66-.011-5.462.008zm3.708 7.898a1.65 1.65 0 01-.326.063c-1.41 0-2.822.02-4.232-.013-1.843-.043-3.043-1.261-3.086-3.076-.04-1.777 1.205-3.198 2.99-3.28 1.525-.07 3.054-.014 4.65-.014l.004 6.32zm44.153-8.147c-3.951 0-6.906 2.958-6.906 6.912 0 3.923 2.997 6.927 6.913 6.927 3.917 0 6.907-3.006 6.899-6.935-.005-3.965-2.944-6.904-6.906-6.904zm-.015 12.266c-2.9-.007-5.115-2.33-5.113-5.355 0-3.084 2.2-5.35 5.174-5.337 2.865.014 5.07 2.345 5.07 5.344-.006 3.032-2.237 5.36-5.131 5.35v-.002zm31.463-12.266c-3.95.015-6.906 2.995-6.878 6.94.027 3.96 3.03 6.92 7 6.902 3.864-.02 6.833-3.055 6.812-6.964-.02-3.966-2.97-6.893-6.934-6.878zm.038 12.266c-2.9.006-5.127-2.303-5.138-5.33-.012-3.061 2.163-5.35 5.09-5.361 2.915-.01 5.128 2.278 5.15 5.32.02 3.018-2.211 5.37-5.102 5.374v-.003zM33.957 24.2c-.152.927-.256 1.86-.383 2.79-.315 2.338-.62 4.676-.955 7.011-.158 1.088-.825 1.623-1.915 1.62h-.968c-.097.437-.197.878-.313 1.394.506.085.96.2 1.42.233 1.851.13 3.15-.9 3.44-2.776.304-1.974.55-3.96.824-5.937.147-1.045.294-2.089.435-3.12h5.81v11.722h1.677V23.801c-2.932 0-5.813-.006-8.696.017-.13 0-.351.23-.376.382zm41.596 1.039c.032 0 .066-.035.126-.07l.152-1.379c-1.817-.458-3.211.116-4.115 1.672-.537.93-1.01 1.904-1.607 2.79-.264.394-.735.826-1.161.886-.934.134-1.898.041-2.912.041v-5.362h-1.69v13.31h1.724V30.79c1.04 0 2.017.034 2.99-.017.389-.02.588.08.796.403a396.202 396.202 0 003.66 5.589c.107.161.293.36.459.375.575.047 1.157.017 1.845.017l-4.762-7.127c.62-1.06 1.267-2.018 1.763-3.05.576-1.203 1.412-1.831 2.732-1.742z" fill="#EBEBF5"/></svg>