<svg width="70" height="70" viewBox="0 0 70 70" fill="none" xmlns="http://www.w3.org/2000/svg">
<path fill-rule="evenodd" clip-rule="evenodd" d="M42.4615 12.3158C42.8175 14.707 41.8333 17.0496 40.5352 18.707C39.1463 20.4849 36.7523 21.8598 34.4328 21.7881C34.0093 19.4987 35.0935 17.1399 36.4127 15.5543C37.8597 13.8042 40.3397 12.4616 42.4615 12.3158ZM49.4293 45.9733C50.6251 44.1608 51.0718 43.2464 52 41.2001C45.2486 38.6608 44.1668 29.1677 50.8484 25.5242C48.8104 22.9964 45.9466 21.5311 43.2432 21.5311C41.2953 21.5311 39.9606 22.0338 38.7474 22.4909C37.7363 22.8718 36.8094 23.2209 35.6821 23.2209C34.464 23.2209 33.3852 22.8383 32.2557 22.4378C31.0144 21.9977 29.7119 21.5357 28.0955 21.5357C25.0618 21.5357 21.8327 23.3691 19.7853 26.5033C16.9075 30.9177 17.3984 39.2164 22.0653 46.2858C23.7334 48.8159 25.9621 51.6586 28.8772 51.6839C30.0867 51.6958 30.8917 51.3388 31.7627 50.9524C32.7597 50.5102 33.8432 50.0295 35.7194 50.0197C37.6065 50.0084 38.673 50.4949 39.6567 50.9437C40.5055 51.3308 41.2924 51.69 42.4918 51.6771C45.4091 51.6539 47.7612 48.5034 49.4293 45.9733Z" fill="#EBEBF5" fill-opacity="0.3"/>
</svg>
