<svg width="76" height="60" viewBox="0 0 76 60" fill="none" xmlns="http://www.w3.org/2000/svg">
<path d="M44.882 18C43.6665 22.3626 42.6562 26.7926 41.4045 31.1433C40.7847 33.3027 39.6416 38.5227 37.9391 39.8327C36.8725 40.6544 34.6508 40.9481 33.3186 41.0315C28.364 41.3411 20.7248 41.3848 15.7944 41.0315C12.5664 40.8012 11.6166 39.8049 12.1317 36.6094C12.3612 35.1962 12.9407 33.2709 13.3432 31.8498C13.951 29.7261 14.6795 26.4036 16.7201 25.2564C17.4566 24.8435 19.2195 24.3513 20.0285 24.3513H32.8074L31.608 28.4281C31.0888 28.7655 25.6633 28.3765 24.4518 28.5154C23.9849 28.571 23.6549 28.6385 23.3732 29.0394C23.0512 29.4959 21.6425 34.8826 21.5821 35.6249C21.4936 36.6967 21.8799 36.784 22.8379 36.8634C24.6611 37.0143 28.0822 37.0262 29.8974 36.8634C30.4005 36.8197 30.8795 36.7681 31.3061 36.4665L36.7316 18H44.882Z" fill="#101010"/>
<path d="M53.5354 24.3513C51.8651 29.9603 50.9555 36.399 48.8022 41.8135C46.2544 48.2243 42.8494 48.7285 36.3372 48.9706C33.6929 49.0698 31.0244 48.8793 28.3801 48.9587L29.825 43.5402C30.147 42.9249 32.743 43.2624 33.5198 43.2147C34.9647 43.1274 36.8081 42.9845 38.1162 42.3891C40.2453 41.4165 41.1348 39.007 41.8673 36.9587C43.3324 32.87 44.0931 28.5194 45.2844 24.3513H53.5354Z" fill="#101010"/>
<path d="M64 24.3513L59.5727 41.0235H51.3217L55.8497 24.3513H64Z" fill="#101010"/>
</svg>
