<svg width="115" height="60" viewBox="0 0 115 60" fill="none" xmlns="http://www.w3.org/2000/svg">
<path d="M24.7896 34.4044C24.7896 36.6212 22.9494 38.3947 20.6491 38.3947C18.3488 38.3947 16.5086 36.6212 16.5086 34.4044C16.5086 32.1876 18.3488 30.4142 20.6491 30.4142H24.7896V34.4044ZM29.3902 18H24.7896V26.0692C23.2254 26.0692 21.6612 26.0692 20.6491 26.0692C15.8645 26.0692 12 29.7935 12 34.4044C12 39.0154 15.8645 42.7396 20.6491 42.7396C25.4337 42.7396 29.2982 39.0154 29.2982 34.4044C29.2982 32.0989 29.2982 26.0692 29.2982 26.0692L29.3902 18Z" fill="#101010"/>
<path d="M75.1207 38.3948C77.421 38.3948 79.2612 36.6213 79.2612 34.4045C79.2612 32.1877 77.421 30.4142 75.1207 30.4142C72.8204 30.4142 70.9801 32.1877 70.9801 34.4045C71.0722 36.6213 72.9124 38.3948 75.1207 38.3948ZM66.5636 34.4045C66.5636 29.7935 70.4281 26.0693 75.2127 26.0693C79.9973 26.0693 83.8618 29.7935 83.8618 34.4045C83.8618 39.0155 79.9973 42.7397 75.2127 42.7397C70.4281 42.7397 66.5636 39.0155 66.5636 34.4045Z" fill="#101010"/>
<path d="M98.3074 34.4045C98.3074 32.2764 96.4672 30.5029 94.2589 30.5029C92.0506 30.5029 90.2104 32.2764 90.2104 34.4045C90.2104 35.4686 90.2104 42.385 90.2104 42.385C87.9101 42.385 85.7018 42.385 85.7018 42.385C85.7018 42.385 85.7018 36.71 85.7018 34.4045C85.7018 29.7935 89.5663 26.0693 94.3509 26.0693C99.1355 26.0693 103 29.7935 103 34.4045C103 36.71 103 42.385 103 42.385C103 42.385 100.792 42.385 98.4914 42.385C98.3074 42.385 98.3074 35.4686 98.3074 34.4045Z" fill="#101010"/>
<path d="M55.9823 31.5669C55.3382 31.1235 55.5222 30.4142 56.6263 30.1481C58.0065 29.7934 60.3988 30.0595 62.4231 30.9462L64.5393 28.1087C63.6192 27.3993 61.595 26.4239 58.6506 26.2465C58.6506 26.2465 53.682 25.6258 51.6577 29.2614C51.6577 29.2614 49.9095 32.631 53.4059 34.7591C55.5222 36.0005 59.2027 36.5326 60.3988 37.0646C61.3189 37.5966 61.0429 38.572 59.6627 38.838C57.2704 39.3701 54.142 38.04 53.1299 37.3306L50.9216 40.2568C52.3938 41.3209 54.234 42.2963 57.1784 42.7396C57.1784 42.7396 61.871 43.5377 64.4473 40.4342C64.9074 39.9021 67.0236 36.0892 62.7911 33.8724C60.5828 32.7196 57.0864 32.1876 55.9823 31.5669Z" fill="#101010"/>
<path d="M34.8189 45.5772C35.0029 45.6658 37.1192 47.0846 39.1434 47.0846C44.112 47.1733 44.3881 42.2076 44.3881 41.0549C43.468 42.0303 41.5357 42.651 40.3396 42.651C35.555 42.651 31.7825 39.1041 31.7825 34.4931C31.7825 32.1876 31.7825 26.4239 31.7825 26.4239C31.7825 26.4239 33.9908 26.4239 36.2911 26.4239C36.2911 26.4239 36.2911 33.5177 36.2911 34.4931C36.2911 36.6212 38.1313 38.3947 40.3396 38.3947C42.5478 38.3947 44.3881 36.6212 44.3881 34.4931C44.3881 33.6064 44.3881 26.4239 44.3881 26.4239C46.6884 26.4239 48.8966 26.4239 48.8966 26.4239V34.4931C48.8966 41.6756 49.2647 49.0354 41.9958 50.7202C36.5671 51.9616 32.7026 48.6807 32.4266 48.5034L34.8189 45.5772Z" fill="#101010"/>
</svg>
