<svg width="125" height="70" viewBox="0 0 125 70" fill="none" xmlns="http://www.w3.org/2000/svg">
<path d="M27.0016 34.7C27.0016 37.2 25.0016 39.2 22.5016 39.2C20.0016 39.2 18.0016 37.2 18.0016 34.7C18.0016 32.2 20.0016 30.2 22.5016 30.2H27.0016V34.7ZM32.0016 16.2H27.0016V25.3C25.3016 25.3 23.6016 25.3 22.5016 25.3C17.3016 25.3 13.1016 29.5 13.1016 34.7C13.1016 39.9 17.3016 44.1 22.5016 44.1C27.7016 44.1 31.9016 39.9 31.9016 34.7C31.9016 32.1 31.9016 25.3 31.9016 25.3L32.0016 16.2Z" fill="#EBEBF5" fill-opacity="0.3"/>
<path d="M81.7023 39.2001C84.2023 39.2001 86.2023 37.2001 86.2023 34.7001C86.2023 32.2001 84.2023 30.2 81.7023 30.2C79.2023 30.2 77.2023 32.2001 77.2023 34.7001C77.3023 37.2001 79.3023 39.2001 81.7023 39.2001ZM72.4023 34.7001C72.4023 29.5001 76.6023 25.3 81.8023 25.3C87.0023 25.3 91.2023 29.5001 91.2023 34.7001C91.2023 39.9001 87.0023 44.1 81.8023 44.1C76.6023 44.1 72.4023 39.9001 72.4023 34.7001Z" fill="#EBEBF5" fill-opacity="0.3"/>
<path d="M106.902 34.7001C106.902 32.3001 104.902 30.3 102.502 30.3C100.102 30.3 98.1021 32.3001 98.1021 34.7001C98.1021 35.9001 98.1021 43.7001 98.1021 43.7001C95.6021 43.7001 93.2021 43.7001 93.2021 43.7001C93.2021 43.7001 93.2021 37.3001 93.2021 34.7001C93.2021 29.5001 97.4022 25.3 102.602 25.3C107.802 25.3 112.002 29.5001 112.002 34.7001C112.002 37.3001 112.002 43.7001 112.002 43.7001C112.002 43.7001 109.602 43.7001 107.102 43.7001C106.902 43.7001 106.902 35.9001 106.902 34.7001Z" fill="#EBEBF5" fill-opacity="0.3"/>
<path d="M60.9023 31.4999C60.2023 30.9999 60.4023 30.1999 61.6023 29.8999C63.1023 29.4999 65.7023 29.7999 67.9023 30.7999L70.2023 27.5999C69.2023 26.7999 67.0023 25.6999 63.8023 25.4999C63.8023 25.4999 58.4023 24.7999 56.2023 28.8999C56.2023 28.8999 54.3023 32.6999 58.1023 35.0999C60.4023 36.4999 64.4023 37.0999 65.7023 37.6999C66.7023 38.2999 66.4023 39.3999 64.9023 39.6999C62.3023 40.2999 58.9023 38.7999 57.8023 37.9999L55.4023 41.2999C57.0023 42.4999 59.0023 43.5999 62.2023 44.0999C62.2023 44.0999 67.3023 44.9999 70.1023 41.4999C70.6023 40.8999 72.9023 36.5999 68.3023 34.0999C65.9023 32.7999 62.1023 32.1999 60.9023 31.4999Z" fill="#EBEBF5" fill-opacity="0.3"/>
<path d="M37.9016 47.2999C38.1016 47.4 40.4016 49 42.6016 49C48.0016 49.0999 48.3016 43.5 48.3016 42.2C47.3016 43.3 45.2016 44 43.9016 44C38.7016 44 34.6016 40 34.6016 34.7999C34.6016 32.1999 34.6016 25.7 34.6016 25.7C34.6016 25.7 37.0016 25.7 39.5016 25.7C39.5016 25.7 39.5016 33.6999 39.5016 34.7999C39.5016 37.1999 41.5016 39.2 43.9016 39.2C46.3016 39.2 48.3016 37.1999 48.3016 34.7999C48.3016 33.7999 48.3016 25.7 48.3016 25.7C50.8016 25.7 53.2016 25.7 53.2016 25.7V34.7999C53.2016 42.9 53.6016 51.1999 45.7016 53.0999C39.8016 54.5 35.6016 50.7999 35.3016 50.5999L37.9016 47.2999Z" fill="#EBEBF5" fill-opacity="0.3"/>
</svg>
