<svg width="140" height="60" viewBox="0 0 140 60" fill="none" xmlns="http://www.w3.org/2000/svg">
<g clip-path="url(#clip0_2012_5425)">
<path d="M42.1708 23.6788C41.9787 23.2949 41.4671 22.9814 41.0342 22.9814H40.1543C39.7222 22.9814 39.2167 23.2984 39.0298 23.6851L32.0543 38.1501C31.8605 38.5328 32.0712 38.8068 32.5041 38.8068H34.1161C34.7524 38.8068 35.0441 38.5197 35.2162 38.1676C35.3892 37.8156 35.7735 37.0506 35.847 36.8945C35.9465 36.6834 36.253 36.554 36.6851 36.5543L44.1905 36.5583C44.623 36.5591 44.9011 36.6408 45.0291 36.8945C45.1125 37.0597 45.4961 37.7479 45.6846 38.1234C45.8748 38.499 46.1942 38.8068 46.814 38.8068H49.1531C49.5856 38.8068 49.775 38.481 49.6193 38.1784C49.4628 37.8749 42.1708 23.6788 42.1708 23.6788ZM37.7639 34.3202C37.3318 34.3202 37.1284 34.0008 37.3102 33.6125L40.0589 27.7675C40.2418 27.378 40.5375 27.3808 40.716 27.7699L43.3921 33.6149C43.5707 34.0048 43.3632 34.3242 42.9315 34.3242L37.7639 34.3202ZM96.0707 23.7907C96.0707 23.9305 96.0707 37.8598 96.0707 38.1409C96.0707 38.536 96.4241 38.8068 96.857 38.8068H98.7632C99.1953 38.8068 99.5492 38.5328 99.5492 38.1035V23.7616C99.5492 23.3319 99.2699 22.9818 98.8378 22.9818H96.857C96.4241 22.9814 96.0707 23.2455 96.0707 23.7907ZM64.1279 32.779C63.8795 32.4278 64.0159 32.0399 64.4296 31.9172C64.4296 31.9172 66.0766 31.4278 66.8649 30.7261C67.6537 30.0224 68.0501 29.0065 68.0501 27.6823C68.0501 26.8165 67.8977 26.0885 67.5939 25.4963C67.2902 24.9058 66.8549 24.4223 66.2884 24.0523C65.7219 23.6804 65.0438 23.4076 64.2543 23.2367C63.4635 23.0667 62.3967 23.0169 62.3967 23.0169C61.9642 22.9974 61.2576 22.9814 60.8259 22.9814H52.91C52.4783 22.9814 52.1245 23.3315 52.1245 23.7612V38.1035C52.1245 38.5332 52.4779 38.8068 52.91 38.8068H54.7833C55.2158 38.8068 55.5693 38.5328 55.5693 38.1035C55.5693 38.1035 55.5705 32.3991 55.5741 32.3991C55.5773 32.3991 55.5793 32.3959 55.5793 32.3919C55.5793 32.3871 59.1304 32.3832 59.1304 32.3832C59.5621 32.3832 60.1198 32.6699 60.3697 33.0211L64.0561 38.1732C64.3987 38.6296 64.7245 38.8068 65.1566 38.8068H67.6052C68.0377 38.8068 68.1055 38.4022 67.9558 38.1919C67.8078 37.9828 64.1279 32.779 64.1279 32.779ZM62.6374 29.8663C62.1523 29.977 61.6063 29.9993 61.6063 29.9993C61.1746 30.018 60.468 30.0331 60.0355 30.0331H56.3661C55.9336 30.0331 55.5801 29.6819 55.5801 29.253V26.347C55.5801 25.9177 55.9336 25.5668 56.3661 25.5668H60.0355C60.468 25.5668 61.1746 25.5824 61.6063 25.6003C61.6063 25.6003 62.1523 25.6218 62.6374 25.7329C63.1224 25.844 63.5072 25.9989 63.7889 26.1992C64.0717 26.4008 64.2735 26.6369 64.3955 26.9085C64.5159 27.1801 64.5772 27.476 64.5772 27.799C64.5772 28.1204 64.5159 28.4179 64.3955 28.6891C64.2735 28.9607 64.0717 29.1968 63.7889 29.3983C63.5072 29.5998 63.1224 29.7567 62.6374 29.8663ZM119.474 22.9814C119.042 22.9814 118.693 23.2642 118.693 23.6776C118.693 23.8759 118.697 32.8515 118.697 32.8515C118.697 33.2816 118.453 33.3792 118.152 33.0701L108.898 23.5422C108.598 23.2331 108.158 22.9814 107.566 22.9814H105.825C105.278 22.9814 105.039 23.2714 105.039 23.5649C105.039 23.8572 105.039 37.941 105.039 38.2349C105.039 38.5276 105.319 38.8068 105.752 38.8068H107.496C107.927 38.8068 108.229 38.5734 108.229 38.1784C108.229 37.9801 108.238 28.5138 108.238 28.5138C108.238 28.0849 108.483 27.987 108.782 28.2968L118.431 38.2541C118.738 38.5587 119.11 38.8068 119.773 38.8068H121.082C121.515 38.8068 121.868 38.456 121.868 38.0267V23.7616C121.868 23.3319 121.515 22.9818 121.082 22.9818L119.474 22.9814ZM81.743 31.9268C81.5332 32.3015 81.1878 32.3003 80.9807 31.9248L76.4571 23.6788C76.2649 23.2961 75.8705 22.9814 75.3209 22.9814H72.8675C72.435 22.9814 72.0807 23.3315 72.0807 23.7612V38.0852C72.0807 38.5137 72.3647 38.8068 72.8675 38.8068H74.3925C74.8254 38.8068 75.1371 38.536 75.1371 38.1222C75.1371 37.9239 75.1435 27.7042 75.16 27.7042C75.1768 27.7042 80.8062 38.1194 80.8062 38.1194C81.01 38.4974 81.5103 38.499 81.7182 38.1226C81.7182 38.1226 87.3937 27.7341 87.4105 27.7341C87.4282 27.7341 87.4218 37.8239 87.4218 38.1222C87.4218 38.5364 87.7552 38.8068 88.1881 38.8068H89.9446C90.3775 38.8068 90.7301 38.593 90.7301 38.0267V23.7616C90.7301 23.3319 90.3775 22.9818 89.9446 22.9818H87.5927C86.9925 22.9818 86.6314 23.2857 86.4167 23.6589L81.743 31.9268Z" fill="#101010"/>
<path d="M12 30.8802C12 38.6081 19.9632 39 21.56 39C26.8444 39 29.0775 37.5826 29.1702 37.5213C29.5008 37.3357 29.9032 36.9614 29.9032 36.2601V30.926C29.9032 30.4346 29.5 30.0343 29.0045 30.0343H22.3657C21.8694 30.0343 21.5436 30.4346 21.5436 30.926V31.4784C21.5436 31.9706 21.8694 32.372 22.3657 32.372H26.2057C26.5764 32.372 26.8777 32.6707 26.8777 33.0387C26.8777 33.0387 26.8741 35.3768 26.8741 35.5249C26.1154 35.8323 22.6602 36.8343 19.8838 36.1772C15.8564 35.221 15.5427 31.9232 15.5427 30.9352C15.5427 30.106 15.793 25.9523 20.7392 25.5322C24.7428 25.1921 27.3792 26.7966 27.4053 26.8122C27.8759 27.0543 28.363 26.8818 28.6254 26.3872C28.6266 26.3832 29.1249 25.3825 29.1249 25.3825C29.3323 24.9707 29.2625 24.5438 28.7562 24.2029C28.7225 24.1838 25.916 22.6732 21.5608 22.6732C12.268 22.6736 12 30.0403 12 30.8802Z" fill="#101010"/>
<path d="M124.366 36.8368H123.682V36.5919H125.347V36.8368H124.659V38.8237H124.366V36.8368Z" fill="#101010"/>
<path d="M127.659 37.8435C127.642 37.5321 127.622 37.1545 127.622 36.8798H127.615C127.535 37.1378 127.445 37.4194 127.332 37.7276L126.935 38.81H126.714L126.347 37.7475C126.24 37.4297 126.154 37.1446 126.09 36.8798H126.084C126.077 37.1577 126.06 37.5289 126.04 37.8666L125.98 38.8232H125.704L125.86 36.5914H126.231L126.615 37.6711C126.708 37.9459 126.781 38.1912 126.841 38.4225H126.848C126.908 38.1975 126.988 37.9526 127.089 37.6711L127.489 36.5914H127.859L128 38.8232H127.712L127.659 37.8435Z" fill="#101010"/>
<path d="M118.595 19.0265L108.166 19.0261C107.784 19.0261 107.456 18.8374 107.265 18.5088C107.074 18.1803 107.074 17.8043 107.265 17.4758L112.48 8.51612C112.671 8.18797 112.998 8 113.381 8C113.763 8 114.091 8.18797 114.282 8.51612L119.496 17.4762C119.687 17.8047 119.687 18.1811 119.496 18.5096C119.305 18.8378 118.977 19.0265 118.595 19.0265Z" fill="#101010"/>
</g>
<defs>
<clipPath id="clip0_2012_5425">
<rect width="116" height="31" fill="white" transform="translate(12 8)"/>
</clipPath>
</defs>
</svg>
