<svg width="115" height="60" viewBox="0 0 115 60" fill="none" xmlns="http://www.w3.org/2000/svg">
<g clip-path="url(#clip0_2012_5381)">
<mask id="mask0_2012_5381" style="mask-type:luminance" maskUnits="userSpaceOnUse" x="12" y="19" width="91" height="28">
<path d="M103 19H12V47H103V19Z" fill="white"/>
</mask>
<g mask="url(#mask0_2012_5381)">
<path d="M45.0481 29.5594H40.2089C37.9664 29.5594 36.9041 29.2034 36.9041 28.3729V24.5763C36.9041 23.8645 37.9664 23.3899 40.2089 23.3899H45.0481C47.2906 23.3899 48.3529 23.7458 48.3529 24.5763V28.3729C48.3529 29.2034 47.2906 29.5594 45.0481 29.5594ZM45.0481 31.339C49.0611 31.339 51.0675 30.2712 51.0675 28.2543V24.695C51.0675 22.5594 49.0611 21.6102 45.0481 21.6102H40.2089C36.1959 21.6102 34.1895 22.678 34.1895 24.695V28.2543C34.1895 30.3899 36.1959 31.339 40.2089 31.339H45.0481Z" fill="#101010"/>
</g>
<mask id="mask1_2012_5381" style="mask-type:luminance" maskUnits="userSpaceOnUse" x="12" y="19" width="91" height="28">
<path d="M103 19H12V47H103V19Z" fill="white"/>
</mask>
<g mask="url(#mask1_2012_5381)">
<path d="M96.9807 29.5594H92.1415C89.899 29.5594 88.8367 29.2034 88.8367 28.3729V24.5763C88.8367 23.8645 89.899 23.3899 92.1415 23.3899H96.9807C99.2232 23.3899 100.286 23.7458 100.286 24.5763V28.3729C100.286 29.2034 99.2232 29.5594 96.9807 29.5594ZM96.9807 31.339C100.994 31.339 103 30.2712 103 28.2543V24.695C103 22.5594 100.994 21.6102 96.9807 21.6102H92.1415C88.1286 21.6102 86.1221 22.678 86.1221 24.695V28.2543C86.1221 30.3899 88.1286 31.339 92.1415 31.339H96.9807Z" fill="#101010"/>
</g>
<mask id="mask2_2012_5381" style="mask-type:luminance" maskUnits="userSpaceOnUse" x="12" y="19" width="91" height="28">
<path d="M103 19H12V47H103V19Z" fill="white"/>
</mask>
<g mask="url(#mask2_2012_5381)">
<path d="M31.4747 28.2542V25.7627C31.4747 25.2881 31.1206 25.0508 30.4125 25.0508H24.511C23.9209 25.0508 23.5668 25.5254 23.5668 26C23.5668 26.4746 24.0389 26.9492 24.511 26.9492H28.524V28.2542C28.524 28.6102 28.0519 29.0847 27.1077 29.2034C26.3995 29.4407 25.8093 29.4407 25.2192 29.4407H18.7276C16.131 29.4407 14.8327 28.9661 14.8327 28.1356V22.0847C14.8327 21.2542 16.3671 20.8983 19.4358 20.8983H21.2062C21.9144 20.8983 22.2685 20.5424 22.2685 19.9492C22.3865 19.3559 22.0324 19 21.3243 19H18.7276C17.1933 19 15.7769 19.1186 14.4786 19.5932C12.9442 20.0678 12 20.8983 12 22.0847V28.2542C12 29.4407 12.8262 30.2712 14.3606 30.7458C15.5409 31.1017 16.9572 31.339 18.7276 31.339H25.2192C26.7536 31.339 28.1699 31.1017 29.2322 30.7458C30.6485 30.1525 31.4747 29.322 31.4747 28.2542Z" fill="#101010"/>
</g>
<mask id="mask3_2012_5381" style="mask-type:luminance" maskUnits="userSpaceOnUse" x="12" y="19" width="91" height="28">
<path d="M103 19H12V47H103V19Z" fill="white"/>
</mask>
<g mask="url(#mask3_2012_5381)">
<path d="M70.7781 23.8644C70.7781 24.8136 69.4798 25.1695 67.0012 25.1695H56.8508V20.7797H67.0012C69.4798 20.7797 70.7781 21.0169 70.7781 22.0847V23.8644ZM71.1322 19.4746C69.9519 19.2373 68.6536 19 67.0012 19H54.8443C54.3722 19 54.0181 19.3559 54.0181 19.8305V30.6271C54.0181 31.2203 54.3722 31.4576 55.0803 31.4576H55.9065C56.6147 31.4576 56.9688 31.2203 56.9688 30.6271V26.9492H67.1192C68.8897 26.9492 70.188 26.7119 71.3683 26.3559C72.9026 25.7627 73.7288 24.9322 73.7288 23.6271V21.7288C73.6108 20.7797 72.7846 20.0678 71.1322 19.4746Z" fill="#101010"/>
</g>
<mask id="mask4_2012_5381" style="mask-type:luminance" maskUnits="userSpaceOnUse" x="12" y="19" width="91" height="28">
<path d="M103 19H12V47H103V19Z" fill="white"/>
</mask>
<g mask="url(#mask4_2012_5381)">
<path d="M83.1711 21.6102C80.6925 21.6102 79.6302 21.6102 78.0958 22.2034C76.6795 22.7967 76.0894 23.7458 76.0894 24.695V30.6272C76.0894 31.1018 76.4434 31.4577 77.0336 31.4577H77.8598C78.4499 31.4577 78.804 31.2204 78.804 30.6272V24.695C78.804 23.8645 79.8663 23.5085 81.9908 23.5085H83.1711C83.8792 23.5085 84.2333 23.1526 84.2333 22.5594C84.1153 21.9662 83.7612 21.6102 83.1711 21.6102Z" fill="#101010"/>
</g>
<path d="M31.7108 34.4237H12V47H31.7108V34.4237Z" fill="#101010"/>
<path d="M55.4344 34.4237H35.7236V47H55.4344V34.4237Z" fill="#101010"/>
<path d="M79.158 34.4237H59.4473V47H79.158V34.4237Z" fill="#101010"/>
<path d="M102.882 34.4237H83.1714V47H102.882V34.4237Z" fill="#101010"/>
</g>
<defs>
<clipPath id="clip0_2012_5381">
<rect width="91" height="28" fill="white" transform="translate(12 19)"/>
</clipPath>
</defs>
</svg>
