<svg width="240" height="60" viewBox="0 0 240 60" fill="none" xmlns="http://www.w3.org/2000/svg">
<path fill-rule="evenodd" clip-rule="evenodd" d="M23.1239 23.4156C23.9019 23.7401 24.541 24.2364 25.0424 24.9035C25.4664 25.4695 25.7258 26.0512 25.8204 26.6485C25.9138 27.2471 25.9617 28.223 25.9617 29.5763V38.4772H21.8408V29.2734C21.8408 28.4597 21.6982 27.8023 21.4168 27.3011C21.0493 26.5993 20.3512 26.2471 19.3238 26.2471C18.2582 26.2471 17.4507 26.5969 16.8989 27.2951C16.3471 27.9946 16.0718 28.9922 16.0718 30.2866V38.4772H12V18H16.0718V25.3109C16.6568 24.4239 17.3327 23.8062 18.1009 23.4552C18.8605 23.1072 19.6894 22.9279 20.5282 22.93C21.4807 22.9288 22.3459 23.0911 23.1239 23.4156ZM34.7198 29.2061C35.4744 29.1124 36.0152 28.9946 36.3409 28.8539C36.9234 28.6112 37.2147 28.2314 37.2147 27.717C37.2147 27.0896 36.991 26.6558 36.5436 26.4166C36.0963 26.1786 35.44 26.0584 34.5735 26.0584C33.6014 26.0584 32.9131 26.2892 32.5087 26.7543C32.2212 27.098 32.0282 27.5608 31.9323 28.1449H28.0056C28.0916 26.8336 28.4726 25.7568 29.1523 24.9119C30.2314 23.591 32.0847 22.93 34.7124 22.93C36.422 22.93 37.9398 23.2509 39.2684 23.8891C40.597 24.5297 41.2606 25.77 41.2606 27.6124V34.6253C41.2606 35.112 41.2692 35.7009 41.2889 36.3932C41.3159 36.9136 41.3958 37.2657 41.5261 37.4508C41.6564 37.6359 41.853 37.7897 42.1136 37.9099V38.4796H37.7321C37.6175 38.2056 37.5319 37.9209 37.4765 37.6299C37.4242 37.3305 37.3861 37.0289 37.3622 36.7261C36.798 37.3246 36.1454 37.8366 35.4093 38.2561C34.528 38.7524 33.5313 39 32.4215 39C31.0032 39 29.8332 38.6034 28.9077 37.8126C27.9847 37.0217 27.5226 35.8992 27.5226 34.4474C27.5226 32.5653 28.2637 31.2024 29.7459 30.3587C30.5571 29.8996 31.7529 29.5727 33.331 29.3756L34.7198 29.2061ZM37.1999 31.0666C36.9515 31.2214 36.688 31.3519 36.4134 31.456C36.0581 31.5776 35.6931 31.6697 35.322 31.7312L34.399 31.9007C33.5325 32.0521 32.9131 32.2348 32.5395 32.4511C31.9065 32.8189 31.5907 33.3885 31.5907 34.1601C31.5907 34.8476 31.7861 35.344 32.1757 35.6504C32.5641 35.9557 33.0385 36.1083 33.5952 36.1083C34.4789 36.1083 35.2937 35.8547 36.0385 35.3464C36.7833 34.838 37.1704 33.9114 37.1987 32.5653L37.1999 31.0666ZM53.4612 22.9408C53.5128 22.9492 53.6296 22.9601 53.8102 22.9757V27.0055C53.42 26.9767 53.029 26.9606 52.6377 26.9574C50.9994 26.9574 49.8982 27.4778 49.3366 28.5174C49.0219 29.1015 48.8646 30.0017 48.8646 31.218V38.476H44.7929V23.3086H48.6704V25.9455C49.296 24.9311 49.8429 24.2376 50.3075 23.8651C51.067 23.2413 52.0539 22.93 53.2682 22.93C53.3444 22.9288 53.4083 22.9336 53.4612 22.9408ZM75.5713 23.3206C76.2424 23.5814 76.8508 24.0393 77.3977 24.6907C77.8389 25.2207 78.1351 25.8721 78.2887 26.6437C78.3846 27.1557 78.4325 27.9045 78.4325 28.8912L78.4043 38.4772H74.2157V28.7818C74.2157 28.2049 74.1186 27.7302 73.9269 27.3564C73.5607 26.6485 72.8871 26.294 71.9064 26.294C70.7708 26.294 69.9866 26.7507 69.5528 27.6641C69.3316 28.1473 69.221 28.7302 69.221 29.4092V38.4772H65.1492V29.4152C65.1492 28.5126 65.0533 27.8564 64.8628 27.4454C64.5187 26.711 63.844 26.3421 62.8399 26.3421C61.6723 26.3421 60.8882 26.711 60.4863 27.4454C60.2663 27.8648 60.1557 28.4886 60.1557 29.3167V38.4784H56.0839V23.3086H59.9615V25.5068C60.4666 24.7172 60.9447 24.1559 61.3933 23.8218C62.186 23.2281 63.2123 22.93 64.472 22.93C65.6654 22.93 66.629 23.186 67.3639 23.6968C67.9551 24.1715 68.4037 24.7785 68.7097 25.5224C69.2468 24.6306 69.9129 23.9756 70.7081 23.5586C71.5524 23.1403 72.4914 22.9312 73.5262 22.9312C74.2272 22.9315 74.9215 23.0637 75.5713 23.3206ZM86.4298 29.2061C87.1844 29.1124 87.7252 28.9946 88.0496 28.8539C88.6334 28.6112 88.9247 28.2314 88.9247 27.717C88.9247 27.0896 88.6998 26.6558 88.2524 26.4166C87.8051 26.1786 87.1475 26.0584 86.2823 26.0584C85.3101 26.0584 84.6219 26.2892 84.2175 26.7543C83.9287 27.098 83.737 27.5608 83.6411 28.1449H79.7144C79.8004 26.8336 80.1826 25.7568 80.8611 24.9119C81.9402 23.591 83.7947 22.93 86.4212 22.93C88.1308 22.93 89.6486 23.2509 90.9772 23.8891C92.3045 24.5297 92.9694 25.77 92.9694 27.6124V34.6253C92.9694 35.112 92.978 35.7009 92.9977 36.3932C93.0247 36.9136 93.1046 37.2657 93.2349 37.4508C93.3652 37.6359 93.5618 37.7897 93.8224 37.9099V38.4796H89.4397C89.3245 38.2058 89.2389 37.921 89.184 37.6299C89.1323 37.3305 89.0945 37.0289 89.071 36.7261C88.5056 37.3246 87.8542 37.8366 87.118 38.2561C86.2356 38.7524 85.2401 39 84.129 39C82.712 39 81.5407 38.6034 80.6165 37.8126C79.6935 37.0217 79.2314 35.8992 79.2314 34.4474C79.2314 32.5653 79.9725 31.2024 81.4547 30.3587C82.2658 29.8996 83.4617 29.5727 85.0397 29.3756L86.4298 29.2061ZM88.9112 31.0666C88.6626 31.2212 88.3992 31.3516 88.1246 31.456C87.7698 31.5775 87.4051 31.6695 87.0345 31.7312L86.1102 31.9007C85.2438 32.0521 84.6243 32.2348 84.2507 32.4511C83.619 32.8189 83.3031 33.3885 83.3031 34.1601C83.3031 34.8476 83.4986 35.344 83.8869 35.6504C84.2765 35.9557 84.7497 36.1083 85.3077 36.1083C86.1837 36.1111 87.0384 35.8445 87.751 35.3464C88.4958 34.838 88.8829 33.9114 88.9124 32.5653L88.9112 31.0666ZM108.996 24.1667C110.007 24.9924 110.514 26.3553 110.514 28.2578V38.4772H106.296V29.2518C106.296 28.4549 106.19 27.842 105.977 27.4153C105.59 26.6353 104.852 26.2459 103.764 26.2459C102.427 26.2459 101.509 26.8168 101.011 27.9574C100.753 28.5595 100.624 29.3311 100.624 30.2673V38.476H96.552V23.3086H100.479V25.5452C100.996 24.7616 101.485 24.198 101.947 23.8518C102.775 23.2377 103.824 22.9288 105.095 22.9288C106.683 22.9288 107.984 23.341 108.996 24.1667ZM129.394 18H133.37V29.0787L138.372 23.4035H143.387L137.904 29.0438L143.598 38.4784H138.73L135.035 31.998L133.37 33.713V38.4784H129.394V18ZM151.735 29.2061C152.489 29.1124 153.029 28.9946 153.355 28.8539C153.939 28.6112 154.229 28.2314 154.229 27.717C154.229 27.0896 154.005 26.6558 153.557 26.4166C153.111 26.1786 152.453 26.0584 151.585 26.0584C150.613 26.0584 149.926 26.2892 149.521 26.7543C149.233 27.098 149.04 27.5608 148.944 28.1449H145.017C145.103 26.8336 145.486 25.7568 146.165 24.9119C147.243 23.591 149.097 22.93 151.724 22.93C153.434 22.93 154.953 23.2509 156.28 23.8891C157.608 24.5297 158.272 25.77 158.272 27.6124V34.6253C158.272 35.112 158.282 35.7009 158.301 36.3932C158.327 36.9136 158.406 37.2657 158.535 37.4508C158.667 37.6359 158.862 37.7897 159.124 37.9099V38.4796H154.744C154.619 38.1779 154.535 37.8955 154.487 37.6299C154.439 37.3643 154.401 37.0626 154.374 36.7261C153.807 37.3246 153.157 37.8366 152.42 38.2561C151.539 38.7524 150.543 39 149.431 39C148.013 39 146.844 38.6034 145.92 37.8126C144.995 37.0217 144.532 35.8992 144.532 34.4474C144.532 32.5653 145.274 31.2024 146.755 30.3587C147.569 29.8996 148.765 29.5727 150.342 29.3756L151.735 29.2061ZM154.215 31.0666C153.967 31.2214 153.703 31.3519 153.428 31.456C153.163 31.5545 152.801 31.6459 152.338 31.7312L151.413 31.9007C150.547 32.0521 149.927 32.2348 149.555 32.4511C148.921 32.8189 148.607 33.3885 148.607 34.1601C148.607 34.8476 148.802 35.344 149.191 35.6504C149.58 35.9557 150.053 36.1083 150.612 36.1083C151.496 36.1083 152.309 35.8547 153.053 35.3464C153.799 34.838 154.186 33.9114 154.214 32.5653V31.0666H154.215ZM169.893 22.9408C169.946 22.9492 170.061 22.9601 170.243 22.9757V27.0055C169.853 26.9768 169.461 26.9607 169.069 26.9574C167.432 26.9574 166.33 27.4778 165.768 28.5174C165.454 29.1015 165.298 30.0017 165.298 31.218V38.476H161.225V23.3086H165.103V25.9455C165.728 24.9311 166.275 24.2376 166.74 23.8651C167.499 23.2413 168.486 22.93 169.7 22.93C169.777 22.9288 169.84 22.9336 169.893 22.9408ZM179.655 23.5333C180.385 23.936 180.977 24.4948 181.433 25.2087V18H185.506V38.4784H181.628V36.428C181.049 37.327 180.386 37.9808 179.645 38.3883C178.904 38.7957 177.981 39 176.877 39C175.06 39 173.531 38.2813 172.291 36.8403C171.052 35.4017 170.43 33.5556 170.43 31.3009C170.43 28.7013 171.04 26.657 172.259 25.1667C173.478 23.6764 175.108 22.93 177.149 22.93C178.089 22.9288 178.925 23.1307 179.655 23.5333ZM180.683 34.4161C181.28 33.5736 181.58 32.4823 181.58 31.1399C181.58 29.2662 181.093 27.9261 180.116 27.1209C179.551 26.6414 178.826 26.3814 178.078 26.3901C176.895 26.3901 176.028 26.8336 175.476 27.7194C174.925 28.604 174.648 29.7025 174.648 31.0149C174.648 32.4295 174.931 33.5616 175.495 34.4101C176.059 35.2574 176.916 35.6817 178.063 35.6817C179.214 35.6817 180.085 35.2598 180.683 34.4161ZM200.952 36.6299C199.644 38.2092 197.655 39 194.991 39C192.324 39 190.337 38.2104 189.028 36.6299C187.719 35.0495 187.064 33.1494 187.064 30.9247C187.064 28.7386 187.719 26.8432 189.028 25.24C190.337 23.6367 192.324 22.8351 194.991 22.8351C197.655 22.8351 199.643 23.6367 200.952 25.24C202.262 26.842 202.918 28.7386 202.918 30.9247C202.918 33.1482 202.262 35.0495 200.952 36.6299ZM197.743 34.439C198.382 33.6121 198.7 32.4343 198.7 30.9091C198.7 29.384 198.38 28.211 197.743 27.3865C197.104 26.5644 196.189 26.1522 194.999 26.1522C193.81 26.1522 192.892 26.5644 192.249 27.3865C191.606 28.211 191.284 29.3852 191.284 30.9091C191.284 32.4331 191.606 33.6109 192.249 34.439C192.892 35.267 193.81 35.6805 194.999 35.6805C196.189 35.6805 197.104 35.2682 197.743 34.439ZM218.329 24.1667C219.339 24.9924 219.845 26.3553 219.845 28.2578V38.4772H215.627V29.2518C215.627 28.4549 215.522 27.842 215.308 27.4153C214.922 26.6353 214.185 26.2459 213.094 26.2459C211.757 26.2459 210.84 26.8168 210.341 27.9574C210.084 28.5595 209.955 29.3311 209.955 30.2673V38.476H205.885V23.3086H209.809V25.5452C210.328 24.7616 210.817 24.198 211.278 23.8518C212.106 23.2377 213.155 22.9288 214.425 22.9288C216.015 22.9288 217.315 23.341 218.329 24.1667ZM227.078 23.9768C226.796 24.2516 226.46 24.4682 226.091 24.614C225.721 24.7597 225.326 24.8316 224.927 24.8253C224.063 24.8253 223.333 24.5357 222.743 23.9564C222.151 23.3771 221.855 22.6656 221.855 21.8207C221.855 20.9433 222.174 20.2138 222.812 19.6321C223.381 19.1002 224.14 18.8073 224.927 18.8161C225.774 18.8161 226.497 19.1093 227.1 19.697C227.7 20.2835 228 20.9914 228 21.8207C228 22.6752 227.693 23.3927 227.078 23.9768ZM223.132 20.078C222.897 20.306 222.711 20.5778 222.585 20.8773C222.459 21.1769 222.396 21.4981 222.399 21.8219C222.399 22.5178 222.649 23.1103 223.143 23.5982C223.637 24.085 224.233 24.3278 224.929 24.3278C225.624 24.3278 226.22 24.0826 226.712 23.5934C226.951 23.3621 227.14 23.086 227.267 22.7816C227.394 22.4771 227.457 22.1507 227.452 21.8219C227.452 21.1525 227.21 20.5696 226.717 20.078C226.489 19.8376 226.212 19.6466 225.904 19.5172C225.596 19.3879 225.264 19.323 224.929 19.3269C224.227 19.3269 223.626 19.5768 223.132 20.078ZM223.576 23.4865V20.1561L224.523 20.1573L225.224 20.1633C225.495 20.1826 225.718 20.2391 225.896 20.334C226.198 20.4975 226.349 20.7619 226.349 21.1296C226.349 21.4097 226.271 21.6116 226.112 21.7378C225.942 21.8672 225.737 21.9453 225.522 21.9625C225.736 22.007 225.897 22.0707 226.005 22.156C226.202 22.3135 226.303 22.5622 226.303 22.9V23.198C226.303 23.2305 226.305 23.2629 226.31 23.2954C226.313 23.3278 226.322 23.3603 226.332 23.3939L226.363 23.4865H225.52C225.486 23.3359 225.468 23.1826 225.465 23.0286C225.467 22.8914 225.449 22.7546 225.412 22.6223C225.391 22.566 225.357 22.5149 225.314 22.4727C225.27 22.4306 225.218 22.3983 225.16 22.3784C225.062 22.3459 224.96 22.3281 224.857 22.3255L224.661 22.3135H224.471V23.4865H223.576ZM225.203 20.8075C225.036 20.7538 224.862 20.7298 224.687 20.7366H224.47V21.7089H224.817C225.026 21.7089 225.187 21.6693 225.304 21.5863C225.419 21.5046 225.477 21.3712 225.477 21.1885C225.477 21.0058 225.386 20.8784 225.203 20.8075ZM126.416 18H125.583L113.391 38.4784H114.224L126.416 18Z" fill="#101010"/>
</svg>
