<svg width="129" height="60" viewBox="0 0 129 60" fill="none" xmlns="http://www.w3.org/2000/svg">
<g clip-path="url(#clip0_2012_5410)">
<mask id="mask0_2012_5410" style="mask-type:luminance" maskUnits="userSpaceOnUse" x="12" y="20" width="105" height="21">
<path d="M116.833 20H12V40.8377H116.833V20Z" fill="white"/>
</mask>
<g mask="url(#mask0_2012_5410)">
<path d="M15.68 20C15.8705 20 16.0428 20.0817 16.1678 20.2132C16.2927 20.3447 16.3703 20.5261 16.3703 20.7265V39.6827C16.3703 39.8832 16.2927 40.0645 16.1678 40.1961C16.0428 40.3276 15.8705 40.4092 15.68 40.4092H12.6903C12.5079 40.4092 12.3416 40.3339 12.2177 40.212C12.0836 40.0794 12 39.8917 12 39.6827V20.7265C12 20.5271 12.0766 20.3468 12.1995 20.2153C12.3225 20.0838 12.4978 20 12.6903 20H15.68Z" fill="#101010"/>
<path d="M99.6981 28.2749C98.8688 27.7064 96.9744 27.2928 95.6372 27.2641C94.1418 27.2334 92.3532 27.7902 92.3532 27.7902C92.3532 27.7902 92.3633 26.6999 92.4015 25.6563C92.461 23.9306 94.8522 23.5478 96.0745 23.5605C97.3109 23.5732 98.7025 23.9508 99.5349 24.217C99.9218 24.3422 100.313 24.059 100.346 23.6347L100.51 21.5167C100.527 21.2293 100.372 20.9556 100.114 20.8464C98.897 20.3341 97.4037 20.0764 95.8065 20.0594C94.9439 20.051 93.3629 19.9428 91.7597 20.6375C90.5756 21.155 88.6933 22.4522 88.6711 24.829C88.6489 27.1453 88.6348 28.7193 88.6147 30.7928C88.5895 33.4263 88.5945 32.9119 88.5754 35.0161C88.5643 36.1817 89.0329 38.3814 90.2884 39.3932C91.9017 40.6967 93.3961 40.8187 94.8915 40.8335C96.5169 40.8505 97.6384 40.8314 99.0119 40.0741C100.761 39.1079 101.498 37.2243 101.56 35.1964C101.616 33.8494 101.578 33.2587 101.517 32.1535C101.47 31.1088 101.628 29.5964 99.6981 28.2749ZM97.3633 36.4246C96.8827 37.0853 95.7883 37.2253 94.954 37.2169C94.1055 37.2084 93.2873 37.0779 92.7472 36.3769C92.193 35.6896 92.3008 34.874 92.3119 33.7837C92.325 32.4367 92.332 31.6041 92.332 31.6041C92.332 31.6041 93.7619 30.9678 95.0991 31.0272C95.8901 31.0653 96.7809 31.0749 97.322 31.7166C97.8631 32.3434 97.9004 32.8885 97.8893 34.069C97.8793 35.1285 97.8591 35.7638 97.3633 36.4246Z" fill="#101010"/>
<path d="M86.3774 33.2067C86.3865 32.2383 85.9139 30.4926 84.2795 29.9146C83.8784 29.7746 83.6487 29.6961 83.4622 29.6939C83.9238 29.5168 84.3722 29.2644 84.9818 28.6652C85.5774 28.0659 85.8736 27.1156 85.8847 25.9193C85.8928 25.0718 85.8877 25.617 85.8938 24.935C85.9099 23.2243 85.2045 21.7341 83.7887 20.9015C82.6732 20.2545 81.1365 20.0265 79.7409 20.0117C76.8932 19.982 74.901 20.7785 74.0616 21.2992C73.8591 21.4329 73.7422 21.6588 73.7543 21.9165L73.8923 24.0526C73.9165 24.5065 74.3599 24.7993 74.764 24.6221C75.7172 24.2085 77.3476 23.605 78.9015 23.5902C79.6492 23.5827 80.7274 23.6241 81.2715 23.8723C81.8872 24.1364 82.2702 24.7006 82.2651 25.2903C82.2732 25.9415 82.2742 25.8355 82.2702 26.2438C82.2621 27.1368 81.9578 27.3458 81.6817 27.6003C81.2897 27.9599 80.5702 28.0585 79.7056 28.155C79.1584 28.225 77.8344 28.3024 76.6977 28.3205C76.3521 28.3321 76.076 28.6164 76.0729 28.9802L76.0387 31.1289C76.0357 31.4927 76.3057 31.7982 76.6654 31.8014C77.658 31.812 79.0093 31.8565 80.015 31.9721C81.3794 32.1376 82.5553 32.5438 82.5442 33.7391C82.5332 34.9196 82.5493 33.2088 82.5322 34.98C82.515 36.7512 81.0458 36.993 78.8602 36.9697C77.4363 36.9549 75.8029 36.2867 74.8436 35.8232C74.4425 35.6376 73.98 35.9197 73.9467 36.3736L73.7674 38.6571C73.7502 38.8989 73.8631 39.1429 74.0495 39.2808C74.7499 39.757 76.5808 40.8059 79.1695 40.8324C81.0247 40.8515 83.3584 40.4368 84.5898 39.5109C85.0241 39.1821 86.3311 37.9094 86.3492 35.9717C86.3583 35.0033 86.3512 35.7744 86.3623 34.5483C86.3734 33.3827 86.3674 34.0488 86.3754 33.2014L86.3774 33.2067Z" fill="#101010"/>
<path d="M69.8268 25.338C68.5823 24.6433 67.1474 24.2955 65.5361 24.2795C63.293 24.2562 61.1185 24.5362 59.8327 25.1736C59.6019 25.2924 59.4548 25.548 59.4669 25.8206L59.5606 28.0617C59.5848 28.5156 60.014 28.8232 60.4181 28.6758C61.4721 28.2632 63.3182 27.7223 65.0726 27.7095C66.2516 27.7064 66.8552 27.8336 67.2693 28.0808C67.6845 28.3268 67.8538 28.6015 67.8477 29.2368C67.8427 29.7671 67.8346 30.6294 67.8346 30.6294C67.8346 30.6294 65.7941 30.4565 64.8015 30.5074C63.4492 30.5838 62.1674 30.7376 60.7507 31.4789C59.5797 32.0877 58.6365 32.9712 58.6184 34.8782C58.6103 35.7404 58.6083 35.9833 58.5993 36.8912C58.5872 38.2233 59.353 39.2914 60.4121 39.862C61.5709 40.4792 62.8769 40.8112 65.2933 40.8367C68.6005 40.8717 70.6712 39.4398 71.3383 38.8862C71.4975 38.7664 71.5862 38.5712 71.5882 38.3591L71.6749 29.1711C71.6779 27.2938 71.0713 26.0158 69.8268 25.337V25.338ZM67.1887 36.6791C66.4793 37.1861 65.4142 37.2656 64.5798 37.273C63.7314 37.2794 62.7408 37.0567 62.371 36.6292C62.0435 36.2623 62.1745 36.1583 62.1795 35.628C62.1866 34.8559 62.5091 34.2694 63.2598 33.9745C64.0105 33.6648 65.0887 33.6754 65.7649 33.668C66.9872 33.65 67.8487 33.8261 67.8487 33.8261L67.8417 34.5218C67.8286 35.8836 67.8981 36.1721 67.1887 36.6801V36.6791Z" fill="#101010"/>
<path d="M42.8109 30.8372C40.9719 30.5912 39.2639 30.255 38.7923 29.9622C38.3207 29.6547 38.3882 28.6259 38.6784 28.2653C39.1006 27.7551 40.9689 27.8803 42.0461 28.0128C43.4105 28.1783 44.4867 28.4774 45.1608 28.7118C45.5619 28.8518 45.968 28.5686 46.0153 28.1306L46.2662 25.9531C46.2985 25.636 46.1282 25.3306 45.842 25.2224C44.3516 24.6465 43.2331 24.3018 40.8026 24.2763C39.7385 24.2657 38.5152 24.3739 37.4037 24.7854C35.6282 25.4335 35.1133 26.7295 34.9873 27.8781C34.9248 28.453 34.8785 28.7394 34.8714 29.4818C34.8593 30.7227 35.0951 31.725 35.7501 32.3825C36.4051 33.055 37.8531 33.5853 40.065 33.9257C42.033 34.2185 42.4905 34.4656 42.8331 34.7265C43.3047 35.0945 43.2493 36.3354 42.9298 36.6197C42.4078 37.0831 41.1986 37.1765 39.7325 37.0556C38.2663 36.9347 36.7175 36.4489 35.8005 36.1212C35.3853 35.9653 34.951 36.2633 34.9178 36.7172L34.7525 38.971C34.7354 39.2436 34.8623 39.5024 35.0911 39.6254C36.2499 40.2883 38.7903 40.8144 40.7895 40.8356C42.9903 40.8589 44.7195 40.4071 45.6767 39.5544C46.764 38.5966 46.9051 37.3875 46.9202 35.8136C46.9313 34.6183 46.9595 33.1494 46.234 32.3401C45.5216 31.5913 44.7638 31.0981 42.8109 30.8362V30.8372Z" fill="#101010"/>
<path d="M56.0364 36.7639C54.8745 37.2041 54.1238 37.2041 53.6441 36.7321C53.4879 36.5634 53.4184 36.2909 53.4245 35.6397L53.5051 28.6651L55.9215 28.6906C56.2953 28.6948 56.6007 28.3798 56.6037 27.9863L56.64 25.6551C56.644 25.2765 56.3588 24.9562 55.985 24.9519L53.5101 24.9265L53.5081 21.9334C53.5121 21.5548 53.2128 21.2345 52.8531 21.2303L49.949 21.1995C49.5892 21.1953 49.2849 21.5103 49.2769 22.2824L49.3383 36.7915C49.3323 37.3971 49.2043 38.7727 50.1737 39.6763C51.1431 40.58 52.4924 40.8822 53.8578 40.8334C54.938 40.7953 55.6696 40.6934 56.3467 40.4463C56.6531 40.3339 56.8969 40.0889 56.8858 39.74L56.8072 37.4384C56.782 37.0142 56.4082 36.6239 56.0374 36.7639H56.0364Z" fill="#101010"/>
<path d="M28.1905 39.6636C28.1864 40.0422 28.4716 40.3933 28.8455 40.3975L31.7294 40.3922C32.0892 40.3965 32.3945 40.0666 32.3975 39.6721" fill="#101010"/>
<path d="M31.1731 26.0169C30.243 25.1588 28.9028 24.7982 27.76 24.5225C26.8461 24.3019 24.2443 24.3199 23.027 24.6699C20.8837 25.2861 19.7782 26.0285 19.3721 26.4178C19.2411 26.5525 19.1535 26.7338 19.1515 26.9301L19.1484 39.6467C19.1484 40.0476 19.4568 40.3732 19.8387 40.3732H22.6592C23.0401 40.3732 23.3494 40.0487 23.3494 39.6467C23.3494 39.6467 23.3424 29.8913 23.3424 29.5169C23.3424 28.4266 24.5929 28.1211 25.916 28.1211C26.9237 28.1211 28.1893 28.4266 28.1893 29.5678C28.1893 29.9517 28.1843 39.6584 28.1843 39.6584C28.1843 40.0593 28.4936 40.3849 28.8745 40.3849H31.7142C32.0951 40.3849 32.4044 40.0604 32.4044 39.6584C32.4044 39.6584 32.4185 29.676 32.4185 29.0481C32.4185 27.3352 32.0245 26.7996 31.1761 26.0169H31.1731Z" fill="#101010"/>
<path d="M116.833 26.2161C116.86 23.2496 115.881 22.0883 114.925 21.3819C113.777 20.5239 111.926 20.0339 110.31 20.0116C108.698 20.0328 106.946 20.5239 105.797 21.3819C104.841 22.0883 103.862 23.2496 103.889 26.2161C103.904 27.8378 103.904 33.021 103.889 34.6342C103.862 37.6007 104.841 38.762 105.797 39.4684C106.946 40.3264 108.796 40.8164 110.412 40.8387C112.024 40.8175 113.777 40.3264 114.925 39.4684C115.881 38.762 116.86 37.6007 116.833 34.6342C116.818 33.0199 116.818 27.8367 116.833 26.2161ZM112.436 36.6589C112.008 37.082 111.04 37.2836 110.362 37.2952C109.683 37.2836 108.715 37.081 108.286 36.6589C107.809 36.1848 107.771 35.7457 107.787 34.0349C107.795 33.1387 107.795 27.701 107.787 26.8143C107.771 25.1036 107.809 24.6645 108.286 24.1904C108.714 23.7672 109.682 23.5657 110.361 23.554C111.039 23.5657 112.007 23.7683 112.436 24.1904C112.913 24.6645 112.951 25.1036 112.935 26.8143C112.927 27.6999 112.927 33.1387 112.935 34.0349C112.951 35.7457 112.913 36.1848 112.436 36.6589Z" fill="#101010"/>
</g>
</g>
<defs>
<clipPath id="clip0_2012_5410">
<rect width="105" height="21" fill="white" transform="translate(12 20)"/>
</clipPath>
</defs>
</svg>
