<svg width="171" height="70" viewBox="0 0 171 70" fill="none" xmlns="http://www.w3.org/2000/svg">
<path d="M48.9804 36.151C44.1816 33.3528 39.3827 30.5491 34.57 27.77C34.3797 27.6607 33.9909 27.7181 33.7757 27.841C30.9985 29.4314 28.2378 31.0492 25.4715 32.6614C23.5933 33.7545 21.7207 34.8503 19.8342 35.927C19.666 36.0226 19.3709 36.0937 19.2302 36.0144C17.1949 34.8503 15.176 33.6561 13.1544 32.4674C13.102 32.4374 13.0772 32.3608 13 32.2461C13.9322 31.6995 14.8506 31.1585 15.769 30.6229C21.7565 27.1387 27.7468 23.6573 33.7261 20.1595C34.0957 19.9436 34.3715 19.9518 34.7217 20.1541C40.6183 23.6027 46.5175 27.0458 52.4196 30.489C53.4373 31.082 54.466 31.664 55.5913 32.3089C53.3352 33.6151 51.1509 34.8804 48.9666 36.1456L48.9832 36.1538L48.9804 36.151Z" fill="#EBEBF5" fill-opacity="0.3"/>
<path d="M48.9611 36.1428C51.1178 37.3999 53.2773 38.6596 55.5747 39.9986C50.3401 43.0455 45.2213 46.0269 40.1191 49C34.992 46.0132 29.9008 43.0483 24.6827 40.0096C25.3364 39.6242 25.899 39.2936 26.4616 38.9629C27.8627 38.1404 29.2665 37.3288 30.6592 36.4926C31.0536 36.2549 31.3543 36.192 31.801 36.4598C34.2225 37.9109 36.7019 39.269 39.1014 40.7583C39.8902 41.2474 40.4197 41.1901 41.1754 40.7282C43.7486 39.157 46.3741 37.6704 48.9776 36.151L48.9583 36.1428H48.9611Z" fill="#EBEBF5" fill-opacity="0.3"/>
<path d="M128.495 33.9321C130.012 32.3417 131.391 30.8961 132.77 29.4478C133.556 28.6198 134.337 27.7864 135.128 26.9638C135.23 26.8573 135.393 26.7507 135.531 26.748C136.717 26.7316 137.9 26.737 139.298 26.737C138.134 27.9886 137.103 29.0953 136.071 30.2048C135.032 31.3252 133.995 32.4456 132.922 33.6015C135.153 36.4216 137.362 39.2171 139.671 42.1356C138.264 42.1356 137.031 42.1656 135.801 42.111C135.547 42.1 135.258 41.8104 135.068 41.5808C133.644 39.8593 132.241 38.1186 130.829 36.386C130.757 36.2986 130.677 36.2221 130.561 36.0937C129.916 36.7741 129.276 37.419 128.683 38.0994C128.542 38.2607 128.506 38.553 128.501 38.7853C128.481 39.8757 128.493 40.9632 128.493 42.0946H125.012V26.7425C126.06 26.7425 127.13 26.7261 128.197 26.7671C128.302 26.7726 128.476 27.1333 128.476 27.33C128.498 29.221 128.49 31.1093 128.49 33.0003C128.49 33.2435 128.49 33.4867 128.49 33.9294L128.495 33.9321Z" fill="#EBEBF5" fill-opacity="0.3"/>
<path d="M66.8768 42.0891H63.366V26.8299C63.3963 26.8108 63.4349 26.7616 63.4708 26.7616C66.1349 26.7889 68.8102 26.6714 71.4578 26.8873C75.1893 27.1907 77.2689 30.0927 76.4994 33.6862C76.0057 35.9816 74.3564 37.1485 72.1694 37.6431C71.3723 37.8234 70.5339 37.8562 69.712 37.8917C68.7991 37.9327 67.8863 37.8999 66.8768 37.8999V42.0891ZM66.8879 34.8776C68.2724 34.8776 69.632 34.9951 70.9586 34.8448C72.3211 34.6891 73.0106 33.7326 73.0519 32.3854C73.0905 31.0601 72.4093 30.0353 71.0772 29.8331C69.712 29.6254 68.311 29.6664 66.8906 29.5954V34.8776H66.8879Z" fill="#EBEBF5" fill-opacity="0.3"/>
<path d="M103.858 42.141C104.678 40.3019 105.45 38.564 106.225 36.8233C107.571 33.7928 108.928 30.7704 110.251 27.7317C110.549 27.0458 110.877 26.5949 111.752 26.7179C112.427 26.8135 113.128 26.707 113.815 26.7562C114.027 26.7698 114.33 26.9529 114.413 27.136C116.584 31.9181 118.729 36.7085 120.878 41.4989C120.958 41.6792 121.013 41.8705 121.109 42.1356C119.91 42.1356 118.793 42.1602 117.679 42.111C117.505 42.1028 117.279 41.794 117.188 41.5808C115.674 37.9546 114.179 34.3202 112.678 30.6857C112.637 30.5819 112.565 30.489 112.458 30.3031C111.906 31.6203 111.382 32.8718 110.861 34.1207C109.821 36.6129 108.779 39.1023 107.75 41.6C107.593 41.9771 107.389 42.1656 106.936 42.1492C105.952 42.111 104.964 42.1383 103.861 42.1383L103.858 42.141Z" fill="#EBEBF5" fill-opacity="0.3"/>
<path d="M157.997 42.1383C156.8 42.1383 155.683 42.1547 154.569 42.1192C154.42 42.1137 154.216 41.8787 154.144 41.7065C152.644 38.1213 151.163 34.5306 149.674 30.9426C149.605 30.7786 149.514 30.6229 149.357 30.3113C148.899 31.3962 148.491 32.3581 148.091 33.32C146.965 36.0226 145.835 38.7225 144.731 41.4305C144.516 41.9579 144.252 42.2066 143.631 42.1574C142.724 42.0891 141.805 42.141 140.768 42.141C141.243 41.0616 141.676 40.0724 142.114 39.0859C143.821 35.2465 145.54 31.4099 147.23 27.5623C147.489 26.9748 147.787 26.6496 148.499 26.7206C149.227 26.7944 149.969 26.7042 150.7 26.7562C150.929 26.7726 151.251 26.9748 151.342 27.177C153.502 31.9373 155.636 36.7112 157.774 41.4825C157.854 41.6628 157.903 41.8541 158 42.1383H157.997Z" fill="#EBEBF5" fill-opacity="0.3"/>
<path d="M94.0152 29.6528H89.1584V26.7726H102.479V29.6282H97.6254V42.1356C96.4726 42.1356 95.4218 42.1574 94.3737 42.1055C94.2441 42.1 94.0345 41.6901 94.0345 41.4661C94.0125 38.1213 94.018 34.7738 94.018 31.429C94.018 30.8661 94.018 30.3031 94.018 29.65L94.0152 29.6528Z" fill="#EBEBF5" fill-opacity="0.3"/>
<path d="M81.4361 42.0918V26.7726H84.9305V42.0918H81.4361Z" fill="#EBEBF5" fill-opacity="0.3"/>
</svg>
