<svg width="183" height="60" viewBox="0 0 183 60" fill="none" xmlns="http://www.w3.org/2000/svg">
<path d="M34.4632 31.367V21.1904C34.4632 19.8415 30.9219 20.2845 30.9219 20.5918V42.5414L26.5936 41.3441V17C31.6892 18.5884 39.7161 18.8637 39.9994 25.9754C40.1372 29.3916 38.2209 32.8636 34.4632 31.367Z" fill="#101010"/>
<path d="M31.7129 43.3396C31.8702 42.5654 31.4532 40.2268 31.7561 39.7957C32.0945 39.3168 41.5262 37.2177 42.7381 35.9605L42.4981 34.9549C38.705 34.7194 35.3368 36.9583 31.7129 37.7524C31.8624 36.8824 31.3548 35.1384 31.945 34.5159C34.0265 32.3209 50.3047 32.1772 47.6408 37.3494C47.0034 38.5865 33.9753 42.713 31.7129 43.3396Z" fill="#101010"/>
<path d="M68.1056 22.9863C72.1308 23.8244 72.0246 32.0375 68.322 33.1829C66.9527 33.6059 62.5929 33.578 64.3675 31.7702C64.9381 31.1875 69.0774 33.131 68.3102 27.1687C67.779 23.0342 62.7936 24.6585 62.7936 25.1813V39.7479L60.0393 39.1492V22.9863C62.4001 23.3215 65.9139 22.5314 68.1056 22.9863Z" fill="#101010"/>
<path d="M93.0323 27.0369C93.6501 27.4081 94.9171 34.1566 96.2313 34.9588C96.9395 33.965 98.6984 27.2684 99.0328 27.025C99.4184 26.7456 101.095 27.1128 101.74 26.9811C100.493 29.0603 95.3302 45.4148 94.3937 45.75C90.1127 47.2865 94.3347 41.3242 94.256 39.201C94.1498 36.3875 90.2504 29.8425 90.3409 27.5558C90.3802 26.5381 92.7647 26.8733 93.0284 27.033L93.0323 27.0369Z" fill="#101010"/>
<path d="M88.3697 26.9771V39.7478H85.6153V28.5734C79.9178 25.9515 79.906 37.2017 81.9481 38.0836C82.3455 38.2552 85.7098 38.0038 84.0453 39.7438C83.7857 40.0112 80.9447 39.6401 80.2758 39.3767C76.3529 37.8322 77.9897 26.9771 81.4838 26.9771H88.3697Z" fill="#101010"/>
<path d="M132.439 26.9771V39.7478L129.685 39.1492V28.5734C124.129 26.1111 124.475 37.2455 126.423 38.0677C127.123 38.363 129.28 37.6646 128.5 39.1452C127.769 40.542 123.291 39.8875 122.689 37.465C122.087 35.0426 122.244 26.9771 125.947 26.9771H132.439Z" fill="#101010"/>
<path d="M171 39.7478H168.246V31.1675C168.246 28.5176 165.558 28.334 163.524 28.5734V39.7478H160.77V26.9771H167.655C168.836 26.9771 171 30.3853 171 31.5666V39.7478Z" fill="#101010"/>
<path d="M152.011 27.0769C161.002 25.5444 160.695 39.3168 153.821 39.7199C146.097 40.1708 146.333 28.0467 152.011 27.0769ZM152.798 28.6453C150.189 29.204 150.366 36.3037 151.735 37.5329C156.315 41.6594 157.917 27.5478 152.798 28.6453Z" fill="#101010"/>
<path d="M111.978 22.9863V24.5786C109.794 24.7782 105.99 23.553 105.687 26.8175C105.317 30.8043 109.574 29.4075 111.353 30.6048C113.906 32.3288 113.159 39.7478 109.421 39.7478H103.715V38.1555C105.966 37.9679 109.436 39.1173 109.983 35.9286C110.814 31.1156 107.17 32.8397 104.927 31.5347C101.685 29.647 103.377 22.9863 105.879 22.9863H111.978Z" fill="#101010"/>
<path d="M25.3541 34.4999C25.1141 34.9109 14.5295 37.485 18.9365 38.5546C21.136 39.0893 23.2805 37.0739 25.4131 36.9582C26.8493 41.6315 21.3524 40.7974 18.1928 40.4941C2.68978 39.0015 20.6206 32.5763 25.2243 31.375C25.5076 31.4668 25.5548 34.1606 25.3541 34.5038V34.4999Z" fill="#101010"/>
<path d="M115.126 24.9817C115.224 24.882 117.786 24.878 117.884 24.9817C118.03 25.1294 117.735 26.8335 117.88 26.9811C118.046 27.1528 123.035 26.4823 121.032 28.5735C120.875 28.7371 117.884 28.4178 117.884 28.5735V37.1538C117.884 37.9999 121.752 38.1755 120.245 39.7439C119.387 40.6378 115.13 38.7541 115.13 37.1538C115.13 35.5535 114.701 25.4088 115.13 24.9817H115.126Z" fill="#101010"/>
<path d="M135.193 24.9817C135.292 24.882 137.853 24.878 137.952 24.9817C138.097 25.1294 137.802 26.8335 137.948 26.9811C138.113 27.1528 143.102 26.4823 141.1 28.5735C140.942 28.7371 137.952 28.4178 137.952 28.5735V37.1538C137.952 38.0757 140.198 38.0877 140.281 38.1834C142.449 40.7575 135.197 39.8436 135.197 37.1538C135.197 35.5136 134.768 25.4088 135.197 24.9817H135.193Z" fill="#101010"/>
<path d="M75.7784 22.9863H73.024V39.7478H75.7784V22.9863Z" fill="#101010"/>
<path d="M145.817 26.9771H143.063V39.7478H145.817V26.9771Z" fill="#101010"/>
<path d="M145.821 22.9823H143.059V25.3848H145.821V22.9823Z" fill="#101010"/>
</svg>
