<svg width="125" height="70" viewBox="0 0 125 70" fill="none" xmlns="http://www.w3.org/2000/svg">
<g clip-path="url(#clip0_1030_1752)">
<path d="M89.0625 26.0609V28.1721H90.9726C91.8065 28.1721 92.3545 28.7401 92.6666 29.107C92.9167 29.4092 98.4167 36.1414 98.5484 36.3183C98.6807 36.4956 98.6807 36.4975 98.6807 36.61V39.9458C98.6803 40.0988 98.6662 40.2513 98.6385 40.4013C98.5994 40.4982 98.5412 40.5846 98.4681 40.6548C98.3949 40.7249 98.3085 40.777 98.2148 40.8074C98.0343 40.8319 97.8525 40.8441 97.6706 40.8441L95.7587 40.8415V42.953H106.482V40.8415H104.465C104.284 40.8426 104.103 40.8302 103.924 40.8046C103.831 40.7744 103.744 40.7224 103.672 40.6523C103.599 40.5822 103.541 40.4956 103.503 40.3988C103.474 40.2488 103.46 40.0963 103.459 39.9433V36.6094C103.447 36.4998 103.472 36.3893 103.531 36.2986L109.48 28.9709C110.027 28.3143 110.311 28.1718 111.027 28.1718H113.001V26.0603H104.163V28.1673H105.496C105.568 28.1626 105.639 28.1802 105.702 28.218C105.764 28.2558 105.815 28.3122 105.849 28.3804C105.883 28.4487 105.898 28.526 105.892 28.6031C105.886 28.6802 105.86 28.7538 105.817 28.8153C105.789 28.8584 102.117 33.5199 102.07 33.5652C102.024 33.6105 101.995 33.5996 101.961 33.5502C101.927 33.5005 98.2986 28.8153 98.2986 28.8153C98.0426 28.4762 98.2425 28.1676 98.5428 28.1676H99.8426V26.0606L89.0625 26.0609Z" fill="#EBEBF5" fill-opacity="0.3"/>
<path d="M62.7578 26.061V28.1722H64.4695C65.7055 28.1722 65.7897 28.9152 65.7897 29.5629V39.4451C65.7897 40.0364 65.8216 40.8483 65.0338 40.8483H62.9214V42.9576H71.9396V40.8483H69.7398C68.8617 40.8483 68.8215 40.4148 68.8118 39.4926V31.0267L81.1976 42.9579H84.3476L84.1813 29.4829C84.1976 28.4983 84.2534 28.1703 85.1974 28.1703H87.1713V26.061H77.9714V28.1703H79.9917C80.9197 28.1703 81.0754 28.5566 81.0872 29.4829L81.1976 36.5345L70.4455 26.061H62.7578Z" fill="#EBEBF5" fill-opacity="0.3"/>
<path d="M22.1499 24.9984C20.212 24.9984 18.0102 25.3914 16.15 26.2939C14.4138 27.1316 13 28.4767 13 30.7068C12.9974 31.8749 13.4089 32.9998 14.1501 33.8507C14.6521 34.3515 15.462 35.2022 17.5782 35.703C18.524 35.9191 20.546 36.2666 22.5601 36.4955C24.5738 36.7243 26.5262 36.9274 27.3258 37.1585C27.9621 37.3332 29.0318 37.571 29.0318 38.8664C29.0318 40.1618 27.906 40.5501 27.7099 40.6346C27.5141 40.7187 26.1618 41.3881 23.7338 41.3881C22.1251 41.3399 20.5311 41.0439 19 40.5093C18.0941 40.1593 17.1442 39.6996 16.2581 38.5314C15.9004 37.9814 15.702 37.3292 15.6879 36.6574H13.4881V43.3074H15.9321V42.4072C15.9317 42.3404 15.9479 42.2748 15.9788 42.217C16.0098 42.1592 16.0544 42.1114 16.1082 42.0784C16.162 42.0454 16.2229 42.0285 16.2847 42.0293C16.3466 42.0302 16.4071 42.0489 16.46 42.0833C17.6114 42.6242 18.809 43.0422 20.0358 43.3313C21.3199 43.6204 22.1499 43.8301 23.7459 43.8301C25.4299 43.8646 27.1083 43.6087 28.7177 43.0721C29.7864 42.7559 30.7891 42.2215 31.6716 41.4981C32.1679 41.0865 32.5692 40.5562 32.8437 39.949C33.1182 39.3418 33.2585 38.6741 33.2537 37.9984C33.2622 36.7147 32.8034 35.4786 31.976 34.5564C31.5159 34.0745 30.9828 33.681 30.3998 33.393C29.7732 33.0873 29.1226 32.8424 28.4558 32.6611C27.1879 32.3264 24.34 31.9075 22.9782 31.7606C21.5499 31.6012 19.0717 31.3784 18.082 31.0482C17.782 30.9465 17.1699 30.6338 17.1699 29.8672C17.1699 29.3211 17.4498 28.8589 18.0019 28.4853C18.8798 27.8918 20.652 27.5224 22.4998 27.5224C24.2886 27.4989 26.0628 27.873 27.712 28.6211C28.155 28.8296 28.5716 29.0981 28.9518 29.4203C29.5716 29.9918 30.0008 30.7668 30.1737 31.6267H32.1479V25.8383H29.9481V26.5097C29.9481 26.7258 29.7479 27.0108 29.3478 26.7755C28.3557 26.2183 25.568 25.0137 22.1499 24.9984Z" fill="#EBEBF5" fill-opacity="0.3"/>
<path d="M48.6273 25.0001C45.1614 25.0001 41.4811 26.2956 39.4012 28.3356C38.6083 29.115 37.9753 30.065 37.543 31.1245C37.1107 32.1839 36.8886 33.3294 36.8911 34.4871C36.8787 35.6495 37.0962 36.8014 37.529 37.8659C37.9618 38.9303 38.6 39.8829 39.4009 40.6599C41.6412 42.8338 45.0014 43.9998 48.6273 43.9998C52.2592 43.9998 55.6911 42.8469 57.8773 40.6599C58.6546 39.8646 59.2746 38.9077 59.7001 37.8469C60.1255 36.786 60.3476 35.6431 60.3529 34.4871C60.3637 33.3322 60.1487 32.1879 59.7222 31.1288C59.2956 30.0697 58.667 29.1196 57.8773 28.3404C55.5311 26.0431 52.4612 25.0001 48.6273 25.0001ZM48.6273 27.4699C50.5233 27.4699 52.3492 28.2062 53.5791 29.5128C54.769 30.778 55.3909 32.5656 55.3909 34.4785C55.3909 36.4822 54.8251 38.1059 53.5794 39.4444C52.3333 40.7832 50.5493 41.4998 48.6273 41.4998C46.7193 41.4998 44.8972 40.7679 43.6674 39.4444C43.0791 38.7855 42.6172 38.0076 42.3083 37.1554C41.9994 36.3031 41.8496 35.3934 41.8674 34.4785C41.8674 32.5742 42.4812 30.7802 43.6674 29.5128C44.8972 28.1998 46.7314 27.4699 48.6273 27.4699Z" fill="#EBEBF5" fill-opacity="0.3"/>
</g>
<defs>
<clipPath id="clip0_1030_1752">
<rect width="100" height="19" fill="white" transform="translate(13 25)"/>
</clipPath>
</defs>
</svg>
