<svg width="113" height="60" viewBox="0 0 113 60" fill="none" xmlns="http://www.w3.org/2000/svg">
<g clip-path="url(#clip0_2012_5438)">
<path d="M96.8531 39.6397C98.5992 39.6397 99.8359 39.3208 100.757 38.634V35.5189C99.8117 36.1812 98.6719 36.5982 97.0714 36.5982C94.3795 36.5982 93.264 34.4887 93.264 31.1529C93.264 27.6453 94.622 25.8548 97.0956 25.8548C98.5507 25.8548 99.9814 26.3699 100.733 26.8604V23.6227C99.9329 23.1812 98.5507 22.8623 96.6591 22.8623C91.8332 22.8623 89.3354 26.3699 89.3354 31.2755C89.3596 36.6472 91.809 39.6397 96.8531 39.6397ZM73.2572 38.217V35.1019C72.0932 35.9114 70.1046 36.6227 68.2858 36.6227C65.5212 36.6227 64.4784 35.2982 64.3087 32.6H73.4269V30.5887C73.4269 24.9717 70.9776 22.8623 67.2188 22.8623C62.6111 22.8623 60.4286 26.4189 60.4286 31.3C60.4286 36.917 63.1689 39.6397 67.9705 39.6397C70.3714 39.6397 72.1417 38.9774 73.2572 38.217ZM38.6515 23.1566V29.534H33.6073V23.1566H29.8242V39.3208H33.6073V32.5755H38.6515V39.3208H42.4346V23.1566H38.6515ZM59.4828 36.2793H57.8095V23.1566H46.7997V24.5302C46.7997 28.4793 46.5572 33.5812 45.2234 36.2793H44.0109V43H47.503V39.3208H55.9665V43H59.4586V36.2793H59.4828ZM85.3098 39.3208H89.6021L83.5395 30.6132L88.8746 23.1566H85.0673L79.7321 30.6132V23.1566H75.949V39.3208H79.7321V31.3736L85.3098 39.3208ZM67.1218 25.8548C68.9891 25.8548 69.5711 27.4246 69.5711 29.4604V29.7793H64.3087C64.4057 27.2038 65.3272 25.8548 67.1218 25.8548ZM54.0264 36.2793H48.6912C49.734 33.851 50.025 29.4359 50.025 26.6397V26.1491H54.0264V36.2793Z" fill="#101010"/>
<path d="M26.6717 39.3208H22.8158V20.017H21.094C17.9414 20.017 16.2924 21.6113 16.2924 23.9906C16.2924 26.6887 17.4322 27.9396 19.7845 29.534L21.7245 30.8585L16.1469 39.3208H12L17.0199 31.766C14.1341 29.6811 12.5093 27.6453 12.5093 24.2113C12.5093 19.9189 15.4678 17 21.0698 17H26.6474V39.3208H26.6717Z" fill="#101010"/>
</g>
<defs>
<clipPath id="clip0_2012_5438">
<rect width="89" height="26" fill="white" transform="translate(12 17)"/>
</clipPath>
</defs>
</svg>
