<svg width="240" height="60" fill="none" xmlns="http://www.w3.org/2000/svg"><path fill-rule="evenodd" clip-rule="evenodd" d="M23.124 23.416c.778.324 1.417.82 1.918 1.488.424.566.684 1.147.778 1.744.094.6.142 1.575.142 2.928v8.901H21.84v-9.204c0-.813-.143-1.47-.424-1.972-.368-.702-1.066-1.054-2.093-1.054-1.066 0-1.873.35-2.425 1.048-.552.7-.827 1.697-.827 2.992v8.19H12V18h4.072v7.31c.585-.886 1.26-1.504 2.029-1.855a5.795 5.795 0 012.427-.525c.953-.001 1.818.161 2.596.486zm11.596 5.79c.754-.094 1.295-.211 1.62-.352.583-.243.875-.623.875-1.137 0-.627-.224-1.061-.671-1.3-.448-.238-1.104-.359-1.97-.359-.973 0-1.66.231-2.065.696-.288.344-.48.807-.577 1.39h-3.926c.086-1.31.467-2.387 1.146-3.232 1.08-1.321 2.933-1.982 5.56-1.982 1.71 0 3.228.32 4.556.96 1.329.64 1.993 1.88 1.993 3.722v7.013c0 .487.008 1.076.028 1.768.027.52.107.873.237 1.058.13.185.327.339.588.459v.57h-4.382a4.273 4.273 0 01-.255-.85c-.053-.3-.09-.601-.115-.904a8.354 8.354 0 01-1.953 1.53c-.881.496-1.878.744-2.987.744-1.419 0-2.589-.397-3.514-1.187-.923-.791-1.385-1.914-1.385-3.366 0-1.882.74-3.245 2.223-4.088.811-.46 2.007-.786 3.585-.983l1.389-.17zm2.48 1.86a4.51 4.51 0 01-.787.39c-.355.122-.72.214-1.091.275l-.923.17c-.867.151-1.486.334-1.86.55-.633.368-.948.938-.948 1.71 0 .687.195 1.183.585 1.49.388.305.862.457 1.42.457a4.24 4.24 0 002.443-.762c.744-.508 1.131-1.435 1.16-2.78v-1.5zm16.261-8.125c.052.008.169.02.35.035v4.03c-.391-.03-.782-.045-1.173-.049-1.639 0-2.74.52-3.301 1.56-.315.585-.472 1.485-.472 2.701v7.258h-4.072V23.309h3.877v2.636c.626-1.014 1.173-1.707 1.637-2.08.76-.624 1.747-.935 2.961-.935.076-.001.14.004.193.01zm22.11.38c.671.26 1.28.718 1.827 1.37.44.53.737 1.181.89 1.953.097.512.145 1.26.145 2.247l-.029 9.586h-4.188v-9.695c0-.577-.097-1.052-.29-1.426-.365-.708-1.039-1.062-2.02-1.062-1.135 0-1.92.457-2.353 1.37-.221.483-.332 1.066-.332 1.745v9.068h-4.072v-9.062c0-.902-.096-1.559-.286-1.97-.344-.734-1.019-1.103-2.023-1.103-1.168 0-1.952.369-2.354 1.103-.22.42-.33 1.044-.33 1.872v9.161h-4.072v-15.17h3.877v2.199c.506-.79.984-1.351 1.432-1.685.793-.594 1.82-.892 3.079-.892 1.193 0 2.157.256 2.892.767a4.476 4.476 0 011.346 1.825c.537-.891 1.203-1.546 1.998-1.963.844-.419 1.783-.628 2.818-.628a5.57 5.57 0 012.045.39zm10.859 5.885c.754-.094 1.295-.211 1.62-.352.583-.243.875-.623.875-1.137 0-.627-.225-1.061-.673-1.3-.447-.238-1.105-.359-1.97-.359-.972 0-1.66.231-2.064.696-.29.344-.481.807-.577 1.39h-3.927c.086-1.31.469-2.387 1.147-3.232 1.08-1.321 2.934-1.982 5.56-1.982 1.71 0 3.228.32 4.556.96 1.328.64 1.992 1.88 1.992 3.722v7.013c0 .487.009 1.076.029 1.768.027.52.107.873.237 1.058.13.185.327.339.587.459v.57H89.44a4.196 4.196 0 01-.256-.85c-.052-.3-.09-.601-.113-.904a8.378 8.378 0 01-1.953 1.53c-.882.496-1.878.744-2.989.744-1.417 0-2.588-.397-3.513-1.187-.922-.791-1.385-1.914-1.385-3.366 0-1.882.742-3.245 2.224-4.088.81-.46 2.007-.786 3.585-.983l1.39-.17zm2.481 1.86a4.554 4.554 0 01-.786.39c-.355.122-.72.213-1.09.275l-.925.17c-.866.151-1.486.334-1.86.55-.631.368-.947.938-.947 1.71 0 .687.196 1.183.584 1.49.39.305.863.457 1.42.457a4.243 4.243 0 002.444-.762c.745-.508 1.132-1.435 1.161-2.78v-1.5zm20.085-6.9c1.011.826 1.518 2.19 1.518 4.092v10.22h-4.218v-9.226c0-.797-.106-1.41-.319-1.837-.387-.78-1.125-1.17-2.213-1.17-1.337 0-2.255.572-2.753 1.712-.258.602-.387 1.374-.387 2.31v8.209h-4.072V23.309h3.927v2.236c.517-.783 1.006-1.347 1.468-1.693.828-.614 1.877-.923 3.148-.923 1.588 0 2.889.412 3.901 1.238zM129.394 18h3.976v11.079l5.002-5.675h5.015l-5.483 5.64 5.694 9.434h-4.868l-3.695-6.48-1.665 1.715v4.765h-3.976V18zm22.341 11.206c.754-.094 1.294-.211 1.62-.352.584-.243.874-.623.874-1.137 0-.627-.224-1.061-.672-1.3-.446-.238-1.104-.359-1.972-.359-.972 0-1.659.231-2.064.696-.288.344-.481.807-.577 1.39h-3.927c.086-1.31.469-2.387 1.148-3.232 1.078-1.321 2.932-1.982 5.559-1.982 1.71 0 3.229.32 4.556.96 1.328.64 1.992 1.88 1.992 3.722v7.013c0 .487.01 1.076.029 1.768.026.52.105.873.234 1.058.132.185.327.339.589.459v.57h-4.38a4.155 4.155 0 01-.257-.85 9.309 9.309 0 01-.113-.904 8.4 8.4 0 01-1.954 1.53c-.881.496-1.877.744-2.989.744-1.418 0-2.587-.397-3.511-1.187-.925-.791-1.388-1.914-1.388-3.366 0-1.882.742-3.245 2.223-4.088.814-.46 2.01-.786 3.587-.983l1.393-.17zm2.48 1.86a4.487 4.487 0 01-.787.39c-.265.099-.627.19-1.09.275l-.925.17c-.866.151-1.486.334-1.858.55-.634.368-.948.938-.948 1.71 0 .687.195 1.183.584 1.49.389.305.862.457 1.421.457a4.23 4.23 0 002.441-.762c.746-.508 1.133-1.435 1.161-2.78v-1.5h.001zm15.678-8.125c.053.008.168.02.35.035v4.03a18.08 18.08 0 00-1.174-.049c-1.637 0-2.739.52-3.301 1.56-.314.585-.47 1.485-.47 2.701v7.258h-4.073V23.309h3.878v2.636c.625-1.014 1.172-1.707 1.637-2.08.759-.624 1.746-.935 2.96-.935.077-.001.14.004.193.01zm9.762.592c.73.403 1.322.962 1.778 1.676V18h4.073v20.478h-3.878v-2.05c-.579.899-1.242 1.553-1.983 1.96-.741.408-1.664.612-2.768.612-1.817 0-3.346-.719-4.586-2.16-1.239-1.438-1.861-3.284-1.861-5.54 0-2.599.61-4.643 1.829-6.133 1.219-1.49 2.849-2.237 4.89-2.237.94-.001 1.776.2 2.506.603zm1.028 10.883c.597-.842.897-1.934.897-3.276 0-1.874-.487-3.214-1.464-4.02a3.095 3.095 0 00-2.038-.73c-1.183 0-2.05.444-2.602 1.33-.551.884-.828 1.983-.828 3.295 0 1.414.283 2.547.847 3.395.564.847 1.421 1.272 2.568 1.272 1.151 0 2.022-.422 2.62-1.266zm20.269 2.214c-1.308 1.58-3.297 2.37-5.961 2.37-2.667 0-4.654-.79-5.963-2.37-1.309-1.58-1.964-3.48-1.964-5.705 0-2.186.655-4.082 1.964-5.685 1.309-1.603 3.296-2.405 5.963-2.405 2.664 0 4.652.802 5.961 2.405 1.31 1.602 1.966 3.499 1.966 5.685 0 2.223-.656 4.125-1.966 5.705zm-3.209-2.191c.639-.827.957-2.005.957-3.53s-.32-2.698-.957-3.522c-.639-.823-1.554-1.235-2.744-1.235-1.189 0-2.107.412-2.75 1.235-.643.824-.965 1.998-.965 3.522 0 1.524.322 2.702.965 3.53.643.828 1.561 1.242 2.75 1.242 1.19 0 2.105-.413 2.744-1.242zm20.586-10.272c1.01.825 1.516 2.188 1.516 4.09v10.22h-4.218v-9.225c0-.797-.105-1.41-.319-1.837-.386-.78-1.123-1.17-2.214-1.17-1.337 0-2.254.572-2.753 1.712-.257.602-.386 1.374-.386 2.31v8.209h-4.07V23.309h3.924v2.236c.519-.783 1.008-1.347 1.469-1.693.828-.614 1.877-.923 3.147-.923 1.59 0 2.89.412 3.904 1.238zm8.749-.19a2.987 2.987 0 01-.987.637c-.37.146-.765.218-1.164.211-.864 0-1.594-.29-2.184-.869-.592-.579-.888-1.29-.888-2.135 0-.878.319-1.607.957-2.189a3.048 3.048 0 012.115-.816 3 3 0 012.173.881c.6.587.9 1.294.9 2.124 0 .854-.307 1.572-.922 2.156zm-3.946-3.899c-.235.228-.421.5-.547.8-.126.299-.189.62-.186.944 0 .696.25 1.288.744 1.776.494.487 1.09.73 1.786.73a2.44 2.44 0 001.783-.735 2.398 2.398 0 00.74-1.771c0-.67-.242-1.252-.735-1.744a2.403 2.403 0 00-.813-.56 2.446 2.446 0 00-.975-.191c-.702 0-1.303.25-1.797.751zm.444 3.409v-3.33h.947l.701.006c.271.02.494.076.672.171.302.163.453.428.453.796 0 .28-.078.482-.237.608-.17.13-.375.207-.59.224.214.045.375.109.483.194.197.158.298.406.298.744v.298a.638.638 0 00.029.196l.031.093h-.843a2.28 2.28 0 01-.055-.458 1.431 1.431 0 00-.053-.407.413.413 0 00-.252-.244c-.098-.032-.2-.05-.303-.052l-.196-.012h-.19v1.172h-.895zm1.627-2.68a1.493 1.493 0 00-.516-.07h-.217v.972h.347c.209 0 .37-.04.487-.123.115-.081.173-.215.173-.397 0-.183-.091-.31-.274-.381zM126.416 18h-.833l-12.192 20.478h.833L126.416 18z" fill="#101010"/></svg>