<svg width="129" height="60" fill="none" xmlns="http://www.w3.org/2000/svg"><g clip-path="url(#clip0_2012_5410)"><mask id="a" style="mask-type:luminance" maskUnits="userSpaceOnUse" x="12" y="20" width="105" height="21"><path d="M116.833 20H12v20.838h104.833V20z" fill="#fff"/></mask><g mask="url(#a)" fill="#101010"><path d="M15.68 20c.19 0 .363.082.488.213a.744.744 0 01.202.514v18.956c0 .2-.077.382-.202.513a.671.671 0 01-.488.213h-2.99a.673.673 0 01-.472-.197.742.742 0 01-.218-.53V20.727c0-.199.077-.38.2-.51a.673.673 0 01.49-.216h2.99zm84.018 8.275c-.83-.569-2.724-.982-4.06-1.01-1.496-.032-3.285.525-3.285.525s.01-1.09.049-2.134c.059-1.725 2.45-2.108 3.672-2.095 1.237.012 2.629.39 3.46.656.388.125.779-.158.812-.582l.164-2.118a.678.678 0 00-.396-.67c-1.217-.513-2.71-.77-4.308-.788-.862-.008-2.443-.116-4.046.578-1.184.518-3.067 1.815-3.089 4.192l-.056 5.964-.04 4.223c-.01 1.166.458 3.365 1.713 4.377 1.614 1.304 3.108 1.426 4.603 1.44 1.626.017 2.747-.002 4.12-.759 1.75-.966 2.487-2.85 2.549-4.878.056-1.347.018-1.937-.043-3.042-.047-1.045.111-2.558-1.819-3.88zm-2.335 8.15c-.48.66-1.575.8-2.409.792-.848-.009-1.667-.14-2.207-.84-.554-.687-.446-1.503-.435-2.593l.02-2.18s1.43-.636 2.767-.577c.791.038 1.682.048 2.223.69.541.626.578 1.172.567 2.352-.01 1.06-.03 1.695-.526 2.356zm-10.986-3.218c.01-.969-.463-2.714-2.097-3.292-.402-.14-.631-.219-.818-.221.462-.177.91-.43 1.52-1.029.595-.6.892-1.55.903-2.746l.009-.984c.016-1.71-.69-3.2-2.105-4.034-1.116-.646-2.653-.875-4.048-.89-2.848-.029-4.84.768-5.68 1.288a.687.687 0 00-.307.617l.138 2.137c.025.453.468.746.872.57.953-.415 2.584-1.018 4.138-1.033.747-.007 1.825.034 2.37.282.615.264.998.829.993 1.418.008.652.01.546.005.954-.008.893-.312 1.102-.588 1.356-.392.36-1.112.458-1.976.555-.548.07-1.872.147-3.008.165a.653.653 0 00-.625.66l-.034 2.149c-.003.364.267.67.626.672.993.011 2.344.056 3.35.171 1.364.166 2.54.572 2.53 1.767-.012 1.18.004-.53-.013 1.241-.017 1.771-1.486 2.013-3.672 1.99-1.424-.015-3.057-.683-4.016-1.147-.401-.185-.864.097-.897.55l-.18 2.284a.727.727 0 00.282.624c.7.476 2.532 1.525 5.12 1.551 1.856.02 4.19-.395 5.42-1.321.435-.329 1.742-1.602 1.76-3.54.01-.968.002-.197.013-1.423l.013-1.347.002.006zm-16.55-7.869c-1.245-.695-2.68-1.043-4.29-1.059-2.244-.023-4.419.257-5.704.895a.695.695 0 00-.366.647l.094 2.24c.024.455.453.762.857.615 1.054-.413 2.9-.954 4.655-.966 1.179-.004 1.782.124 2.196.37.415.247.585.522.579 1.157l-.013 1.392s-2.04-.173-3.033-.122c-1.353.077-2.635.23-4.051.972-1.171.609-2.114 1.492-2.133 3.4L58.6 36.89c-.012 1.332.754 2.4 1.813 2.971 1.159.617 2.465.95 4.881.975 3.307.035 5.378-1.397 6.045-1.95a.658.658 0 00.25-.528l.087-9.188c.003-1.877-.604-3.155-1.848-3.834v.001zm-2.638 11.341c-.71.507-1.775.587-2.61.594-.848.006-1.838-.216-2.208-.644-.328-.367-.197-.47-.192-1.001.008-.772.33-1.359 1.08-1.654.751-.31 1.83-.299 2.506-.306 1.222-.018 2.084.158 2.084.158l-.007.696c-.013 1.362.056 1.65-.653 2.158zM42.81 30.837c-1.838-.246-3.546-.582-4.018-.875-.471-.307-.404-1.336-.114-1.697.423-.51 2.29-.385 3.368-.252 1.364.165 2.44.464 3.115.699.4.14.807-.143.854-.581l.251-2.178c.032-.317-.138-.622-.424-.73-1.49-.576-2.609-.921-5.04-.947-1.063-.01-2.287.098-3.398.51-1.776.647-2.29 1.944-2.417 3.092-.062.575-.108.861-.116 1.604-.012 1.24.224 2.243.88 2.9.654.673 2.102 1.203 4.314 1.544 1.968.292 2.425.54 2.768.8.472.368.416 1.61.097 1.894-.522.463-1.731.556-3.197.436-1.467-.121-3.015-.607-3.932-.935-.416-.156-.85.142-.883.596l-.166 2.254a.684.684 0 00.34.654c1.158.663 3.698 1.19 5.697 1.21 2.201.024 3.93-.428 4.888-1.28 1.087-.958 1.228-2.167 1.243-3.741.011-1.196.04-2.665-.686-3.474-.712-.749-1.47-1.242-3.423-1.504v.001zm13.226 5.927c-1.162.44-1.912.44-2.392-.032-.156-.169-.226-.441-.22-1.092l.081-6.975 2.416.026c.374.004.68-.311.683-.705l.036-2.33c.004-.38-.281-.7-.655-.704l-2.475-.026-.002-2.993c.004-.378-.295-.698-.655-.703l-2.904-.03c-.36-.005-.664.31-.672 1.082l.061 14.51c-.006.605-.134 1.98.836 2.884.97.904 2.318 1.206 3.684 1.157 1.08-.038 1.812-.14 2.489-.387.306-.112.55-.357.539-.706l-.079-2.302c-.025-.424-.399-.814-.77-.674zm-27.846 2.9c-.004.378.282.73.655.733l2.884-.005c.36.005.666-.325.669-.72"/><path d="M31.173 26.017c-.93-.858-2.27-1.219-3.413-1.494-.914-.221-3.516-.203-4.733.147-2.143.616-3.249 1.358-3.655 1.748a.753.753 0 00-.22.512l-.004 12.717c0 .4.309.726.69.726h2.821c.381 0 .69-.324.69-.726l-.007-10.13c0-1.09 1.25-1.396 2.574-1.396 1.008 0 2.273.306 2.273 1.447l-.005 10.09c0 .401.31.727.69.727h2.84c.381 0 .69-.325.69-.727l.014-10.61c0-1.713-.393-2.248-1.242-3.031h-.003zm85.66.199c.027-2.966-.952-4.128-1.908-4.834-1.148-.858-2.999-1.348-4.615-1.37-1.612.02-3.364.512-4.513 1.37-.956.706-1.935 1.868-1.908 4.834.015 1.622.015 6.805 0 8.418-.027 2.967.952 4.128 1.908 4.834 1.149.858 2.999 1.348 4.615 1.37 1.612-.02 3.365-.512 4.513-1.37.956-.706 1.935-1.867 1.908-4.834a787.388 787.388 0 010-8.418zm-4.397 10.443c-.428.423-1.396.625-2.074.636-.679-.011-1.647-.214-2.076-.636-.477-.474-.515-.913-.499-2.624.008-.896.008-6.334 0-7.22-.016-1.711.022-2.15.499-2.625.428-.423 1.396-.624 2.075-.636.678.012 1.646.214 2.075.636.477.474.515.914.499 2.624-.008.886-.008 6.325 0 7.22.016 1.712-.022 2.15-.499 2.625z"/></g></g><defs><clipPath id="clip0_2012_5410"><path fill="#fff" transform="translate(12 20)" d="M0 0h105v21H0z"/></clipPath></defs></svg>