<svg width="163" height="69" fill="none" xmlns="http://www.w3.org/2000/svg"><g clip-path="url(#clip0_2012_5193)"><path d="M56.1 7.285C50.203 2.737 42.82 0 34.772 0 15.567 0 0 15.444 0 34.5 0 53.556 15.567 69 34.773 69c8.79 0 16.805-3.268 22.931-8.607H32.529l-.074-7.337c15.168-13.082 24.473-21.928 24.473-30.483 0-3.174-1.217-7.18-6.703-7.18-4.343 0-8.539 2.497-7.773 12.935h-8.843C31.396 16.225 38.025 6.62 50.686 6.62c1.962 0 3.777.229 5.434.666M69.547 34.5c0-4.246-.808-8.295-2.224-12.052-.377 12.364-13.039 21.928-20.465 28.256h18.608a34.132 34.132 0 004.08-16.214v.01z" fill="#A2C617"/><path d="M125.845 57.396h-8.297V8.576h8.297v48.83-.01zm0 0h-8.297V8.576h8.297v48.83-.01zm37.145-12.832c.346-19.108-21.725-12.77-21.515-23.437.074-3.768 2.528-6.203 6.535-6.203 4.291 0 6.819 2.508 6.745 9.065h8.088c.21-5.933-1.196-16.048-14.55-16.048-8.297 0-15.115 4.048-15.252 13.04-.346 18.348 21.861 12.343 21.515 23.437-.137 4.538-3.451 6.557-7.175 6.557-4.353 0-7.878-2.509-7.175-10.043h-8.161c-.913 9.97 3.514 17.088 15.262 17.088 9.913 0 15.536-5.443 15.683-13.467v.01zm-61.187-20.721h8.224c.283-6.203-1.825-16.048-15.399-16.048-9.986 0-17.224 5.932-17.224 18.275 0 1.676.073 10.324.073 15.694 0 13.394 9.357 16.319 17.224 16.319 4.71 0 11.529-1.051 14.697-4.465V32.273H93.936v7.743h6.891v9.418c-5.203 1.749-14.696 2.446-14.696-9.418V26.07c0-8.305 3.871-11.156 8.15-11.156 4.28 0 7.522 2.227 7.522 8.929z" fill="#101010"/></g><defs><clipPath id="clip0_2012_5193"><path fill="#fff" d="M0 0h163v69H0z"/></clipPath></defs></svg>