<svg width="34" height="34" viewBox="0 0 34 34" fill="none" xmlns="http://www.w3.org/2000/svg">
<path fill-rule="evenodd" clip-rule="evenodd" d="M2.53456 2.53456C0.168213 4.90091 0.168213 8.70949 0.168213 16.3266V17.6732C0.168213 25.2903 0.168213 29.0989 2.53456 31.4652C4.90091 33.8316 8.70949 33.8316 16.3266 33.8316H17.6732C25.2903 33.8316 29.0989 33.8316 31.4652 31.4652C33.8316 29.0989 33.8316 25.2903 33.8316 17.6732V16.3266C33.8316 8.70949 33.8316 4.90091 31.4652 2.53456C29.0989 0.168213 25.2903 0.168213 17.6732 0.168213H16.3266C8.70949 0.168213 4.90091 0.168213 2.53456 2.53456ZM5.84897 10.4076C6.03129 19.16 10.4075 24.4199 18.08 24.4199H18.5149V19.4125C21.3342 19.693 23.466 21.7549 24.3216 24.4199H28.3052C27.2112 20.4364 24.3356 18.2343 22.5402 17.3927C24.3356 16.3547 26.8604 13.83 27.4635 10.4076H23.8446C23.0591 13.1848 20.731 15.7095 18.5149 15.948V10.4076H14.8959V20.1138C12.6517 19.5528 9.81842 16.8316 9.69219 10.4076H5.84897Z" fill="white"/>
</svg>
