<svg width="36" height="37" fill="none" xmlns="http://www.w3.org/2000/svg"><path d="M15.013 14.17l-1.455 8.961h2.327l1.457-8.962h-2.329zm-3.407.01l-2.28 6.111-.242-.923c-.45-1.111-1.726-2.708-3.225-3.715l2.085 7.474 2.463-.005 3.665-8.944-2.466.002z" fill="#EBEBF5" fill-opacity=".6"/><path d="M8.2 14.82c-.136-.545-.528-.708-1.014-.727h-3.61l-.03.178c2.81.715 4.667 2.438 5.439 4.509L8.2 14.82zm13.86 1.068a4.123 4.123 0 011.742.343l.21.103.315-1.942a5.758 5.758 0 00-2.086-.376c-2.3 0-3.92 1.215-3.933 2.957-.015 1.287 1.154 2.006 2.038 2.435.907.44 1.211.72 1.207 1.112-.007.6-.723.875-1.392.875-.932 0-1.427-.135-2.192-.47l-.3-.143-.327 2.006c.545.25 1.55.466 2.593.478 2.447 0 4.037-1.201 4.054-3.063.01-1.018-.61-1.795-1.956-2.433-.814-.416-1.312-.692-1.307-1.112 0-.372.422-.77 1.334-.77zm8.24-1.708h-1.8c-.558 0-.974.16-1.219.743l-3.456 8.213h2.444s.399-1.104.49-1.346l2.98.004c.07.313.284 1.342.284 1.342h2.16L30.3 14.18zm-2.87 5.776l.927-2.505c-.013.025.19-.518.31-.855l.156.772.54 2.588h-1.934z" fill="#EBEBF5" fill-opacity=".6"/></svg>