<svg width="68" height="50" fill="none" xmlns="http://www.w3.org/2000/svg"><path d="M33.998 38.776c-1.996 0-4.614-.126-7.153-1.098-2.337-.898-3.911-3.038-4.005-5.456 0-.083-.004-.169-.004-.251V17.38c0-2.128.766-3.9 2.102-4.864 1.707-1.23 4.587-1.803 9.06-1.803 4.474 0 7.353.573 9.064 1.803 1.337.96 2.102 2.736 2.102 4.865V31.97c0 .082 0 .168-.004.25-.093 2.42-1.668 4.563-4.004 5.457-2.54.976-5.157 1.098-7.154 1.098m-.004-27.642c-4.383 0-7.185.548-8.818 1.724-1.227.882-1.93 2.532-1.93 4.524V31.97c0 .078 0 .157.004.235.09 2.25 1.555 4.245 3.735 5.084 2.473.949 5.044 1.07 7.005 1.07 1.962 0 4.528-.121 7.005-1.07 2.18-.839 3.65-2.83 3.735-5.08 0-.078.005-.157.005-.235v-14.59c0-1.99-.704-3.64-1.93-4.523-1.634-1.176-4.435-1.724-8.819-1.724" fill="#101010"/><path d="M34 13.775c-1.546 0-6.597-.073-6.597-1.02 0-.947 5.05-1.02 6.597-1.02 1.547 0 6.597.073 6.597 1.02 0 .947-5.05 1.02-6.597 1.02zm-6.083-1.024c.542.255 2.733.558 6.083.558s5.537-.303 6.083-.558c-.542-.255-2.733-.558-6.083-.558s-5.537.303-6.083.558z" fill="#101010"/></svg>