<svg width="68" height="50" viewBox="0 0 68 50" fill="none" xmlns="http://www.w3.org/2000/svg">
<path d="M30.8013 40.1224H20.7298C19.416 40.1224 18.3472 39.0478 18.3472 37.7269V12.0894C18.3472 10.7685 19.416 9.69388 20.7298 9.69388H30.8013C32.1151 9.69388 33.184 10.7685 33.184 12.0894V37.7269C33.184 39.0478 32.1151 40.1224 30.8013 40.1224ZM20.7298 10.1483C19.6652 10.1483 18.7992 11.0191 18.7992 12.0894V37.7269C18.7992 38.7972 19.6652 39.668 20.7298 39.668H30.8013C31.8659 39.668 32.7319 38.7972 32.7319 37.7269V12.0894C32.7319 11.0191 31.8659 10.1483 30.8013 10.1483H20.7298Z" fill="#EBEBF5" fill-opacity="0.6"/>
<path d="M24.8402 11.1296C25.5246 11.1296 26.0822 11.6902 26.0822 12.3783V16.4218C26.0822 17.1099 25.5246 17.6706 24.8402 17.6706H21.0676C20.3832 17.6706 19.8256 17.1099 19.8256 16.4218V12.3783C19.8256 11.6902 20.3832 11.1296 21.0676 11.1296H24.8402ZM24.8402 10.6751H21.0676C20.1297 10.6751 19.3735 11.4396 19.3735 12.3783V16.4218C19.3735 17.3648 20.134 18.1251 21.0676 18.1251H24.8402C25.778 18.1251 26.5342 17.3605 26.5342 16.4218V12.3783C26.5342 11.4354 25.7738 10.6751 24.8402 10.6751Z" fill="#EBEBF5" fill-opacity="0.6"/>
<path d="M22.7998 15.9504C22.7998 16.6385 22.2464 17.1949 21.562 17.1949C20.8776 17.1949 20.3242 16.6385 20.3242 15.9504C20.3242 15.2623 20.8776 14.7059 21.562 14.7059C22.2464 14.7059 22.7998 15.2623 22.7998 15.9504Z" fill="#EBEBF5" fill-opacity="0.6"/>
<path d="M22.7998 12.8497C22.7998 13.5378 22.2464 14.0942 21.562 14.0942C20.8776 14.0942 20.3242 13.5378 20.3242 12.8497C20.3242 12.1616 20.8776 11.6052 21.562 11.6052C22.2464 11.6052 22.7998 12.1616 22.7998 12.8497Z" fill="#EBEBF5" fill-opacity="0.6"/>
<path d="M25.7139 14.434C25.7139 15.1221 25.1605 15.6785 24.4761 15.6785C23.7917 15.6785 23.2383 15.1221 23.2383 14.434C23.2383 13.7459 23.7917 13.1895 24.4761 13.1895C25.1605 13.1895 25.7139 13.7459 25.7139 14.434Z" fill="#EBEBF5" fill-opacity="0.6"/>
<path d="M47.0098 40.1224H36.9383C35.6245 40.1224 34.5557 39.0478 34.5557 37.7269V12.0894C34.5557 10.7685 35.6245 9.69388 36.9383 9.69388H47.0098C48.3236 9.69388 49.3925 10.7685 49.3925 12.0894V37.7269C49.3925 39.0478 48.3236 40.1224 47.0098 40.1224ZM36.9341 10.1483C35.8695 10.1483 35.0035 11.0191 35.0035 12.0894V37.7269C35.0035 38.7972 35.8695 39.668 36.9341 39.668H47.0056C48.0702 39.668 48.9362 38.7972 48.9362 37.7269V12.0894C48.9362 11.0191 48.0702 10.1483 47.0056 10.1483H36.9341Z" fill="#EBEBF5" fill-opacity="0.6"/>
<path d="M43.483 12.5014H40.4582C40.0399 12.5014 39.6978 12.1574 39.6978 11.7369C39.6978 11.3164 40.0399 10.9724 40.4582 10.9724H43.483C43.9012 10.9724 44.2434 11.3164 44.2434 11.7369C44.2434 12.1574 43.9012 12.5014 43.483 12.5014ZM40.4582 11.4268C40.2892 11.4268 40.1498 11.567 40.1498 11.7369C40.1498 11.9068 40.2892 12.047 40.4582 12.047H43.483C43.652 12.047 43.7914 11.9068 43.7914 11.7369C43.7914 11.567 43.652 11.4268 43.483 11.4268H40.4582Z" fill="#EBEBF5" fill-opacity="0.6"/>
</svg>
