<svg width="68" height="50" viewBox="0 0 68 50" fill="none" xmlns="http://www.w3.org/2000/svg">
<path d="M34.9801 20.9967C34.9801 21.1077 34.8905 21.2014 34.7768 21.2014C34.6631 21.2014 34.5734 21.1112 34.5734 20.9967C34.5734 20.8823 34.6631 20.7921 34.7768 20.7921C34.8905 20.7921 34.9801 20.8823 34.9801 20.9967Z" fill="#101010"/>
<path d="M34.3356 20.9967C34.3356 21.1077 34.246 21.2014 34.1322 21.2014C34.0185 21.2014 33.9289 21.1112 33.9289 20.9967C33.9289 20.8823 34.0185 20.7921 34.1322 20.7921C34.246 20.7921 34.3356 20.8823 34.3356 20.9967Z" fill="#101010"/>
<path d="M33.6911 20.9967C33.6911 21.1077 33.6015 21.2014 33.4878 21.2014C33.374 21.2014 33.2844 21.1112 33.2844 20.9967C33.2844 20.8823 33.374 20.7921 33.4878 20.7921C33.6015 20.7921 33.6911 20.8823 33.6911 20.9967Z" fill="#101010"/>
<path d="M33.0466 20.9967C33.0466 21.1077 32.9569 21.2014 32.8432 21.2014C32.7295 21.2014 32.6399 21.1112 32.6399 20.9967C32.6399 20.8823 32.7295 20.7921 32.8432 20.7921C32.9569 20.7921 33.0466 20.8823 33.0466 20.9967Z" fill="#101010"/>
<path d="M35.3007 20.4487C35.3007 20.5597 35.211 20.6534 35.0973 20.6534C34.9836 20.6534 34.894 20.5632 34.894 20.4487C34.894 20.3342 34.9836 20.2441 35.0973 20.2441C35.211 20.2441 35.3007 20.3342 35.3007 20.4487Z" fill="#101010"/>
<path d="M34.6562 20.4487C34.6562 20.5597 34.5666 20.6534 34.4528 20.6534C34.3391 20.6534 34.2495 20.5632 34.2495 20.4487C34.2495 20.3342 34.3391 20.2441 34.4528 20.2441C34.5666 20.2441 34.6562 20.3342 34.6562 20.4487Z" fill="#101010"/>
<path d="M34.0116 20.4487C34.0116 20.5597 33.922 20.6534 33.8083 20.6534C33.6945 20.6534 33.6049 20.5632 33.6049 20.4487C33.6049 20.3342 33.6945 20.2441 33.8083 20.2441C33.922 20.2441 34.0116 20.3342 34.0116 20.4487Z" fill="#101010"/>
<path d="M33.3706 20.4487C33.3706 20.5597 33.281 20.6534 33.1672 20.6534C33.0535 20.6534 32.9639 20.5632 32.9639 20.4487C32.9639 20.3342 33.0535 20.2441 33.1672 20.2441C33.281 20.2441 33.3706 20.3342 33.3706 20.4487Z" fill="#101010"/>
<path d="M32.726 20.4487C32.726 20.5597 32.6364 20.6534 32.5227 20.6534C32.409 20.6534 32.3193 20.5632 32.3193 20.4487C32.3193 20.3342 32.409 20.2441 32.5227 20.2441C32.6364 20.2441 32.726 20.3342 32.726 20.4487Z" fill="#101010"/>
<path d="M34.4459 25.3326H33.2258C33.0776 25.3326 32.957 25.2112 32.957 25.062C32.957 24.9129 33.0776 24.7915 33.2258 24.7915H34.4459C34.5941 24.7915 34.7148 24.9129 34.7148 25.062C34.7148 25.2112 34.5941 25.3326 34.4459 25.3326Z" fill="#101010"/>
<path d="M48.6805 36.6232C47.7017 35.9538 47.2812 34.1847 46.747 31.9509C45.9887 28.7736 45.0443 24.8227 42.1457 21.4962L41.2117 20.525C40.2122 19.4844 39.8261 18.0241 40.1811 16.6193L40.8222 14.0663L41.1807 14.1565L40.5396 16.7094C40.219 17.9859 40.5706 19.3144 41.4805 20.2649L42.4214 21.243C45.3855 24.6458 46.3851 28.8152 47.1123 31.8642C47.6293 34.0217 48.036 35.7283 48.8942 36.318L48.6874 36.6267L48.6805 36.6232Z" fill="#101010"/>
<path d="M39.6089 24.4619C38.4302 24.4619 37.472 23.4976 37.472 22.3113C37.472 21.125 38.4302 20.1607 39.6089 20.1607C40.7877 20.1607 41.7458 21.125 41.7458 22.3113C41.7458 23.4976 40.7877 24.4619 39.6089 24.4619ZM39.6089 20.5319C38.6335 20.5319 37.8408 21.3297 37.8408 22.3113C37.8408 23.293 38.6335 24.0908 39.6089 24.0908C40.5843 24.0908 41.377 23.293 41.377 22.3113C41.377 21.3297 40.5843 20.5319 39.6089 20.5319Z" fill="#101010"/>
<path d="M44.7616 17.1014C44.062 17.1014 43.4933 16.529 43.4933 15.8284C43.4933 15.1277 44.062 14.5519 44.7616 14.5519C45.4613 14.5519 46.03 15.1242 46.03 15.8284C46.03 16.5325 45.4613 17.1014 44.7616 17.1014ZM44.7616 14.923C44.2653 14.923 43.8655 15.3289 43.8655 15.8249C43.8655 16.3209 44.2688 16.7268 44.7616 16.7268C45.2545 16.7268 45.6577 16.3209 45.6577 15.8249C45.6577 15.3289 45.2545 14.923 44.7616 14.923Z" fill="#101010"/>
<path d="M47.3053 19.578C46.6056 19.578 46.0369 19.0056 46.0369 18.3015C46.0369 17.5974 46.6056 17.025 47.3053 17.025C48.0049 17.025 48.5736 17.5974 48.5736 18.3015C48.5736 19.0056 48.0049 19.578 47.3053 19.578ZM47.3053 17.3996C46.8124 17.3996 46.4092 17.8055 46.4092 18.3015C46.4092 18.7975 46.8124 19.2034 47.3053 19.2034C47.7981 19.2034 48.2014 18.7975 48.2014 18.3015C48.2014 17.8055 47.7981 17.3996 47.3053 17.3996Z" fill="#101010"/>
<path d="M44.8306 21.9992C44.131 21.9992 43.5623 21.4269 43.5623 20.7262C43.5623 20.0255 44.131 19.4497 44.8306 19.4497C45.5303 19.4497 46.099 20.0221 46.099 20.7262C46.099 21.4304 45.5303 21.9992 44.8306 21.9992ZM44.8306 19.8209C44.3343 19.8209 43.9345 20.2267 43.9345 20.7227C43.9345 21.2188 44.3378 21.6246 44.8306 21.6246C45.3235 21.6246 45.7267 21.2188 45.7267 20.7227C45.7267 20.2267 45.3235 19.8209 44.8306 19.8209Z" fill="#101010"/>
<path d="M42.1767 19.4809C41.477 19.4809 40.9083 18.9086 40.9083 18.2079C40.9083 17.5072 41.477 16.9314 42.1767 16.9314C42.8763 16.9314 43.445 17.5038 43.445 18.2079C43.445 18.9121 42.8763 19.4809 42.1767 19.4809ZM42.1767 17.3061C41.6838 17.3061 41.2805 17.7119 41.2805 18.2079C41.2805 18.7039 41.6838 19.1098 42.1767 19.1098C42.6695 19.1098 43.0728 18.7039 43.0728 18.2079C43.0728 17.7119 42.6695 17.3061 42.1767 17.3061Z" fill="#101010"/>
<path d="M46.4643 37.2441C46.2575 37.2441 46.0576 37.1296 45.9128 36.9285C45.2476 35.9884 44.3791 33.4806 43.6828 31.4653C43.3072 30.3761 42.9797 29.4361 42.7729 28.9921C42.2422 27.8544 39.6296 27.9341 36.6104 28.0313C35.6832 28.059 34.7285 28.0902 33.7497 28.0902C32.6709 28.0902 31.6645 28.059 30.6891 28.0278C27.6526 27.9341 25.2538 27.8613 24.723 28.9921C24.5162 29.4361 24.1922 30.3761 23.8131 31.4653C23.1168 33.4806 22.2483 35.9884 21.5831 36.9285C21.4039 37.1817 21.1316 37.2962 20.8765 37.2233L18.3708 36.5053C17.5643 36.2209 16.9819 35.3155 16.6234 33.8032C15.4067 28.6417 17.1714 17.8576 20.5767 14.316C21.528 13.3275 23.6545 12.7898 25.6329 13.0396C26.0534 13.0916 26.3188 13.3205 26.5014 13.4974L26.6738 13.4628L26.8116 13.154L26.9185 13.1436C28.5901 12.9875 30.2927 12.8731 31.9712 12.8072C32.5468 12.7829 33.1189 12.769 33.6842 12.7551H33.8083C34.3735 12.7655 34.9422 12.7829 35.5212 12.8072C37.2032 12.8731 38.9024 12.9841 40.574 13.1436L40.6808 13.154L40.8187 13.4628L40.991 13.4974C41.184 13.3136 41.446 13.0916 41.8596 13.0396C43.8379 12.7898 45.9645 13.3275 46.9158 14.316C50.321 17.8576 52.0857 28.6383 50.8691 33.8032C50.5106 35.3155 49.9281 36.2209 49.132 36.5018L46.6194 37.2233C46.5677 37.2372 46.516 37.2441 46.4643 37.2441ZM24.6368 13.3518C23.0755 13.3518 21.5693 13.82 20.8421 14.5762C17.5057 18.0449 15.7859 28.6383 16.9853 33.7164C17.3058 35.0762 17.8228 35.9191 18.4846 36.1515L20.9765 36.866C21.1247 36.9076 21.2384 36.7724 21.2832 36.7134C21.9174 35.8185 22.7756 33.3384 23.465 31.3439C23.8441 30.2443 24.1715 29.2973 24.3886 28.836C25.0228 27.4832 27.4044 27.5561 30.6994 27.6601C31.6714 27.6913 32.6743 27.7226 33.7497 27.7226C34.7251 27.7226 35.6763 27.6913 36.6 27.6636C39.8812 27.5595 42.4731 27.4797 43.1107 28.8395C43.3244 29.3008 43.6553 30.2512 44.0344 31.3473C44.7237 33.3418 45.5819 35.8219 46.2161 36.7169C46.2575 36.7758 46.3747 36.9111 46.5229 36.8695L49.0251 36.1515C49.6731 35.9225 50.1935 35.0831 50.5141 33.7199C51.7135 28.6383 49.9902 18.0484 46.6573 14.5797C45.7818 13.6674 43.7828 13.1783 41.9113 13.4142C41.5701 13.4558 41.3667 13.657 41.2047 13.8165L41.1358 13.8859H41.0255L40.5671 13.7957L40.4396 13.5078C38.8093 13.3587 37.1515 13.2477 35.5144 13.1852C34.9215 13.161 34.3322 13.1436 33.7531 13.1332C33.1741 13.1436 32.5847 13.161 31.9919 13.1852C30.3548 13.2477 28.6969 13.3587 27.0667 13.5078L26.9391 13.7957L26.3877 13.8998L26.3188 13.8304C26.1395 13.6535 25.9362 13.4523 25.595 13.4107C25.2813 13.3726 24.9608 13.3518 24.6437 13.3518" fill="#101010"/>
<path d="M18.8155 36.6232L18.6087 36.3145C19.4669 35.7248 19.877 34.0182 20.3906 31.8607C21.1178 28.8152 22.1173 24.6424 25.0745 21.2465L26.0189 20.2614C26.9288 19.3144 27.2804 17.9825 26.9598 16.706L26.3188 14.153L26.6772 14.0628L27.3183 16.6158C27.6698 18.0171 27.2838 19.4775 26.2877 20.5215L25.3468 21.4997C22.4551 24.8193 21.5107 28.7736 20.749 31.9474C20.2148 34.1847 19.7909 35.9503 18.8155 36.6197" fill="#101010"/>
<path d="M27.887 24.4619C26.7082 24.4619 25.7501 23.4976 25.7501 22.3113C25.7501 21.125 26.7082 20.1607 27.887 20.1607C29.0657 20.1607 30.0239 21.125 30.0239 22.3113C30.0239 23.4976 29.0657 24.4619 27.887 24.4619ZM27.887 20.5319C26.9116 20.5319 26.1188 21.3297 26.1188 22.3113C26.1188 23.293 26.9116 24.0908 27.887 24.0908C28.8624 24.0908 29.6551 23.293 29.6551 22.3113C29.6551 21.3297 28.8624 20.5319 27.887 20.5319Z" fill="#101010"/>
<path d="M37.5168 19.578H29.9791C28.9106 19.578 28.0042 18.808 27.8249 17.7465L26.8944 13.9379L27.2528 13.8477L28.1868 17.6702C28.3385 18.5651 29.0899 19.2069 29.9791 19.2069H37.5168C38.4061 19.2069 39.1574 18.5652 39.3056 17.6841L40.2431 13.8477L40.6016 13.9379L39.6675 17.7604C39.4918 18.808 38.5887 19.578 37.5168 19.578Z" fill="#101010"/>
<path d="M22.9514 18.0102C22.848 18.0102 22.7481 17.972 22.6688 17.8923L22.0174 17.2332C21.9416 17.1569 21.9002 17.0563 21.9002 16.9488V15.8527C21.9002 15.6307 22.0794 15.4503 22.3 15.4503H23.5959C23.8165 15.4503 23.9957 15.6307 23.9957 15.8527V16.9974C23.9957 17.1084 23.9509 17.2124 23.8717 17.2887L23.2272 17.9027C23.1479 17.9755 23.0514 18.0137 22.9514 18.0137M22.3 15.818C22.3 15.818 22.269 15.8319 22.269 15.8492V16.9453L22.9307 17.6252C22.9307 17.6252 22.9618 17.6391 22.9755 17.6252L23.6201 17.0112L23.6304 15.8457C23.6304 15.8284 23.6166 15.8145 23.5994 15.8145H22.3035L22.3 15.818Z" fill="#101010"/>
<path d="M23.5925 21.0904H22.2966C22.076 21.0904 21.8968 20.91 21.8968 20.688V19.5885C21.8968 19.4844 21.9381 19.3803 22.0139 19.304L22.6653 18.645C22.817 18.4924 23.0686 18.4889 23.2237 18.6346L23.8682 19.2485C23.9475 19.3248 23.9923 19.4324 23.9923 19.5399V20.6845C23.9923 20.9065 23.8131 21.0869 23.5925 21.0869M22.9514 18.9017C22.9514 18.9017 22.9342 18.9016 22.9307 18.9121L22.2793 19.5711L22.269 20.6915C22.269 20.6915 22.2828 20.7227 22.3 20.7227H23.5959C23.5959 20.7227 23.627 20.7088 23.627 20.6915V19.5468L22.9755 18.9121C22.9755 18.9121 22.9618 18.9051 22.9549 18.9051" fill="#101010"/>
<path d="M21.6348 19.3248H20.5422C20.3216 19.3248 20.1424 19.1444 20.1424 18.9224V17.6182C20.1424 17.3962 20.3216 17.2158 20.5422 17.2158H21.6796C21.7899 17.2158 21.8967 17.2609 21.9691 17.3407L22.5792 17.9894C22.7274 18.1454 22.7239 18.3987 22.5723 18.5513L21.9174 19.2069C21.8416 19.2832 21.7416 19.3248 21.6348 19.3248ZM20.5422 17.587C20.5422 17.587 20.5112 17.6009 20.5112 17.6182V18.9224C20.5112 18.9224 20.525 18.9536 20.5422 18.9536H21.6348L22.3103 18.2877C22.3103 18.2877 22.3207 18.2564 22.3103 18.246L21.7003 17.5974L20.5422 17.587Z" fill="#101010"/>
<path d="M25.3503 19.3248H24.2611C24.1543 19.3248 24.0543 19.2832 23.9785 19.2069L23.3236 18.5513C23.172 18.3987 23.1651 18.1454 23.3168 17.9894L23.9268 17.3407C24.0026 17.2609 24.1095 17.2158 24.2163 17.2158H25.3537C25.5743 17.2158 25.7535 17.3962 25.7535 17.6182V18.9224C25.7535 19.1444 25.5743 19.3248 25.3537 19.3248M24.2129 17.587L23.5821 18.2426C23.5821 18.2426 23.5718 18.2738 23.5821 18.2877L24.237 18.9432L25.3503 18.9536C25.3675 18.9536 25.3813 18.9398 25.3813 18.9224V17.6182C25.3813 17.6009 25.3675 17.587 25.3503 17.587H24.2129Z" fill="#101010"/>
</svg>
