<svg width="68" height="50" viewBox="0 0 68 50" fill="none" xmlns="http://www.w3.org/2000/svg">
<path d="M13.3574 30.6123C13.138 30.6123 12.9272 30.5028 12.8046 30.3112L10.9287 27.3881C10.6834 27.005 10.5521 26.562 10.5521 26.1087V23.4884H11.4469V23.006C10.2619 23.006 8.71251 22.9735 7.46709 22.9239C5.0747 22.8316 5.07471 22.7495 5.07471 22.6349C5.07471 22.5203 5.0747 22.4399 7.46709 22.3458C8.71251 22.2979 10.2619 22.2654 11.4469 22.2637V22.2483C11.4469 22.0585 11.5281 21.8754 11.6697 21.7455C11.8131 21.6155 12.0014 21.5539 12.1966 21.5693C12.5438 21.5984 12.8167 21.9028 12.8236 22.2637C14.0086 22.2637 15.558 22.2979 16.8034 22.3458C19.1958 22.4382 19.1958 22.5203 19.1958 22.6349C19.1958 22.7495 19.1958 22.8316 16.8034 22.9239C15.558 22.9718 14.0086 23.0043 12.8236 23.006V23.4884H13.7184V25.2587L28.4872 21.2169V21.0408C28.4872 20.1308 29.2352 19.3902 30.1541 19.3902H30.4702C30.5842 19.3902 30.6931 19.3457 30.7725 19.2653C30.8537 19.185 30.8969 19.0772 30.8934 18.9643C30.89 18.8104 30.9504 18.6633 31.061 18.5504C31.1767 18.4341 31.3374 18.3674 31.5015 18.3674H36.4952C36.6593 18.3674 36.8148 18.4307 36.9305 18.547C37.0463 18.6633 37.1084 18.8172 37.105 18.9797C37.1033 19.084 37.1447 19.1849 37.2207 19.2619C37.3019 19.3423 37.4142 19.3902 37.5299 19.3902H37.846C38.765 19.3902 39.5129 20.1308 39.5129 21.0408V21.2169L54.2818 25.2587V23.4884H55.1765V23.006C53.9916 23.006 52.4421 22.9735 51.1967 22.9239C48.8061 22.8316 48.8061 22.7495 48.8061 22.6349C48.8061 22.5203 48.8061 22.4399 51.1967 22.3458C52.4421 22.2979 53.9916 22.2654 55.1765 22.2637V22.2483C55.1765 22.0431 55.2681 21.8498 55.4287 21.7198C55.5894 21.5898 55.8001 21.5385 56.0074 21.5795C56.3218 21.6428 56.5515 21.9285 56.555 22.262C57.7399 22.262 59.2894 22.2962 60.5348 22.3441C62.9254 22.4365 62.9255 22.5186 62.9255 22.6332C62.9255 22.7478 62.9254 22.8299 60.5348 22.9222C59.2894 22.9701 57.7399 23.0026 56.555 23.0043V23.4867H57.4497V26.107C57.4497 26.562 57.3202 27.0033 57.0732 27.3864L55.1973 30.3095C55.0384 30.5558 54.7326 30.667 54.4511 30.5798L53.6824 30.342L54.9606 26.8647L54.3526 26.8596L39.0984 22.6862H36.5937L36.9271 23.0659C37.048 23.2044 37.0739 23.3994 36.9944 23.5636L36.2171 25.1441C36.1411 25.2997 36.0962 25.4656 36.0841 25.6384L35.9701 27.2872C35.9494 27.5968 35.6868 27.838 35.3742 27.838H32.6346C32.322 27.838 32.0594 27.5951 32.0387 27.2872L31.9247 25.6384C31.9126 25.4656 31.8677 25.2997 31.7917 25.1441L31.0143 23.5636C30.9332 23.3994 30.9591 23.2027 31.0817 23.0659L31.4151 22.6862H28.9104L13.6441 26.863H13.0482L14.3247 30.3437L13.556 30.5815C13.4921 30.602 13.4265 30.6106 13.3625 30.6106M10.7387 23.6714V26.1087C10.7387 26.5278 10.8596 26.9366 11.0859 27.2906L12.9618 30.2137C13.0758 30.3899 13.2952 30.4703 13.4973 30.4087L14.0811 30.2291L12.7804 26.6869L13.6165 26.6834L28.8828 22.5066H31.821L31.2199 23.189C31.1474 23.2711 31.1318 23.3875 31.1802 23.4867L31.9575 25.0671C32.0438 25.2433 32.0957 25.4331 32.1095 25.6281L32.2235 27.2769C32.239 27.4908 32.4187 27.6567 32.6346 27.6567H35.3742C35.5901 27.6567 35.7715 27.489 35.7853 27.2769L35.8993 25.6281C35.9131 25.4314 35.9632 25.2433 36.0513 25.0671L36.8286 23.4867C36.877 23.3892 36.8614 23.2711 36.7889 23.189L36.1878 22.5066L39.1364 22.51L54.3906 26.6834L55.2266 26.6869L53.9259 30.2291L54.5098 30.4087C54.7119 30.4703 54.9313 30.3916 55.0453 30.2137L56.9212 27.2906C57.1475 26.9366 57.2684 26.5278 57.2684 26.1087V23.6714H56.3736V22.8213H56.4669C58.481 22.8213 61.3156 22.7341 62.371 22.6349C61.3138 22.5339 58.481 22.4484 56.4669 22.4484H56.3736V22.2723C56.3736 22.0225 56.206 21.8087 55.9763 21.7626C55.8243 21.7318 55.6688 21.7694 55.5514 21.8652C55.4339 21.961 55.3666 22.1012 55.3666 22.2517V22.4501H55.2733C53.2592 22.4501 50.4246 22.5374 49.3692 22.6366C50.4263 22.7375 53.2609 22.823 55.2733 22.823H55.3666V23.6731H54.4718V25.5015L39.3333 21.3589V21.0425C39.3333 20.2334 38.6682 19.5749 37.8512 19.5749H37.5351C37.371 19.5749 37.2104 19.5082 37.0946 19.3919C36.9841 19.279 36.9236 19.1336 36.9271 18.9797C36.9288 18.8668 36.8856 18.7591 36.8062 18.6787C36.725 18.5983 36.6179 18.5538 36.5039 18.5538H31.5101C31.3944 18.5538 31.2821 18.6 31.2009 18.6821C31.1249 18.7591 31.0834 18.8583 31.0852 18.9626C31.0886 19.1251 31.0264 19.279 30.9107 19.3953C30.795 19.5116 30.6412 19.5749 30.4754 19.5749H30.1593C29.3423 19.5749 28.6772 20.2334 28.6772 21.0425V21.3589L28.6099 21.3777L13.5387 25.5015V23.6731H12.644V22.823H12.7372C14.7513 22.823 17.5859 22.7358 18.6413 22.6366C17.5842 22.5357 14.7513 22.4501 12.7372 22.4501H12.644V22.2825C12.644 22.0088 12.4419 21.7779 12.1862 21.7557C12.0428 21.7437 11.9064 21.7899 11.801 21.8857C11.6974 21.9798 11.6369 22.1132 11.6369 22.2534V22.4519H11.5436C9.52954 22.4519 6.69496 22.5391 5.63955 22.6383C6.69669 22.7392 9.52954 22.8247 11.5436 22.8247H11.6369V23.6748H10.7421L10.7387 23.6714Z" fill="#EBEBF5" fill-opacity="0.6"/>
<path d="M34.0009 26.7023C33.5553 26.7023 33.1925 26.3431 33.1925 25.9018C33.1925 25.4605 33.5553 25.1013 34.0009 25.1013C34.4466 25.1013 34.8093 25.4605 34.8093 25.9018C34.8093 26.3431 34.4466 26.7023 34.0009 26.7023ZM34.0009 25.286C33.6572 25.286 33.3791 25.5631 33.3791 25.9018C33.3791 26.2405 33.6589 26.5175 34.0009 26.5175C34.343 26.5175 34.6228 26.2405 34.6228 25.9018C34.6228 25.5631 34.343 25.286 34.0009 25.286Z" fill="#EBEBF5" fill-opacity="0.6"/>
<path d="M32.7746 24.8978C32.3289 24.8978 31.9662 24.5386 31.9662 24.0973C31.9662 23.656 32.3289 23.2968 32.7746 23.2968C33.2202 23.2968 33.583 23.656 33.583 24.0973C33.583 24.5386 33.2202 24.8978 32.7746 24.8978ZM32.7746 23.4815C32.4308 23.4815 32.1527 23.7586 32.1527 24.0973C32.1527 24.436 32.4325 24.713 32.7746 24.713C33.1166 24.713 33.3964 24.436 33.3964 24.0973C33.3964 23.7586 33.1166 23.4815 32.7746 23.4815Z" fill="#EBEBF5" fill-opacity="0.6"/>
<path d="M35.2257 24.8978C34.78 24.8978 34.4173 24.5386 34.4173 24.0973C34.4173 23.656 34.78 23.2968 35.2257 23.2968C35.6713 23.2968 36.0341 23.656 36.0341 24.0973C36.0341 24.5386 35.6713 24.8978 35.2257 24.8978ZM35.2257 23.4815C34.8819 23.4815 34.6038 23.7586 34.6038 24.0973C34.6038 24.436 34.8836 24.713 35.2257 24.713C35.5677 24.713 35.8475 24.436 35.8475 24.0973C35.8475 23.7586 35.5677 23.4815 35.2257 23.4815Z" fill="#EBEBF5" fill-opacity="0.6"/>
<path d="M36.2672 19.8007H31.7329C31.5291 19.8007 31.3633 19.6365 31.3633 19.4347C31.3633 19.2329 31.5291 19.0687 31.7329 19.0687H36.2672C36.471 19.0687 36.6369 19.2329 36.6369 19.4347C36.6369 19.6365 36.471 19.8007 36.2672 19.8007ZM31.7329 19.25C31.631 19.25 31.5481 19.3321 31.5481 19.433C31.5481 19.5339 31.631 19.616 31.7329 19.616H36.2672C36.3691 19.616 36.452 19.5339 36.452 19.433C36.452 19.3321 36.3691 19.25 36.2672 19.25H31.7329Z" fill="#EBEBF5" fill-opacity="0.6"/>
<path d="M37.9031 21.7489C37.4574 21.7489 37.0947 21.3897 37.0947 20.9484C37.0947 20.5071 37.4574 20.1479 37.9031 20.1479C38.3487 20.1479 38.7115 20.5071 38.7115 20.9484C38.7115 21.3897 38.3487 21.7489 37.9031 21.7489ZM37.9031 20.3326C37.5593 20.3326 37.2812 20.6097 37.2812 20.9484C37.2812 21.287 37.561 21.5641 37.9031 21.5641C38.2451 21.5641 38.5249 21.287 38.5249 20.9484C38.5249 20.6097 38.2451 20.3326 37.9031 20.3326Z" fill="#EBEBF5" fill-opacity="0.6"/>
<path d="M30.0972 21.7489C29.6515 21.7489 29.2888 21.3897 29.2888 20.9484C29.2888 20.5071 29.6515 20.1479 30.0972 20.1479C30.5428 20.1479 30.9056 20.5071 30.9056 20.9484C30.9056 21.3897 30.5428 21.7489 30.0972 21.7489ZM30.0972 20.3326C29.7534 20.3326 29.4753 20.6097 29.4753 20.9484C29.4753 21.287 29.7551 21.5641 30.0972 21.5641C30.4392 21.5641 30.719 21.287 30.719 20.9484C30.719 20.6097 30.4392 20.3326 30.0972 20.3326Z" fill="#EBEBF5" fill-opacity="0.6"/>
</svg>
