<svg width="68" height="50" viewBox="0 0 68 50" fill="none" xmlns="http://www.w3.org/2000/svg">
<path d="M33.4696 39.2755C33.0224 39.2755 32.5712 39.2188 32.128 39.1054L27.358 37.8862C25.8996 37.5136 24.8804 36.1972 24.8804 34.6864V13.8791C24.8804 13.6442 25.0254 13.4295 25.247 13.3444L32.4141 10.6023C33.3004 10.262 34.2632 10.181 35.1939 10.3673L42.6752 11.862C42.9411 11.9146 43.1344 12.1495 43.1344 12.4209V33.6738C43.1344 35.0347 42.2844 36.2742 41.0234 36.7602L35.4195 38.911C34.791 39.15 34.1384 39.2715 33.4817 39.2715M34.2028 10.7076C33.6468 10.7076 33.0909 10.8088 32.5631 11.0114L25.3961 13.7535C25.3437 13.7738 25.3074 13.8264 25.3074 13.8831V34.6904C25.3074 36.0028 26.1937 37.1491 27.4588 37.469L32.2287 38.6842C33.2359 38.9394 34.2793 38.8786 35.2503 38.506L40.8542 36.3552C41.95 35.9339 42.6913 34.8565 42.6913 33.6778V12.425C42.6913 12.3602 42.647 12.3035 42.5825 12.2913L35.1012 10.7967C34.8031 10.7359 34.5009 10.7076 34.2028 10.7076Z" fill="#EBEBF5" fill-opacity="0.6"/>
<path d="M33.3658 15.718C32.9589 15.718 32.552 15.6735 32.1531 15.5884L25.3728 14.1262C25.1835 14.0857 25.0263 13.9601 24.9417 13.7859L25.3285 13.5956C25.3527 13.6482 25.405 13.6887 25.4614 13.7009L32.2418 15.1631C33.2409 15.3778 34.2722 15.3049 35.227 14.9444L42.5834 12.1901C42.6237 12.1739 42.656 12.1455 42.6761 12.109L43.0629 12.3035C42.9944 12.4412 42.8775 12.5424 42.7365 12.5951L35.3801 15.3494C34.7315 15.5924 34.0506 15.714 33.3658 15.714" fill="#EBEBF5" fill-opacity="0.6"/>
<path d="M33.3651 16.6496C32.9582 16.6496 32.5473 16.6051 32.1445 16.52L25.3319 15.0497C25.1426 15.0092 24.9854 14.8836 24.9008 14.7095L25.2876 14.5191C25.3158 14.5758 25.3642 14.6122 25.4246 14.6244L32.2371 16.0947C33.2403 16.3094 34.2756 16.2365 35.2345 15.876L42.6231 13.1095C42.6634 13.0933 42.6956 13.065 42.7158 13.0285L43.1025 13.2229C43.0341 13.3606 42.9172 13.4619 42.7762 13.5186L35.3876 16.2851C34.7349 16.5281 34.0541 16.6537 33.3651 16.6537" fill="#EBEBF5" fill-opacity="0.6"/>
<path d="M32.4997 14.0614C32.3305 14.0614 32.1612 14.0492 31.992 14.0209L30.8237 13.8305C30.6142 13.7981 30.4611 13.632 30.441 13.4214C30.4208 13.2108 30.5377 13.0204 30.7351 12.9434L33.9258 11.7161C34.4455 11.5177 35.0095 11.4569 35.5574 11.546L36.9433 11.7648C37.1568 11.7972 37.3099 11.9632 37.3301 12.1779C37.3502 12.3926 37.2253 12.583 37.0239 12.6559L33.5592 13.8791C33.2208 14.0006 32.8622 14.0614 32.5037 14.0614M35.0619 11.9389C34.7275 11.9389 34.3931 11.9997 34.0789 12.1212L30.8882 13.3485V13.4011L32.0605 13.5915C32.5117 13.6644 32.9791 13.6239 33.4101 13.47L36.8748 12.2468L36.903 11.9794L36.8708 12.1941L35.4849 11.9754C35.3439 11.9551 35.1989 11.943 35.0579 11.943" fill="#EBEBF5" fill-opacity="0.6"/>
</svg>
