<svg width="68" height="50" viewBox="0 0 68 50" fill="none" xmlns="http://www.w3.org/2000/svg">
<path d="M45.1966 35.7143H22.5025C20.4466 35.7143 18.7759 34.051 18.7759 32.0077V18.2555C18.7759 16.2123 20.4466 14.549 22.5025 14.549H37.5416V14.8691H22.5025C20.6242 14.8691 19.098 16.3888 19.098 18.2525V32.0047C19.098 33.8715 20.6272 35.3882 22.5025 35.3882H45.1966C47.075 35.3882 48.6012 33.8715 48.6012 32.0047V26.0396H48.9233V32.0047C48.9233 34.048 47.2496 35.7113 45.1936 35.7113" fill="#EBEBF5" fill-opacity="0.6"/>
<path d="M45.4067 28.3131H38.9257C36.8215 28.3131 35.1087 26.6109 35.1087 24.5198V18.079C35.1087 15.9879 36.8215 14.2857 38.9257 14.2857H45.4067C47.5108 14.2857 49.2236 15.9879 49.2236 18.079V24.5198C49.2236 26.6109 47.5108 28.3131 45.4067 28.3131ZM38.9227 14.6028C36.9961 14.6028 35.4278 16.1614 35.4278 18.076V24.5169C35.4278 26.4315 36.9961 27.9901 38.9227 27.9901H45.4037C47.3302 27.9901 48.8985 26.4315 48.8985 24.5169V18.076C48.8985 16.1614 47.3302 14.6028 45.4037 14.6028H38.9227Z" fill="#EBEBF5" fill-opacity="0.6"/>
<path d="M45.3864 27.3917H38.9415C37.337 27.3917 36.0306 26.0934 36.0306 24.4989V18.094C36.0306 16.4995 37.337 15.2011 38.9415 15.2011H45.3864C46.9908 15.2011 48.2972 16.4995 48.2972 18.094V24.4989C48.2972 26.0934 46.9908 27.3917 45.3864 27.3917ZM38.9445 15.5242C37.5176 15.5242 36.3587 16.679 36.3587 18.094V24.4989C36.3587 25.9169 37.5206 27.0717 38.9445 27.0717H45.3894C46.8162 27.0717 47.9782 25.9169 47.9782 24.4989V18.094C47.9782 16.676 46.8162 15.5242 45.3894 15.5242H38.9445Z" fill="#EBEBF5" fill-opacity="0.6"/>
<path d="M41.9902 24.9775C39.9914 24.9775 38.3659 23.3621 38.3659 21.3757C38.3659 19.3893 39.9914 17.7739 41.9902 17.7739C43.989 17.7739 45.6145 19.3893 45.6145 21.3757C45.6145 23.3621 43.989 24.9775 41.9902 24.9775ZM41.9902 18.094C40.169 18.094 38.688 19.5658 38.688 21.3757C38.688 23.1856 40.169 24.6545 41.9902 24.6545C43.8113 24.6545 45.2924 23.1826 45.2924 21.3757C45.2924 19.5688 43.8113 18.094 41.9902 18.094Z" fill="#EBEBF5" fill-opacity="0.6"/>
<path d="M32.4266 29.8897H23.3327C22.1768 29.8897 21.2346 28.9533 21.2346 27.8046V18.7671C21.2346 17.6183 22.1768 16.6819 23.3327 16.6819H32.4266C33.5826 16.6819 34.5248 17.6183 34.5248 18.7671V27.8046C34.5248 28.9563 33.5826 29.8897 32.4266 29.8897ZM23.3327 17.002C22.3544 17.002 21.5567 17.7948 21.5567 18.7671V27.8046C21.5567 28.7768 22.3544 29.5696 23.3327 29.5696H32.4266C33.405 29.5696 34.2027 28.7768 34.2027 27.8046V18.7671C34.2027 17.7948 33.405 17.002 32.4266 17.002H23.3327Z" fill="#EBEBF5" fill-opacity="0.6"/>
<path d="M43.1224 21.3757C43.1224 21.998 42.6167 22.5005 41.9905 22.5005C41.3644 22.5005 40.8587 21.998 40.8587 21.3757C40.8587 20.7535 41.3644 20.2509 41.9905 20.2509C42.6167 20.2509 43.1224 20.7535 43.1224 21.3757Z" fill="#EBEBF5" fill-opacity="0.6"/>
<path d="M32.2527 28.9204H23.508C22.7916 28.9204 22.2106 28.3431 22.2106 27.6311V18.9406C22.2106 18.2316 22.7916 17.6512 23.508 17.6512H32.2527C32.9691 17.6512 33.5501 18.2286 33.5501 18.9406V27.6311C33.5501 28.3431 32.9691 28.9204 32.2527 28.9204ZM23.505 17.9264C22.9421 17.9264 22.4845 18.3812 22.4845 18.9406V27.6311C22.4845 28.1905 22.9421 28.6452 23.505 28.6452H32.2497C32.8126 28.6452 33.2702 28.1905 33.2702 27.6311V18.9406C33.2702 18.3812 32.8126 17.9264 32.2497 17.9264H23.505Z" fill="#EBEBF5" fill-opacity="0.6"/>
<path d="M41.157 30.4013C41.157 30.506 41.0727 30.5927 40.9643 30.5927C40.856 30.5927 40.7717 30.509 40.7717 30.4013C40.7717 30.2936 40.856 30.2098 40.9643 30.2098C41.0727 30.2098 41.157 30.2936 41.157 30.4013Z" fill="#EBEBF5" fill-opacity="0.6"/>
<path d="M42.1835 30.4013C42.1835 30.506 42.0992 30.5927 41.9909 30.5927C41.8825 30.5927 41.7982 30.509 41.7982 30.4013C41.7982 30.2936 41.8825 30.2098 41.9909 30.2098C42.0992 30.2098 42.1835 30.2936 42.1835 30.4013Z" fill="#EBEBF5" fill-opacity="0.6"/>
<path d="M43.2101 30.4013C43.2101 30.506 43.1258 30.5927 43.0174 30.5927C42.909 30.5927 42.8248 30.509 42.8248 30.4013C42.8248 30.2936 42.909 30.2098 43.0174 30.2098C43.1258 30.2098 43.2101 30.2936 43.2101 30.4013Z" fill="#EBEBF5" fill-opacity="0.6"/>
<path d="M41.157 31.4004C41.157 31.5051 41.0727 31.5919 40.9643 31.5919C40.856 31.5919 40.7717 31.5081 40.7717 31.4004C40.7717 31.2927 40.856 31.209 40.9643 31.209C41.0727 31.209 41.157 31.2927 41.157 31.4004Z" fill="#EBEBF5" fill-opacity="0.6"/>
<path d="M42.1835 31.4004C42.1835 31.5051 42.0992 31.5919 41.9909 31.5919C41.8825 31.5919 41.7982 31.5081 41.7982 31.4004C41.7982 31.2927 41.8825 31.209 41.9909 31.209C42.0992 31.209 42.1835 31.2927 42.1835 31.4004Z" fill="#EBEBF5" fill-opacity="0.6"/>
<path d="M43.2101 31.4004C43.2101 31.5051 43.1258 31.5919 43.0174 31.5919C42.909 31.5919 42.8248 31.5081 42.8248 31.4004C42.8248 31.2927 42.909 31.209 43.0174 31.209C43.1258 31.209 43.2101 31.2927 43.2101 31.4004Z" fill="#EBEBF5" fill-opacity="0.6"/>
<path d="M41.157 32.3966C41.157 32.5013 41.0727 32.5881 40.9643 32.5881C40.856 32.5881 40.7717 32.5043 40.7717 32.3966C40.7717 32.2889 40.856 32.2052 40.9643 32.2052C41.0727 32.2052 41.157 32.2889 41.157 32.3966Z" fill="#EBEBF5" fill-opacity="0.6"/>
<path d="M42.1835 32.3966C42.1835 32.5013 42.0992 32.5881 41.9909 32.5881C41.8825 32.5881 41.7982 32.5043 41.7982 32.3966C41.7982 32.2889 41.8825 32.2052 41.9909 32.2052C42.0992 32.2052 42.1835 32.2889 42.1835 32.3966Z" fill="#EBEBF5" fill-opacity="0.6"/>
<path d="M43.2101 32.3966C43.2101 32.5013 43.1258 32.5881 43.0174 32.5881C42.909 32.5881 42.8248 32.5043 42.8248 32.3966C42.8248 32.2889 42.909 32.2052 43.0174 32.2052C43.1258 32.2052 43.2101 32.2889 43.2101 32.3966Z" fill="#EBEBF5" fill-opacity="0.6"/>
</svg>
