<svg width="68" height="50" viewBox="0 0 68 50" fill="none" xmlns="http://www.w3.org/2000/svg">
<path d="M39.6575 39.4898H37.0466L36.0889 38.5269V19.884H36.5141V38.3511L37.2254 39.0623H39.4827L40.1901 38.3511V19.884H40.6193V38.5269L39.6575 39.4898Z" fill="#101010"/>
<path d="M40.4039 33.928H36.3027V34.3556H40.4039V33.928Z" fill="#101010"/>
<path d="M43.8829 20.0997H33.8286V10.9461H43.8829L45.4009 12.0968V18.953L43.8829 20.1037V20.0997ZM34.2538 19.6722H43.7398L44.9757 18.7373V12.3086L43.7398 11.3736H34.2538V19.6722Z" fill="#101010"/>
<path d="M27.0283 20.0997C24.4531 20.0997 22.3628 17.9941 22.3628 15.405C22.3628 12.8159 24.4571 10.7143 27.0283 10.7143C29.5995 10.7143 31.6938 12.8199 31.6938 15.405C31.6938 17.9901 29.5995 20.0997 27.0283 20.0997ZM27.0283 11.1418C24.6876 11.1418 22.788 13.0556 22.788 15.405C22.788 17.7543 24.6916 19.6682 27.0283 19.6682C29.365 19.6682 31.2685 17.7543 31.2685 15.405C31.2685 13.0556 29.365 11.1418 27.0283 11.1418Z" fill="#101010"/>
<path d="M27.0279 17.6824C25.78 17.6824 24.7627 16.6596 24.7627 15.405C24.7627 14.1504 25.78 13.1276 27.0279 13.1276C28.2757 13.1276 29.2931 14.1504 29.2931 15.405C29.2931 16.6596 28.2757 17.6824 27.0279 17.6824ZM27.0279 13.5591C26.0145 13.5591 25.1919 14.3901 25.1919 15.409C25.1919 16.4278 26.0185 17.2589 27.0279 17.2589C28.0373 17.2589 28.8639 16.4278 28.8639 15.409C28.8639 14.3901 28.0373 13.5591 27.0279 13.5591Z" fill="#101010"/>
<path d="M28.3362 39.4898H25.7253L24.7676 38.5268V19.3525H25.1928V38.351L25.9002 39.0623H28.1574L28.8688 38.351V19.3845H29.294V38.5268L28.3362 39.4898Z" fill="#101010"/>
<path d="M29.0782 33.928H24.9771V34.3556H29.0782V33.928Z" fill="#101010"/>
<path d="M27.5225 24.0992C27.5225 24.3709 27.304 24.5906 27.0337 24.5906C26.7635 24.5906 26.5449 24.3709 26.5449 24.0992C26.5449 23.8275 26.7635 23.6077 27.0337 23.6077C27.304 23.6077 27.5225 23.8275 27.5225 24.0992Z" fill="#101010"/>
<path d="M27.0274 22.9885C26.7572 22.9885 26.5386 22.7687 26.5386 22.497V22.1574C26.5386 21.8857 26.7572 21.666 27.0274 21.666C27.2976 21.666 27.5162 21.8857 27.5162 22.1574V22.497C27.5162 22.7687 27.2976 22.9885 27.0274 22.9885Z" fill="#101010"/>
</svg>
