<svg width="68" height="50" viewBox="0 0 68 50" fill="none" xmlns="http://www.w3.org/2000/svg">
<path d="M37.6414 34.6939H29.3438C26.8758 34.6939 24.8657 32.6976 24.8657 30.2466V19.2432C24.8657 16.7922 26.8758 14.7959 29.3438 14.7959H37.6414C40.1137 14.7959 42.1195 16.7922 42.1195 19.2432V30.2466C42.1195 32.6976 40.1094 34.6939 37.6414 34.6939ZM29.3438 15.2593C27.1331 15.2593 25.3323 17.0477 25.3323 19.2432V30.2466C25.3323 32.4421 27.1331 34.2305 29.3438 34.2305H37.6414C39.8521 34.2305 41.6529 32.4421 41.6529 30.2466V19.2432C41.6529 17.0477 39.8521 15.2593 37.6414 15.2593H29.3438Z" fill="#EBEBF5" fill-opacity="0.6"/>
<path d="M37.1947 33.1632H29.7905C27.9147 33.1632 26.3881 31.6149 26.3881 29.7122V19.2673C26.3881 17.3647 27.9147 15.8163 29.7905 15.8163H37.1947C39.0705 15.8163 40.5971 17.3647 40.5971 19.2673V29.7122C40.5971 31.6149 39.0705 33.1632 37.1947 33.1632ZM29.7905 16.2843C28.1691 16.2843 26.8495 17.6227 26.8495 19.2673V29.7122C26.8495 31.3568 28.1691 32.6952 29.7905 32.6952H37.1947C38.8161 32.6952 40.1357 31.3568 40.1357 29.7122V19.2673C40.1357 17.6227 38.8161 16.2843 37.1947 16.2843H29.7905Z" fill="#EBEBF5" fill-opacity="0.6"/>
<path d="M39.2427 15.8163C38.4925 14.9459 38.0818 13.8122 38.0818 12.6294V11.5091C38.0818 10.487 37.3022 9.66124 36.3467 9.66124H30.6301C29.6746 9.66124 28.895 10.4914 28.895 11.5091V12.6294C28.895 13.8122 28.4843 14.9415 27.7341 15.8163L27.403 15.4949C28.0778 14.7094 28.4466 13.6962 28.4466 12.6339V11.5136C28.4466 10.2281 29.4273 9.18365 30.6343 9.18365H36.3509C37.5579 9.18365 38.5386 10.2281 38.5386 11.5136V12.6339C38.5386 13.6962 38.9116 14.7138 39.5821 15.4949L39.251 15.8163H39.2427Z" fill="#EBEBF5" fill-opacity="0.6"/>
<path d="M36.357 40.3061H30.6365C29.4287 40.3061 28.4473 39.2617 28.4473 37.9762V36.8559C28.4473 35.7936 28.0741 34.7759 27.403 33.9948L27.7344 33.6735C28.4851 34.5438 28.8961 35.6775 28.8961 36.8603V37.9807C28.8961 39.0028 29.6761 39.833 30.6323 39.833H36.3528C37.309 39.833 38.0891 39.0028 38.0891 37.9807V36.8603C38.0891 35.6775 38.5043 34.5483 39.2508 33.6735L39.5821 33.9948C38.9069 34.7804 38.5379 35.7936 38.5379 36.8559V37.9762C38.5379 39.2617 37.5565 40.3061 36.3486 40.3061" fill="#EBEBF5" fill-opacity="0.6"/>
<path d="M42.3732 22.9592C41.9558 22.9592 41.612 22.6643 41.612 22.2967V19.54C41.612 19.1767 41.9508 18.8775 42.3732 18.8775C42.7955 18.8775 43.1344 19.1724 43.1344 19.54V22.2967C43.1344 22.66 42.7955 22.9592 42.3732 22.9592ZM42.3732 19.3391C42.2455 19.3391 42.1424 19.4289 42.1424 19.54V22.2967C42.1424 22.4078 42.2455 22.4976 42.3732 22.4976C42.5009 22.4976 42.604 22.4078 42.604 22.2967V19.54C42.604 19.4289 42.5009 19.3391 42.3732 19.3391Z" fill="#EBEBF5" fill-opacity="0.6"/>
</svg>
