<svg width="68" height="50" viewBox="0 0 68 50" fill="none" xmlns="http://www.w3.org/2000/svg">
<path d="M33.9982 38.7755C32.0017 38.7755 29.384 38.6501 26.8445 37.678C24.5081 36.7804 22.9336 34.6402 22.8398 32.2217C22.8398 32.1394 22.8359 32.0532 22.8359 31.9709V17.3817C22.8359 15.2533 23.6017 13.4816 24.9379 12.5174C26.6452 11.2866 29.5247 10.7143 33.9982 10.7143C38.4717 10.7143 41.3511 11.2866 43.0624 12.5174C44.3986 13.4777 45.1643 15.2533 45.1643 17.3817V31.9709C45.1643 32.0532 45.1643 32.1394 45.1604 32.2217C45.0666 34.6402 43.4921 36.7843 41.1558 37.678C38.6162 38.654 35.9986 38.7755 34.0021 38.7755M33.9982 11.1337C29.6145 11.1337 26.8132 11.6825 25.1801 12.8584C23.9533 13.7403 23.2501 15.3905 23.2501 17.3817V31.9709C23.2501 32.0493 23.2501 32.1277 23.254 32.2061C23.3438 34.456 24.809 36.4511 26.9891 37.2899C29.4622 38.2385 32.033 38.36 33.9943 38.36C35.9556 38.36 38.5224 38.2385 40.9995 37.2899C43.1796 36.4511 44.6486 34.4599 44.7345 32.21C44.7345 32.1316 44.7385 32.0532 44.7385 31.9748V17.3857C44.7385 15.3944 44.0352 13.7442 42.8084 12.8623C41.1753 11.6864 38.374 11.1376 33.9904 11.1376" fill="#EBEBF5" fill-opacity="0.6"/>
<path d="M34.0001 13.7755C32.4537 13.7755 27.4031 13.702 27.4031 12.7551C27.4031 11.8082 32.4537 11.7347 34.0001 11.7347C35.5465 11.7347 40.5971 11.8082 40.5971 12.7551C40.5971 13.702 35.5465 13.7755 34.0001 13.7755ZM27.9173 12.7508C28.4591 13.0059 30.6502 13.3085 34.0001 13.3085C37.35 13.3085 39.5372 13.0059 40.083 12.7508C39.5411 12.4957 37.35 12.193 34.0001 12.193C30.6502 12.193 28.4631 12.4957 27.9173 12.7508Z" fill="#EBEBF5" fill-opacity="0.6"/>
</svg>
