<svg width="37" height="37" fill="none" xmlns="http://www.w3.org/2000/svg"><path d="M24.387 8A10.29 10.29 0 0018.5 9.852 10.291 10.291 0 0012.613 8C6.76 8 2 12.935 2 19s4.761 11 10.613 11a10.29 10.29 0 005.887-1.852A10.291 10.291 0 0024.387 30C30.24 30 35 25.065 35 19S30.239 8 24.387 8zm0 19.996c-3.16 0-5.931-1.76-7.449-4.384h1.116c.534 0 .966-.449.966-1.002 0-.553-.432-1.002-.966-1.002H16.08a9.22 9.22 0 01-.274-1.257H19.6c.533 0 .967-.449.967-1.002 0-.554-.434-1.003-.967-1.003h-3.87c.03-.427.089-.847.175-1.256h2.148c.534 0 .966-.449.966-1.002 0-.554-.432-1.003-.966-1.003h-1.48c1.407-3.004 4.38-5.08 7.813-5.08 4.786 0 8.68 4.035 8.68 8.995 0 4.96-3.894 8.996-8.68 8.996z" fill="#EBEBF5" fill-opacity=".6"/></svg>