<svg width="37" height="37" fill="none" xmlns="http://www.w3.org/2000/svg"><path d="M9.924 15.4L8.81 19.261h-.19l-1.114-3.863a1.531 1.531 0 00-1.472-1.104h-2.67v8.41h2.673v-4.97h.19l1.532 4.97H9.67l1.527-4.97h.19v4.97h2.675v-8.41h-2.671c-.68 0-1.278.45-1.468 1.104zm14.805 7.304h2.69v-2.486h2.708c1.415 0 2.621-.802 3.088-1.928h-8.486v4.415zm-4.766-7.522l-1.883 4.083h-.19v-4.97h-2.674v8.41h2.27c.598 0 1.14-.349 1.39-.887l1.882-4.08h.19v4.966h2.674v-8.409h-2.27c-.598 0-1.14.349-1.39.887zm10.429-.887c.773 0 1.472.296 2.001.782a2.936 2.936 0 01.913 2.7H28.34a3.76 3.76 0 01-3.587-2.628c-.006-.016-.01-.036-.016-.055-.013-.046-.023-.096-.037-.142a3.912 3.912 0 01-.095-.657h5.788z" fill="#EBEBF5" fill-opacity=".6"/></svg>