<svg width="92" height="37" fill="none" xmlns="http://www.w3.org/2000/svg"><path d="M73.969 13.78v8.8h1.833v-3.595h3.91v3.596h1.833v-8.802H79.71v3.609H75.8v-3.609h-1.83zm11.705 5.25h1.141l2.815 3.551H92l-3.752-4.552 3.278-4.25H89.42l-2.733 3.773h-1.012v-3.773H83.84v8.802h1.834v-3.55zm-14.858 3.55h1.93l-3.58-8.8h-1.87l-3.667 8.8h1.858l.737-1.772h3.898l.694 1.773zm-4.043-3.24l1.42-3.534 1.335 3.534h-2.755zm-6.979-2.13h-2.232v-1.965h4.797l.004-1.466h-6.635v8.802h3.83c2.147 0 3.38-1.008 3.38-2.765 0-1.68-1.117-2.606-3.144-2.606zm-.32 3.905h-1.912v-2.44h1.913c1.164 0 1.706.409 1.706 1.22 0 .83-.574 1.22-1.706 1.22zm-18.339-5.87l1.92-1.466h-6.426v8.802h6.426v-1.466h-4.592v-2.253h3.917v-1.466h-3.917v-2.151h2.672zm-9.356 1.965h-2.232v-1.965h3.562l1.92-1.466h-7.316v8.802h3.829c2.148 0 3.38-1.008 3.38-2.765 0-1.68-1.117-2.606-3.143-2.606zm-.32 3.905h-1.912v-2.44h1.912c1.164 0 1.706.409 1.706 1.22 0 .83-.574 1.22-1.706 1.22zm16.802-7.335h-3.498v8.8h1.833v-2.492h1.665c2.233 0 3.62-1.216 3.62-3.159 0-1.943-1.387-3.15-3.62-3.15zm-.04 4.842h-1.625v-3.377h1.625c1.175 0 1.821.6 1.821 1.688 0 1.09-.647 1.69-1.821 1.69zm-23.656 2.054a3.195 3.195 0 01-1.584.41c-1.653 0-2.853-1.222-2.853-2.906 0-1.684 1.2-2.903 2.853-2.903a2.728 2.728 0 011.668.542l1.316-1.005-.087-.079c-.77-.698-1.794-1.068-2.967-1.068-1.273 0-2.428.444-3.253 1.252-.824.807-1.286 1.954-1.286 3.216 0 1.262.455 2.427 1.282 3.265.827.837 1.981 1.301 3.245 1.301 1.322 0 2.476-.477 3.26-1.346l-1.188-.906-.406.227zM14.01 18.137c0-.436-.038-.87-.113-1.3l-1.508 1.151v.146a5.715 5.715 0 01-1.143 3.445 5.38 5.38 0 01-2.95 1.983 5.223 5.223 0 01-3.504-.322 5.476 5.476 0 01-2.567-2.49 5.761 5.761 0 01-.539-3.6 5.64 5.64 0 011.719-3.178 5.3 5.3 0 013.245-1.406 5.256 5.256 0 013.392.966l1.363-1.04a6.858 6.858 0 00-4.364-1.61 6.853 6.853 0 00-4.38 1.564 7.29 7.29 0 00-2.48 4.051 7.49 7.49 0 00.504 4.77 7.136 7.136 0 003.267 3.4 6.78 6.78 0 004.602.545 6.978 6.978 0 003.925-2.547 7.42 7.42 0 001.532-4.528h-.002z" fill="#EBEBF5" fill-opacity=".6"/><path d="M12.547 13.701c.333.446.615.93.84 1.443l-6.383 4.872-2.667-1.732v-2.082l2.667 1.73 5.543-4.23z" fill="#EBEBF5" fill-opacity=".6"/></svg>