<svg width="60" height="37" fill="none" xmlns="http://www.w3.org/2000/svg"><g clip-path="url(#clip0_1_489)" fill="#EBEBF5" fill-opacity=".6"><path d="M30.081 15.273h-1.927l-1.363 2.445h-.702l-.023-5.291h-1.824v9.556h1.824l.023-2.623h.697l1.81 2.623h2.021l-2.36-3.476 1.824-3.234zm13.807 3.147a4.801 4.801 0 00-1.194-.57l-.403-.155-.108-.042c-.25-.095-.513-.196-.522-.455a.466.466 0 01.197-.392.855.855 0 01.447-.155c.35-.025.696.08.974.296l.05.032.974-1.145-.049-.04a2.464 2.464 0 00-1.202-.598 2.93 2.93 0 00-1.243 0c-.396.053-.772.21-1.091.456a2.002 2.002 0 00-.502.595 2.04 2.04 0 00-.24.746 1.96 1.96 0 00.33 1.34c.358.404.825.69 1.342.822l.08.027.183.064c.662.228.85.32.957.456.05.069.078.152.08.237 0 .324-.388.456-.652.538a1.346 1.346 0 01-1.064-.246 2.231 2.231 0 01-.617-.634l-.234.24c-.329.335-.874.892-.861.905l.031.046a3.383 3.383 0 001.931 1.222c.175.034.35.057.528.068h.183a2.739 2.739 0 001.681-.533c.33-.239.584-.572.73-.958a1.912 1.912 0 00-.162-1.578 1.904 1.904 0 00-.554-.589zm4.702-.57c.42.134.821.326 1.19.57.22.154.406.353.545.584a1.9 1.9 0 01.161 1.578 2.08 2.08 0 01-.729.958 2.739 2.739 0 01-1.68.534h-.184a3.955 3.955 0 01-.527-.068 3.385 3.385 0 01-1.932-1.223l-.035-.046c-.01-.011.422-.453.748-.786.17-.175.313-.32.347-.358.164.249.374.464.617.634a1.37 1.37 0 001.068.246c.264-.082.648-.214.648-.538a.374.374 0 00-.075-.237c-.108-.137-.295-.229-.962-.457l-.183-.063-.076-.028a2.673 2.673 0 01-1.341-.82 1.933 1.933 0 01-.331-1.342 2.034 2.034 0 01.751-1.336c.32-.244.695-.401 1.09-.456.412-.09.837-.09 1.248 0 .283.056.555.159.805.305.142.083.276.18.398.292l.045.041-.975 1.145-.045-.032a1.437 1.437 0 00-.974-.296.855.855 0 00-.447.155.489.489 0 00-.202.392c.014.26.273.36.528.456l.103.041.407.155z"/><path fill-rule="evenodd" clip-rule="evenodd" d="M36.072 15.274v.656h-.08a2.656 2.656 0 00-1.882-.802 3.03 3.03 0 00-1.262.247 3.06 3.06 0 00-1.054.752 3.637 3.637 0 00-.894 2.48 3.753 3.753 0 00.894 2.532c.288.323.642.58 1.036.751a2.988 2.988 0 003.17-.51h.072v.59h1.896v-6.696h-1.896zm.094 3.37a2.22 2.22 0 01-.496 1.483 1.634 1.634 0 01-1.296.566 1.543 1.543 0 01-.685-.148 1.575 1.575 0 01-.554-.437 2.265 2.265 0 01-.483-1.5 2.18 2.18 0 01.492-1.446 1.574 1.574 0 011.243-.575 1.608 1.608 0 011.283.57c.338.417.515.946.496 1.487zm20.527-2.714v-.656h1.896v6.695h-1.896v-.588h-.071a2.989 2.989 0 01-4.207-.242 3.754 3.754 0 01-.894-2.531c-.022-.913.297-1.8.894-2.482a3.104 3.104 0 011.056-.75c.4-.172.83-.257 1.264-.248.705.005 1.38.293 1.878.802h.08zm-.402 4.197a2.2 2.2 0 00.496-1.483 2.214 2.214 0 00-.496-1.487 1.64 1.64 0 00-.579-.432 1.608 1.608 0 00-.704-.138 1.572 1.572 0 00-.684.146 1.606 1.606 0 00-.56.429 2.18 2.18 0 00-.49 1.446 2.264 2.264 0 00.482 1.5 1.555 1.555 0 001.238.584 1.648 1.648 0 001.297-.566zM5.824 18.071c.01-3.96 3.192-7.189 7.19-7.189 3.958 0 7.234 3.24 7.188 7.209 0 3.97-3.23 7.209-7.189 7.209a7.185 7.185 0 01-7.189-7.19v5.365H3.276L0 12.98h5.824v5.09zm4.505.02c0 1.46 1.228 2.692 2.684 2.692a2.693 2.693 0 002.685-2.692c0-1.46-1.229-2.692-2.685-2.692s-2.684 1.232-2.684 2.692z"/></g><defs><clipPath id="clip0_1_489"><path fill="#fff" transform="translate(0 10.882)" d="M0 0h58.588v14.51H0z"/></clipPath></defs></svg>