<svg width="15" height="19" fill="none" xmlns="http://www.w3.org/2000/svg"><path d="M12.42 3.753h-1.127a4.286 4.286 0 00-1.23-2.675A3.644 3.644 0 007.5 0c-.948 0-1.862.384-2.564 1.078a4.286 4.286 0 00-1.23 2.675H2.58c-.684 0-1.34.297-1.823.823A2.94 2.94 0 000 6.56v9.633c0 .744.273 1.458.757 1.984.483.526 1.14.822 1.823.823h9.84a2.481 2.481 0 001.823-.823A2.94 2.94 0 0015 16.193V6.56a2.94 2.94 0 00-.757-1.984 2.482 2.482 0 00-1.823-.823zM7.5 1.295a2.518 2.518 0 011.721.703c.478.45.79 1.073.881 1.754H4.898a2.94 2.94 0 01.881-1.754A2.518 2.518 0 017.5 1.295zm6.309 14.898c0 .4-.147.785-.407 1.068-.26.284-.614.443-.982.443H2.58c-.368 0-.721-.16-.982-.443a1.583 1.583 0 01-.407-1.068V6.56c0-.4.147-.785.407-1.068.26-.284.614-.443.982-.443h9.84c.368 0 .721.16.982.443.26.283.407.667.407 1.068v9.633z" fill="#EBEBF5" fill-opacity=".6"/></svg>