<svg width="21" height="14" fill="none" xmlns="http://www.w3.org/2000/svg"><path fill-rule="evenodd" clip-rule="evenodd" d="M19.864 13.53a.75.75 0 01-1.061 0l-2.24-2.24a6.03 6.03 0 111.06-1.06l2.24 2.24a.75.75 0 010 1.06zM.25 2A.75.75 0 011 1.25h5.5a.75.75 0 010 1.5H1A.75.75 0 01.25 2zm0 4.583a.75.75 0 01.75-.75h3.667a.75.75 0 010 1.5H1a.75.75 0 01-.75-.75zm0 4.584a.75.75 0 01.75-.75h5.5a.75.75 0 010 1.5H1a.75.75 0 01-.75-.75zm12.613-.108a4.53 4.53 0 100-9.059 4.53 4.53 0 000 9.059z" fill="#fff"/></svg>