<svg width="26" height="26" fill="none" xmlns="http://www.w3.org/2000/svg"><path d="M21.303 21.57H3.863A2.868 2.868 0 011 18.704V8.07a2.868 2.868 0 012.864-2.866H15.42v.247H3.864a2.62 2.62 0 00-2.616 2.616v10.634a2.62 2.62 0 002.616 2.617h17.44A2.618 2.618 0 0023.92 18.7v-4.61h.247v4.61a2.87 2.87 0 01-2.866 2.867" fill="#101010"/><path d="M21.466 15.847h-4.98a2.937 2.937 0 01-2.933-2.933v-4.98A2.937 2.937 0 0116.486 5h4.98A2.937 2.937 0 0124.4 7.933v4.98a2.937 2.937 0 01-2.934 2.934zM16.484 5.245a2.69 2.69 0 00-2.686 2.686v4.98a2.69 2.69 0 002.686 2.686h4.98a2.69 2.69 0 002.686-2.686v-4.98a2.69 2.69 0 00-2.686-2.686h-4.98z" fill="#101010"/><path d="M21.45 15.134h-4.953a2.24 2.24 0 01-2.237-2.236V7.945a2.24 2.24 0 012.237-2.237h4.952a2.24 2.24 0 012.237 2.237v4.953a2.24 2.24 0 01-2.237 2.236zm-4.951-9.176a1.99 1.99 0 00-1.987 1.987v4.953c0 1.096.893 1.989 1.987 1.989h4.953c1.096 0 1.99-.893 1.99-1.99V7.946a1.99 1.99 0 00-1.99-1.987h-4.953z" fill="#101010"/><path d="M18.839 13.268a2.788 2.788 0 01-2.785-2.786 2.788 2.788 0 012.785-2.785 2.788 2.788 0 012.785 2.785 2.788 2.788 0 01-2.785 2.786zm0-5.323a2.54 2.54 0 00-2.538 2.537 2.538 2.538 0 005.076 0 2.542 2.542 0 00-2.538-2.537zm-7.348 9.121H4.503a1.615 1.615 0 01-1.612-1.612V8.465c0-.888.724-1.612 1.612-1.612h6.988c.889 0 1.613.724 1.613 1.612v6.989c0 .89-.724 1.612-1.613 1.612zM4.503 7.1c-.752 0-1.365.613-1.365 1.365v6.989c0 .751.613 1.364 1.365 1.364h6.988c.752 0 1.365-.613 1.365-1.365V8.465c0-.752-.613-1.365-1.365-1.365H4.503z" fill="#101010"/><path d="M19.711 10.482a.869.869 0 11-1.74 0 .869.869 0 111.74 0zm-8.353 5.835h-6.72a.997.997 0 01-.997-.998V8.6c0-.548.446-.997.997-.997h6.72c.55 0 .997.447.997.997v6.72a.998.998 0 01-.997.998zM4.635 7.815a.785.785 0 00-.784.784v6.72c0 .433.352.785.784.785h6.72a.785.785 0 00.784-.784V8.6a.785.785 0 00-.784-.785h-6.72zm13.563 9.647a.148.148 0 01-.148.148.146.146 0 01-.148-.148c0-.084.065-.148.148-.148.084 0 .148.064.148.148zm.788 0a.148.148 0 01-.148.148.146.146 0 01-.148-.148c0-.084.065-.148.148-.148.084 0 .148.064.148.148zm.793 0a.148.148 0 01-.148.148.146.146 0 01-.149-.148c0-.084.065-.148.149-.148.083 0 .148.064.148.148zm-1.581.772a.147.147 0 01-.148.148.146.146 0 01-.148-.148c0-.083.065-.148.148-.148.084 0 .148.065.148.148zm.788 0a.147.147 0 01-.148.148.146.146 0 01-.148-.148c0-.083.065-.148.148-.148.084 0 .148.065.148.148zm.793 0a.148.148 0 01-.148.148.146.146 0 01-.149-.148c0-.083.065-.148.149-.148.083 0 .148.065.148.148zm-1.581.77a.148.148 0 01-.148.148.146.146 0 01-.148-.148c0-.083.065-.148.148-.148.084 0 .148.065.148.148zm.788 0a.148.148 0 01-.148.148.146.146 0 01-.148-.148c0-.083.065-.148.148-.148.084 0 .148.065.148.148zm.793 0a.148.148 0 01-.148.148.146.146 0 01-.149-.148c0-.083.065-.148.149-.148.083 0 .148.065.148.148z" fill="#101010"/></svg>