<svg width="26" height="26" fill="none" xmlns="http://www.w3.org/2000/svg"><path d="M7.002 25.04h-1.63v-5.048h-.287v-4.178h.35v3.828h.291v5.047h.926v-5.047h.288v-3.828h.353v4.178h-.291v5.047z" fill="#101010"/><path d="M9.38 15.99H3V9.855h6.38v6.137zm-6.027-.35H9.03v-5.436H3.353v5.437z" fill="#101010"/><path d="M8.837 10.204H3.544V5.127h5.293v5.077zm-4.943-.35h4.593V5.48H3.894v4.374z" fill="#101010"/><path d="M8.161 8.215H6.758V7.034H8.16v1.18zm-1.053-.35h.703v-.481h-.703v.48zm-1.485.35H4.22V7.034h1.403v1.18zm-1.053-.35h.703v-.481H4.57v.48zM17.383 25.04h-1.629v-8.038h-.291v-4.538l.206.036a5.34 5.34 0 001.796 0l.206-.036v4.538h-.291v8.038h.003zm-1.279-.35h.926v-8.038h.291v-3.776c-.5.066-1.008.066-1.505 0v3.776h.291v8.037h-.003z" fill="#101010"/><path d="M16.571 12.929a5.664 5.664 0 01-5.656-5.657 5.664 5.664 0 015.656-5.656 5.664 5.664 0 015.657 5.656 5.664 5.664 0 01-5.657 5.657zm0-10.96a5.311 5.311 0 00-5.306 5.303 5.312 5.312 0 005.306 5.307 5.31 5.31 0 005.306-5.307 5.307 5.307 0 00-5.306-5.302z" fill="#101010"/></svg>