<svg width="26" height="26" fill="none" xmlns="http://www.w3.org/2000/svg"><path d="M13.57 10.94a.13.13 0 11-.261-.001.13.13 0 01.261 0zm-.415 0a.13.13 0 11-.261-.001.13.13 0 01.261 0zm-.415 0a.13.13 0 11-.261-.001.13.13 0 01.261 0zm-.414 0a.13.13 0 11-.261-.001.13.13 0 01.261 0zm1.448-.35a.13.13 0 11-.261 0 .13.13 0 01.261 0zm-.411 0a.13.13 0 11-.261 0 .13.13 0 01.261 0zm-.415 0a.13.13 0 11-.261 0 .13.13 0 01.261 0zm-.415 0a.13.13 0 11-.261 0 .13.13 0 01.261 0zm-.415 0a.13.13 0 11-.261 0 .13.13 0 01.261 0zm1.109 3.111h-.782a.173.173 0 010-.345h.782a.173.173 0 010 .345zm9.117 7.192c-.627-.426-.897-1.553-1.24-2.976-.486-2.024-1.091-4.54-2.95-6.66l-.598-.618a2.626 2.626 0 01-.66-2.488l.41-1.626.23.057-.41 1.626a2.4 2.4 0 00.602 2.265l.604.623c1.9 2.168 2.54 4.824 3.007 6.766.331 1.374.592 2.461 1.142 2.837l-.133.196-.004-.002z" fill="#101010"/><path d="M16.535 13.147a1.371 1.371 0 010-2.74 1.371 1.371 0 010 2.74zm0-2.504a1.134 1.134 0 10.002 2.27 1.134 1.134 0 00-.002-2.27zm3.303-2.185a.813.813 0 01-.813-.81.814.814 0 011.626 0c0 .448-.364.81-.813.81zm0-1.387a.575.575 0 10.001 1.15.575.575 0 000-1.15zm1.632 2.965a.814.814 0 11.002-1.628.814.814 0 01-.002 1.628zm0-1.388a.576.576 0 00-.574.575c0 .316.258.574.574.574a.576.576 0 00.575-.574.576.576 0 00-.575-.575zm-1.59 2.93a.813.813 0 01-.814-.811.814.814 0 011.626 0c0 .448-.364.81-.813.81zm0-1.388a.575.575 0 100 1.15.575.575 0 000-1.15zm-1.697-.216a.813.813 0 01-.813-.811.814.814 0 011.626 0c0 .448-.364.81-.813.81zm0-1.386a.576.576 0 00-.574.575c0 .316.258.574.574.574a.576.576 0 00.575-.574.576.576 0 00-.575-.575z" fill="#101010"/><path d="M20.93 21.289a.444.444 0 01-.354-.202c-.427-.598-.984-2.196-1.43-3.48-.24-.693-.45-1.292-.583-1.575-.34-.725-2.015-.674-3.95-.612-.595.018-1.207.038-1.835.038-.691 0-1.336-.02-1.962-.04-1.946-.06-3.484-.106-3.824.614-.133.283-.34.882-.584 1.576-.446 1.283-1.003 2.88-1.43 3.48-.114.16-.289.234-.452.187l-1.606-.457c-.517-.181-.89-.758-1.12-1.721-.78-3.288.35-10.157 2.534-12.413.61-.63 1.973-.972 3.241-.813.27.033.44.179.557.291l.11-.022.089-.196.068-.007c1.072-.1 2.163-.172 3.24-.214.368-.016.735-.025 1.097-.034h.08a58.601 58.601 0 014.337.247l.069.008.088.196.11.022c.124-.117.292-.258.557-.291 1.268-.16 2.632.183 3.242.813 2.183 2.256 3.314 9.123 2.534 12.413-.23.963-.603 1.54-1.114 1.719l-1.61.46a.382.382 0 01-.1.013zM6.935 6.069c-1 0-1.966.299-2.432.78-2.14 2.21-3.242 8.958-2.473 12.192.206.867.537 1.404.961 1.552l1.598.455c.095.026.168-.06.197-.097.406-.57.956-2.15 1.398-3.42.243-.701.453-1.304.592-1.598.407-.862 1.934-.816 4.046-.75.623.02 1.266.04 1.955.04.626 0 1.236-.02 1.828-.037 2.103-.066 3.765-.117 4.173.749.137.294.35.9.593 1.597.441 1.27.992 2.85 1.398 3.42.027.038.102.124.197.098l1.604-.457c.415-.146.749-.68.954-1.55.77-3.236-.335-9.982-2.472-12.191-.561-.581-1.843-.893-3.043-.743-.218.027-.349.155-.453.257l-.044.044h-.07l-.294-.058-.082-.183a60.238 60.238 0 00-4.287-.239 60.236 60.236 0 00-4.286.239l-.082.183-.353.067-.044-.045c-.115-.112-.246-.24-.464-.267a5.104 5.104 0 00-.61-.037" fill="#101010"/><path d="M3.207 20.893l-.133-.197c.55-.375.813-1.462 1.143-2.837.466-1.94 1.107-4.598 3.002-6.76l.606-.628a2.396 2.396 0 00.603-2.265L8.017 6.58l.23-.058.41 1.627a2.64 2.64 0 01-.66 2.488l-.603.623c-1.854 2.114-2.46 4.633-2.948 6.655-.342 1.425-.614 2.55-1.24 2.976" fill="#101010"/><path d="M9.025 13.147a1.371 1.371 0 010-2.74 1.371 1.371 0 010 2.74zm0-2.504a1.134 1.134 0 000 2.267 1.134 1.134 0 000-2.267zm6.168-.607H10.36a1.396 1.396 0 01-1.38-1.167l-.597-2.426.23-.058.598 2.435c.098.57.58.98 1.15.98h4.832a1.16 1.16 0 001.146-.97l.601-2.445.23.058-.599 2.435a1.392 1.392 0 01-1.379 1.158zm-9.337-.999a.252.252 0 01-.182-.075l-.417-.42a.254.254 0 01-.075-.181v-.698c0-.142.115-.257.256-.257h.83c.142 0 .257.115.257.257v.729c0 .07-.029.137-.08.185l-.413.391a.26.26 0 01-.176.071M5.438 7.64s-.02.01-.02.02v.699l.424.433s.02.008.029 0l.413-.391.007-.743a.02.02 0 00-.02-.02h-.83l-.003.002zm.831 3.359h-.831a.256.256 0 01-.256-.256v-.7c0-.067.026-.133.075-.182l.417-.42a.26.26 0 01.358-.006l.413.39a.26.26 0 01.08.186v.73a.256.256 0 01-.256.256m-.411-1.392s-.011 0-.014.006l-.417.42-.007.714s.01.02.02.02h.83s.02-.01.02-.02v-.73l-.417-.404s-.009-.004-.013-.004m-.849.267h-.7a.256.256 0 01-.256-.256v-.83c0-.142.115-.257.256-.257h.73c.07 0 .138.029.185.08l.39.413a.257.257 0 01-.004.358l-.42.417a.254.254 0 01-.18.075zm-.7-1.107s-.02.01-.02.02v.831s.009.02.02.02h.7l.433-.424s.007-.02 0-.027l-.39-.413-.743-.007zM7.39 9.874h-.698A.254.254 0 016.51 9.8l-.42-.417a.256.256 0 01-.005-.358l.391-.414a.26.26 0 01.186-.08h.73c.14 0 .255.116.255.257v.831a.256.256 0 01-.256.256M6.66 8.768l-.404.418s-.007.02 0 .029l.42.417.713.007a.02.02 0 00.02-.02v-.83a.02.02 0 00-.02-.02h-.73z" fill="#101010"/></svg>