<svg width="26" height="26" fill="none" xmlns="http://www.w3.org/2000/svg"><path d="M12.588 24.127c-.343 0-.69-.044-1.03-.13l-3.658-.93A2.518 2.518 0 016 20.626V4.753c0-.179.111-.343.281-.407l5.497-2.092a3.86 3.86 0 012.132-.18l5.738 1.14c.204.04.352.22.352.427v16.212a2.536 2.536 0 01-1.62 2.355l-4.297 1.64a4.191 4.191 0 01-1.486.276m.553-21.79c-.427 0-.853.077-1.258.232L6.396 4.658a.107.107 0 00-.068.099v15.872c0 1.001.68 1.875 1.65 2.12l3.658.927a3.834 3.834 0 002.317-.136l4.298-1.641a2.203 2.203 0 001.41-2.043V3.645a.103.103 0 00-.084-.102l-5.738-1.14a3.473 3.473 0 00-.69-.068z" fill="#EBEBF5" fill-opacity=".6"/><path d="M12.509 6.156c-.312 0-.625-.034-.93-.099l-5.2-1.115a.478.478 0 01-.331-.26l.296-.145a.15.15 0 00.102.08l5.2 1.116a4.074 4.074 0 002.29-.167l5.642-2.101a.14.14 0 00.071-.062l.297.149a.453.453 0 01-.25.222l-5.642 2.101a4.419 4.419 0 01-1.545.278" fill="#EBEBF5" fill-opacity=".6"/><path d="M12.507 6.867c-.312 0-.627-.034-.936-.099L6.346 5.646a.478.478 0 01-.33-.26l.296-.144a.147.147 0 00.105.08l5.225 1.122c.77.163 1.564.108 2.299-.167l5.667-2.11a.14.14 0 00.07-.062l.297.148a.471.471 0 01-.25.225l-5.667 2.11c-.5.186-1.022.282-1.55.282" fill="#EBEBF5" fill-opacity=".6"/><path d="M11.842 4.892c-.13 0-.26-.009-.389-.03l-.896-.146a.345.345 0 01-.294-.312.35.35 0 01.226-.364l2.447-.937a2.435 2.435 0 011.252-.13l1.062.168a.345.345 0 01.297.315.35.35 0 01-.235.364l-2.657.933c-.26.093-.535.14-.81.14m1.962-1.62c-.256 0-.512.047-.753.14l-2.448.936v.04l.9.145c.346.056.704.025 1.035-.093l2.657-.933.021-.204-.024.164-1.063-.167a2.337 2.337 0 00-.328-.024" fill="#EBEBF5" fill-opacity=".6"/></svg>