<svg width="21" height="18" fill="none" xmlns="http://www.w3.org/2000/svg"><path d="M.234 12.086c.42-.1.842-.204 1.23-.299 0-3.289-.014-6.602.009-9.912C1.48.748 2.103.11 3.203.107c4.84-.019 9.68-.019 14.52 0 1.059.004 1.695.616 1.734 1.657.045 1.225.014 2.45.017 3.678v.935c-.111.046-.22.095-.33.141-.164-.345-.448-.681-.467-1.034-.059-1.152-.03-2.31-.02-3.466.006-.746-.342-1.08-1.064-1.08-4.739.006-9.477.008-14.215 0-.78 0-1.105.359-1.101 1.15.014 2.873.016 5.744 0 8.617-.006.858.366 1.188 1.179 1.181 2.591-.019 5.18-.006 7.771-.006h.974l.12.235c-.703.692-1.378 1.415-2.121 2.056-.221.191-.624.22-.946.223-2.08.019-4.16-.049-6.236.031-1.26.049-2.18-.357-2.782-1.494v-.84l-.002-.005z" fill="#EBEBF5" fill-opacity=".6"/><path d="M11.082 17.765c-1.318-1.02-1.375-1.788-.225-2.989.526-.548 1.042-1.11 1.594-1.63.85-.804 1.45-1.541 1.37-2.966-.131-2.357 2.36-3.906 4.637-3.04-.325.351-.62.677-.925.994-1.216 1.274-1.504 2.233-.853 2.861.655.63 1.514.349 2.777-.95.287-.294.51-.656.776-1.005l.466.524v1.683c-.855 1.936-2.138 3.088-4.377 2.62-.215-.045-.54.212-.741.407-1.171 1.152-2.321 2.327-3.478 3.493H11.08l.002-.002z" fill="#EBEBF5" fill-opacity=".6"/></svg>