<svg width="18" height="16" fill="none" xmlns="http://www.w3.org/2000/svg"><path d="M16.947 9.055c-1.006.477-2.561.7-3.399 1.42-.957.821-1.15 2.493-1.682 3.591-.154.316-.322.254-.48-.024-.546-.968-.645-2.509-1.47-3.391-.778-.834-2.502-1.078-3.524-1.583-.124-.058-.165-.223-.138-.353.035-.151 2.475-.913 2.863-1.105 1.466-.725 1.617-2.365 2.186-3.745.127-.302.175-.608.55-.261.624 1.376.751 3.189 2.214 3.964.83.44 1.939.677 2.814 1.058.196.103.19.26.066.429zM4.362.017c.093.062.61 1.771.769 2.073.58 1.105 1.75 1.123 2.777 1.593.274.127.236.237-.021.384-.67.381-1.85.47-2.41 1.05-.628.65-.676 1.937-1.232 2.637-.213 0-.755-1.878-.93-2.197-.573-1.05-1.836-.992-2.712-1.49-.25-.144-.305-.26-.024-.384 1.116-.491 2.183-.464 2.79-1.661.203-.402.55-1.72.715-1.923.072-.085.21-.127.281-.079L4.362.017zM5.767 13.03c.027.14-.038.168-.134.233-.313.216-1.05.333-1.435.542-.862.47-.776 1.46-1.274 2.187-.164.038-.116-.062-.16-.165-.214-.487-.413-1.428-.783-1.774-.467-.44-1.449-.522-1.981-.903 0-.189 1.38-.553 1.62-.683.855-.464.772-1.538 1.301-2.238.093 0 .536 1.38.642 1.582.436.82 1.404.9 2.2 1.219h.004z" fill="#fff" fill-opacity=".6"/></svg>