<svg width="138" height="60" fill="none" xmlns="http://www.w3.org/2000/svg"><path fill-rule="evenodd" clip-rule="evenodd" d="M33.293 14c.31 2.004-.547 3.968-1.677 5.357-1.209 1.49-3.293 2.643-5.312 2.583-.368-1.919.576-3.896 1.724-5.225 1.26-1.467 3.418-2.593 5.265-2.715zm6.065 28.213c1.041-1.52 1.43-2.286 2.238-4.001-5.877-2.129-6.818-10.086-1.002-13.14-1.774-2.12-4.267-3.347-6.62-3.347-1.696 0-2.858.421-3.914.804-.88.32-1.687.612-2.668.612-1.06 0-2-.32-2.983-.656-1.08-.37-2.214-.756-3.621-.756-2.64 0-5.452 1.536-7.234 4.163-2.505 3.7-2.078 10.657 1.985 16.583 1.452 2.12 3.392 4.503 5.93 4.525 1.052.01 1.753-.29 2.511-.613.868-.371 1.811-.774 3.444-.782 1.643-.01 2.571.398 3.428.774.738.325 1.424.626 2.467.615 2.54-.02 4.587-2.66 6.04-4.781z" fill="#101010"/><path d="M69.363 26.563h2.461l.237 1.9c2.786-3.259 7.473-3.164 10.102.238 4.706 6.1-1.113 17.368-8.763 12.256-.867-.58-.808-1.425-1.586-1.558V47h-2.461V26.572l.01-.01zm4.076 12.219c.266.266 1.812.94 2.206.997 7.493 1.112 6.744-13.995-1.152-10.879-3.28 1.292-3.21 7.763-1.054 9.882zm14.139-12.219h2.462l.236 1.9c2.787-3.259 7.474-3.164 10.103.238 4.706 6.1-1.113 17.368-8.764 12.256-.866-.58-.807-1.425-1.585-1.558V47h-2.462V26.572l.01-.01zm4.077 12.219c.266.266 1.811.94 2.205.997 7.493 1.112 6.745-13.995-1.152-10.879-3.278 1.292-3.21 7.763-1.053 9.882zm-32.69-17.388l7.434 20.37-2.885-.066-2.354-5.567-8.113.218-1.999 5.34-2.875.076 7.434-20.38h3.338l.02.01zM60.5 33.69c-.906-2.66-1.595-5.492-2.718-8.076-.197-.456-.05-1.093-.729-.95L54.1 33.68h6.4v.01zm65.479 1.424h-11.323c-.306 4 4.283 5.682 7.532 3.82.807-.466.886-2.167 3.299-1.445-1.064 6.509-11.166 5.977-13.185.133-4.499-12.978 14.415-16.598 13.677-2.508zm-11.323-2.375h8.369c-.295-5.73-7.729-5.634-8.369 0zm-5.908-12.352h-2.954v21.378h2.954V20.387z" fill="#101010"/></svg>