<svg width="70" height="70" fill="none" xmlns="http://www.w3.org/2000/svg"><path fill-rule="evenodd" clip-rule="evenodd" d="M42.462 12.316c.355 2.391-.629 4.734-1.927 6.391-1.389 1.778-3.783 3.153-6.102 3.081-.424-2.29.66-4.648 1.98-6.234 1.447-1.75 3.927-3.092 6.049-3.238zm6.967 33.657c1.196-1.812 1.643-2.727 2.571-4.773-6.751-2.54-7.833-12.032-1.152-15.676-2.038-2.528-4.901-3.993-7.605-3.993-1.948 0-3.282.503-4.496.96-1.01.38-1.938.73-3.065.73-1.218 0-2.297-.383-3.426-.783-1.242-.44-2.544-.902-4.16-.902-3.034 0-6.263 1.833-8.31 4.967-2.879 4.415-2.388 12.713 2.28 19.783 1.667 2.53 3.896 5.373 6.811 5.398 1.21.012 2.015-.345 2.886-.732.997-.442 2.08-.922 3.956-.932 1.887-.012 2.954.475 3.938.924.849.387 1.635.746 2.835.733 2.917-.023 5.27-3.174 6.937-5.704z" fill="#EBEBF5" fill-opacity=".3"/></svg>