<svg width="76" height="60" fill="none" xmlns="http://www.w3.org/2000/svg"><path d="M44.882 18c-1.215 4.363-2.226 8.793-3.477 13.143-.62 2.16-1.763 7.38-3.466 8.69-1.066.821-3.288 1.115-4.62 1.199-4.955.31-12.594.353-17.525 0-3.228-.23-4.177-1.227-3.662-4.423.23-1.413.809-3.338 1.211-4.76.608-2.123 1.337-5.445 3.377-6.593.737-.413 2.5-.905 3.309-.905h12.778l-1.199 4.077c-.52.337-5.945-.052-7.156.087-.467.056-.797.123-1.079.524-.322.457-1.73 5.844-1.79 6.586-.09 1.072.297 1.159 1.255 1.238 1.823.151 5.244.163 7.06 0 .503-.043.982-.095 1.408-.396L36.732 18h8.15z" fill="#101010"/><path d="M53.535 24.351c-1.67 5.61-2.58 12.048-4.733 17.462-2.548 6.411-5.953 6.915-12.465 7.158-2.644.099-5.313-.092-7.957-.012l1.445-5.419c.322-.615 2.918-.278 3.695-.325 1.445-.088 3.288-.23 4.596-.826 2.13-.973 3.019-3.382 3.751-5.43 1.465-4.089 2.226-8.44 3.417-12.608h8.251zm10.465 0l-4.427 16.672h-8.251l4.528-16.672H64z" fill="#101010"/></svg>