<svg width="115" height="60" fill="none" xmlns="http://www.w3.org/2000/svg"><path d="M24.79 34.404c0 2.217-1.84 3.99-4.14 3.99-2.301 0-4.141-1.773-4.141-3.99 0-2.216 1.84-3.99 4.14-3.99h4.14v3.99zM29.39 18h-4.6v8.07h-4.14c-4.785 0-8.65 3.724-8.65 8.334 0 4.611 3.864 8.336 8.65 8.336 4.784 0 8.648-3.725 8.648-8.336V26.07L29.39 18zm45.73 20.395c2.301 0 4.141-1.774 4.141-3.99 0-2.217-1.84-3.99-4.14-3.99s-4.14 1.773-4.14 3.99c.091 2.216 1.931 3.99 4.14 3.99zm-8.556-3.99c0-4.611 3.864-8.336 8.649-8.336 4.784 0 8.649 3.725 8.649 8.335 0 4.611-3.865 8.336-8.65 8.336-4.784 0-8.648-3.724-8.648-8.336zm31.743-.001c0-2.128-1.84-3.901-4.048-3.901s-4.049 1.773-4.049 3.901v7.981h-4.508v-7.98c0-4.611 3.864-8.336 8.649-8.336 4.784 0 8.649 3.725 8.649 8.335v7.981h-4.509c-.184 0-.184-6.916-.184-7.98zm-42.325-2.837c-.644-.444-.46-1.153.644-1.419 1.38-.355 3.773-.088 5.797.798l2.116-2.837c-.92-.71-2.944-1.685-5.888-1.863 0 0-4.969-.62-6.993 3.015 0 0-1.748 3.37 1.748 5.498 2.116 1.242 5.797 1.774 6.993 2.306.92.532.644 1.507-.736 1.773-2.393.532-5.521-.798-6.533-1.507l-2.208 2.926c1.472 1.064 3.312 2.04 6.256 2.483 0 0 4.693.798 7.27-2.306.46-.532 2.576-4.345-1.657-6.562-2.208-1.152-5.705-1.684-6.809-2.305zm-21.163 14.01c.184.089 2.3 1.508 4.324 1.508 4.969.088 5.245-4.877 5.245-6.03-.92.975-2.852 1.596-4.048 1.596-4.785 0-8.558-3.547-8.558-8.158v-8.07h4.51v8.07c0 2.128 1.84 3.902 4.048 3.902s4.048-1.774 4.048-3.902v-8.07h4.509v8.07c0 7.183.368 14.542-6.901 16.227-5.429 1.242-9.293-2.04-9.57-2.217l2.393-2.926z" fill="#101010"/></svg>