<svg width="115" height="60" fill="none" xmlns="http://www.w3.org/2000/svg"><g clip-path="url(#clip0_2012_5381)"><mask id="a" style="mask-type:luminance" maskUnits="userSpaceOnUse" x="12" y="19" width="91" height="28"><path d="M103 19H12v28h91V19z" fill="#fff"/></mask><g mask="url(#a)"><path d="M45.048 29.56h-4.84c-2.242 0-3.304-.357-3.304-1.187v-3.797c0-.712 1.062-1.186 3.305-1.186h4.84c2.242 0 3.304.356 3.304 1.186v3.797c0 .83-1.062 1.186-3.305 1.186zm0 1.779c4.013 0 6.02-1.068 6.02-3.085v-3.559c0-2.136-2.007-3.085-6.02-3.085h-4.84c-4.012 0-6.018 1.068-6.018 3.085v3.56c0 2.135 2.006 3.084 6.019 3.084h4.84z" fill="#101010"/></g><mask id="b" style="mask-type:luminance" maskUnits="userSpaceOnUse" x="12" y="19" width="91" height="28"><path d="M103 19H12v28h91V19z" fill="#fff"/></mask><g mask="url(#b)"><path d="M96.98 29.56h-4.839c-2.242 0-3.304-.357-3.304-1.187v-3.797c0-.712 1.062-1.186 3.304-1.186h4.84c2.242 0 3.305.356 3.305 1.186v3.797c0 .83-1.063 1.186-3.305 1.186zm0 1.779c4.014 0 6.02-1.068 6.02-3.085v-3.559c0-2.136-2.006-3.085-6.02-3.085h-4.839c-4.012 0-6.019 1.068-6.019 3.085v3.56c0 2.135 2.007 3.084 6.02 3.084h4.839z" fill="#101010"/></g><mask id="c" style="mask-type:luminance" maskUnits="userSpaceOnUse" x="12" y="19" width="91" height="28"><path d="M103 19H12v28h91V19z" fill="#fff"/></mask><g mask="url(#c)"><path d="M31.475 28.254v-2.491c0-.475-.354-.712-1.063-.712h-5.901c-.59 0-.944.474-.944.949s.472.95.944.95h4.013v1.304c0 .356-.472.83-1.416.95-.709.237-1.299.237-1.889.237h-6.491c-2.597 0-3.895-.475-3.895-1.305v-6.051c0-.83 1.534-1.187 4.603-1.187h1.77c.708 0 1.063-.356 1.063-.949.118-.593-.237-.949-.945-.949h-2.596c-1.535 0-2.951.119-4.25.593-1.534.475-2.478 1.305-2.478 2.492v6.17c0 1.186.826 2.016 2.36 2.49 1.18.357 2.597.594 4.368.594h6.491c1.535 0 2.95-.237 4.013-.593 1.416-.593 2.243-1.424 2.243-2.492z" fill="#101010"/></g><mask id="d" style="mask-type:luminance" maskUnits="userSpaceOnUse" x="12" y="19" width="91" height="28"><path d="M103 19H12v28h91V19z" fill="#fff"/></mask><g mask="url(#d)"><path d="M70.778 23.864c0 .95-1.298 1.305-3.777 1.305h-10.15v-4.39H67c2.479 0 3.777.238 3.777 1.306v1.78zm.354-4.39c-1.18-.237-2.478-.474-4.13-.474H54.843a.809.809 0 00-.826.83v10.797c0 .593.354.83 1.062.83h.827c.708 0 1.062-.237 1.062-.83V26.95h10.15c1.77 0 3.069-.237 4.25-.593 1.534-.593 2.36-1.424 2.36-2.729V21.73c-.118-.95-.944-1.661-2.597-2.254z" fill="#101010"/></g><mask id="e" style="mask-type:luminance" maskUnits="userSpaceOnUse" x="12" y="19" width="91" height="28"><path d="M103 19H12v28h91V19z" fill="#fff"/></mask><g mask="url(#e)"><path d="M83.171 21.61c-2.479 0-3.54 0-5.075.593-1.416.594-2.007 1.543-2.007 2.492v5.932c0 .475.354.83.945.83h.826c.59 0 .944-.237.944-.83v-5.932c0-.83 1.062-1.186 3.187-1.186h1.18c.708 0 1.062-.356 1.062-.95-.118-.593-.472-.949-1.062-.949z" fill="#101010"/></g><path d="M31.71 34.424H12V47h19.71V34.424zm23.724 0h-19.71V47h19.71V34.424zm23.724 0h-19.71V47h19.71V34.424zm23.724 0h-19.71V47h19.71V34.424z" fill="#101010"/></g><defs><clipPath id="clip0_2012_5381"><path fill="#fff" transform="translate(12 19)" d="M0 0h91v28H0z"/></clipPath></defs></svg>