<svg width="171" height="70" fill="none" xmlns="http://www.w3.org/2000/svg"><path d="M48.98 36.151c-4.798-2.798-9.597-5.602-14.41-8.381-.19-.11-.58-.052-.794.071-2.778 1.59-5.538 3.208-8.305 4.82-1.878 1.093-3.75 2.19-5.637 3.266-.168.096-.463.167-.604.087-2.035-1.164-4.054-2.358-6.076-3.547-.052-.03-.077-.106-.154-.22.932-.547 1.85-1.088 2.769-1.624 5.987-3.484 11.978-6.966 17.957-10.463.37-.216.645-.208.996-.006 5.896 3.449 11.795 6.892 17.698 10.335 1.017.593 2.046 1.175 3.171 1.82l-6.624 3.837.016.008-.003-.003z" fill="#EBEBF5" fill-opacity=".3"/><path d="M48.961 36.143l6.614 3.856A37276.57 37276.57 0 0040.119 49l-15.436-8.99c.653-.386 1.216-.716 1.779-1.047 1.4-.823 2.805-1.634 4.197-2.47.395-.238.695-.301 1.142-.033 2.421 1.45 4.9 2.809 7.3 4.298.79.49 1.319.432 2.074-.03 2.574-1.571 5.2-3.058 7.803-4.577l-.02-.008h.003zm79.534-2.211c1.517-1.59 2.896-3.036 4.275-4.484.786-.828 1.567-1.662 2.358-2.484.102-.107.265-.213.403-.216 1.186-.016 2.369-.011 3.767-.011l-3.227 3.468-3.149 3.397 6.749 8.534c-1.407 0-2.64.03-3.87-.025-.254-.011-.543-.3-.733-.53-1.424-1.722-2.827-3.462-4.239-5.195-.072-.087-.152-.164-.268-.292-.645.68-1.285 1.325-1.878 2.005-.141.162-.177.454-.182.686-.02 1.09-.008 2.178-.008 3.31h-3.481V26.743c1.048 0 2.118-.017 3.185.024.105.006.279.366.279.563.022 1.891.014 3.78.014 5.67v.93l.005.002zM66.877 42.09h-3.511V26.83c.03-.02.069-.068.105-.068 2.664.027 5.34-.09 7.987.125 3.731.304 5.81 3.206 5.041 6.8-.493 2.295-2.143 3.462-4.33 3.956-.797.18-1.635.213-2.457.249-.913.04-1.826.008-2.835.008v4.19zm.01-7.212c1.385 0 2.745.117 4.072-.033 1.362-.156 2.052-1.112 2.093-2.46.038-1.325-.643-2.35-1.975-2.552-1.365-.208-2.766-.167-4.186-.238v5.283h-.003zm36.971 7.263l2.367-5.318c1.346-3.03 2.703-6.053 4.026-9.091.298-.686.626-1.137 1.501-1.014.675.096 1.376-.011 2.063.038.212.014.515.197.598.38 2.171 4.782 4.316 9.573 6.465 14.363.08.18.135.371.231.637-1.199 0-2.316.024-3.43-.025-.174-.008-.4-.317-.491-.53-1.514-3.626-3.009-7.26-4.51-10.895-.041-.104-.113-.197-.22-.383a2419.93 2419.93 0 00-1.597 3.818c-1.04 2.492-2.082 4.981-3.111 7.479-.157.377-.361.566-.814.55-.984-.039-1.972-.012-3.075-.012l-.003.003zm54.139-.003c-1.197 0-2.314.017-3.428-.019-.149-.005-.353-.24-.425-.413-1.5-3.585-2.981-7.175-4.47-10.763-.069-.164-.16-.32-.317-.632-.458 1.085-.866 2.047-1.266 3.009-1.126 2.703-2.256 5.402-3.36 8.11-.215.528-.479.777-1.1.727-.907-.068-1.826-.016-2.863-.016.475-1.08.908-2.069 1.346-3.055 1.707-3.84 3.426-7.676 5.116-11.524.259-.587.557-.912 1.269-.841.728.073 1.47-.017 2.201.035.229.017.551.219.642.421 2.16 4.76 4.294 9.534 6.432 14.306.08.18.129.371.226.655h-.003zM94.015 29.653h-4.857v-2.88h13.321v2.855h-4.854v12.508c-1.152 0-2.203.021-3.251-.03-.13-.006-.34-.416-.34-.64-.022-3.345-.016-6.692-.016-10.037V29.65l-.003.003zM81.436 42.092v-15.32h3.494v15.32h-3.494z" fill="#EBEBF5" fill-opacity=".3"/></svg>