<svg width="113" height="60" fill="none" xmlns="http://www.w3.org/2000/svg"><g clip-path="url(#clip0_2012_5438)" fill="#101010"><path d="M96.853 39.64c1.746 0 2.983-.32 3.904-1.006v-3.115c-.945.662-2.085 1.08-3.686 1.08-2.692 0-3.807-2.11-3.807-5.446 0-3.508 1.358-5.298 3.832-5.298 1.455 0 2.885.515 3.637 1.005v-3.237c-.8-.442-2.182-.76-4.074-.76-4.826 0-7.324 3.507-7.324 8.413.025 5.371 2.474 8.364 7.518 8.364zm-23.596-1.423v-3.115c-1.164.81-3.152 1.52-4.971 1.52-2.765 0-3.808-1.324-3.977-4.022h9.118v-2.011c0-5.617-2.45-7.727-6.208-7.727-4.608 0-6.79 3.557-6.79 8.438 0 5.617 2.74 8.34 7.541 8.34 2.401 0 4.172-.663 5.287-1.423zm-34.606-15.06v6.377h-5.044v-6.377h-3.783V39.32h3.783v-6.745h5.044v6.745h3.784V23.157H38.65zm20.832 13.122H57.81V23.157H46.8v1.373c0 3.95-.243 9.051-1.577 11.75h-1.212V43h3.492v-3.68h8.464V43h3.492v-6.72h.024zm25.827 3.042h4.292l-6.063-8.708 5.336-7.456h-3.808l-5.335 7.456v-7.456H75.95V39.32h3.783v-7.947l5.578 7.947zM67.122 25.855c1.867 0 2.45 1.57 2.45 3.605v.32h-5.263c.097-2.576 1.018-3.925 2.813-3.925zM54.026 36.279h-5.335c1.043-2.428 1.334-6.843 1.334-9.64v-.49h4.001v10.13zM26.672 39.32h-3.856V20.018h-1.722c-3.153 0-4.802 1.594-4.802 3.974 0 2.698 1.14 3.949 3.492 5.543l1.94 1.325-5.577 8.462H12l5.02-7.555c-2.886-2.085-4.51-4.12-4.51-7.555 0-4.292 2.958-7.211 8.56-7.211h5.577v22.32h.025z"/></g><defs><clipPath id="clip0_2012_5438"><path fill="#fff" transform="translate(12 17)" d="M0 0h89v26H0z"/></clipPath></defs></svg>