<svg width="140" height="60" fill="none" xmlns="http://www.w3.org/2000/svg"><g clip-path="url(#clip0_2012_5425)" fill="#101010"><path d="M42.17 23.679c-.191-.384-.703-.698-1.136-.698h-.88c-.432 0-.937.317-1.124.704L32.054 38.15c-.194.383.017.657.45.657h1.612c.636 0 .928-.287 1.1-.64.173-.351.557-1.116.631-1.273.1-.21.406-.34.838-.34l7.505.004c.433.001.711.083.84.337.082.165.466.853.655 1.228.19.376.51.684 1.129.684h2.34c.432 0 .621-.326.465-.629l-7.448-14.5zM37.765 34.32c-.432 0-.636-.32-.454-.708l2.749-5.845c.183-.389.479-.386.657.003l2.676 5.845c.179.39-.029.71-.46.71l-5.168-.005zM96.07 23.79v14.35c0 .396.353.667.786.667h1.906c.432 0 .786-.274.786-.704V23.762c0-.43-.28-.78-.711-.78h-1.981c-.433 0-.786.264-.786.809zm-31.942 8.99c-.248-.351-.112-.74.302-.862 0 0 1.647-.49 2.435-1.19.789-.705 1.185-1.72 1.185-3.045 0-.865-.152-1.593-.456-2.186a3.749 3.749 0 00-1.306-1.444c-.566-.372-1.244-.644-2.034-.815-.79-.17-1.857-.22-1.857-.22-.433-.02-1.14-.036-1.571-.036H52.91a.785.785 0 00-.785.78v14.342c0 .43.353.704.785.704h1.873c.433 0 .786-.274.786-.704 0 0 .002-5.704.005-5.704s.005-.003.005-.007c0-.005 3.551-.009 3.551-.009.432 0 .99.287 1.24.638l3.686 5.152c.343.457.669.634 1.1.634h2.45c.432 0 .5-.405.35-.615l-3.828-5.413zm-1.49-2.913a6.596 6.596 0 01-1.032.133c-.431.019-1.138.034-1.57.034h-3.67a.785.785 0 01-.786-.78v-2.906c0-.43.354-.78.786-.78h3.67c.432 0 1.139.015 1.57.033 0 0 .546.022 1.031.133.485.111.87.266 1.152.466.283.202.484.438.606.71.12.271.182.567.182.89 0 .321-.061.619-.181.89a1.76 1.76 0 01-.607.71c-.282.2-.667.358-1.152.467zm56.836-6.885c-.432 0-.781.283-.781.697l.004 9.174c0 .43-.244.527-.545.218l-9.254-9.528c-.3-.309-.74-.56-1.332-.56h-1.741c-.547 0-.786.29-.786.583v14.67c0 .293.28.572.713.572h1.744c.431 0 .733-.234.733-.629l.009-9.664c0-.43.245-.527.544-.217l9.649 9.957c.307.305.679.553 1.342.553h1.309a.785.785 0 00.786-.78V23.762c0-.43-.353-.78-.786-.78h-1.608zm-37.731 8.946c-.21.374-.555.373-.762-.002l-4.524-8.246a1.247 1.247 0 00-1.136-.698h-2.453a.785.785 0 00-.787.78v14.324c0 .429.284.722.787.722h1.525c.432 0 .744-.271.744-.685 0-.198.007-10.418.023-10.418.017 0 5.646 10.415 5.646 10.415a.51.51 0 00.912.004s5.676-10.389 5.692-10.389c.018 0 .012 10.09.012 10.388 0 .414.333.685.766.685h1.757c.433 0 .785-.214.785-.78V23.762c0-.43-.353-.78-.785-.78h-2.352c-.6 0-.962.304-1.176.677l-4.674 8.268zM12 30.88c0 7.728 7.963 8.12 9.56 8.12 5.284 0 7.518-1.417 7.61-1.479.33-.185.733-.56.733-1.26v-5.335a.896.896 0 00-.898-.892h-6.64c-.496 0-.821.4-.821.892v.552c0 .493.325.894.822.894h3.84a.67.67 0 01.672.667l-.004 2.486c-.759.307-4.214 1.31-6.99.652-4.028-.956-4.341-4.254-4.341-5.242 0-.829.25-4.983 5.196-5.403 4.004-.34 6.64 1.265 6.666 1.28.47.242.958.07 1.22-.425l.5-1.005c.207-.411.137-.838-.369-1.18-.034-.018-2.84-1.529-7.195-1.529-9.293 0-9.561 7.367-9.561 8.207zm112.366 5.957h-.684v-.245h1.665v.245h-.688v1.987h-.293v-1.987zm3.293 1.006a19.886 19.886 0 01-.037-.963h-.007c-.08.258-.17.54-.283.848l-.397 1.082h-.221l-.367-1.063a10.404 10.404 0 01-.257-.867h-.006c-.007.278-.024.649-.044.987l-.06.956h-.276l.156-2.232h.371l.384 1.08c.093.275.166.52.226.752h.007c.06-.226.14-.47.241-.752l.4-1.08h.37l.141 2.232h-.288l-.053-.98zm-9.064-18.817h-10.429c-.382 0-.71-.189-.901-.517a1.003 1.003 0 010-1.033l5.215-8.96c.191-.328.518-.516.901-.516.382 0 .71.188.901.516l5.214 8.96c.191.329.191.705 0 1.034a1.018 1.018 0 01-.901.516z"/></g><defs><clipPath id="clip0_2012_5425"><path fill="#fff" transform="translate(12 8)" d="M0 0h116v31H0z"/></clipPath></defs></svg>