<svg width="125" height="70" fill="none" xmlns="http://www.w3.org/2000/svg"><g clip-path="url(#clip0_1030_1752)" fill="#EBEBF5" fill-opacity=".3"><path d="M89.063 26.06v2.112h1.91c.834 0 1.382.568 1.694.935.25.302 5.75 7.034 5.881 7.211.133.178.133.18.133.292v3.336c0 .153-.015.305-.043.455a.73.73 0 01-.17.254.662.662 0 01-.253.152c-.18.025-.362.037-.544.037l-1.912-.002v2.111h10.723v-2.111h-2.017a3.666 3.666 0 01-.541-.037.65.65 0 01-.252-.153.712.712 0 01-.169-.253 2.484 2.484 0 01-.044-.456V36.61a.476.476 0 01.072-.31l5.949-7.328c.547-.657.831-.8 1.547-.8h1.974v-2.11h-8.838v2.106h1.333a.354.354 0 01.206.051.396.396 0 01.147.162.427.427 0 01-.032.435c-.028.043-3.7 4.705-3.747 4.75-.046.046-.075.035-.109-.015s-3.662-4.735-3.662-4.735c-.256-.339-.056-.647.244-.647h1.3V26.06h-10.78zm-26.305.001v2.111h1.711c1.237 0 1.32.743 1.32 1.39v9.883c0 .591.033 1.403-.755 1.403H62.92v2.11h9.019v-2.11h-2.2c-.878 0-.918-.433-.928-1.355v-8.466l12.386 11.93h3.15l-.167-13.474c.017-.985.072-1.313 1.016-1.313h1.974v-2.109h-9.2v2.11h2.02c.929 0 1.084.386 1.096 1.312l.11 7.052-10.75-10.475h-7.687zM22.15 24.998c-1.938 0-4.14.393-6 1.296-1.736.838-3.15 2.183-3.15 4.413a4.777 4.777 0 001.15 3.144c.502.5 1.312 1.351 3.428 1.852.946.216 2.968.564 4.982.792 2.014.23 3.966.432 4.766.663.636.175 1.706.413 1.706 1.708 0 1.296-1.126 1.684-1.322 1.769-.196.084-1.548.753-3.976.753A15.785 15.785 0 0119 40.51c-.906-.35-1.856-.81-2.742-1.978a3.58 3.58 0 01-.57-1.874h-2.2v6.65h2.444v-.9c0-.067.016-.132.047-.19a.363.363 0 01.13-.139.329.329 0 01.351.005c1.151.541 2.349.96 3.576 1.248 1.284.29 2.114.5 3.71.5a14.75 14.75 0 004.972-.759 8.44 8.44 0 002.954-1.574 4.32 4.32 0 001.172-1.549 4.661 4.661 0 00.41-1.95c.008-1.284-.45-2.52-1.278-3.443a5.63 5.63 0 00-1.576-1.163 11.038 11.038 0 00-1.944-.732c-1.268-.335-4.116-.754-5.478-.9-1.428-.16-3.906-.383-4.896-.713-.3-.101-.912-.414-.912-1.18 0-.547.28-1.01.832-1.383.878-.593 2.65-.963 4.498-.963a12.207 12.207 0 015.212 1.1c.443.208.86.476 1.24.798a4.095 4.095 0 011.222 2.207h1.974v-5.789h-2.2v.672c0 .216-.2.5-.6.265-.992-.557-3.78-1.761-7.198-1.777zM48.627 25c-3.466 0-7.146 1.296-9.226 3.336a8.305 8.305 0 00-1.858 2.789 8.86 8.86 0 00-.652 3.362 8.735 8.735 0 00.638 3.379 8.181 8.181 0 001.872 2.794C41.64 42.834 45 44 48.627 44c3.632 0 7.064-1.153 9.25-3.34a8.601 8.601 0 001.823-2.813 9.15 9.15 0 00.653-3.36 8.782 8.782 0 00-.63-3.358 8.234 8.234 0 00-1.846-2.789c-2.346-2.297-5.416-3.34-9.25-3.34zm0 2.47c1.896 0 3.722.736 4.952 2.043 1.19 1.265 1.812 3.053 1.812 4.965 0 2.004-.566 3.628-1.812 4.966-1.246 1.34-3.03 2.056-4.952 2.056-1.908 0-3.73-.732-4.96-2.056a7.033 7.033 0 01-1.359-2.289 7.44 7.44 0 01-.44-2.677c0-1.904.613-3.698 1.8-4.965 1.23-1.313 3.063-2.043 4.96-2.043z"/></g><defs><clipPath id="clip0_1030_1752"><path fill="#fff" transform="translate(13 25)" d="M0 0h100v19H0z"/></clipPath></defs></svg>