<svg width="34" height="34" fill="none" xmlns="http://www.w3.org/2000/svg"><path fill-rule="evenodd" clip-rule="evenodd" d="M2.535 2.535C.168 4.9.168 8.709.168 16.327v1.346c0 7.617 0 11.426 2.367 13.792 2.366 2.367 6.174 2.367 13.792 2.367h1.346c7.617 0 11.426 0 13.792-2.367 2.367-2.366 2.367-6.175 2.367-13.792v-1.346c0-7.618 0-11.426-2.367-13.792C29.1.168 25.29.168 17.673.168h-1.346C8.709.168 4.9.168 2.535 2.535zm3.314 7.873C6.031 19.16 10.408 24.42 18.08 24.42h.435v-5.008c2.82.281 4.951 2.343 5.807 5.008h3.983c-1.094-3.984-3.97-6.186-5.765-7.027 1.796-1.038 4.32-3.563 4.924-6.985h-3.62c-.785 2.777-3.113 5.302-5.33 5.54v-5.54h-3.618v9.706c-2.244-.561-5.078-3.282-5.204-9.706H5.85z" fill="#fff"/></svg>