<svg width="21" height="19" fill="none" xmlns="http://www.w3.org/2000/svg"><path fill-rule="evenodd" clip-rule="evenodd" d="M2.418 7.077C1.119 7.927.25 9.357.25 11c0 1.992 1.277 3.671 3.049 4.381l.025.01c.136.055.311.126.497.164.227.047.443.044.681 0 .24-.044.47-.159.637-.264a1.84 1.84 0 00.516-.464c.32-.453.319-.93.317-1.343V8.516c.002-.413.004-.89-.317-1.343a1.84 1.84 0 00-.516-.464 1.894 1.894 0 00-.637-.264 1.869 1.869 0 00-.424-.032C4.821 3.75 7.388 1.75 10.5 1.75c3.112 0 5.679 2 6.422 4.663a1.868 1.868 0 00-.424.032c-.24.044-.47.159-.637.264a1.839 1.839 0 00-.516.464c-.32.453-.319.93-.317 1.343v4.968c-.002.413-.004.89.317 1.343.144.202.35.36.516.464a1.743 1.743 0 001.278.272V16c0 .653-.57 1.25-1.361 1.25H10.5a.75.75 0 000 1.5h5.278c1.541 0 2.86-1.194 2.86-2.75v-1a.748.748 0 00-.007-.11c1.271-.852 2.119-2.267 2.119-3.89 0-1.643-.87-3.074-2.168-3.923C18.102 3.203 14.634.25 10.5.25S2.898 3.203 2.418 7.077zm1.623.862a5.346 5.346 0 00-.184.072C2.598 8.516 1.75 9.679 1.75 11c0 1.32.848 2.484 2.107 2.99.082.032.137.054.184.07a.644.644 0 00.083.026h.002c.01.002.03.007.097-.005a.749.749 0 00.216-.133.173.173 0 00.019-.069c.012-.09.014-.213.014-.479V8.6c0-.266-.002-.39-.014-.48a.173.173 0 00-.02-.068.721.721 0 00-.216-.133.239.239 0 00-.098-.005.644.644 0 00-.083.025zm12.736-.02a.748.748 0 00-.216.133.173.173 0 00-.018.069c-.014.09-.015.213-.015.479v4.8c0 .266.002.39.015.48a.173.173 0 00.018.068.714.714 0 00.216.133c.067.012.087.007.098.005h.001a.645.645 0 00.083-.025 5.39 5.39 0 00.184-.072c1.259-.505 2.107-1.668 2.107-2.989 0-1.32-.848-2.484-2.107-2.99a5.352 5.352 0 00-.184-.07.645.645 0 00-.083-.026h-.002a.239.239 0 00-.097.005z" fill="#EBEBF5" fill-opacity=".6"/></svg>