<svg width="19" height="20" fill="none" xmlns="http://www.w3.org/2000/svg"><path d="M14.386 6.947l3.323-1.899a2.068 2.068 0 00-.486-.346l-6.24-3.568C10.445.824 9.906.655 9.385.655c-.53 0-1.07.169-1.608.48l-1.794 1.02 8.404 4.792zM9.384 9.796l3.774-2.148-8.37-4.8-3.243 1.854a2.336 2.336 0 00-.495.346l8.334 4.748zm.6 10.17a.776.776 0 00.178-.08l6.92-3.958c.821-.47 1.263-.95 1.263-2.237V6.778a2.59 2.59 0 00-.07-.674l-8.29 4.757v9.105zm-1.21 0V10.86L.484 6.104c-.052.195-.07.408-.07.675v6.912c0 1.287.45 1.766 1.264 2.237l6.928 3.958a.584.584 0 00.168.08z" fill="#EBEBF5" fill-opacity=".6"/></svg>