<svg width="19" height="17" fill="none" xmlns="http://www.w3.org/2000/svg"><path fill-rule="evenodd" clip-rule="evenodd" d="M9.494 1.73C7.536-.017 4.612-.386 2.347 1.53-.086 3.585-.44 7.052 1.485 9.503c.736.938 2.178 2.352 3.57 3.652a156.785 156.785 0 003.502 3.161l.013.011c.065.058.144.127.218.182.088.066.21.144.372.192.217.064.45.064.668 0 .162-.048.284-.126.372-.192.075-.055.153-.124.219-.182l.012-.01a156.61 156.61 0 003.502-3.162c1.392-1.3 2.834-2.714 3.57-3.652 1.919-2.442 1.618-5.936-.87-7.981-2.29-1.885-5.184-1.54-7.14.206zm-.567 1.557c-1.478-1.71-3.848-2.103-5.611-.612-1.826 1.543-2.07 4.096-.652 5.903.654.832 2.01 2.17 3.415 3.482a154.568 154.568 0 003.415 3.084c.703-.617 2.06-1.818 3.415-3.084 1.404-1.312 2.761-2.65 3.415-3.482 1.426-1.816 1.2-4.38-.644-5.897-1.807-1.486-4.146-1.097-5.618.606a.75.75 0 01-1.135 0z" fill="#EBEBF5" fill-opacity=".6"/></svg>