<svg width="26" height="26" fill="none" xmlns="http://www.w3.org/2000/svg"><path d="M14.805 20h-5.61C7.434 20 6 18.585 6 16.847V9.153C6 7.415 7.434 6 9.195 6h5.61C16.566 6 18 7.415 18 9.153v7.694C18 18.585 16.566 20 14.805 20zM9.195 6.384c-1.549 0-2.81 1.244-2.81 2.773v7.693c0 1.529 1.261 2.773 2.81 2.773h5.61c1.549 0 2.81-1.244 2.81-2.773V9.157c0-1.529-1.261-2.773-2.81-2.773h-5.61z" fill="#101010"/><path d="M14.604 20.993H9.475C7.007 20.993 5 19.071 5 16.713V9.28C5 6.919 7.007 5 9.475 5h5.13c1.984 0 3.702 1.218 4.283 3.034a.466.466 0 00.444.324c.368 0 .668.287.668.639v8.006c0 .352-.3.639-.668.639a.463.463 0 00-.444.324C18.311 19.782 16.59 21 14.604 21M9.475 5.366c-2.255 0-4.089 1.753-4.089 3.91v7.434c0 2.157 1.834 3.91 4.09 3.91h5.128c1.812 0 3.386-1.114 3.913-2.771a.848.848 0 01.815-.587c.155 0 .282-.12.282-.269V8.986a.276.276 0 00-.282-.269.848.848 0 01-.815-.587c-.527-1.656-2.101-2.771-3.913-2.771H9.475v.007z" fill="#101010"/><path d="M20 12h-.467c-.296 0-.533-.184-.533-.408v-1.184c0-.227.24-.408.533-.408H20v.255h-.467c-.11 0-.2.07-.2.153v1.184c0 .086.09.153.2.153H20V12zm-3.242-6c-.59-.66-.86-1.786-.86-2.558v-.794a1.3 1.3 0 00-1.286-1.312h-4.224c-.709 0-1.286.59-1.286 1.312v.794c0 .769-.27 1.899-.86 2.558L8 5.774c.506-.565.774-1.6.774-2.329v-.794c0-.91.724-1.651 1.614-1.651h4.224c.89 0 1.615.74 1.615 1.651v.794c0 .728.263 1.764.773 2.329L16.758 6zm-2.149 19h-4.224c-.89 0-1.615-.74-1.615-1.651v-.794c0-.728-.264-1.764-.77-2.329L8.242 20c.59.66.86 1.79.86 2.558v.794c0 .725.577 1.315 1.286 1.315h4.224c.709 0 1.286-.59 1.286-1.315v-.794c0-.769.27-1.899.86-2.558l.242.226c-.506.565-.773 1.6-.773 2.329v.794c0 .91-.725 1.651-1.615 1.651" fill="#101010"/></svg>