<svg width="26" height="26" fill="none" xmlns="http://www.w3.org/2000/svg"><path d="M17.795 23.878h-1.91l-.701-.701V9.607h.31V23.05l.521.517h1.652l.518-.517V9.607h.314v13.57l-.704.7z" fill="#EBEBF5" fill-opacity=".6"/><path d="M18.341 19.83H15.34v.31h3.001v-.31zm2.548-10.066H13.53V3.102h7.358l1.11.837v4.99l-1.11.838v-.003zm-7.047-.311h6.942l.905-.68v-4.68l-.905-.68h-6.942v6.04zm-5.287.311A3.418 3.418 0 015.14 6.347a3.417 3.417 0 013.414-3.414 3.42 3.42 0 013.414 3.414 3.422 3.422 0 01-3.414 3.417zm0-6.52a3.106 3.106 0 00-3.103 3.103A3.108 3.108 0 008.555 9.45a3.108 3.108 0 003.103-3.103 3.108 3.108 0 00-3.103-3.103z" fill="#EBEBF5" fill-opacity=".6"/><path d="M8.555 8.005a1.66 1.66 0 01-1.658-1.658 1.66 1.66 0 011.658-1.658 1.66 1.66 0 011.658 1.658 1.66 1.66 0 01-1.658 1.658zm0-3.002a1.347 1.347 0 000 2.693c.739 0 1.344-.604 1.344-1.346 0-.742-.605-1.347-1.344-1.347zm.959 18.874h-1.91l-.702-.7V9.22h.312v13.83l.517.517h1.652l.52-.517V9.243h.312v13.934l-.701.7z" fill="#EBEBF5" fill-opacity=".6"/><path d="M10.056 19.83H7.055v.31h3v-.31zm-1.137-7.155a.357.357 0 11-.715 0 .357.357 0 01.715 0zm-.363-.808a.357.357 0 01-.358-.358v-.247a.358.358 0 11.716 0v.247c0 .198-.16.358-.358.358z" fill="#EBEBF5" fill-opacity=".6"/></svg>