<svg width="12" height="20" fill="none" xmlns="http://www.w3.org/2000/svg"><path d="M7.33 3H4.67C4.3 3 4 2.775 4 2.5s.301-.5.67-.5h2.66c.369 0 .67.225.67.5s-.301.5-.67.5zm-2.66-.703c-.15 0-.272.092-.272.203 0 .111.122.203.271.203h2.662c.149 0 .271-.092.271-.203 0-.111-.122-.203-.271-.203H4.669z" fill="#EBEBF5" fill-opacity=".6"/><path d="M10.073 20H1.927C.864 20 0 19.294 0 18.425V1.575C0 .706.864 0 1.927 0h8.146C11.136 0 12 .706 12 1.575v16.85c0 .869-.864 1.575-1.927 1.575zM1.923.299c-.86 0-1.56.572-1.56 1.276v16.85c0 .704.7 1.276 1.56 1.276h8.146c.861 0 1.562-.572 1.562-1.276V1.575c0-.704-.7-1.276-1.562-1.276H1.925z" fill="#EBEBF5" fill-opacity=".6"/></svg>