<svg width="23" height="21" fill="none" xmlns="http://www.w3.org/2000/svg"><path d="M4.89 20.787c.408.312.925.204 1.54-.234l5.258-3.793 5.266 3.793c.617.438 1.123.546 1.54.234.408-.303.498-.8.25-1.511l-2.078-6.064 5.307-3.743c.616-.43.864-.878.705-1.365-.159-.468-.626-.702-1.39-.692l-6.51.039-1.977-6.093C12.562.637 12.204.276 11.688.276c-.507 0-.865.36-1.103 1.082L8.607 7.451l-6.509-.04c-.765-.009-1.232.225-1.391.693-.169.487.09.936.705 1.365l5.307 3.743-2.077 6.064c-.248.711-.159 1.208.249 1.51z" fill="#EBEBF5" fill-opacity=".6"/></svg>