<svg width="15" height="11" viewBox="0 0 15 11" fill="none" xmlns="http://www.w3.org/2000/svg">
<path d="M6.63359 0.377359C7.01866 -0.125786 7.98134 -0.125787 8.36641 0.377358L14.8645 8.86792C15.2495 9.37107 14.7682 10 13.9981 10H1.00194C0.231795 10 -0.249544 9.37107 0.135526 8.86793L6.63359 0.377359Z" fill="white"/>
<path d="M8.16788 0.529298L14.6659 9.01986C14.784 9.17416 14.7718 9.3324 14.6659 9.4707C14.552 9.61956 14.318 9.75 13.9981 9.75H1.00194C0.681956 9.75 0.44798 9.61956 0.334057 9.4707C0.22821 9.3324 0.215973 9.17416 0.334056 9.01987L6.83212 0.529299C6.96408 0.356873 7.2161 0.25 7.5 0.25C7.7839 0.25 8.03592 0.356872 8.16788 0.529298Z" stroke="#101010" stroke-opacity="0.4" stroke-width="0.5"/>
<line y1="10" x2="15" y2="10" stroke="white" stroke-width="2"/>
</svg>
