<?xml version="1.0" standalone="no"?>
<!DOCTYPE svg PUBLIC "-//W3C//DTD SVG 1.1//EN" "http://www.w3.org/Graphics/SVG/1.1/DTD/svg11.dtd" >
<svg xmlns="http://www.w3.org/2000/svg">
<metadata>Generated by IcoMoon</metadata>
<defs>
<font id="BY" horiz-adv-x="1024">
<font-face units-per-em="1024" ascent="960" descent="-64" />
<missing-glyph horiz-adv-x="1024" />
<glyph unicode="&#x20;" horiz-adv-x="512" d="" />
<glyph unicode="&#xe900;" glyph-name="gis" d="M754.524 350.665c-180.567-0.905-209.775-112.266-219.51-206.429l-4.425-41.646h-36.292l-4.425 41.646c-9.735 94.163-39.829 205.524-214.199 206.429-29.209 61.571-41.601 111.368-41.601 167.503 0 140.333 112.411 271.618 278.811 271.618 166.402 0 277.042-130.375 277.042-272.528 0.002-55.225-5.308-105.022-35.402-166.593zM511.117 960c-274.387 0-499.21-229.972-499.21-511.545 0-282.486 224.823-512.455 499.21-512.455 277.040 0 500.977 229.969 500.977 512.455 0 281.572-223.937 511.545-500.977 511.545z" />
<glyph unicode="&#xe901;" glyph-name="apple" d="M900.621 585.102c-6.126-4.422-114.265-61.12-114.265-187.194 0-145.827 137.603-197.414 141.722-198.692-0.632-3.143-21.86-70.652-72.553-139.438-45.198-60.532-92.4-120.966-164.214-120.966-71.809 0-90.29 38.819-173.194 38.819-80.786 0-109.51-40.096-175.197-40.096s-111.519 56.013-164.216 124.799c-61.040 80.771-110.357 206.256-110.357 325.356 0 191.025 133.485 292.336 264.857 292.336 69.805 0 127.993-42.647 171.819-42.647 41.716 0 106.767 45.202 186.18 45.202 30.101 0 138.24-2.555 209.417-97.479zM653.503 763.453c32.844 36.26 56.080 86.571 56.080 136.883 0 6.977-0.637 14.052-2.008 19.751-53.435-1.867-117.012-33.115-155.345-74.485-30.097-31.838-58.188-82.149-58.188-133.148 0-7.665 1.373-15.329 2.006-17.786 3.38-0.589 8.871-1.277 14.362-1.277 47.946 0 108.246 29.872 143.093 70.063z" />
<glyph unicode="&#xe902;" glyph-name="basket" d="M777.151 757.738h-60.723c-4.829 55.341-28.456 106.734-66.258 144.137-37.804 37.403-87.069 58.13-138.17 58.13s-100.365-20.727-138.169-58.13c-37.803-37.403-61.429-88.796-66.26-144.137h-60.721c-36.867-0.050-72.211-16.004-98.28-44.362s-40.735-66.808-40.78-106.914v-519.179c0.045-40.108 14.711-78.557 40.78-106.916s61.413-44.312 98.28-44.361h530.302c36.864 0.049 72.208 16.001 98.277 44.361s40.739 66.808 40.782 106.916v519.173c-0.043 40.107-14.708 78.557-40.777 106.917s-61.413 44.315-98.282 44.365zM512 890.209c34.091-0.116 67.007-13.556 92.75-37.868s42.596-57.879 47.489-94.58h-280.482c4.894 36.701 21.749 70.267 47.492 94.58s58.66 37.752 92.75 37.868zM852.022 87.283c-0.016-21.601-7.912-42.302-21.951-57.576s-33.075-23.859-52.925-23.881h-530.296c-19.853 0.022-38.887 8.607-52.925 23.881s-21.934 35.975-21.953 57.576v519.173c0.020 21.597 7.915 42.303 21.953 57.574s33.072 23.86 52.925 23.882h530.302c19.849-0.022 38.885-8.61 52.925-23.882s21.935-35.977 21.951-57.574l-0.005-519.173z" />
<glyph unicode="&#xe903;" glyph-name="bg" d="M651.637 815.59h-279.274c-130.339 0-195.509 0-245.292-18.118-43.79-15.937-79.393-41.368-101.706-72.647-25.366-35.559-25.366-82.11-25.366-175.208v-199.48c0-93.1 0-139.65 25.366-175.209 22.312-31.279 57.915-56.71 101.706-72.648 49.783-18.118 114.952-18.118 245.292-18.118h279.274c130.339 0 195.509 0 245.291 18.118 43.79 15.938 79.394 41.368 101.706 72.648 25.366 35.559 25.366 82.109 25.366 175.209v199.48c0 93.099 0 139.649-25.366 175.208-22.311 31.279-57.915 56.71-101.706 72.647-49.782 18.118-114.952 18.118-245.291 18.118z" />
<glyph unicode="&#xe904;" glyph-name="catalogs" d="M968.592 129.57c-14.282-14.282-37.439-14.282-51.722 0l-109.232 109.227c-49.805-38.766-112.421-61.854-180.429-61.854-162.373 0-294.004 131.63-294.004 294.005s131.631 294.006 294.004 294.006c162.377 0 294.010-131.631 294.010-294.006 0-68.006-23.094-130.62-61.859-180.428l109.232-109.232c14.282-14.282 14.282-37.435 0-51.717zM12.19 691.81c0 20.198 16.374 36.571 36.571 36.571h268.19c20.198 0 36.571-16.374 36.571-36.571s-16.374-36.571-36.571-36.571h-268.19c-20.198 0-36.571 16.374-36.571 36.571zM12.19 468.318c0 20.198 16.374 36.571 36.571 36.571h178.794c20.198 0 36.571-16.374 36.571-36.571s-16.374-36.571-36.571-36.571h-178.794c-20.198 0-36.571 16.373-36.571 36.571zM12.19 244.824c0 20.197 16.374 36.571 36.571 36.571h268.19c20.198 0 36.571-16.374 36.571-36.571s-16.374-36.571-36.571-36.571h-268.19c-20.198 0-36.571 16.374-36.571 36.571zM627.21 250.085c121.983 0 220.867 98.882 220.867 220.862s-98.884 220.863-220.867 220.863c-121.978 0-220.861-98.884-220.861-220.863s98.883-220.862 220.861-220.862z" />
<glyph unicode="&#xe905;" glyph-name="chevron-right" d="M236.21 932.812c-32.113-34.494-30.182-88.49 4.312-120.602l391.217-364.209-391.217-364.211c-34.494-32.111-36.425-86.11-4.312-120.602s86.109-36.42 120.603-4.309l404.294 376.381c66.080 61.519 66.080 163.962 0 225.481l-404.294 376.384c-34.494 32.113-88.49 30.182-120.603-4.312z" />
<glyph unicode="&#xe906;" glyph-name="chevron-right-wide" d="M298.325-23.539c-13.002 11.968-13.837 32.211-1.867 45.216l363.865 395.201c15.569 16.91 15.569 45.336 0 62.245l-363.865 395.203c-11.971 13.002-11.135 33.246 1.867 45.217s33.246 11.135 45.216-1.867l363.865-395.203c38.125-41.409 38.125-107.536 0-148.944l-363.865-395.205c-11.971-12.998-32.215-13.837-45.216-1.862z" />
<glyph unicode="&#xe907;" glyph-name="cloud" d="M234.448 95.178c-124.599 0-225.606 108.221-225.606 241.72 0 125.887 89.817 229.297 204.536 240.68 23.467 152.941 147.421 269.619 296.81 269.619 149.391 0 273.344-116.677 296.81-269.619 114.72-11.384 204.536-114.794 204.536-240.68 0-133.499-101.004-241.72-225.603-241.72-220.085 0-358.8 0-551.483 0z" />
<glyph unicode="&#xe908;" glyph-name="connection" d="M117.901 566.138c23.425 188.905 192.532 332.91 394.099 332.91s370.673-144.005 394.099-332.91c63.327-41.406 105.711-111.148 105.711-191.281 0-79.126-41.326-148.119-103.331-189.703 0.258-1.746 0.39-3.53 0.39-5.344v-48.762c0-75.898-64.351-134.095-139.513-134.095h-257.356c-20.197 0-36.571 16.374-36.571 36.571s16.374 36.571 36.571 36.571h257.356c38.541 0 66.37 29.125 66.37 60.952v21.319c-10.357-1.877-20.358-1.619-31.256 0.375-11.708 2.146-22.923 7.758-31.066 12.873-8.046 5.052-18.149 12.78-25.142 22.645-15.648 22.075-15.565 45.314-15.487 65.477 0.005 1.38 0.010 2.745 0.010 4.091v234.057c0 1.348-0.005 2.712-0.010 4.090-0.078 20.164-0.161 43.405 15.487 65.481 6.992 9.864 17.096 17.594 25.142 22.644 8.143 5.112 19.358 10.727 31.066 12.871 7.158 1.311 13.931 1.871 20.67 1.57-36.22 129.843-161.412 227.364-313.139 227.364s-276.918-97.521-313.141-227.364c6.74 0.302 13.513-0.258 20.672-1.57 11.708-2.144 22.922-7.759 31.066-12.871 8.045-5.050 18.152-12.78 25.144-22.644 15.648-22.075 15.561-45.317 15.486-65.481-0.005-1.378-0.010-2.742-0.010-4.090v-234.057c0-1.346 0.005-2.711 0.010-4.091 0.075-20.163 0.162-43.403-15.486-65.477-6.992-9.865-17.098-17.593-25.144-22.645-8.144-5.115-19.358-10.728-31.066-12.873-11.586-2.121-22.16-2.277-33.221 0.005-9.055 1.868-17.583 5.296-24.249 7.977-0.413 0.166-0.819 0.332-1.218 0.488-86.366 34.636-148.652 116.507-148.652 213.645 0 80.132 42.386 149.875 105.71 191.281zM197.067 524.111c-2.316-0.825-4.973-1.884-9-3.499-61.368-24.609-102.733-81.349-102.733-145.755s41.365-121.144 102.733-145.754c4.027-1.614 6.684-2.677 9-3.501 2.186-0.775 3.353-1.083 4.023-1.219 0.024-0.005 0.050-0.010 0.078-0.020 0.492-0.102 1.484-0.317 4.744 0.249 0.185 0.063 0.575 0.205 1.176 0.463 1.293 0.566 2.916 1.414 4.624 2.487 1.711 1.073 3.133 2.141 4.124 2.994 0.273 0.234 0.472 0.414 0.607 0.546 0.346 0.566 0.623 1.317 0.917 3.35 0.632 4.369 0.716 10.386 0.716 23.376v234.057c0 12.991-0.084 19.006-0.716 23.376-0.294 2.036-0.571 2.785-0.917 3.351-0.135 0.129-0.334 0.312-0.607 0.548-0.99 0.852-2.413 1.916-4.124 2.991-1.708 1.072-3.331 1.921-4.624 2.486-0.6 0.262-0.991 0.404-1.176 0.467-3.26 0.564-4.251 0.351-4.744 0.245-0.027-0.006-0.053-0.011-0.078-0.016-0.67-0.138-1.837-0.443-4.023-1.221zM818.088 525.104c-0.185-0.063-0.575-0.204-1.175-0.467-1.292-0.565-2.916-1.414-4.623-2.486-1.712-1.074-3.135-2.138-4.125-2.991-0.273-0.236-0.473-0.419-0.605-0.548-0.346-0.567-0.624-1.316-0.917-3.351-0.634-4.37-0.717-10.385-0.717-23.376v-234.057c0-12.99 0.083-19.007 0.717-23.376 0.293-2.033 0.571-2.784 0.917-3.35 0.132-0.132 0.332-0.312 0.605-0.546 0.99-0.853 2.414-1.921 4.125-2.994 1.707-1.073 3.33-1.921 4.623-2.487 0.6-0.258 0.99-0.4 1.175-0.463 3.262-0.566 4.252-0.351 4.745-0.249 0.029 0.010 0.054 0.015 0.078 0.020 0.668 0.137 1.838 0.444 4.023 1.219 2.316 0.824 4.974 1.887 9.001 3.501 61.367 24.61 102.732 81.349 102.732 145.754 0 64.407-41.365 121.146-102.732 145.755-4.028 1.615-6.685 2.675-9.001 3.499-2.185 0.778-3.355 1.083-4.023 1.221-0.024 0.005-0.049 0.010-0.078 0.016-0.492 0.106-1.482 0.319-4.745-0.245z" />
<glyph unicode="&#xe909;" glyph-name="delivery" d="M762.163 604.308l170.127 97.233c-6.789 6.815-14.93 12.268-24.888 17.72l-319.442 182.653c-27.602 15.903-55.204 24.535-81.9 24.535-27.148 0-54.749-8.633-82.35-24.535l-91.852-52.252 430.305-245.355zM506.061 458.458l193.208 109.956-428.495 245.809-166.057-94.962c-9.955-5.452-18.099-10.905-25.339-17.72l426.683-243.083zM536.829-62.239c3.167 0.906 5.881 2.273 9.050 4.091l354.289 202.644c42.076 24.079 64.701 48.614 64.701 114.499v353.946c0 13.631-0.906 24.536-3.62 34.531l-424.42-243.535v-466.176zM474.84-62.239v466.176l-424.42 243.535c-2.715-9.996-3.62-20.9-3.62-34.531v-353.946c0-65.884 23.076-90.419 64.704-114.499l354.739-202.644c2.715-1.818 5.43-3.185 8.597-4.091z" />
<glyph unicode="&#xe90a;" glyph-name="favorite" d="M511.671 812.904c105.391 94.085 261.309 112.685 384.776 11.143 134.069-110.263 150.296-298.528 46.905-430.174-39.693-50.542-117.415-126.744-192.431-196.807-75.792-70.785-151.423-137.69-188.723-170.377l-0.679-0.593c-3.546-3.115-7.761-6.807-11.771-9.798-4.748-3.535-11.349-7.766-20.070-10.337-11.703-3.455-24.282-3.455-35.984 0-8.721 2.571-15.32 6.802-20.068 10.337-4.009 2.986-8.224 6.683-11.772 9.798l-0.677 0.593c-37.302 32.687-112.932 99.592-188.726 170.377-75.013 70.063-152.738 146.265-192.432 196.807-103.752 132.107-84.644 318.958 46.486 429.822 122.035 103.176 279.665 83.255 385.166-10.792zM481.106 728.961c-79.648 92.139-207.389 113.335-302.408 33-98.385-83.181-111.589-220.764-35.102-318.155 35.235-44.865 108.354-116.972 184.033-187.655 73.075-68.252 146.16-132.996 184.055-166.233 37.895 33.237 110.982 97.981 184.058 166.233 75.679 70.683 148.798 142.79 184.029 187.655 76.854 97.852 64.711 236.062-34.676 317.803-97.409 80.112-223.485 59.141-302.829-32.648-7.68-8.882-18.841-13.987-30.581-13.987s-22.901 5.104-30.579 13.987z" />
<glyph unicode="&#xe90b;" glyph-name="favorite-fill" d="M511.649 791.559c-102.367 118.42-273.071 150.274-401.329 41.837s-146.316-289.738-45.593-417.987c83.743-106.63 337.182-331.525 420.244-404.313 9.293-8.144 13.94-12.216 19.36-13.812 4.73-1.397 9.906-1.397 14.637 0 5.42 1.596 10.066 5.668 19.359 13.812 83.066 72.788 336.5 297.683 420.245 404.313 100.719 128.249 84.872 310.691-45.592 417.987s-298.966 76.583-401.331-41.837z" />
<glyph unicode="&#xe90c;" glyph-name="geo" d="M489.914-64c-105.412 0-421.647 388.184-421.647 614.4s188.778 409.6 421.647 409.6c232.869 0 421.644-183.384 421.644-409.6s-316.232-614.4-421.644-614.4zM489.867 277.333c113.108 0 204.8 91.692 204.8 204.8s-91.692 204.8-204.8 204.8c-113.108 0-204.8-91.692-204.8-204.8s91.692-204.8 204.8-204.8z" />
<glyph unicode="&#xe90d;" glyph-name="home" d="M554.262 781.691l234.050-173.342v-445.036c0-32.987-28.613-62.741-67.723-62.741h-417.185c-39.112 0-67.725 29.755-67.725 62.741v445.036l234.052 173.342c24.732 18.317 59.799 18.317 84.531 0zM861.455 554.179l98.107-72.66c16.23-12.020 39.139-8.607 51.156 7.624 12.025 16.231 8.609 39.134-7.621 51.155l-405.301 300.172c-50.594 37.47-121.002 37.47-171.595 0l-405.302-300.172c-16.231-12.021-19.644-34.924-7.623-51.155s34.924-19.644 51.155-7.624l98.107 72.66v-390.866c0-76.711 64.777-135.884 140.868-135.884h417.185c76.091 0 140.866 59.173 140.866 135.884v390.866z" />
<glyph unicode="&#xe90e;" glyph-name="install" d="M220.129 50.044c-12.374-21.202-34.628-32.968-57.48-32.968-11.409 0-22.985 2.935-33.563 9.133-31.701 18.632-42.345 59.465-23.75 91.195l9.68 16.569c17.131 5.398 35.16 8.333 53.688 7.797h0.166c34.029-1 62.503-16.433 81.962-39.195l-30.703-52.531zM594.081 208.535h-512.696c-36.723 0-66.528 29.862-66.528 66.662 0 36.796 29.804 66.662 66.528 66.662h155.176l195.126 333.647-60.241 103.027c-18.595 31.765-7.95 72.596 23.75 91.228 31.7 18.599 72.448 7.966 91.043-23.799l22.551-38.564 22.557 38.564c18.559 31.765 59.309 42.398 91.043 23.799 31.7-18.632 42.345-59.463 23.747-91.228l-255.366-436.674h139.045c20.787-13.868 38.654-32.197 51.527-54.662l0.098-0.137c14.638-25.498 17.861-53.097 12.639-78.526zM946.249 208.535h-87.255l53.292-91.097c18.593-31.729 7.948-72.597-23.752-91.195-10.576-6.232-22.153-9.133-33.563-9.133-22.855 0-45.076 11.8-57.481 32.968l-204.605 349.877c-27.746 51.63-26.712 114.227 3.623 164.757l27.477 45.764 157.038-268.617h165.225c36.723 0 66.526-29.867 66.526-66.662 0-36.801-29.803-66.662-66.526-66.662z" />
<glyph unicode="&#xe90f;" glyph-name="loupe" d="M1006.733 34.586l-266.362 260.685c63.597 83.014 93.37 187.082 83.322 291.21-10.042 104.129-59.162 200.568-137.453 269.862-78.284 69.295-179.908 106.289-284.371 103.518s-203.988-45.1-278.499-118.448c-74.51-73.348-118.46-172.257-122.984-276.771s30.717-206.858 98.611-286.382c67.894-79.526 163.39-130.31 267.221-142.118s208.272 16.25 292.252 78.509l267.955-262.253c5.395-5.28 11.77-9.446 18.771-12.256 6.995-2.81 14.477-4.218 22.016-4.134 7.539 0.090 14.995 1.658 21.926 4.621 6.931 2.97 13.216 7.27 18.49 12.666 5.274 5.402 9.434 11.782 12.243 18.79 2.803 7.002 4.205 14.496 4.122 22.042-0.083 7.552-1.651 15.008-4.614 21.952-2.957 6.938-7.251 13.229-12.646 18.509zM79.878 545.583c0.091 66.234 19.793 130.955 56.617 185.982s89.116 97.891 150.268 123.175c61.152 25.284 128.419 31.852 193.298 18.875s124.46-44.918 171.21-91.784c46.752-46.867 78.579-106.556 91.45-171.524 12.877-64.968 6.221-132.299-19.117-193.482s-68.23-113.477-123.247-150.264c-55.018-36.787-119.695-56.422-185.857-56.422-88.778 0.16-173.867 35.565-236.599 98.451-62.732 62.89-97.984 148.12-98.021 236.994z" />
<glyph unicode="&#xe910;" glyph-name="minus" d="M47.158 452.368c0 29.765 24.13 53.895 53.895 53.895h862.316c29.766 0 53.895-24.129 53.895-53.895s-24.129-53.895-53.895-53.895h-862.316c-29.765 0-53.895 24.13-53.895 53.895z" />
<glyph unicode="&#xe911;" glyph-name="moon" d="M370.218 942.005c8.964 2.668 18.589 2.681 27.678-0.086l0.012-0.004c20.414-6.216 34.274-25.162 34.015-46.5-0.056-4.636-0.776-9.142-2.079-13.416-18.139-66.063-18.518-135.752-1.089-202.020 17.53-66.653 52.447-127.455 101.181-176.188s109.536-83.651 176.189-101.181c66.227-17.418 135.872-17.050 201.901 1.058 4.474 1.377 9.203 2.113 14.067 2.118 21.536 0.022 40.454-14.304 46.266-35.041l0.006-0.016c2.47-8.824 2.349-18.097-0.237-26.739-22.79-81.289-66.4-155.228-126.528-214.505-60.358-59.501-135.251-102.144-217.221-123.693s-168.156-21.242-249.971 0.89c-81.815 22.131-156.403 65.312-216.334 125.242-59.932 59.936-103.114 134.522-125.245 216.336s-22.44 168-0.894 249.971c21.546 81.971 64.193 156.866 123.694 217.224 59.295 60.149 133.266 103.77 214.588 126.551zM321.71 820.179c-36-18.701-69.002-42.995-97.715-72.122-47.725-48.412-81.932-108.484-99.213-174.232s-17.034-134.876 0.717-200.499c17.752-65.621 52.388-125.448 100.458-173.519s107.896-82.707 173.519-100.454c65.622-17.754 134.751-17.997 200.499-0.717s125.818 51.488 174.234 99.219c29.12 28.71 53.414 61.709 72.115 97.709-55.059-4.691-110.746 0.032-164.614 14.202-83.098 21.855-158.899 65.386-219.655 126.141s-104.287 136.557-126.141 219.653c-14.169 53.871-18.897 109.556-14.202 164.618z" />
<glyph unicode="&#xe912;" glyph-name="person" d="M512 854.588c130.988 0 237.176-106.188 237.176-237.176s-106.189-237.176-237.176-237.176c-130.989 0-237.176 106.188-237.176 237.176s106.188 237.176 237.176 237.176zM702.723 351.106c82.842 59.437 136.806 156.57 136.806 266.306 0 180.89-146.643 327.529-327.529 327.529-180.89 0-327.529-146.64-327.529-327.529 0-109.737 53.967-206.869 136.809-266.306-58.175-18.589-110.994-45.514-155.832-79.143-90.311-67.735-150.389-164.756-150.389-275.727 0-24.949 20.226-45.176 45.176-45.176s45.176 20.227 45.176 45.176c0 76.155 41.053 148.546 114.248 203.445 73.209 54.904 176.418 90.202 292.34 90.202 115.923 0 219.13-35.298 292.34-90.202 73.198-54.898 114.248-127.289 114.248-203.445 0-24.949 20.227-45.176 45.176-45.176s45.176 20.227 45.176 45.176c0 110.971-60.079 207.992-150.389 275.727-44.839 33.629-97.659 60.555-155.829 79.143z" />
<glyph unicode="&#xe913;" glyph-name="phone" d="M580.14 806.4h-136.28c-18.843 0-34.26 11.52-34.26 25.6s15.417 25.6 34.26 25.6h136.28c18.843 0 34.26-11.52 34.26-25.6s-15.417-25.6-34.26-25.6zM443.86 842.382c-7.613 0-13.894-4.694-13.894-10.382s6.281-10.382 13.894-10.382h136.28c7.613 0 13.894 4.694 13.894 10.382s-6.281 10.382-13.894 10.382h-136.28zM720.532-64h-417.065c-54.407 0-98.667 36.163-98.667 80.614v862.769c0 44.453 44.26 80.616 98.667 80.616h417.065c54.405 0 98.668-36.163 98.668-80.616v-862.769c0-44.452-44.262-80.614-98.668-80.614zM303.293 944.706c-44.086 0-79.949-29.302-79.949-65.322v-862.769c0-36.019 35.863-65.321 79.949-65.321h417.065c44.083 0 79.949 29.302 79.949 65.321v862.769c0 36.020-35.866 65.322-79.949 65.322h-417.065z" />
<glyph unicode="&#xe914;" glyph-name="play" d="M890.071 525.068c51.866-31.002 51.866-108.51 0-139.511l-700.175-418.534c-51.865-31.002-116.696 7.752-116.696 69.755v837.069c0 62.005 64.831 100.758 116.696 69.755l700.175-418.533z" />
<glyph unicode="&#xe915;" d="M651.637 815.59h-279.274c-130.339 0-195.509 0-245.292-18.118-43.79-15.937-79.393-41.368-101.706-72.647-25.366-35.559-25.366-82.11-25.366-175.208v-199.48c0-93.1 0-139.65 25.366-175.209 22.312-31.279 57.915-56.71 101.706-72.648 49.783-18.118 114.952-18.118 245.292-18.118h279.274c130.339 0 195.509 0 245.291 18.118 43.79 15.938 79.394 41.368 101.706 72.648 25.366 35.559 25.366 82.109 25.366 175.209v199.48c0 93.099 0 139.649-25.366 175.208-22.311 31.279-57.915 56.71-101.706 72.647-49.782 18.118-114.952 18.118-245.291 18.118z" />
<glyph unicode="&#xe916;" d="M648.326 467.761c13.299-7.949 13.299-27.823 0-35.772l-179.532-107.317c-13.299-7.949-29.922 1.988-29.922 17.886v214.633c0 15.898 16.623 25.835 29.922 17.886l179.532-107.317z" />
<glyph unicode="&#xe917;" glyph-name="plus" d="M532.211 937.421c29.766 0 53.895-24.13 53.895-53.895v-377.263h377.263c29.766 0 53.895-24.129 53.895-53.895s-24.129-53.892-53.895-53.892h-377.263v-377.263c0-29.766-24.129-53.895-53.895-53.895s-53.895 24.129-53.895 53.895v377.263h-377.263c-29.765 0-53.895 24.127-53.895 53.893s24.13 53.895 53.895 53.895h377.263v377.263c0 29.765 24.13 53.895 53.895 53.895z" />
<glyph unicode="&#xe918;" glyph-name="processing" d="M1011.236 455.027h-302.022l151.009 226.517 151.013-226.517zM905.83 457.38c0.792-76.688-21.379-151.854-63.653-215.841-42.282-63.982-102.738-113.855-173.595-143.195-70.852-29.344-148.858-36.815-223.995-21.455-75.134 15.356-143.964 52.843-197.62 107.64l63.622 62.299c41.221-42.1 94.104-70.901 151.832-82.699 57.727-11.803 117.658-6.064 172.094 16.482s100.891 60.861 133.369 110.018c32.483 49.161 49.517 106.915 48.907 165.829l89.039 0.922zM29.207 455.033h302.022l-151.011-226.516-151.011 226.516zM371.781 810.55c70.765 29.325 148.673 36.832 223.737 21.56 75.059-15.272 143.845-52.628 197.525-107.273l-63.519-62.4c-41.245 41.983-94.092 70.684-151.761 82.417s-117.524 5.966-171.893-16.564c-54.37-22.53-100.769-60.795-133.235-109.88s-49.518-106.752-48.976-165.604l-89.040-0.821c-0.706 76.594 21.489 151.655 63.748 215.546s102.651 113.694 173.414 143.018z" />
<glyph unicode="&#xe919;" glyph-name="repair" d="M11.429 297.521c20.459 4.92 41.019 9.943 59.981 14.555 0 160.401-0.699 321.93 0.399 483.357 0.399 54.936 30.739 85.992 84.332 86.197 236.032 0.922 472.064 0.922 708.096 0 51.595-0.205 82.632-30.031 84.529-80.765 2.199-59.753 0.702-119.507 0.8-179.363 0-15.169 0-30.44 0-45.609-5.388-2.255-10.679-4.612-16.067-6.867-7.982 16.809-21.855 33.208-22.757 50.427-2.892 56.166-1.497 112.64-0.995 169.011 0.297 36.385-16.667 52.681-51.897 52.681-231.044-0.307-462.083-0.41-693.125 0-38.025 0-53.893-17.527-53.693-56.064 0.698-140.108 0.798-280.114 0-420.22-0.299-41.818 17.864-57.91 57.486-57.602 126.349 0.922 252.598 0.307 378.948 0.307 15.867 0 31.734 0 47.504 0 1.897-3.794 3.891-7.685 5.788-11.479-34.231-33.719-67.165-68.979-103.395-100.24-10.777-9.323-30.438-10.762-46.107-10.864-101.398-0.922-202.897 2.36-304.096-1.536-61.478-2.355-106.289 17.423-135.631 72.875 0 13.629 0 27.365 0 40.994l-0.1 0.205zM540.379 20.587c-64.274 49.708-67.068 87.22-10.981 145.744 25.649 26.751 50.8 54.116 77.746 79.536 41.418 39.151 70.661 75.127 66.77 144.613-6.388 114.897 115.068 190.435 226.148 148.207-15.867-17.116-30.237-33.003-45.11-48.479-59.28-62.111-73.353-108.847-41.618-139.494 31.939-30.749 73.855-17.013 135.431 46.329 13.975 14.348 24.854 31.977 37.825 48.99 12.176-13.631 17.467-19.576 22.757-25.521v-82.096c-41.716-94.398-104.292-150.562-213.475-127.707-10.479 2.15-26.351-10.352-36.128-19.885-57.090-56.164-113.176-113.459-169.565-170.34h-49.903l0.102 0.102z" />
<glyph unicode="&#xe91a;" glyph-name="resize" d="M668.446 896c-11.785 0-21.333 9.551-21.333 21.333s9.549 21.333 21.333 21.333h312.887c11.78 0 21.333-9.551 21.333-21.333v-312.889c0-11.782-9.553-21.333-21.333-21.333s-21.333 9.551-21.333 21.333v261.385l-276.471-276.471c-8.329-8.331-21.837-8.331-30.17 0-8.329 8.331-8.329 21.839 0 30.17l276.471 276.471h-261.385zM42.667 312.887c11.782 0 21.333-9.549 21.333-21.333v-261.385l276.471 276.471c8.331 8.329 21.839 8.329 30.17 0 8.331-8.333 8.331-21.841 0-30.17l-276.471-276.471h261.386c11.782 0 21.333-9.553 21.333-21.333s-9.551-21.333-21.333-21.333h-312.889c-11.782 0-21.333 9.553-21.333 21.333v312.887c0 11.785 9.551 21.333 21.333 21.333z" />
<glyph unicode="&#xe91b;" glyph-name="sale" d="M217.734-9.977c18.139-13.891 41.146-9.114 68.576 10.414l234.046 168.835 234.487-168.835c27.43-19.527 49.993-24.304 68.577-10.414 18.138 13.454 22.118 35.591 11.059 67.272l-92.467 269.958 236.255 166.664c27.43 19.097 38.493 39.062 31.415 60.763-7.079 20.833-27.875 31.249-61.939 30.815l-289.792-1.736-88.042 271.261c-10.618 32.117-26.548 48.176-49.553 48.176-22.564 0-38.493-16.059-49.112-48.176l-88.042-271.261-289.791 1.736c-34.067 0.434-54.861-9.983-61.94-30.815-7.521-21.701 3.982-41.666 31.412-60.763l236.257-166.664-92.468-269.958c-11.061-31.682-7.079-53.818 11.061-67.272z" />
<glyph unicode="&#xe91c;" glyph-name="share" d="M768 576c70.694 0 128 57.308 128 128s-57.306 128-128 128c-70.694 0-128-57.308-128-128 0-5.354 0.329-10.632 0.969-15.814l-296.111-148.055c-23.021 22.208-54.345 35.868-88.858 35.868-70.692 0-128-57.306-128-128s57.308-128 128-128c34.513 0 65.837 13.662 88.858 35.87l296.111-148.058c-0.64-5.18-0.969-10.458-0.969-15.812 0-70.694 57.306-128 128-128s128 57.306 128 128c0 70.694-57.306 128-128 128-34.513 0-65.835-13.662-88.858-35.87l-296.11 148.058c0.638 5.18 0.967 10.458 0.967 15.812s-0.329 10.633-0.967 15.812l296.11 148.056c23.023-22.208 54.345-35.868 88.858-35.868z" />
<glyph unicode="&#xe91d;" glyph-name="shine" d="M964.068 387.996c-57.213-27.143-145.675-39.835-193.32-80.842-54.482-46.672-65.417-141.767-95.681-204.254-8.789-17.966-18.358-14.45-27.341 1.365-31.044 55.068-36.71 142.746-83.575 192.927-44.327 47.453-142.353 61.317-200.544 90.022-7.030 3.319-9.374 12.692-7.811 20.113 1.952 8.592 140.791 51.942 162.856 62.878 83.38 41.202 91.976 134.542 124.385 213.041 7.231 17.184 9.961 34.563 31.249 14.841 35.538-78.304 42.763-181.408 125.946-225.539 47.258-24.995 110.33-38.469 160.125-60.144 11.127-5.858 10.741-14.841 3.709-24.409zM248.14 902.147c5.272-3.515 34.759-100.76 43.741-117.944 33.001-62.878 99.589-63.854 157.975-90.606 15.622-7.225 13.474-13.474-1.172-21.87-38.078-21.675-105.251-26.752-137.081-59.753-35.735-36.906-38.469-110.133-70.102-149.969-12.107 0-42.96 106.814-52.919 124.974-32.61 59.753-104.471 56.434-154.265 84.748-14.255 8.202-17.379 14.841-1.367 21.87 63.463 27.924 124.193 26.362 158.756 94.512 11.521 22.847 31.243 97.831 40.616 109.352 4.101 4.882 11.911 7.225 16.013 4.491l-0.196 0.195zM328.057 161.866c1.562-8.004-2.148-9.569-7.616-13.278-17.77-12.299-59.753-18.938-81.624-30.851-49.013-26.755-44.132-82.99-72.446-124.388-9.373-2.15-6.64 3.516-9.178 9.37-12.107 27.733-23.433 81.237-44.522 100.955-26.557 24.997-82.405 29.685-112.672 51.359 0 10.741 78.499 31.437 92.168 38.861 48.623 26.362 43.936 87.478 74.008 127.317 5.272 0 30.462-78.501 36.516-90.021 24.799-46.672 79.866-51.16 125.169-69.325h0.195z" />
<glyph unicode="&#xe922;" glyph-name="star" d="M1021.338 567.206c-6.707 20.735-25.095 35.462-46.855 37.423l-295.554 26.837-116.871 273.546c-8.617 20.047-28.243 33.024-50.048 33.024s-41.43-12.977-50.048-33.071l-116.87-273.499-295.602-26.837c-21.719-2.008-40.064-16.688-46.806-37.423s-0.516-43.478 15.914-57.814l223.404-195.927-65.877-290.183c-4.82-21.343 3.461-43.396 21.165-56.196 9.516-6.875 20.649-10.372 31.876-10.372 9.68 0 19.281 2.611 27.899 7.768l254.944 152.371 254.849-152.371c18.651-11.22 42.16-10.196 59.824 2.604 17.708 12.837 25.988 34.904 21.168 56.196l-65.88 290.183 223.4 195.888c16.435 14.375 22.704 37.079 15.967 57.853z" />
<glyph unicode="&#xe923;" glyph-name="sun" d="M495.71 667.891c-112.444 0-203.598-91.154-203.598-203.598 0-112.446 91.154-203.598 203.598-203.598s203.596 91.152 203.596 203.598c0 112.444-91.152 203.598-203.596 203.598zM211.27 464.292c0 157.092 127.348 284.44 284.44 284.44 157.090 0 284.438-127.348 284.438-284.44s-127.348-284.44-284.438-284.44c-157.092 0-284.44 127.348-284.44 284.44zM495.835 960c22.324 0 40.421-18.097 40.421-40.421v-81.34c0-22.324-18.097-40.421-40.421-40.421s-40.421 18.097-40.421 40.421v81.34c0 22.324 18.097 40.421 40.421 40.421zM495.835 130.56c22.324 0 40.421-18.098 40.421-40.421v-81.338c0-22.323-18.097-40.421-40.421-40.421s-40.421 18.098-40.421 40.421v81.338c0 22.323 18.097 40.421 40.421 40.421zM829.44 464.168c0 22.324 18.098 40.421 40.421 40.421h81.338c22.329 0 40.421-18.097 40.421-40.421s-18.092-40.421-40.421-40.421h-81.338c-22.323 0-40.421 18.097-40.421 40.421zM0 464.168c0 22.324 18.097 40.421 40.421 40.421h81.34c22.324 0 40.421-18.097 40.421-40.421s-18.097-40.421-40.421-40.421h-81.34c-22.324 0-40.421 18.097-40.421 40.421zM259.793 228.093c15.785-15.786 15.785-41.38 0-57.166l-57.516-57.516c-15.785-15.786-41.379-15.786-57.164 0s-15.785 41.38 0 57.166l57.516 57.516c15.785 15.786 41.379 15.786 57.164 0zM731.912 228.126c15.786 15.786 41.375 15.786 57.161 0l57.516-57.516c15.786-15.786 15.786-41.375 0-57.161s-41.375-15.786-57.161 0l-57.516 57.516c-15.786 15.786-15.786 41.375 0 57.161zM144.996 815.041c15.786 15.786 41.379 15.786 57.164 0l57.516-57.516c15.786-15.785 15.786-41.378 0-57.164s-41.378-15.785-57.164 0l-57.516 57.516c-15.785 15.786-15.785 41.379 0 57.164zM731.874 700.245c-15.786 15.785-15.786 41.379 0 57.164l57.511 57.516c15.786 15.785 41.38 15.785 57.166 0s15.786-41.379 0-57.164l-57.516-57.516c-15.786-15.785-41.38-15.785-57.161 0z" />
</font>
</defs>
</svg>
