<svg width="68" height="50" fill="none" xmlns="http://www.w3.org/2000/svg"><path d="M39.657 39.49h-2.61l-.958-.963V19.884h.425v18.467l.711.711h2.258l.707-.71V19.883h.43v18.643l-.962.963z" fill="#EBEBF5" fill-opacity=".6"/><path d="M40.404 33.928h-4.101v.428h4.1v-.428zM43.883 20.1H33.829v-9.154h10.054l1.518 1.15v6.857l-1.518 1.15V20.1zm-9.63-.428h9.487l1.236-.935V12.31l-1.236-.935h-9.486v8.298zm-7.225.428c-2.575 0-4.665-2.106-4.665-4.695 0-2.59 2.094-4.69 4.665-4.69 2.572 0 4.666 2.105 4.666 4.69 0 2.585-2.095 4.695-4.666 4.695zm0-8.958c-2.34 0-4.24 1.914-4.24 4.263 0 2.35 1.904 4.263 4.24 4.263 2.337 0 4.24-1.914 4.24-4.263 0-2.35-1.903-4.263-4.24-4.263z" fill="#EBEBF5" fill-opacity=".6"/><path d="M27.028 17.682a2.275 2.275 0 01-2.265-2.277 2.275 2.275 0 012.265-2.277 2.275 2.275 0 012.265 2.277 2.275 2.275 0 01-2.265 2.277zm0-4.123a1.845 1.845 0 00-1.836 1.85c0 1.019.826 1.85 1.836 1.85 1.01 0 1.836-.831 1.836-1.85 0-1.019-.827-1.85-1.836-1.85zm1.308 25.931h-2.61l-.958-.963V19.352h.425v18.999l.707.711h2.257l.712-.711V19.385h.425v19.142l-.958.963z" fill="#EBEBF5" fill-opacity=".6"/><path d="M29.078 33.928h-4.1v.428h4.1v-.428zM27.523 24.1a.49.49 0 11-.978 0 .49.49 0 11.977 0zm-.496-1.112a.49.49 0 01-.488-.491v-.34a.49.49 0 11.977 0v.34a.49.49 0 01-.489.491z" fill="#EBEBF5" fill-opacity=".6"/></svg>