<svg width="68" height="50" fill="none" xmlns="http://www.w3.org/2000/svg"><path d="M13.357 30.612a.657.657 0 01-.552-.3l-1.876-2.924a2.372 2.372 0 01-.377-1.28v-2.62h.895v-.482c-1.185 0-2.734-.032-3.98-.082-2.392-.092-2.392-.174-2.392-.29 0-.114 0-.194 2.392-.288 1.246-.048 2.795-.08 3.98-.082v-.016a.685.685 0 01.75-.679c.347.03.62.334.627.695 1.185 0 2.734.034 3.98.082 2.392.092 2.392.174 2.392.289 0 .114 0 .197-2.393.289-1.245.048-2.794.08-3.98.082v.482h.895v1.77l14.77-4.041v-.176c0-.91.747-1.65 1.666-1.65h.316a.424.424 0 00.303-.126.403.403 0 00.12-.3.572.572 0 01.168-.415.626.626 0 01.44-.183h4.994a.61.61 0 01.436.18c.115.116.177.27.174.433a.392.392 0 00.116.282c.08.08.193.128.309.128h.316c.919 0 1.667.74 1.667 1.65v.177l14.769 4.042v-1.77h.895v-.483c-1.185 0-2.735-.032-3.98-.082-2.39-.092-2.39-.174-2.39-.29 0-.114 0-.194 2.39-.288 1.245-.048 2.795-.08 3.98-.082v-.016c0-.205.091-.398.252-.528a.7.7 0 01.578-.14.697.697 0 01.548.682c1.185 0 2.734.034 3.98.082 2.39.092 2.39.175 2.39.29 0 .114 0 .196-2.39.288-1.246.048-2.795.08-3.98.082v.483h.895v2.62c0 .455-.13.896-.377 1.28l-1.876 2.922a.658.658 0 01-.746.27l-.769-.237 1.279-3.477-.608-.005-15.255-4.174h-2.504l.333.38a.453.453 0 01.067.498l-.777 1.58c-.076.156-.12.322-.133.494l-.114 1.65a.596.596 0 01-.596.55h-2.74a.597.597 0 01-.595-.55l-.114-1.65a1.332 1.332 0 00-.133-.494l-.778-1.58a.448.448 0 01.068-.498l.333-.38H28.91l-15.266 4.177h-.596l1.277 3.48-.769.238a.633.633 0 01-.193.03m-2.624-6.94v2.438c0 .419.12.828.347 1.182l1.876 2.923a.474.474 0 00.535.195l.584-.18-1.3-3.542.835-.004 15.267-4.176h2.938l-.601.682a.27.27 0 00-.04.298l.777 1.58c.087.176.139.366.152.561l.114 1.649c.016.214.196.38.412.38h2.74a.411.411 0 00.41-.38l.114-1.649c.014-.197.064-.385.152-.56l.778-1.581a.27.27 0 00-.04-.298l-.601-.682 2.948.003 15.255 4.173.836.004-1.301 3.542.584.18a.472.472 0 00.535-.195l1.876-2.923c.227-.354.347-.763.347-1.182V23.67h-.894v-.85h.093c2.014 0 4.849-.087 5.904-.186-1.057-.101-3.89-.187-5.904-.187h-.093v-.176a.512.512 0 00-.398-.51.51.51 0 00-.425.103.496.496 0 00-.184.387v.198h-.094c-2.014 0-4.848.087-5.904.187 1.057.1 3.892.186 5.904.186h.094v.85h-.895v1.829l-15.139-4.143v-.317c0-.809-.665-1.467-1.482-1.467h-.316a.626.626 0 01-.44-.183.568.568 0 01-.168-.412.418.418 0 00-.423-.426H31.51a.436.436 0 00-.31.128.388.388 0 00-.115.28.607.607 0 01-.61.612h-.316c-.817 0-1.482.66-1.482 1.468v.317l-.067.019L13.539 25.5v-1.828h-.895v-.85h.093c2.014 0 4.849-.087 5.904-.186-1.057-.101-3.89-.187-5.904-.187h-.093v-.168a.52.52 0 00-.458-.526.503.503 0 00-.55.497v.199h-.092c-2.014 0-4.849.087-5.904.186 1.057.101 3.89.187 5.904.187h.093v.85h-.895l-.003-.004z" fill="#EBEBF5" fill-opacity=".6"/><path d="M34 26.702a.806.806 0 01-.807-.8c0-.442.362-.8.808-.8.446 0 .808.358.808.8 0 .441-.362.8-.808.8zm0-1.416a.62.62 0 00-.62.616.62.62 0 001.244 0 .62.62 0 00-.623-.616zm-1.225-.388a.805.805 0 01-.809-.8c0-.442.363-.801.809-.801.445 0 .808.359.808.8 0 .442-.363.8-.808.8zm0-1.416a.62.62 0 00-.622.615c0 .339.28.616.622.616a.62.62 0 00.621-.616.62.62 0 00-.621-.616zm2.451 1.416a.805.805 0 01-.809-.8c0-.442.363-.801.809-.801.445 0 .808.359.808.8 0 .442-.363.8-.808.8zm0-1.416a.62.62 0 00-.622.615c0 .339.28.616.622.616a.62.62 0 00.621-.616.62.62 0 00-.621-.616zm1.041-3.682h-4.534a.368.368 0 01-.37-.365c0-.202.166-.366.37-.366h4.534c.204 0 .37.164.37.366a.368.368 0 01-.37.366zm-4.534-.55a.184.184 0 00-.185.183c0 .1.083.183.185.183h4.534a.184.184 0 00.185-.183c0-.1-.083-.183-.185-.183h-4.534zm6.17 2.499a.805.805 0 01-.808-.8c0-.442.362-.801.808-.801.446 0 .809.36.809.8 0 .442-.363.8-.809.8zm0-1.416a.62.62 0 00-.622.615c0 .339.28.616.622.616a.62.62 0 00.622-.616.62.62 0 00-.622-.615zm-7.806 1.416a.805.805 0 01-.808-.8c0-.442.362-.801.808-.801.446 0 .809.36.809.8 0 .442-.363.8-.809.8zm0-1.416a.62.62 0 00-.622.615c0 .339.28.616.622.616a.62.62 0 00.622-.616.62.62 0 00-.622-.615z" fill="#EBEBF5" fill-opacity=".6"/></svg>