<svg width="68" height="50" fill="none" xmlns="http://www.w3.org/2000/svg"><path d="M45.197 35.714H22.502c-2.055 0-3.726-1.663-3.726-3.706V18.255c0-2.043 1.67-3.706 3.727-3.706h15.039v.32h-15.04c-1.878 0-3.404 1.52-3.404 3.384v13.752c0 1.866 1.53 3.383 3.405 3.383h22.694c1.878 0 3.404-1.517 3.404-3.383V26.04h.322v5.965c0 2.043-1.673 3.706-3.73 3.706" fill="#EBEBF5" fill-opacity=".6"/><path d="M45.407 28.313h-6.481c-2.105 0-3.817-1.702-3.817-3.793v-6.441c0-2.091 1.712-3.793 3.817-3.793h6.48c2.105 0 3.818 1.702 3.818 3.793v6.44c0 2.092-1.713 3.794-3.817 3.794zm-6.484-13.71c-1.927 0-3.495 1.558-3.495 3.473v6.44c0 1.916 1.568 3.474 3.495 3.474h6.48c1.927 0 3.495-1.558 3.495-3.473v-6.441c0-1.915-1.568-3.473-3.494-3.473h-6.481z" fill="#EBEBF5" fill-opacity=".6"/><path d="M45.386 27.392h-6.445a2.906 2.906 0 01-2.91-2.893v-6.405a2.905 2.905 0 012.91-2.893h6.445c1.605 0 2.911 1.299 2.911 2.893v6.405a2.906 2.906 0 01-2.91 2.893zm-6.442-11.868a2.581 2.581 0 00-2.585 2.57v6.405a2.584 2.584 0 002.585 2.573h6.445a2.585 2.585 0 002.59-2.573v-6.405a2.582 2.582 0 00-2.59-2.57h-6.445z" fill="#EBEBF5" fill-opacity=".6"/><path d="M41.99 24.977c-1.999 0-3.624-1.615-3.624-3.601 0-1.987 1.625-3.602 3.624-3.602s3.624 1.615 3.624 3.602c0 1.986-1.625 3.601-3.624 3.601zm0-6.883c-1.821 0-3.302 1.472-3.302 3.282s1.481 3.278 3.302 3.278 3.302-1.471 3.302-3.278-1.48-3.282-3.302-3.282zM32.427 29.89h-9.094a2.095 2.095 0 01-2.098-2.085v-9.038c0-1.149.942-2.085 2.098-2.085h9.094c1.156 0 2.098.936 2.098 2.085v9.038a2.093 2.093 0 01-2.098 2.085zm-9.094-12.888c-.979 0-1.776.793-1.776 1.765v9.038c0 .972.797 1.765 1.776 1.765h9.094c.978 0 1.776-.793 1.776-1.765v-9.038c0-.972-.798-1.765-1.776-1.765h-9.094z" fill="#EBEBF5" fill-opacity=".6"/><path d="M43.122 21.376c0 .622-.505 1.124-1.132 1.124a1.127 1.127 0 01-1.131-1.124c0-.623.505-1.125 1.131-1.125.627 0 1.132.502 1.132 1.125zM32.253 28.92h-8.745a1.293 1.293 0 01-1.297-1.289v-8.69c0-.71.58-1.29 1.297-1.29h8.745c.716 0 1.297.578 1.297 1.29v8.69c0 .712-.58 1.29-1.297 1.29zm-8.748-10.994c-.563 0-1.02.455-1.02 1.015v8.69c0 .56.457 1.014 1.02 1.014h8.745c.563 0 1.02-.454 1.02-1.014v-8.69c0-.56-.457-1.015-1.02-1.015h-8.745zm17.652 12.475a.191.191 0 01-.193.192.19.19 0 01-.192-.192.19.19 0 01.192-.191.19.19 0 01.193.191zm1.027 0a.191.191 0 01-.193.192.19.19 0 01-.193-.192.19.19 0 01.193-.191.19.19 0 01.193.191zm1.026 0a.191.191 0 01-.193.192.19.19 0 01-.192-.192.19.19 0 01.192-.191.19.19 0 01.193.191zm-2.053.999a.192.192 0 01-.193.192.19.19 0 01-.192-.192.19.19 0 01.192-.191.19.19 0 01.193.191zm1.027 0a.191.191 0 01-.193.192.19.19 0 01-.193-.192.19.19 0 01.193-.191.19.19 0 01.193.191zm1.026 0a.192.192 0 01-.193.192.19.19 0 01-.192-.192.19.19 0 01.192-.191.19.19 0 01.193.191zm-2.053.997a.192.192 0 01-.193.191.19.19 0 01-.192-.191.19.19 0 01.192-.192.19.19 0 01.193.192zm1.027 0a.191.191 0 01-.193.191.19.19 0 01-.193-.191.19.19 0 01.193-.192.19.19 0 01.193.192zm1.026 0a.192.192 0 01-.193.191.19.19 0 01-.192-.191.19.19 0 01.192-.192.19.19 0 01.193.192z" fill="#EBEBF5" fill-opacity=".6"/></svg>