<svg width="68" height="50" fill="none" xmlns="http://www.w3.org/2000/svg"><path d="M37.641 34.694h-8.297c-2.468 0-4.478-1.996-4.478-4.447V19.243c0-2.45 2.01-4.447 4.478-4.447h8.297c2.473 0 4.479 1.996 4.479 4.447v11.004c0 2.45-2.01 4.447-4.479 4.447zm-8.297-19.435c-2.21 0-4.012 1.789-4.012 3.984v11.004c0 2.195 1.801 3.983 4.012 3.983h8.297c2.211 0 4.012-1.788 4.012-3.983V19.243c0-2.195-1.8-3.984-4.012-3.984h-8.297z" fill="#EBEBF5" fill-opacity=".6"/><path d="M37.195 33.163H29.79c-1.876 0-3.403-1.548-3.403-3.45V19.266c0-1.902 1.527-3.45 3.402-3.45h7.405c1.876 0 3.402 1.548 3.402 3.45v10.445c0 1.903-1.526 3.451-3.402 3.451zM29.79 16.284c-1.622 0-2.942 1.339-2.942 2.983v10.445c0 1.645 1.32 2.983 2.942 2.983h7.404c1.621 0 2.94-1.338 2.94-2.983V19.267c0-1.644-1.319-2.983-2.94-2.983H29.79z" fill="#EBEBF5" fill-opacity=".6"/><path d="M39.243 15.816a4.876 4.876 0 01-1.161-3.187v-1.12c0-1.022-.78-1.848-1.735-1.848H30.63c-.955 0-1.735.83-1.735 1.848v1.12c0 1.183-.41 2.313-1.16 3.187l-.332-.321a4.378 4.378 0 001.044-2.861v-1.12c0-1.286.98-2.33 2.187-2.33h5.717c1.207 0 2.188 1.044 2.188 2.33v1.12a4.39 4.39 0 001.043 2.86l-.331.322h-.008zm-2.886 24.49h-5.72c-1.208 0-2.19-1.044-2.19-2.33v-1.12a4.39 4.39 0 00-1.044-2.861l.331-.322a4.873 4.873 0 011.162 3.187v1.12c0 1.023.78 1.853 1.736 1.853h5.72c.957 0 1.737-.83 1.737-1.852v-1.12c0-1.183.415-2.313 1.162-3.188l.331.322a4.377 4.377 0 00-1.044 2.86v1.121c0 1.286-.981 2.33-2.19 2.33m6.025-17.346c-.417 0-.761-.296-.761-.663V19.54c0-.363.339-.662.761-.662s.761.294.761.662v2.757c0 .363-.339.662-.76.662zm0-3.62c-.127 0-.23.089-.23.2v2.757c0 .11.102.2.23.2s.231-.09.231-.2V19.54c0-.111-.103-.2-.23-.2z" fill="#EBEBF5" fill-opacity=".6"/></svg>