<svg width="163" height="69" viewBox="0 0 163 69" fill="none" xmlns="http://www.w3.org/2000/svg">
<g clip-path="url(#clip0_2012_5193)">
<path d="M56.0991 7.28507C50.2039 2.7371 42.8191 0 34.7735 0C15.5668 0 0 15.4443 0 34.5C0 53.5557 15.5668 69 34.7735 69C43.5639 69 51.578 65.7321 57.704 60.3932H32.5287L32.4552 53.0561C47.6234 39.9742 56.9278 31.1281 56.9278 22.5733C56.9278 19.3991 55.711 15.3923 50.2248 15.3923C45.8821 15.3923 41.6862 17.89 42.452 28.3285H33.6091C31.3958 16.2249 38.0253 6.619 50.6864 6.619C52.648 6.619 54.4627 6.84796 56.1201 7.28507M69.5469 34.5C69.5469 30.2538 68.7392 26.2054 67.3231 22.4484C66.9455 34.8122 54.2844 44.3765 46.8576 50.7041H65.4664C68.0679 45.8647 69.5469 40.3489 69.5469 34.4896V34.5Z" fill="#A2C617"/>
<path d="M125.845 57.3958H117.548V8.57546H125.845V57.4062V57.3958ZM125.845 57.3958H117.548V8.57546H125.845V57.4062V57.3958ZM162.99 44.5637C163.336 25.456 141.265 31.794 141.475 21.1266C141.549 17.3592 144.003 14.9239 148.01 14.9239C152.301 14.9239 154.829 17.432 154.755 23.9886H162.843C163.053 18.0565 161.647 7.94062 148.293 7.94062C139.996 7.94062 133.178 11.989 133.041 20.9809C132.695 39.3289 154.902 33.3239 154.556 44.418C154.419 48.9556 151.105 50.9746 147.381 50.9746C143.028 50.9746 139.503 48.4664 140.206 40.9316H132.045C131.132 50.9017 135.559 58.0203 147.307 58.0203C157.22 58.0203 162.843 52.5773 162.99 44.5533V44.5637ZM101.803 23.8429H110.027C110.31 17.6402 108.202 7.79492 94.628 7.79492C84.6417 7.79492 77.4038 13.727 77.4038 26.07C77.4038 27.7456 77.4772 36.394 77.4772 41.7642C77.4772 55.1583 86.8341 58.0827 94.7014 58.0827C99.4113 58.0827 106.23 57.0316 109.398 53.618V32.2728H93.9356V40.0157H100.827V49.4343C95.6245 51.1827 86.1313 51.88 86.1313 40.0157V26.07C86.1313 17.7651 90.002 14.9135 94.2818 14.9135C98.5616 14.9135 101.803 17.1406 101.803 23.8429Z" fill="#101010"/>
</g>
<defs>
<clipPath id="clip0_2012_5193">
<rect width="163" height="69" fill="white"/>
</clipPath>
</defs>
</svg>
