<svg width="92" height="38" viewBox="0 0 92 38" fill="none" xmlns="http://www.w3.org/2000/svg">
<path fill-rule="evenodd" clip-rule="evenodd" d="M9.08721 6.46716C8.39435 6.45141 7.69856 6.44691 7.0057 6.44691L4.82207 6.45141H4.33494C4.25338 6.45141 4.16889 6.44766 4.0866 6.44241V4.68007H13.3288V1.00383L12.8998 0.946063C12.8295 0.932247 12.7582 0.924716 12.6867 0.923555L0 0.936309V18.3542L5.2901 18.3639C6.54576 18.3639 7.80069 18.3579 9.05415 18.3376C12.4236 18.2821 14.9548 15.681 14.9408 12.2861C14.9298 8.79445 12.5772 6.53844 9.08721 6.46716ZM10.9476 12.2906C10.9623 13.5563 10.2055 14.4829 9.10631 14.5414C8.47591 14.5774 7.79481 14.5931 6.96309 14.5931C6.42967 14.5931 5.89331 14.5871 5.35475 14.5796C4.92714 14.5736 4.49805 14.5691 4.06456 14.5676V10.1059C4.47527 10.1059 4.88673 10.0976 5.29818 10.0931C6.56633 10.0751 7.83522 10.0586 9.0997 10.1171C10.1908 10.1652 10.9336 11.0392 10.9476 12.2906Z" fill="#EBEBF5"/>
<path fill-rule="evenodd" clip-rule="evenodd" d="M65.7236 0.600006C60.6084 0.600006 56.7363 4.45855 56.7172 9.57602C56.7084 12.0879 57.6136 14.3911 59.2667 16.0619C60.9199 17.7328 63.2034 18.6541 65.7015 18.6616H65.7295C70.8403 18.6616 74.7043 14.7978 74.7167 9.6743C74.7314 4.52382 70.8822 0.621763 65.7236 0.600006ZM65.7133 4.36552L65.7265 3.98514V4.36552C68.675 4.36552 70.6639 6.46622 70.6772 9.60378C70.6831 11.0518 70.1827 12.3797 69.2694 13.3513C68.3561 14.3229 67.1049 14.8518 65.7184 14.8518C65.0597 14.8569 64.4065 14.7283 63.7968 14.4732C63.1872 14.2182 62.6333 13.8419 62.1675 13.3663C61.2123 12.3857 60.6833 11.051 60.6884 9.61053C60.6951 6.58101 62.8089 4.37302 65.7133 4.36552Z" fill="#EBEBF5"/>
<path fill-rule="evenodd" clip-rule="evenodd" d="M23.1493 11.1323H31.5415V7.34205H23.1464V4.71167H32.5671V0.951407H19.109V18.31H32.9389V14.5595H23.1493V11.1323Z" fill="#EBEBF5"/>
<path fill-rule="evenodd" clip-rule="evenodd" d="M82.053 11.1458H90.4562V7.33298H82.0677V4.70409H91.4826V0.949834H78.0039V18.3077H91.8485V14.5534H82.053V11.1458Z" fill="#EBEBF5"/>
<path fill-rule="evenodd" clip-rule="evenodd" d="M41.1929 1.02081L41.0923 1.23838C41.0551 1.30255 41.0302 1.37332 41.0188 1.44695L39.8675 9.95856C39.7058 11.1665 39.5383 12.4156 39.3421 13.6348C39.2202 14.3985 38.9637 14.6199 38.1386 14.6199C37.8029 14.6095 37.4681 14.5794 37.1357 14.5298C36.9667 14.5088 36.7955 14.4863 36.6214 14.4676L36.3011 14.4338L35.4054 18.0163L35.8161 18.077C36.11 18.1213 36.3951 18.1723 36.6765 18.2226C37.2827 18.3314 37.8572 18.4342 38.4509 18.4477H38.6544C41.2759 18.4477 42.8093 17.0777 43.2142 14.379C43.3964 13.1591 43.5544 11.9347 43.7123 10.7111C43.7912 10.0949 43.8713 9.47915 43.9526 8.86394L44.5198 4.71055H49.5454V18.3164H53.4439V0.966792H41.456L41.1929 1.02081Z" fill="#EBEBF5"/>
<path fill-rule="evenodd" clip-rule="evenodd" d="M23.6805 28.4074C22.5402 28.1823 21.3426 28.2386 20.1699 28.2003C19.3118 28.1741 18.4536 28.1958 17.5741 28.1958V25.3449H25.4777V23.8526H15.7681V37.1576H16.3919C18.336 37.1576 20.278 37.1666 22.2199 37.1531C22.6311 37.1507 23.0412 37.1105 23.4454 37.0331C25.3954 36.6579 26.8685 34.8573 26.9185 32.8211C26.9707 30.6634 25.6878 28.8028 23.6805 28.4074ZM22.6563 35.5393C20.9811 35.6511 19.2927 35.5656 17.5587 35.5656V29.7999C18.4463 29.7999 19.303 29.7999 20.1597 29.7999C20.9047 29.7999 21.6504 29.7894 22.3947 29.8134C23.9509 29.8607 25.0846 30.9448 25.1551 32.4303C25.2352 34.1363 24.2808 35.4343 22.6563 35.5393Z" fill="#EBEBF5"/>
<path fill-rule="evenodd" clip-rule="evenodd" d="M5.75738 23.8068C5.09612 23.8128 4.41575 23.8195 3.76992 23.9568C0.2498 24.6831 -1.20277 28.9377 1.14618 31.6747C1.62155 32.2306 2.2762 32.623 2.88309 33.1204C2.02272 34.4138 1.13883 35.7403 0.194695 37.1575C0.7913 37.1575 1.25859 37.1327 1.72221 37.168C2.0837 37.1943 2.28943 37.054 2.47752 36.7501C3.08588 35.768 3.73612 34.8167 4.33493 33.8301C4.55021 33.4753 4.80222 33.3642 5.1953 33.371C6.43113 33.3927 7.66695 33.377 8.90278 33.38C9.08793 33.38 9.27015 33.4017 9.51555 33.4167V37.123H11.2194V23.7993C9.36052 23.7993 7.55895 23.788 5.75738 23.8068ZM9.46485 31.7054C9.35864 31.7373 9.24962 31.7584 9.13936 31.7684C7.72867 31.7684 6.31725 31.7887 4.90655 31.7549C3.06384 31.7122 1.86401 30.4938 1.82066 28.6789C1.78099 26.9023 3.02637 25.4813 4.81177 25.3996C6.33561 25.329 7.8646 25.3846 9.46191 25.3846L9.46485 31.7054Z" fill="#EBEBF5"/>
<path fill-rule="evenodd" clip-rule="evenodd" d="M53.6181 23.5577C49.6667 23.5577 46.7116 26.516 46.7116 30.4698C46.7116 34.3929 49.7086 37.3969 53.6254 37.3969C57.5423 37.3969 60.5319 34.3914 60.5239 30.4623C60.5195 26.4972 57.5805 23.5577 53.6181 23.5577ZM53.6027 35.8243C50.7034 35.8168 48.4882 33.4948 48.4904 30.469C48.4904 27.3848 50.6894 25.1198 53.6636 25.1325C56.5291 25.146 58.7333 27.477 58.7333 30.4758C58.7282 33.5076 56.4968 35.8356 53.6027 35.8266V35.8243Z" fill="#EBEBF5"/>
<path fill-rule="evenodd" clip-rule="evenodd" d="M85.0662 23.5578C81.1162 23.5735 78.1597 26.5528 78.1883 30.4976C78.2148 34.4574 81.2184 37.4172 85.1881 37.3999C89.0521 37.3797 92.0212 34.3449 91.9999 30.4361C91.98 26.4695 89.0301 23.5428 85.0662 23.5578ZM85.1037 35.8244C82.2044 35.8304 79.9774 33.5211 79.9656 30.4939C79.9539 27.4328 82.1294 25.1431 85.0566 25.1326C87.9713 25.1236 90.1843 27.4111 90.2064 30.4526C90.2255 33.4709 87.9948 35.8229 85.1037 35.8267V35.8244Z" fill="#EBEBF5"/>
<path fill-rule="evenodd" clip-rule="evenodd" d="M33.9573 24.1999C33.8052 25.1265 33.7009 26.0598 33.5738 26.9908C33.2593 29.3279 32.9537 31.6657 32.6186 34.0012C32.4614 35.0891 31.7935 35.624 30.7039 35.621H29.7363C29.6386 36.0576 29.5394 36.4995 29.4233 37.015C29.9288 37.0997 30.3836 37.2145 30.8435 37.2483C32.6943 37.3773 33.9926 36.348 34.2821 34.4724C34.587 32.4977 34.8331 30.5125 35.1072 28.5349C35.2541 27.4898 35.4011 26.4462 35.5422 25.4153H41.3524V37.1373H43.0291V23.8008C40.0975 23.8008 37.2159 23.7948 34.3328 23.818C34.2027 23.8188 33.9816 24.0484 33.9573 24.1999Z" fill="#EBEBF5"/>
<path fill-rule="evenodd" clip-rule="evenodd" d="M75.5529 25.239C75.5845 25.239 75.6191 25.2037 75.6793 25.1684C75.7293 24.7183 75.7807 24.2509 75.8307 23.7902C74.0137 23.3318 72.6199 23.9058 71.7161 25.4618C71.179 26.3929 70.7059 27.3659 70.1085 28.2527C69.8448 28.6459 69.3738 29.078 68.9477 29.138C68.0138 29.2716 67.0498 29.1793 66.0359 29.1793V23.8172H64.3453V37.1267H66.0704V30.7908C67.1093 30.7908 68.0873 30.8246 69.0601 30.7743C69.4487 30.7541 69.6479 30.8546 69.8558 31.1772C71.0603 33.0508 72.2802 34.9137 73.5155 36.7658C73.6228 36.9271 73.8094 37.1267 73.9747 37.141C74.55 37.1882 75.1319 37.1582 75.8196 37.1582L71.0578 30.0308C71.6772 28.9707 72.3252 28.0134 72.8212 26.9803C73.3965 25.7784 74.2326 25.1497 75.5529 25.239Z" fill="#EBEBF5"/>
</svg>
