<svg width="42" height="43" viewBox="0 0 42 43" fill="none" xmlns="http://www.w3.org/2000/svg">
<path d="M31.1841 25.5873C23.6017 25.6253 22.3752 30.3016 21.9664 34.2557L21.7806 36.0045L20.2566 36.0045L20.0708 34.2557C19.662 30.3016 18.3983 25.6253 11.0761 25.5873C9.84956 23.0018 9.3292 20.9107 9.3292 18.5535C9.3292 12.6606 14.0496 7.14766 21.0371 7.14766C28.0247 7.14766 32.6707 12.6224 32.6707 18.5917C32.6708 20.9107 32.4478 23.0018 31.1841 25.5873ZM20.9629 -6.67283e-07C9.44081 -3.00517e-07 -1.13107e-06 9.65703 -2.51593e-06 21.4809C-3.90528e-06 33.3431 9.44081 43 20.9629 43C32.5964 43 42 33.3431 42 21.4809C42 9.65706 32.5964 -1.0376e-06 20.9629 -6.67283e-07Z" fill="#29B24A"/>
</svg>
