<svg width="20" height="23" viewBox="0 0 20 23" fill="none" xmlns="http://www.w3.org/2000/svg">
<path d="M18.7288 8.42055C18.5912 8.51987 16.1623 9.79337 16.1623 12.6251C16.1623 15.9005 19.253 17.0592 19.3455 17.0879C19.3313 17.1585 18.8545 18.6748 17.7159 20.2198C16.7007 21.5794 15.6405 22.9368 14.0275 22.9368C12.4146 22.9368 11.9995 22.0649 10.1374 22.0649C8.32288 22.0649 7.6777 22.9655 6.20232 22.9655C4.72695 22.9655 3.6975 21.7074 2.51388 20.1624C1.14287 18.3482 0.0351562 15.5297 0.0351562 12.8546C0.0351562 8.56401 3.03335 6.28847 5.9841 6.28847C7.55198 6.28847 8.85895 7.24636 9.84332 7.24636C10.7803 7.24636 12.2414 6.23109 14.0251 6.23109C14.7012 6.23109 17.1301 6.28847 18.7288 8.42055ZM13.1783 4.41463C13.916 3.6002 14.4379 2.47016 14.4379 1.34011C14.4379 1.18341 14.4236 1.0245 14.3928 0.896484C13.1926 0.93842 11.7646 1.64028 10.9036 2.56948C10.2276 3.28459 9.59664 4.41463 9.59664 5.56012C9.59664 5.73228 9.62747 5.90443 9.6417 5.95961C9.71761 5.97285 9.84095 5.9883 9.96429 5.9883C11.0412 5.9883 12.3956 5.31734 13.1783 4.41463Z" fill="#EBEBF5" fill-opacity="0.6"/>
</svg>
