<svg width="15" height="19" viewBox="0 0 15 19" fill="none" xmlns="http://www.w3.org/2000/svg">
<path d="M12.4198 3.75291H11.2931C11.2035 2.72608 10.7651 1.7725 10.0637 1.07849C9.36225 0.384484 8.44816 -9.15527e-05 7.5 -9.15527e-05C6.55184 -9.15527e-05 5.63775 0.384484 4.93632 1.07849C4.23489 1.7725 3.79653 2.72608 3.70688 3.75291H2.58022C1.89616 3.75383 1.24036 4.04985 0.756657 4.57604C0.272954 5.10224 0.000840368 5.81565 0 6.5598V16.193C0.000840368 16.9372 0.272954 17.6506 0.756657 18.1768C1.24036 18.703 1.89616 18.999 2.58022 18.9999H12.4198C13.1038 18.999 13.7596 18.703 14.2433 18.1768C14.727 17.6506 14.9992 16.9372 15 16.193V6.5599C14.9992 5.81573 14.7271 5.1023 14.2434 4.57608C13.7597 4.04986 13.1039 3.75383 12.4198 3.75291ZM7.5 1.29495C8.13254 1.29711 8.7433 1.54648 9.22095 1.99758C9.69861 2.44869 10.0113 3.0715 10.1021 3.75248H4.89785C4.98866 3.0715 5.30139 2.44869 5.77905 1.99758C6.2567 1.54648 6.86746 1.29711 7.5 1.29495ZM13.809 16.193C13.8087 16.5938 13.6622 16.9779 13.4017 17.2613C13.1412 17.5447 12.788 17.704 12.4197 17.7044H2.58022C2.21185 17.704 1.85868 17.5447 1.59821 17.2613C1.33773 16.9779 1.19124 16.5938 1.19087 16.193V6.5599C1.19124 6.15918 1.33773 5.77498 1.59821 5.49163C1.85868 5.20827 2.21185 5.04891 2.58022 5.04851H12.4198C12.7881 5.04891 13.1413 5.20827 13.4018 5.49163C13.6623 5.77498 13.8088 6.15918 13.8091 6.5599L13.809 16.193Z" fill="#EBEBF5" fill-opacity="0.6"/>
</svg>
