<svg width="21" height="14" viewBox="0 0 21 14" fill="none" xmlns="http://www.w3.org/2000/svg">
<path fill-rule="evenodd" clip-rule="evenodd" d="M19.8637 13.5303C19.5708 13.8232 19.0959 13.8232 18.803 13.5303L16.5629 11.2903C15.5415 12.0853 14.2574 12.5588 12.8627 12.5588C9.53279 12.5588 6.83333 9.85936 6.83333 6.52941C6.83333 3.19946 9.53279 0.5 12.8627 0.5C16.1927 0.5 18.8922 3.19946 18.8922 6.52941C18.8922 7.92407 18.4186 9.20814 17.6236 10.2296L19.8637 12.4697C20.1566 12.7626 20.1566 13.2374 19.8637 13.5303ZM0.25 2C0.25 1.58579 0.585786 1.25 1 1.25L6.5 1.25C6.91421 1.25 7.25 1.58579 7.25 2C7.25 2.41421 6.91421 2.75 6.5 2.75L1 2.75C0.585786 2.75 0.25 2.41421 0.25 2ZM0.25 6.58333C0.25 6.16912 0.585787 5.83333 1 5.83333L4.66667 5.83333C5.08088 5.83333 5.41667 6.16912 5.41667 6.58333C5.41667 6.99755 5.08088 7.33333 4.66667 7.33333L1 7.33333C0.585786 7.33333 0.25 6.99755 0.25 6.58333ZM0.25 11.1667C0.25 10.7525 0.585787 10.4167 1 10.4167L6.5 10.4167C6.91421 10.4167 7.25 10.7525 7.25 11.1667C7.25 11.5809 6.91421 11.9167 6.5 11.9167L1 11.9167C0.585786 11.9167 0.25 11.5809 0.25 11.1667ZM12.8627 11.0588C15.3643 11.0588 17.3922 9.03094 17.3922 6.52941C17.3922 4.02789 15.3643 2 12.8627 2C10.3612 2 8.33333 4.02789 8.33333 6.52941C8.33333 9.03094 10.3612 11.0588 12.8627 11.0588Z" fill="white"/>
</svg>
