<svg width="21" height="19" viewBox="0 0 21 19" fill="none" xmlns="http://www.w3.org/2000/svg">
<path fill-rule="evenodd" clip-rule="evenodd" d="M2.41789 7.07725C1.11925 7.9264 0.25 9.35666 0.25 11C0.25 12.9921 1.52735 14.6711 3.29853 15.3814C3.30671 15.3846 3.31504 15.388 3.32351 15.3914C3.46022 15.4464 3.63512 15.5167 3.82081 15.555C4.04764 15.6018 4.2645 15.5986 4.5021 15.5551C4.7422 15.5111 4.97219 15.396 5.1392 15.2911C5.30419 15.1875 5.51145 15.029 5.65484 14.8267C5.97575 14.374 5.97397 13.8974 5.97243 13.4839C5.97233 13.4556 5.97222 13.4276 5.97222 13.4V8.6C5.97222 8.57236 5.97233 8.54439 5.97243 8.51613C5.97397 8.10262 5.97575 7.62598 5.65484 7.17326C5.51145 6.97097 5.30419 6.81245 5.1392 6.70888C4.97219 6.60405 4.7422 6.48889 4.5021 6.44492C4.35528 6.41803 4.21638 6.40654 4.07816 6.41273C4.82101 3.74994 7.38841 1.75 10.5 1.75C13.6116 1.75 16.179 3.74994 16.9218 6.41273C16.7836 6.40654 16.6447 6.41803 16.4979 6.44492C16.2578 6.48889 16.0278 6.60405 15.8608 6.70888C15.6958 6.81245 15.4886 6.97097 15.3452 7.17326C15.0243 7.62598 15.026 8.10262 15.0276 8.51613C15.0277 8.54439 15.0278 8.57236 15.0278 8.6V13.4C15.0278 13.4276 15.0277 13.4556 15.0276 13.4839C15.026 13.8974 15.0243 14.374 15.3452 14.8267C15.4886 15.029 15.6958 15.1875 15.8608 15.2911C16.0278 15.396 16.2578 15.5111 16.4979 15.5551C16.7214 15.596 16.9265 15.6013 17.1389 15.5628V16C17.1389 16.6527 16.5682 17.25 15.7778 17.25H10.5C10.0858 17.25 9.75 17.5858 9.75 18C9.75 18.4142 10.0858 18.75 10.5 18.75H15.7778C17.3192 18.75 18.6389 17.5565 18.6389 16V15C18.6389 14.9628 18.6362 14.9262 18.6309 14.8904C19.9025 14.0376 20.75 12.6227 20.75 11C20.75 9.35666 19.8808 7.9264 18.5821 7.07725C18.1017 3.20323 14.6337 0.25 10.5 0.25C6.3663 0.25 2.89829 3.20322 2.41789 7.07725ZM4.04141 7.93912C3.99391 7.95603 3.93942 7.97776 3.85683 8.01088C2.5983 8.51556 1.75 9.67916 1.75 11C1.75 12.3208 2.5983 13.4844 3.85683 13.9891C3.93941 14.0222 3.99391 14.044 4.04141 14.0609C4.08623 14.0768 4.11017 14.0831 4.12391 14.0859C4.12441 14.086 4.12494 14.0861 4.1255 14.0863C4.1356 14.0884 4.15593 14.0928 4.22278 14.0812C4.22657 14.0799 4.23458 14.077 4.24689 14.0717C4.2734 14.0601 4.30669 14.0427 4.34171 14.0207C4.3768 13.9987 4.40597 13.9768 4.42628 13.9593C4.43188 13.9545 4.43596 13.9508 4.43872 13.9481C4.44582 13.9365 4.4515 13.9211 4.45753 13.8794C4.47049 13.7898 4.47222 13.6664 4.47222 13.4V8.6C4.47222 8.33358 4.47049 8.21022 4.45753 8.12061C4.4515 8.07886 4.44582 8.0635 4.43872 8.05188C4.43596 8.04924 4.43188 8.04548 4.42628 8.04065C4.40597 8.02317 4.3768 8.00135 4.34171 7.97932C4.30669 7.95733 4.2734 7.93993 4.24689 7.92833C4.23458 7.92295 4.22657 7.92005 4.22278 7.91876C4.15593 7.90719 4.1356 7.91156 4.1255 7.91374C4.12494 7.91386 4.12441 7.91397 4.12391 7.91407C4.11017 7.91691 4.08623 7.92316 4.04141 7.93912ZM16.7772 7.91876C16.7734 7.92005 16.7654 7.92295 16.7531 7.92834C16.7266 7.93993 16.6933 7.95733 16.6583 7.97932C16.6232 8.00135 16.594 8.02317 16.5737 8.04065C16.5681 8.04548 16.564 8.04924 16.5613 8.05188C16.5542 8.0635 16.5485 8.07886 16.5425 8.12061C16.5295 8.21022 16.5278 8.33358 16.5278 8.6V13.4C16.5278 13.6664 16.5295 13.7898 16.5425 13.8794C16.5485 13.9211 16.5542 13.9365 16.5613 13.9481C16.564 13.9508 16.5681 13.9545 16.5737 13.9593C16.594 13.9768 16.6232 13.9987 16.6583 14.0207C16.6933 14.0427 16.7266 14.0601 16.7531 14.0717C16.7654 14.077 16.7734 14.0799 16.7772 14.0812C16.8441 14.0928 16.8644 14.0884 16.8745 14.0863C16.8751 14.0861 16.8756 14.086 16.8761 14.0859C16.8898 14.0831 16.9138 14.0768 16.9586 14.0609C17.0061 14.044 17.0606 14.0222 17.1432 13.9891C18.4017 13.4844 19.25 12.3208 19.25 11C19.25 9.67916 18.4017 8.51556 17.1432 8.01088C17.0606 7.97776 17.0061 7.95603 16.9586 7.93912C16.9138 7.92316 16.8898 7.91691 16.8761 7.91407C16.8756 7.91397 16.8751 7.91386 16.8745 7.91374C16.8644 7.91156 16.8441 7.90719 16.7772 7.91876Z" fill="#EBEBF5" fill-opacity="0.6"/>
</svg>
