<svg width="19" height="20" viewBox="0 0 19 20" fill="none" xmlns="http://www.w3.org/2000/svg">
<path d="M14.386 6.94711L17.7088 5.04802C17.5762 4.91491 17.4172 4.80842 17.2227 4.70193L10.9836 1.13448C10.4445 0.823884 9.9054 0.655273 9.384 0.655273C8.85376 0.655273 8.31468 0.823884 7.7756 1.13448L5.98161 2.15502L14.386 6.94711ZM9.384 9.79574L13.1576 7.64817L4.78856 2.84721L1.54525 4.70193C1.35082 4.80842 1.19175 4.91491 1.05035 5.04802L9.384 9.79574ZM9.98494 19.9656C10.0468 19.9479 10.0998 19.9212 10.1617 19.8857L17.0814 15.9278C17.9032 15.4575 18.3451 14.9783 18.3451 13.6915V6.7785C18.3451 6.51227 18.3274 6.29929 18.2744 6.10406L9.98494 10.8606V19.9656ZM8.77422 19.9656V10.8606L0.484761 6.10406C0.431737 6.29929 0.414062 6.51227 0.414062 6.7785V13.6915C0.414062 14.9783 0.864769 15.4575 1.67781 15.9278L8.60631 19.8857C8.65933 19.9212 8.71236 19.9479 8.77422 19.9656Z" fill="#EBEBF5" fill-opacity="0.6"/>
</svg>
