<svg width="19" height="17" viewBox="0 0 19 17" fill="none" xmlns="http://www.w3.org/2000/svg">
<path fill-rule="evenodd" clip-rule="evenodd" d="M9.4939 1.72932C7.53635 -0.0156903 4.61159 -0.385313 2.34726 1.52908C-0.0858227 3.58614 -0.440371 7.0531 1.48472 9.5043C2.22122 10.4421 3.66338 11.856 5.05523 13.156C6.46156 14.4694 7.86486 15.7108 8.55698 16.3173L8.56955 16.3283C8.63538 16.3861 8.71359 16.4547 8.78797 16.5101C8.87608 16.5757 8.99852 16.6542 9.16033 16.7019C9.37747 16.766 9.61087 16.766 9.82801 16.7019C9.98982 16.6542 10.1123 16.5757 10.2004 16.5101C10.2748 16.4546 10.353 16.3861 10.4188 16.3283L10.4314 16.3173C11.1235 15.7108 12.5268 14.4694 13.9331 13.156C15.325 11.856 16.7671 10.4421 17.5036 9.5043C19.422 7.06165 19.1209 3.56845 16.6333 1.52256C14.3424 -0.361521 11.4494 -0.0163991 9.4939 1.72932ZM8.92678 3.28686C7.44893 1.57725 5.07875 1.18397 3.3157 2.67455C1.4902 4.21794 1.2452 6.77076 2.6644 8.57782C3.31817 9.41027 4.67488 10.7482 6.07908 12.0597C7.43496 13.3261 8.79104 14.5274 9.49417 15.1441C10.1973 14.5274 11.5534 13.3261 12.9093 12.0597C14.3135 10.7482 15.6702 9.41027 16.3239 8.57782C17.7499 6.76221 17.5246 4.19777 15.6805 2.68108C13.8731 1.19462 11.5338 1.58374 10.0616 3.28686C9.9191 3.45167 9.71202 3.54638 9.49417 3.54638C9.27632 3.54638 9.06924 3.45167 8.92678 3.28686Z" fill="#EBEBF5" fill-opacity="0.6"/>
</svg>
