<svg width="14" height="12" viewBox="0 0 14 12" fill="none" xmlns="http://www.w3.org/2000/svg">
<path fill-rule="evenodd" clip-rule="evenodd" d="M7.5778 1.43782C7.23967 1.18739 6.76023 1.18739 6.4221 1.43782L3.22217 3.80773V9.89221C3.22217 10.3432 3.61337 10.75 4.1481 10.75H9.8518C10.3865 10.75 10.7777 10.3432 10.7777 9.89221V3.80773L7.5778 1.43782ZM11.7777 4.54834L13.119 5.54174C13.3409 5.70608 13.6541 5.65942 13.8184 5.43751C13.9828 5.2156 13.9361 4.90248 13.7142 4.73813L8.17297 0.634213C7.48126 0.121929 6.51864 0.121929 5.82694 0.634213L0.285703 4.73813C0.0637931 4.90248 0.0171314 5.2156 0.181481 5.43751C0.34583 5.65942 0.658955 5.70608 0.880865 5.54174L2.22217 4.54834V9.89221C2.22217 10.941 3.10779 11.75 4.1481 11.75H9.8518C10.8921 11.75 11.7777 10.941 11.7777 9.89221V4.54834Z" fill="#EBEBF5" fill-opacity="0.6"/>
</svg>
