<svg width="26" height="26" viewBox="0 0 26 26" fill="none" xmlns="http://www.w3.org/2000/svg">
<path d="M6.15843 20.1758L6.15848 20.1758C6.57407 20.8163 7.05295 21.4857 7.60375 21.9958C8.15448 22.5059 8.76314 22.8439 9.43992 22.8499L9.4401 22.8499C10.0092 22.8556 10.3853 22.6873 10.8197 22.4915L10.8197 22.4915L10.8203 22.4912C11.3243 22.2641 11.8892 22.0095 12.8588 22.0044C12.8588 22.0044 12.8589 22.0044 12.8589 22.0044L12.8597 22.1544L6.15843 20.1758ZM6.15843 20.1758C5.00466 18.4 4.36814 16.4712 4.19732 14.7122M6.15843 20.1758L4.19732 14.7122M4.19732 14.7122C4.02624 12.9507 4.32317 11.373 5.01883 10.2887L4.19732 14.7122ZM15.1488 6.15527L15.1487 6.15542C14.5019 6.99664 13.408 7.64666 12.3447 7.66315C12.2012 6.59757 12.7016 5.49846 13.3224 4.74024L13.3227 4.73989C13.9907 3.91901 15.1164 3.28159 16.0999 3.16312C16.2142 4.27685 15.7561 5.36748 15.1488 6.15527ZM15.2676 6.24685C14.5732 7.15006 13.3761 7.84855 12.2164 7.81211L13.2064 4.64521C13.9298 3.75617 15.1699 3.07408 16.2307 3C16.4087 4.21478 15.9167 5.40485 15.2676 6.24685ZM19.5889 20.0171L19.5888 20.0171L11.077 8.2833L11.0873 8.287C11.645 8.48799 12.2056 8.69 12.8411 8.69C13.4328 8.69 13.9187 8.50396 14.4183 8.31269L14.4273 8.30924C15.0318 8.07787 15.6771 7.83156 16.6216 7.83156C17.8724 7.83156 19.2097 8.49714 20.1964 9.66851C16.9577 11.6178 17.4955 16.3619 20.7994 17.7549C20.3791 18.6924 20.1531 19.1481 19.5889 20.0171ZM9.04774 7.83391C9.8266 7.83391 10.4551 8.05927 11.077 8.28329L5.01891 10.2886C6.02008 8.7314 7.59074 7.83391 9.04774 7.83391Z" stroke="#EBEBF5" stroke-opacity="0.6" stroke-width="0.3"/>
</svg>
