<svg width="26" height="26" viewBox="0 0 26 26" fill="none" xmlns="http://www.w3.org/2000/svg">
<path d="M12.5875 24.1266C12.2445 24.1266 11.8985 24.0834 11.5586 23.9969L7.90025 23.0668C6.78173 22.7826 6 21.7784 6 20.6259V4.75343C6 4.57422 6.11124 4.41048 6.28118 4.34559L11.778 2.25377C12.4577 1.99423 13.1962 1.93243 13.91 2.07456L19.6478 3.2147C19.8517 3.25487 20 3.43408 20 3.6411V19.8534C20 20.8916 19.3481 21.8371 18.3809 22.2079L14.083 23.8486C13.601 24.0309 13.1004 24.1236 12.5968 24.1236M13.1499 2.33411C12.7235 2.33411 12.2971 2.41136 11.8923 2.56585L6.39551 4.65765C6.35534 4.6731 6.32752 4.71327 6.32752 4.75652V20.629C6.32752 21.6301 7.00729 22.5045 7.9775 22.7486L11.6358 23.6755C12.4083 23.8702 13.2086 23.8239 13.9532 23.5396L18.2512 21.8989C19.0916 21.5775 19.6601 20.7556 19.6601 19.8565V3.6442C19.6601 3.59476 19.6261 3.5515 19.5767 3.54223L13.8389 2.40208C13.6102 2.35573 13.3785 2.33411 13.1499 2.33411Z" fill="#101010"/>
<path d="M12.5087 6.15624C12.1966 6.15624 11.8845 6.12225 11.5786 6.05737L6.37847 4.94194C6.23324 4.91105 6.11274 4.81525 6.04785 4.68239L6.34446 4.53718C6.363 4.57735 6.40317 4.60823 6.44643 4.6175L11.6466 5.73294C12.4129 5.8967 13.2039 5.84107 13.9362 5.56608L19.5782 3.465C19.6091 3.45264 19.6338 3.43101 19.6493 3.4032L19.9459 3.55152C19.8934 3.65658 19.8038 3.73381 19.6956 3.77398L14.0536 5.87506C13.5561 6.06045 13.0339 6.15315 12.5087 6.15315" fill="#101010"/>
<path d="M12.5074 6.86686C12.1953 6.86686 11.8801 6.83287 11.5711 6.76798L6.34624 5.64637C6.20102 5.61548 6.08051 5.5197 6.01562 5.38684L6.31226 5.24161C6.33388 5.28486 6.37097 5.31268 6.41732 5.32195L11.6422 6.44355C12.4116 6.60731 13.2057 6.5517 13.941 6.27671L19.6078 4.16635C19.6387 4.15399 19.6634 4.13236 19.6788 4.10455L19.9755 4.25286C19.9229 4.35791 19.8333 4.43517 19.7252 4.47843L14.0585 6.58877C13.5579 6.77416 13.0357 6.86995 12.5074 6.86995" fill="#101010"/>
<path d="M11.8424 4.89248C11.7126 4.89248 11.5828 4.88322 11.453 4.86159L10.557 4.71636C10.3963 4.69164 10.2789 4.56497 10.2634 4.4043C10.248 4.24363 10.3376 4.09839 10.489 4.03968L12.9361 3.10348C13.3347 2.95207 13.7673 2.90573 14.1875 2.97371L15.2504 3.14055C15.4142 3.16527 15.5316 3.29196 15.5471 3.45572C15.5625 3.61948 15.4667 3.7647 15.3122 3.82032L12.655 4.75343C12.3954 4.84613 12.1204 4.89248 11.8454 4.89248M13.8075 3.27341C13.551 3.27341 13.2946 3.31976 13.0536 3.41246L10.6064 4.34867V4.38884L11.5056 4.53407C11.8516 4.58968 12.21 4.55879 12.5407 4.44138L15.1979 3.50824L15.2195 3.3043L15.1948 3.46807L14.1319 3.30123C14.0238 3.28578 13.9125 3.27651 13.8044 3.27651" fill="#101010"/>
</svg>
