<svg width="26" height="26" viewBox="0 0 26 26" fill="none" xmlns="http://www.w3.org/2000/svg">
<path d="M13.5703 10.9392C13.5703 11.0099 13.5128 11.0696 13.4399 11.0696C13.367 11.0696 13.3096 11.0121 13.3096 10.9392C13.3096 10.8663 13.367 10.8088 13.4399 10.8088C13.5128 10.8088 13.5703 10.8663 13.5703 10.9392Z" fill="#101010"/>
<path d="M13.1553 10.9392C13.1553 11.0099 13.0978 11.0696 13.0249 11.0696C12.952 11.0696 12.8945 11.0121 12.8945 10.9392C12.8945 10.8663 12.952 10.8088 13.0249 10.8088C13.0978 10.8088 13.1553 10.8663 13.1553 10.9392Z" fill="#101010"/>
<path d="M12.7402 10.9392C12.7402 11.0099 12.6828 11.0696 12.6098 11.0696C12.5369 11.0696 12.4795 11.0121 12.4795 10.9392C12.4795 10.8663 12.5369 10.8088 12.6098 10.8088C12.6828 10.8088 12.7402 10.8663 12.7402 10.9392Z" fill="#101010"/>
<path d="M12.3262 10.9392C12.3262 11.0099 12.2687 11.0696 12.1958 11.0696C12.1229 11.0696 12.0654 11.0121 12.0654 10.9392C12.0654 10.8663 12.1229 10.8088 12.1958 10.8088C12.2687 10.8088 12.3262 10.8663 12.3262 10.9392Z" fill="#101010"/>
<path d="M13.7744 10.5903C13.7744 10.661 13.7169 10.7207 13.644 10.7207C13.5711 10.7207 13.5137 10.6632 13.5137 10.5903C13.5137 10.5174 13.5711 10.46 13.644 10.46C13.7169 10.46 13.7744 10.5174 13.7744 10.5903Z" fill="#101010"/>
<path d="M13.3633 10.5903C13.3633 10.661 13.3058 10.7207 13.2329 10.7207C13.16 10.7207 13.1025 10.6632 13.1025 10.5903C13.1025 10.5174 13.16 10.46 13.2329 10.46C13.3058 10.46 13.3633 10.5174 13.3633 10.5903Z" fill="#101010"/>
<path d="M12.9482 10.5903C12.9482 10.661 12.8908 10.7207 12.8179 10.7207C12.7449 10.7207 12.6875 10.6632 12.6875 10.5903C12.6875 10.5174 12.7449 10.46 12.8179 10.46C12.8908 10.46 12.9482 10.5174 12.9482 10.5903Z" fill="#101010"/>
<path d="M12.5332 10.5903C12.5332 10.661 12.4757 10.7207 12.4028 10.7207C12.3299 10.7207 12.2725 10.6632 12.2725 10.5903C12.2725 10.5174 12.3299 10.46 12.4028 10.46C12.4757 10.46 12.5332 10.5174 12.5332 10.5903Z" fill="#101010"/>
<path d="M12.1181 10.5903C12.1181 10.661 12.0607 10.7207 11.9878 10.7207C11.9149 10.7207 11.8574 10.6632 11.8574 10.5903C11.8574 10.5174 11.9149 10.46 11.9878 10.46C12.0607 10.46 12.1181 10.5174 12.1181 10.5903Z" fill="#101010"/>
<path d="M13.227 13.701H12.4448C12.3498 13.701 12.2725 13.6236 12.2725 13.5286C12.2725 13.4336 12.3498 13.3563 12.4448 13.3563H13.227C13.322 13.3563 13.3993 13.4336 13.3993 13.5286C13.3993 13.6236 13.322 13.701 13.227 13.701Z" fill="#101010"/>
<path d="M22.3441 20.8931C21.7166 20.4667 21.447 19.3399 21.1045 17.917C20.6184 15.893 20.013 13.3764 18.1548 11.2575L17.5561 10.6388C16.9153 9.97599 16.6679 9.04579 16.8954 8.15094L17.3064 6.52475L17.5362 6.5822L17.1252 8.20839C16.9197 9.02149 17.1451 9.86773 17.7284 10.4731L18.3316 11.0962C20.2318 13.2637 20.8725 15.9196 21.3387 17.8617C21.6702 19.236 21.9309 20.3231 22.481 20.6987L22.3485 20.8954L22.3441 20.8931Z" fill="#101010"/>
<path d="M16.5349 13.1469C15.7793 13.1469 15.165 12.5326 15.165 11.777C15.165 11.0213 15.7793 10.4071 16.5349 10.4071C17.2906 10.4071 17.9048 11.0213 17.9048 11.777C17.9048 12.5326 17.2906 13.1469 16.5349 13.1469ZM16.5349 10.6435C15.9096 10.6435 15.4015 11.1517 15.4015 11.777C15.4015 12.4023 15.9096 12.9104 16.5349 12.9104C17.1602 12.9104 17.6684 12.4023 17.6684 11.777C17.6684 11.1517 17.1602 10.6435 16.5349 10.6435Z" fill="#101010"/>
<path d="M19.8385 8.45818C19.39 8.45818 19.0254 8.0936 19.0254 7.64728C19.0254 7.20096 19.39 6.83418 19.8385 6.83418C20.287 6.83418 20.6516 7.19875 20.6516 7.64728C20.6516 8.09581 20.287 8.45818 19.8385 8.45818ZM19.8385 7.0706C19.5203 7.0706 19.264 7.32912 19.264 7.64508C19.264 7.96104 19.5225 8.21955 19.8385 8.21955C20.1544 8.21955 20.413 7.96104 20.413 7.64508C20.413 7.32912 20.1544 7.0706 19.8385 7.0706Z" fill="#101010"/>
<path d="M21.4703 10.0358C21.0218 10.0358 20.6572 9.67122 20.6572 9.22269C20.6572 8.77416 21.0218 8.40959 21.4703 8.40959C21.9189 8.40959 22.2834 8.77416 22.2834 9.22269C22.2834 9.67122 21.9189 10.0358 21.4703 10.0358ZM21.4703 8.64822C21.1544 8.64822 20.8958 8.90673 20.8958 9.22269C20.8958 9.53865 21.1544 9.79717 21.4703 9.79717C21.7863 9.79717 22.0448 9.53865 22.0448 9.22269C22.0448 8.90673 21.7863 8.64822 21.4703 8.64822Z" fill="#101010"/>
<path d="M19.8795 11.5777C19.431 11.5777 19.0664 11.2132 19.0664 10.7668C19.0664 10.3205 19.431 9.95374 19.8795 9.95374C20.328 9.95374 20.6926 10.3183 20.6926 10.7668C20.6926 11.2154 20.328 11.5777 19.8795 11.5777ZM19.8795 10.1902C19.5613 10.1902 19.305 10.4487 19.305 10.7646C19.305 11.0806 19.5636 11.3391 19.8795 11.3391C20.1955 11.3391 20.454 11.0806 20.454 10.7646C20.454 10.4487 20.1955 10.1902 19.8795 10.1902Z" fill="#101010"/>
<path d="M18.1832 9.97357C17.7347 9.97357 17.3701 9.60901 17.3701 9.16269C17.3701 8.71637 17.7347 8.34959 18.1832 8.34959C18.6317 8.34959 18.9963 8.71416 18.9963 9.16269C18.9963 9.61122 18.6317 9.97357 18.1832 9.97357ZM18.1832 8.58821C17.8673 8.58821 17.6087 8.84673 17.6087 9.16269C17.6087 9.47865 17.8673 9.73716 18.1832 9.73716C18.4992 9.73716 18.7577 9.47865 18.7577 9.16269C18.7577 8.84673 18.4992 8.58821 18.1832 8.58821Z" fill="#101010"/>
<path d="M20.9292 21.2886C20.7966 21.2886 20.6685 21.2157 20.5757 21.0875C20.1492 20.4888 19.5924 18.8913 19.1461 17.6076C18.9053 16.9138 18.6954 16.315 18.5628 16.0322C18.2226 15.3075 16.5477 15.3583 14.6122 15.4202C14.0179 15.4378 13.4058 15.4577 12.7783 15.4577C12.0868 15.4577 11.4416 15.4378 10.8163 15.418C8.86972 15.3583 7.33191 15.3119 6.99165 16.0322C6.85908 16.315 6.65138 16.9138 6.40833 17.6076C5.96201 18.8913 5.40523 20.4888 4.97879 21.0875C4.8639 21.2488 4.68935 21.3217 4.52585 21.2753L2.91953 20.818C2.40251 20.6368 2.0291 20.0601 1.79931 19.0968C1.01936 15.809 2.15062 8.93968 4.33361 6.68378C4.94343 6.05407 6.3067 5.7116 7.57496 5.87068C7.84452 5.90382 8.01464 6.04965 8.13174 6.16234L8.24222 6.14025L8.3306 5.9436L8.3991 5.93696C9.47071 5.83753 10.5622 5.76463 11.6382 5.72265C12.0072 5.70718 12.374 5.69834 12.7364 5.6895H12.8159C13.1783 5.69613 13.5428 5.70718 13.914 5.72265C14.9923 5.76463 16.0815 5.83533 17.1532 5.93696L17.2216 5.9436L17.31 6.14025L17.4205 6.16234C17.5442 6.04523 17.7122 5.90382 17.9773 5.87068C19.2455 5.7116 20.6088 6.05407 21.2186 6.68378C23.4016 8.93968 24.5329 15.8068 23.7529 19.0968C23.5232 20.0601 23.1497 20.6368 22.6394 20.8158L21.0286 21.2753C20.9955 21.2842 20.9623 21.2886 20.9292 21.2886ZM6.93641 6.06954C5.9355 6.06954 4.96995 6.36782 4.50374 6.84949C2.36494 9.05899 1.2624 15.8068 2.03131 19.0415C2.23679 19.9077 2.56822 20.4446 2.99245 20.5926L4.58992 21.0478C4.68492 21.0743 4.75784 20.9881 4.78657 20.9505C5.19311 20.3805 5.74327 18.8007 6.18517 17.5302C6.42822 16.8298 6.63813 16.2266 6.77733 15.9328C7.18388 15.071 8.71065 15.1175 10.8229 15.1837C11.446 15.2036 12.089 15.2235 12.7783 15.2235C13.4036 15.2235 14.0135 15.2036 14.6056 15.186C16.709 15.1197 18.3706 15.0688 18.7793 15.935C18.9163 16.2288 19.1285 16.8342 19.3715 17.5324C19.8134 18.8029 20.3636 20.3827 20.7701 20.9528C20.7966 20.9903 20.8717 21.0765 20.9668 21.05L22.5709 20.5926C22.9862 20.4468 23.3199 19.9121 23.5254 19.0437C24.2943 15.8068 23.1895 9.0612 21.0529 6.8517C20.4917 6.2706 19.2102 5.95906 18.0104 6.10931C17.7917 6.13582 17.6613 6.26397 17.5575 6.36561L17.5133 6.4098H17.4426L17.1487 6.35235L17.067 6.16896C16.0219 6.07395 14.9591 6.00325 13.9096 5.96348C13.5296 5.94801 13.1517 5.93697 12.7805 5.93034C12.4094 5.93697 12.0315 5.94801 11.6515 5.96348C10.602 6.00325 9.5392 6.07395 8.49411 6.16896L8.41235 6.35235L8.05884 6.41863L8.01465 6.37445C7.89975 6.26177 7.7694 6.13361 7.55066 6.1071C7.34959 6.08279 7.14411 6.06954 6.94083 6.06954" fill="#101010"/>
<path d="M3.20678 20.8931L3.07422 20.6964C3.62439 20.3208 3.88731 19.2337 4.21653 17.8594C4.68273 15.9195 5.3235 13.2615 7.21925 11.0983L7.82465 10.4708C8.40796 9.86765 8.63333 9.0192 8.42784 8.2061L8.01688 6.57991L8.24666 6.52246L8.65764 8.14865C8.88301 9.04129 8.63553 9.9715 7.99699 10.6366L7.3938 11.2596C5.54002 13.3741 4.93461 15.893 4.44631 17.9147C4.10384 19.3398 3.83207 20.4644 3.20678 20.8909" fill="#101010"/>
<path d="M9.02517 13.1469C8.26952 13.1469 7.65527 12.5326 7.65527 11.777C7.65527 11.0213 8.26952 10.4071 9.02517 10.4071C9.78082 10.4071 10.3951 11.0213 10.3951 11.777C10.3951 12.5326 9.78082 13.1469 9.02517 13.1469ZM9.02517 10.6435C8.39988 10.6435 7.89169 11.1517 7.89169 11.777C7.89169 12.4023 8.39988 12.9104 9.02517 12.9104C9.65046 12.9104 10.1586 12.4023 10.1586 11.777C10.1586 11.1517 9.65046 10.6435 9.02517 10.6435Z" fill="#101010"/>
<path d="M15.1925 10.0355H10.3603C9.67538 10.0355 9.09428 9.54501 8.97938 8.8689L8.38281 6.44287L8.61261 6.38542L9.21138 8.82029C9.30859 9.39034 9.79027 9.79911 10.3603 9.79911H15.1925C15.7626 9.79911 16.2442 9.39035 16.3392 8.82913L16.9402 6.38542L17.17 6.44287L16.5712 8.87774C16.4585 9.54501 15.8797 10.0355 15.1925 10.0355Z" fill="#101010"/>
<path d="M5.85554 9.0369C5.78925 9.0369 5.72517 9.01259 5.67436 8.96177L5.25677 8.54197C5.20816 8.49336 5.18164 8.42928 5.18164 8.36079V7.66258C5.18164 7.52117 5.29653 7.40628 5.43794 7.40628H6.26871C6.41012 7.40628 6.52502 7.52117 6.52502 7.66258V8.39172C6.52502 8.46243 6.4963 8.52871 6.44548 8.57731L6.03229 8.9684C5.98148 9.0148 5.91961 9.03911 5.85554 9.03911M5.43794 7.64049C5.43794 7.64049 5.41806 7.64932 5.41806 7.66037V8.35858L5.84228 8.79164C5.84228 8.79164 5.86217 8.80048 5.871 8.79164L6.28418 8.40056L6.29082 7.65817C6.29082 7.64712 6.28197 7.63828 6.27092 7.63828H5.44015L5.43794 7.64049Z" fill="#101010"/>
<path d="M6.26871 10.9989H5.43795C5.29654 10.9989 5.18164 10.884 5.18164 10.7426V10.0422C5.18164 9.97594 5.20816 9.90966 5.25677 9.86105L5.67437 9.44125C5.77159 9.34403 5.93288 9.34182 6.03231 9.43462L6.44548 9.8257C6.4963 9.87431 6.52502 9.9428 6.52502 10.0113V10.7404C6.52502 10.8818 6.41012 10.9967 6.26871 10.9967M5.85775 9.60475C5.85775 9.60475 5.8467 9.60474 5.84449 9.61137L5.42689 10.0312L5.42027 10.7449C5.42027 10.7449 5.4291 10.7647 5.44015 10.7647H6.27092C6.27092 10.7647 6.29082 10.7559 6.29082 10.7449V10.0157L5.87322 9.61137C5.87322 9.61137 5.86438 9.60696 5.85996 9.60696" fill="#101010"/>
<path d="M5.01139 9.87427H4.31098C4.16958 9.87427 4.05469 9.75938 4.05469 9.61797V8.78719C4.05469 8.64579 4.16958 8.53088 4.31098 8.53088H5.04012C5.11082 8.53088 5.17932 8.55962 5.22572 8.61044L5.61681 9.02361C5.71182 9.12304 5.7096 9.28433 5.61239 9.38155L5.19257 9.79915C5.14396 9.84776 5.07989 9.87427 5.01139 9.87427ZM4.31098 8.7673C4.31098 8.7673 4.29111 8.77615 4.29111 8.78719V9.61797C4.29111 9.61797 4.29994 9.63785 4.31098 9.63785H5.01139L5.44446 9.21363C5.44446 9.21363 5.45109 9.19374 5.44446 9.18711L5.05337 8.77394L4.31098 8.7673Z" fill="#101010"/>
<path d="M7.38998 9.87427H6.69177C6.62327 9.87427 6.55921 9.84776 6.5106 9.79915L6.09079 9.38155C5.99357 9.28433 5.98915 9.12304 6.08636 9.02361L6.47745 8.61044C6.52606 8.55962 6.59456 8.53088 6.66306 8.53088H7.39219C7.5336 8.53088 7.64849 8.64579 7.64849 8.78719V9.61797C7.64849 9.75938 7.5336 9.87427 7.39219 9.87427M6.66084 8.7673L6.2565 9.1849C6.2565 9.1849 6.24987 9.20479 6.2565 9.21363L6.67631 9.63123L7.38998 9.63785C7.40102 9.63785 7.40986 9.62902 7.40986 9.61797V8.78719C7.40986 8.77615 7.40102 8.7673 7.38998 8.7673H6.66084Z" fill="#101010"/>
</svg>
