<svg width="26" height="26" viewBox="0 0 26 26" fill="none" xmlns="http://www.w3.org/2000/svg">
<path d="M17.7951 23.8775H15.8845L15.1836 23.1766V9.60706H15.4948V23.0486L16.0153 23.5663H17.6672L18.1848 23.0486V9.60706H18.4989V23.1766L17.7951 23.8775Z" fill="#EBEBF5" fill-opacity="0.6"/>
<path d="M18.3411 19.8293H15.3398V20.1405H18.3411V19.8293Z" fill="#EBEBF5" fill-opacity="0.6"/>
<path d="M20.8889 9.76411H13.5312V3.1015H20.8889L21.9998 3.93906V8.92947L20.8889 9.76702V9.76411ZM13.8424 9.45294H20.7842L21.6887 8.77243V4.09318L20.7842 3.41268H13.8424V9.45294Z" fill="#EBEBF5" fill-opacity="0.6"/>
<path d="M8.55482 9.76397C6.67032 9.76397 5.14062 8.23136 5.14062 6.34687C5.14062 4.46237 6.67323 2.93268 8.55482 2.93268C10.4364 2.93268 11.969 4.46528 11.969 6.34687C11.969 8.22845 10.4364 9.76397 8.55482 9.76397ZM8.55482 3.24385C6.8419 3.24385 5.4518 4.63686 5.4518 6.34687C5.4518 8.05687 6.84481 9.44988 8.55482 9.44988C10.2648 9.44988 11.6578 8.05687 11.6578 6.34687C11.6578 4.63686 10.2648 3.24385 8.55482 3.24385Z" fill="#EBEBF5" fill-opacity="0.6"/>
<path d="M8.55512 8.00467C7.64196 8.00467 6.89746 7.26017 6.89746 6.34701C6.89746 5.43384 7.64196 4.68935 8.55512 4.68935C9.46829 4.68935 10.2128 5.43384 10.2128 6.34701C10.2128 7.26017 9.46829 8.00467 8.55512 8.00467ZM8.55512 5.00343C7.81354 5.00343 7.21155 5.60833 7.21155 6.34992C7.21155 7.0915 7.81645 7.6964 8.55512 7.6964C9.2938 7.6964 9.8987 7.0915 9.8987 6.34992C9.8987 5.60833 9.2938 5.00343 8.55512 5.00343Z" fill="#EBEBF5" fill-opacity="0.6"/>
<path d="M9.51388 23.8774H7.60321L6.90234 23.1765V9.22021H7.21352V23.0486L7.73117 23.5662H9.383L9.90358 23.0486V9.24349H10.2148V23.1765L9.51388 23.8774Z" fill="#EBEBF5" fill-opacity="0.6"/>
<path d="M10.0559 19.8293H7.05469V20.1405H10.0559V19.8293Z" fill="#EBEBF5" fill-opacity="0.6"/>
<path d="M8.91854 12.6751C8.91854 12.8728 8.7586 13.0328 8.56084 13.0328C8.36309 13.0328 8.20312 12.8728 8.20312 12.6751C8.20312 12.4773 8.36309 12.3174 8.56084 12.3174C8.7586 12.3174 8.91854 12.4773 8.91854 12.6751Z" fill="#EBEBF5" fill-opacity="0.6"/>
<path d="M8.55596 11.8666C8.3582 11.8666 8.19824 11.7067 8.19824 11.5089V11.2618C8.19824 11.064 8.3582 10.904 8.55596 10.904C8.75371 10.904 8.91366 11.064 8.91366 11.2618V11.5089C8.91366 11.7067 8.75371 11.8666 8.55596 11.8666Z" fill="#EBEBF5" fill-opacity="0.6"/>
</svg>
