<svg width="26" height="26" viewBox="0 0 26 26" fill="none" xmlns="http://www.w3.org/2000/svg">
<path d="M14.8046 20H9.19544C7.43381 20 6 18.5851 6 16.8466V9.15338C6 7.41493 7.43381 6 9.19544 6H14.8046C16.5662 6 18 7.41493 18 9.15338V16.8466C18 18.5851 16.5662 20 14.8046 20ZM9.19544 6.38394C7.64636 6.38394 6.38547 7.62824 6.38547 9.15693V16.8502C6.38547 18.3789 7.64636 19.6232 9.19544 19.6232H14.8046C16.3537 19.6232 17.6145 18.3789 17.6145 16.8502V9.15693C17.6145 7.62824 16.3537 6.38394 14.8046 6.38394H9.19544Z" fill="#101010"/>
<path d="M14.6042 20.9931H9.47546C7.00674 20.9931 5 19.0708 5 16.7136V9.27956C5 6.9189 7.00674 5 9.47546 5H14.6042C16.5893 5 18.3073 6.21831 18.8884 8.03366C18.9497 8.22693 19.1302 8.35808 19.3323 8.35808C19.7004 8.35808 20 8.64453 20 8.99656V17.0035C20 17.3555 19.7004 17.6419 19.3323 17.6419C19.1266 17.6419 18.9497 17.7731 18.8884 17.9664C18.3109 19.7817 16.5893 21 14.6042 21M9.47546 5.36583C7.21968 5.36583 5.38619 7.11907 5.38619 9.27611V16.7101C5.38619 18.8671 7.21968 20.6204 9.47546 20.6204H14.6042C16.416 20.6204 17.9897 19.5056 18.5166 17.849C18.6285 17.497 18.9569 17.2623 19.3323 17.2623C19.4875 17.2623 19.6138 17.1415 19.6138 16.9931V8.98619C19.6138 8.83779 19.4875 8.71701 19.3323 8.71701C18.9569 8.71701 18.6285 8.48232 18.5166 8.13029C17.9897 6.47369 16.416 5.35894 14.6042 5.35894H9.47546V5.36583Z" fill="#101010"/>
<path d="M20 12H19.5327C19.2368 12 19 11.8162 19 11.5919V10.4081C19 10.1814 19.2399 10 19.5327 10H20V10.2554H19.5327C19.4237 10.2554 19.3333 10.3246 19.3333 10.4081V11.5919C19.3333 11.6778 19.4237 11.7446 19.5327 11.7446H20V12Z" fill="#101010"/>
<path d="M16.7575 6C16.1681 5.34087 15.898 4.21407 15.898 3.44194V2.64784C15.898 1.92279 15.3209 1.33585 14.6119 1.33585H10.3881C9.67906 1.33585 9.10198 1.92593 9.10198 2.64784V3.44194C9.10198 4.21093 8.83186 5.34087 8.2425 6L8 5.77402C8.50648 5.20905 8.77353 4.17325 8.77353 3.44507V2.65098C8.77353 1.74074 9.49795 1 10.3881 1H14.6119C15.502 1 16.2265 1.74074 16.2265 2.65098V3.44507C16.2265 4.17325 16.4904 5.20905 17 5.77402L16.7575 6Z" fill="#101010"/>
<path d="M14.6088 25H10.3851C9.49489 25 8.77046 24.2593 8.77046 23.349V22.5549C8.77046 21.8267 8.50648 20.791 8 20.226L8.24249 20C8.83185 20.6591 9.10198 21.7891 9.10198 22.5581V23.3522C9.10198 24.0772 9.67906 24.6673 10.3881 24.6673H14.6119C15.3209 24.6673 15.898 24.0772 15.898 23.3522V22.5581C15.898 21.7891 16.1681 20.6591 16.7575 20L17 20.226C16.4935 20.791 16.2265 21.8267 16.2265 22.5549V23.349C16.2265 24.2593 15.502 25 14.6119 25" fill="#101010"/>
</svg>
