<svg width="26" height="26" viewBox="0 0 26 26" fill="none" xmlns="http://www.w3.org/2000/svg">
<path fill-rule="evenodd" clip-rule="evenodd" d="M20.8747 9.88223L20.6362 10.0595C20.6238 10.0687 20.6005 10.0836 20.5681 10.1043C20.1814 10.3514 18.4978 11.4272 18.4978 13.6291C18.4978 15.0096 19.1268 15.9391 19.7719 16.5341C20.0959 16.833 20.4231 17.0462 20.674 17.1859C20.9105 17.3176 21.0711 17.3798 21.0897 17.387C21.0911 17.3875 21.0917 17.3878 21.0914 17.3877L21.3459 17.4689L21.2946 17.7311C21.2865 17.7728 21.2497 17.8918 21.1944 18.0475C21.1354 18.2136 21.0477 18.4419 20.9287 18.7124C20.6908 19.2527 20.3257 19.9654 19.8095 20.6864L19.8085 20.6879C19.3643 21.3002 18.8892 21.9429 18.338 22.4298C17.7808 22.9219 17.1247 23.274 16.3185 23.274C15.5731 23.274 15.0863 23.0705 14.6289 22.8793C14.6102 22.8714 14.5916 22.8636 14.5729 22.8559C14.1121 22.6637 13.6544 22.4839 12.8938 22.4839C12.154 22.4839 11.6561 22.6701 11.1622 22.87C11.134 22.8815 11.1056 22.893 11.0771 22.9046C10.606 23.0963 10.1055 23.3 9.4295 23.3C8.68197 23.3 8.06277 22.9687 7.51065 22.4795C6.96455 21.9955 6.45986 21.3351 5.94169 20.6389L5.94052 20.6373C4.69952 18.9467 3.7002 16.3312 3.7002 13.8371C3.7002 9.78788 6.46916 7.58649 9.23739 7.58649C9.98718 7.58649 10.6648 7.82229 11.2358 8.04026C11.305 8.0667 11.3722 8.09267 11.4376 8.11796C11.6483 8.19947 11.8406 8.27383 12.025 8.33353C12.2654 8.4114 12.4648 8.45458 12.6349 8.45458C12.7915 8.45458 12.9892 8.40985 13.2432 8.32595C13.4147 8.26929 13.5944 8.20107 13.7917 8.12619C13.8873 8.08991 13.987 8.05206 14.0919 8.01321C14.7188 7.78098 15.475 7.53448 16.3164 7.53448C16.9264 7.53448 19.2009 7.58438 20.6998 9.64205L20.8747 9.88223ZM12.4574 7.58846C12.4449 7.53845 12.4177 7.38244 12.4177 7.22642C12.4177 6.18832 12.9732 5.16422 13.5683 4.51615C14.3263 3.67407 15.5834 3.038 16.64 3C16.6672 3.11601 16.6797 3.26003 16.6797 3.40204C16.6797 4.42614 16.2203 5.45024 15.5709 6.18832C14.8818 7.0064 13.6894 7.61446 12.7414 7.61446C12.6328 7.61446 12.5242 7.60046 12.4574 7.58846ZM15.7982 6.38408C16.4861 5.60129 16.9797 4.51013 16.9797 3.40204C16.9797 3.24558 16.9662 3.0771 16.9322 2.93165L16.8759 2.69132L16.6293 2.70019C15.4816 2.74147 14.1515 3.42051 13.3463 4.31433C12.7185 4.99845 12.1177 6.09107 12.1177 7.22642C12.1177 7.4092 12.1484 7.58973 12.1664 7.66137L12.2135 7.84946L12.4044 7.88373C12.4833 7.89791 12.6103 7.91446 12.7414 7.91446C13.7909 7.91446 15.0615 7.25711 15.7982 6.38408ZM20.3999 9.74148C20.3582 9.68643 20.3158 9.63297 20.2729 9.58106C18.8698 7.88214 16.8861 7.83448 16.3164 7.83448C15.4059 7.83448 14.5909 8.14378 13.906 8.40372C13.4096 8.59211 12.9815 8.75458 12.6349 8.75458C12.2518 8.75458 11.8132 8.58492 11.3238 8.39562C10.7061 8.1567 10.0075 7.88649 9.23739 7.88649C6.63967 7.88649 4.0002 9.94869 4.0002 13.8371C4.0002 16.2613 4.97538 18.8156 6.18236 20.4597C7.22437 21.8599 8.13065 23 9.4295 23C10.0454 23 10.4969 22.8165 10.9718 22.6236C11.4984 22.4096 12.0538 22.1839 12.8938 22.1839C13.7428 22.1839 14.2502 22.3959 14.7393 22.6002C15.1945 22.7904 15.634 22.974 16.3185 22.974C17.7384 22.974 18.6719 21.7439 19.5656 20.5117C20.3113 19.4701 20.7345 18.4429 20.9075 17.9588C20.9132 17.943 20.9186 17.9277 20.9237 17.9131C20.9725 17.7735 20.9973 17.6883 21.0002 17.6735C20.9188 17.6475 18.1978 16.5974 18.1978 13.6291C18.1978 11.5419 19.6122 10.3889 20.2055 9.98265C20.2917 9.92366 20.3605 9.88042 20.4052 9.85236C20.4295 9.8371 20.4466 9.82632 20.4555 9.81994C20.4562 9.8195 20.4567 9.81908 20.4573 9.81868C20.4383 9.79261 20.4191 9.76687 20.3999 9.74148Z" fill="#101010"/>
</svg>
