<svg width="26" height="26" viewBox="0 0 26 26" fill="none" xmlns="http://www.w3.org/2000/svg">
<path d="M21.3035 21.5699H3.86382C2.28386 21.5699 1 20.2837 1 18.7038V8.06973C1 6.48977 2.28386 5.2036 3.86382 5.2036H15.4209V5.45112H3.86382C2.42034 5.45112 1.24752 6.62625 1.24752 8.06741V18.7015C1.24752 20.1449 2.42266 21.3178 3.86382 21.3178H21.3035C22.747 21.3178 23.9198 20.1449 23.9198 18.7015V14.0888H24.1673V18.7015C24.1673 20.2814 22.8811 21.5676 21.3012 21.5676" fill="#101010"/>
<path d="M21.4664 15.8469H16.4859C14.869 15.8469 13.5527 14.5306 13.5527 12.9137V7.93321C13.5527 6.31624 14.869 5 16.4859 5H21.4664C23.0834 5 24.3996 6.31624 24.3996 7.93321V12.9137C24.3996 14.5306 23.0834 15.8469 21.4664 15.8469ZM16.4836 5.24521C15.0031 5.24521 13.7979 6.45041 13.7979 7.9309V12.9113C13.7979 14.3918 15.0031 15.597 16.4836 15.597H21.4641C22.9446 15.597 24.1498 14.3918 24.1498 12.9113V7.9309C24.1498 6.45041 22.9446 5.24521 21.4641 5.24521H16.4836Z" fill="#101010"/>
<path d="M21.4494 15.1344H16.4967C15.2637 15.1344 14.2598 14.1305 14.2598 12.8975V7.94481C14.2598 6.71184 15.2637 5.70789 16.4967 5.70789H21.4494C22.6823 5.70789 23.6863 6.71184 23.6863 7.94481V12.8975C23.6863 14.1305 22.6823 15.1344 21.4494 15.1344ZM16.499 5.95772C15.4025 5.95772 14.5119 6.85064 14.5119 7.94481V12.8975C14.5119 13.994 15.4048 14.8869 16.499 14.8869H21.4517C22.5482 14.8869 23.4411 13.994 23.4411 12.8975V7.94481C23.4411 6.84832 22.5482 5.95772 21.4517 5.95772H16.499Z" fill="#101010"/>
<path d="M18.8389 13.2677C17.3029 13.2677 16.0537 12.0185 16.0537 10.4825C16.0537 8.9465 17.3029 7.69734 18.8389 7.69734C20.3749 7.69734 21.624 8.9465 21.624 10.4825C21.624 12.0185 20.3749 13.2677 18.8389 13.2677ZM18.8389 7.94486C17.4394 7.94486 16.3012 9.08298 16.3012 10.4825C16.3012 11.882 17.4394 13.0178 18.8389 13.0178C20.2384 13.0178 21.3765 11.8797 21.3765 10.4825C21.3765 9.0853 20.2384 7.94486 18.8389 7.94486Z" fill="#101010"/>
<path d="M11.4913 17.0659H4.50297C3.61467 17.0659 2.89062 16.3418 2.89062 15.4535V8.46517C2.89062 7.57688 3.61467 6.85283 4.50297 6.85283H11.4913C12.3796 6.85283 13.1037 7.57688 13.1037 8.46517V15.4535C13.1037 16.3441 12.3796 17.0659 11.4913 17.0659ZM4.50297 7.10035C3.75116 7.10035 3.13814 7.71336 3.13814 8.46517V15.4535C3.13814 16.2053 3.75116 16.8184 4.50297 16.8184H11.4913C12.2431 16.8184 12.8561 16.2053 12.8561 15.4535V8.46517C12.8561 7.71336 12.2431 7.10035 11.4913 7.10035H4.50297Z" fill="#101010"/>
<path d="M19.7113 10.4823C19.7113 10.9635 19.3226 11.3521 18.8415 11.3521C18.3603 11.3521 17.9717 10.9635 17.9717 10.4823C17.9717 10.0012 18.3603 9.61255 18.8415 9.61255C19.3226 9.61255 19.7113 10.0012 19.7113 10.4823Z" fill="#101010"/>
<path d="M11.3577 16.3165H4.63764C4.08708 16.3165 3.64062 15.87 3.64062 15.3195V8.59946C3.64062 8.05122 4.08708 7.60245 4.63764 7.60245H11.3577C11.9082 7.60245 12.3547 8.04891 12.3547 8.59946V15.3195C12.3547 15.87 11.9082 16.3165 11.3577 16.3165ZM4.63533 7.81527C4.20275 7.81527 3.85113 8.16688 3.85113 8.59946V15.3195C3.85113 15.7521 4.20275 16.1037 4.63533 16.1037H11.3553C11.7879 16.1037 12.1395 15.7521 12.1395 15.3195V8.59946C12.1395 8.16688 11.7879 7.81527 11.3553 7.81527H4.63533Z" fill="#101010"/>
<path d="M18.1984 17.4616C18.1984 17.5426 18.1337 17.6097 18.0504 17.6097C17.9671 17.6097 17.9023 17.5449 17.9023 17.4616C17.9023 17.3784 17.9671 17.3136 18.0504 17.3136C18.1337 17.3136 18.1984 17.3784 18.1984 17.4616Z" fill="#101010"/>
<path d="M18.9865 17.4616C18.9865 17.5426 18.9218 17.6097 18.8385 17.6097C18.7552 17.6097 18.6904 17.5449 18.6904 17.4616C18.6904 17.3784 18.7552 17.3136 18.8385 17.3136C18.9218 17.3136 18.9865 17.3784 18.9865 17.4616Z" fill="#101010"/>
<path d="M19.7785 17.4616C19.7785 17.5426 19.7137 17.6097 19.6305 17.6097C19.5472 17.6097 19.4824 17.5449 19.4824 17.4616C19.4824 17.3784 19.5472 17.3136 19.6305 17.3136C19.7137 17.3136 19.7785 17.3784 19.7785 17.4616Z" fill="#101010"/>
<path d="M18.1984 18.2341C18.1984 18.315 18.1337 18.3821 18.0504 18.3821C17.9671 18.3821 17.9023 18.3174 17.9023 18.2341C17.9023 18.1508 17.9671 18.086 18.0504 18.086C18.1337 18.086 18.1984 18.1508 18.1984 18.2341Z" fill="#101010"/>
<path d="M18.9865 18.2341C18.9865 18.315 18.9218 18.3821 18.8385 18.3821C18.7552 18.3821 18.6904 18.3174 18.6904 18.2341C18.6904 18.1508 18.7552 18.086 18.8385 18.086C18.9218 18.086 18.9865 18.1508 18.9865 18.2341Z" fill="#101010"/>
<path d="M19.7785 18.2341C19.7785 18.315 19.7137 18.3821 19.6305 18.3821C19.5472 18.3821 19.4824 18.3174 19.4824 18.2341C19.4824 18.1508 19.5472 18.086 19.6305 18.086C19.7137 18.086 19.7785 18.1508 19.7785 18.2341Z" fill="#101010"/>
<path d="M18.1984 19.0043C18.1984 19.0853 18.1337 19.1524 18.0504 19.1524C17.9671 19.1524 17.9023 19.0876 17.9023 19.0043C17.9023 18.9211 17.9671 18.8563 18.0504 18.8563C18.1337 18.8563 18.1984 18.9211 18.1984 19.0043Z" fill="#101010"/>
<path d="M18.9865 19.0043C18.9865 19.0853 18.9218 19.1524 18.8385 19.1524C18.7552 19.1524 18.6904 19.0876 18.6904 19.0043C18.6904 18.9211 18.7552 18.8563 18.8385 18.8563C18.9218 18.8563 18.9865 18.9211 18.9865 19.0043Z" fill="#101010"/>
<path d="M19.7785 19.0043C19.7785 19.0853 19.7137 19.1524 19.6305 19.1524C19.5472 19.1524 19.4824 19.0876 19.4824 19.0043C19.4824 18.9211 19.5472 18.8563 19.6305 18.8563C19.7137 18.8563 19.7785 18.9211 19.7785 19.0043Z" fill="#101010"/>
</svg>
