<svg width="26" height="26" viewBox="0 0 26 26" fill="none" xmlns="http://www.w3.org/2000/svg">
<path d="M7.002 25.0395H5.37285V19.9917H5.08496V15.8141H5.435V19.6417H5.72617V24.6895H6.65196V19.6417H6.93985V15.8141H7.29316V19.9917H7.002V25.0395Z" fill="#EBEBF5" fill-opacity="0.6"/>
<path d="M9.37926 15.9908H3V9.85361H9.37926V15.9908ZM3.35332 15.6407H9.02921V10.2037H3.35332V15.6407Z" fill="#EBEBF5" fill-opacity="0.6"/>
<path d="M8.83711 10.2038H3.54395V5.12656H8.83711V10.2038ZM3.89399 9.85373H8.48707V5.47985H3.89399V9.85373Z" fill="#EBEBF5" fill-opacity="0.6"/>
<path d="M8.16126 8.21463H6.75781V7.03363H8.16126V8.21463ZM7.10786 7.86458H7.81122V7.38367H7.10786V7.86458Z" fill="#EBEBF5" fill-opacity="0.6"/>
<path d="M5.62318 8.21463H4.21973V7.03363H5.62318V8.21463ZM4.56977 7.86458H5.27313V7.38367H4.56977V7.86458Z" fill="#EBEBF5" fill-opacity="0.6"/>
<path d="M17.3832 25.0395H15.7541V17.0017H15.4629V12.4642L15.669 12.5002C16.2611 12.6016 16.8761 12.6016 17.465 12.5002L17.6711 12.4642V17.0017H17.38V25.0395H17.3832ZM16.1041 24.6895H17.0299V16.6516H17.3211V12.8764C16.8205 12.9418 16.3135 12.9418 15.8162 12.8764V16.6516H16.1074V24.6895H16.1041Z" fill="#EBEBF5" fill-opacity="0.6"/>
<path d="M16.5713 12.9288C13.4536 12.9288 10.915 10.3902 10.915 7.2725C10.915 4.15484 13.4536 1.61621 16.5713 1.61621C19.689 1.61621 22.2276 4.15484 22.2276 7.2725C22.2276 10.3902 19.689 12.9288 16.5713 12.9288ZM16.5713 1.96953C13.6467 1.96953 11.2651 4.34785 11.2651 7.2725C11.2651 10.1971 13.6434 12.5787 16.5713 12.5787C19.4992 12.5787 21.8775 10.2004 21.8775 7.2725C21.8775 4.34458 19.4992 1.96953 16.5713 1.96953Z" fill="#EBEBF5" fill-opacity="0.6"/>
</svg>
