<svg width="21" height="18" viewBox="0 0 21 18" fill="none" xmlns="http://www.w3.org/2000/svg">
<path d="M4.51436 17.1612C4.26059 17.596 3.80422 17.8373 3.33557 17.8373C3.10159 17.8373 2.86419 17.7771 2.64726 17.65C1.99715 17.2679 1.77886 16.4305 2.16019 15.7798L2.3587 15.44C2.71002 15.3293 3.07976 15.2691 3.45973 15.2801H3.46314C4.161 15.3006 4.74494 15.6171 5.14401 16.0839L4.51436 17.1612ZM12.1833 13.9109H1.66903C0.915912 13.9109 0.304688 13.2985 0.304688 12.5438C0.304688 11.7892 0.915912 11.1767 1.66903 11.1767H4.85136L8.85297 4.33434L7.61756 2.22148C7.23622 1.57005 7.45452 0.732698 8.10463 0.350591C8.75473 -0.0308318 9.59039 0.187222 9.97173 0.838649L10.4342 1.62952L10.8968 0.838649C11.2774 0.187222 12.1131 -0.0308318 12.7639 0.350591C13.414 0.732698 13.6323 1.57005 13.2509 2.22148L8.0139 11.1767H10.8654C11.2917 11.4611 11.6581 11.837 11.9221 12.2977L11.9241 12.3005C12.2243 12.8234 12.2904 13.3894 12.1833 13.9109ZM19.4055 13.9109H17.6161L18.709 15.7791C19.0903 16.4298 18.872 17.2679 18.2219 17.6493C18.005 17.7771 17.7676 17.8366 17.5336 17.8366C17.0649 17.8366 16.6092 17.5946 16.3548 17.1605L12.1588 9.98528C11.5898 8.92646 11.611 7.64274 12.2331 6.60647L12.7966 5.66796L16.0171 11.1767H19.4055C20.1586 11.1767 20.7698 11.7892 20.7698 12.5438C20.7698 13.2985 20.1586 13.9109 19.4055 13.9109Z" fill="#EBEBF5" fill-opacity="0.6"/>
</svg>
