<svg width="16" height="16" viewBox="0 0 16 16" fill="none" xmlns="http://www.w3.org/2000/svg">
<path d="M15.7302 14.4596L11.5683 10.3864C12.562 9.0893 13.0272 7.46324 12.8702 5.83624C12.7133 4.20923 11.9458 2.70237 10.7225 1.61964C9.49932 0.536902 7.91143 -0.0411213 6.27921 0.00217635C4.64698 0.045474 3.0919 0.706868 1.92767 1.85293C0.763447 2.999 0.0767277 4.54444 0.00605058 6.17748C-0.0646265 7.81053 0.485998 9.40963 1.54684 10.6522C2.60769 11.8948 4.09981 12.6883 5.72217 12.8728C7.34454 13.0573 8.97642 12.6189 10.2886 11.6461L14.4754 15.7438C14.5597 15.8263 14.6593 15.8914 14.7687 15.9353C14.878 15.9792 14.9949 16.0012 15.1127 15.9999C15.2305 15.9985 15.347 15.974 15.4553 15.9277C15.5636 15.8813 15.6618 15.8141 15.7442 15.7298C15.8266 15.6454 15.8916 15.5457 15.9355 15.4362C15.9793 15.3268 16.0012 15.2097 15.9999 15.0918C15.9986 14.9738 15.9741 14.8573 15.9278 14.7488C15.8816 14.6404 15.8145 14.5421 15.7302 14.4596ZM1.2481 6.47527C1.24952 5.44036 1.55737 4.4291 2.13274 3.5693C2.70811 2.7095 3.52517 2.03975 4.48067 1.64469C5.43617 1.24963 6.48721 1.147 7.50095 1.34977C8.5147 1.55254 9.44564 2.05161 10.1761 2.7839C10.9066 3.5162 11.4039 4.44884 11.605 5.46396C11.8062 6.47909 11.7022 7.53113 11.3063 8.48712C10.9104 9.44312 10.2402 10.2602 9.38056 10.835C8.5209 11.4098 7.51032 11.7166 6.47654 11.7166C5.08939 11.7141 3.75987 11.1609 2.77968 10.1783C1.79949 9.19565 1.24868 7.86393 1.2481 6.47527Z" fill="white" fill-opacity="0.6"/>
</svg>
