<svg width="16" height="16" viewBox="0 0 16 16" fill="none" xmlns="http://www.w3.org/2000/svg">
<path fill-rule="evenodd" clip-rule="evenodd" d="M5.78465 0.281178C5.92471 0.239483 6.07511 0.239283 6.21712 0.28252L6.21731 0.282578C6.53628 0.379698 6.75284 0.675737 6.7488 1.00914C6.74792 1.08157 6.73668 1.15199 6.71632 1.21876C6.4329 2.25099 6.42697 3.33988 6.6993 4.37533C6.97321 5.41678 7.51879 6.36681 8.28025 7.12827C9.04172 7.88974 9.99175 8.43531 11.0332 8.70922C12.068 8.98138 13.1562 8.97562 14.1879 8.69269C14.2578 8.67118 14.3317 8.65967 14.4077 8.6596C14.7442 8.65925 15.0398 8.8831 15.1306 9.20712L15.1307 9.20737C15.1693 9.34525 15.1674 9.49013 15.127 9.62516C14.7709 10.8953 14.0895 12.0506 13.15 12.9768C12.2069 13.9065 11.0367 14.5728 9.75592 14.9095C8.47513 15.2462 7.12848 15.2414 5.85013 14.8956C4.57177 14.5498 3.40633 13.8751 2.46991 12.9387C1.53348 12.0022 0.858759 10.8368 0.512954 9.55845C0.16715 8.2801 0.162333 6.93345 0.498985 5.65266C0.835636 4.37186 1.502 3.20163 2.43171 2.25854C3.3582 1.31871 4.51399 0.637136 5.78465 0.281178ZM5.02672 2.1847C4.46422 2.47691 3.94856 2.8565 3.49992 3.3116C2.75422 4.06804 2.21973 5.00667 1.94971 6.03398C1.67968 7.06128 1.68355 8.14142 1.96091 9.16677C2.23828 10.1921 2.77947 11.1269 3.53056 11.878C4.28166 12.6291 5.21644 13.1703 6.2418 13.4476C7.26715 13.725 8.34728 13.7288 9.37459 13.4588C10.4019 13.1888 11.3405 12.6543 12.097 11.9085C12.552 11.4599 12.9316 10.9443 13.2238 10.3818C12.3635 10.4551 11.4934 10.3813 10.6517 10.1599C9.3533 9.81841 8.16891 9.13825 7.21959 8.18894C6.27028 7.23963 5.59011 6.05524 5.24863 4.75686C5.02724 3.91512 4.95336 3.04504 5.02672 2.1847Z" fill="#EBEBF5"/>
</svg>
