<svg width="17" height="17" viewBox="0 0 17 17" fill="none" xmlns="http://www.w3.org/2000/svg">
<path fill-rule="evenodd" clip-rule="evenodd" d="M8.5 1.75C6.32538 1.75 4.5625 3.51288 4.5625 5.6875C4.5625 7.86212 6.32538 9.625 8.5 9.625C10.6746 9.625 12.4375 7.86212 12.4375 5.6875C12.4375 3.51288 10.6746 1.75 8.5 1.75ZM11.6663 10.1086C13.0416 9.12185 13.9375 7.5093 13.9375 5.6875C13.9375 2.68445 11.503 0.25 8.5 0.25C5.49695 0.25 3.0625 2.68445 3.0625 5.6875C3.0625 7.5093 3.95844 9.12185 5.33375 10.1086C4.36796 10.4172 3.49107 10.8642 2.7467 11.4225C1.2474 12.547 0.25 14.1577 0.25 16C0.25 16.4142 0.585786 16.75 1 16.75C1.41421 16.75 1.75 16.4142 1.75 16C1.75 14.7357 2.43154 13.5339 3.6467 12.6225C4.86209 11.711 6.57552 11.125 8.5 11.125C10.4245 11.125 12.1379 11.711 13.3533 12.6225C14.5685 13.5339 15.25 14.7357 15.25 16C15.25 16.4142 15.5858 16.75 16 16.75C16.4142 16.75 16.75 16.4142 16.75 16C16.75 14.1577 15.7526 12.547 14.2533 11.4225C13.5089 10.8642 12.632 10.4172 11.6663 10.1086Z" fill="#EBEBF5" fill-opacity="0.6"/>
</svg>
