<svg width="12" height="20" viewBox="0 0 12 20" fill="none" xmlns="http://www.w3.org/2000/svg">
<path d="M7.33086 3H4.66914C4.30111 3 4 2.775 4 2.5C4 2.225 4.30111 2 4.66914 2H7.33086C7.69889 2 8 2.225 8 2.5C8 2.775 7.69889 3 7.33086 3ZM4.66914 2.29722C4.52044 2.29722 4.39777 2.38889 4.39777 2.5C4.39777 2.61111 4.52044 2.70278 4.66914 2.70278H7.33086C7.47956 2.70278 7.60223 2.61111 7.60223 2.5C7.60223 2.38889 7.47956 2.29722 7.33086 2.29722H4.66914Z" fill="#EBEBF5" fill-opacity="0.6"/>
<path d="M10.0729 20H1.92709C0.864449 20 0 19.2937 0 18.4255V1.57454C0 0.706309 0.864449 0 1.92709 0H10.0729C11.1355 0 12 0.706309 12 1.57454V18.4255C12 19.2937 11.1355 20 10.0729 20ZM1.92369 0.298714C1.06264 0.298714 0.362186 0.871022 0.362186 1.57454V18.4255C0.362186 19.129 1.06264 19.7013 1.92369 19.7013H10.0695C10.9305 19.7013 11.631 19.129 11.631 18.4255V1.57454C11.631 0.871022 10.9305 0.298714 10.0695 0.298714H1.92369Z" fill="#EBEBF5" fill-opacity="0.6"/>
</svg>
