<svg width="70" height="50" viewBox="0 0 70 50" fill="none" xmlns="http://www.w3.org/2000/svg">
<g filter="url(#filter0_b_1125_10877)">
<path d="M44.5455 0H25.4545C16.5446 0 12.0897 0 8.68651 1.23856C5.69303 2.32803 3.25925 4.06645 1.73399 6.20465C0 8.63547 0 11.8176 0 18.1818V31.8182C0 38.1824 0 41.3645 1.73399 43.7953C3.25925 45.9336 5.69303 47.672 8.68651 48.7614C12.0897 50 16.5446 50 25.4545 50H44.5455C53.4554 50 57.9103 50 61.3135 48.7614C64.307 47.672 66.7408 45.9336 68.266 43.7953C70 41.3645 70 38.1824 70 31.8182V18.1818C70 11.8176 70 8.63547 68.266 6.20465C66.7408 4.06645 64.307 2.32803 61.3135 1.23856C57.9103 0 53.4554 0 44.5455 0Z" fill="#FF4433"/>
</g>
<path d="M44.3194 23.7773C45.2285 24.3207 45.2285 25.6793 44.3194 26.2227L32.0467 33.5587C31.1376 34.1022 30.0012 33.4229 30.0012 32.3361L30.0012 17.6639C30.0012 16.5771 31.1376 15.8978 32.0467 16.4413L44.3194 23.7773Z" fill="white"/>
<defs>
<filter id="filter0_b_1125_10877" x="-4" y="-4" width="78" height="58" filterUnits="userSpaceOnUse" color-interpolation-filters="sRGB">
<feFlood flood-opacity="0" result="BackgroundImageFix"/>
<feGaussianBlur in="BackgroundImageFix" stdDeviation="2"/>
<feComposite in2="SourceAlpha" operator="in" result="effect1_backgroundBlur_1125_10877"/>
<feBlend mode="normal" in="SourceGraphic" in2="effect1_backgroundBlur_1125_10877" result="shape"/>
</filter>
</defs>
</svg>
