<svg width="19" height="19" viewBox="0 0 19 19" fill="none" xmlns="http://www.w3.org/2000/svg">
<path fill-rule="evenodd" clip-rule="evenodd" d="M9.875 0.418945C10.4273 0.418945 10.875 0.866661 10.875 1.41895V8.41895H17.875C18.4273 8.41895 18.875 8.86666 18.875 9.41895C18.875 9.97123 18.4273 10.4189 17.875 10.4189H10.875V17.4189C10.875 17.9712 10.4273 18.4189 9.875 18.4189C9.32272 18.4189 8.875 17.9712 8.875 17.4189V10.4189H1.875C1.32272 10.4189 0.875 9.97123 0.875 9.41894C0.875 8.86666 1.32272 8.41894 1.875 8.41894H8.875V1.41895C8.875 0.866661 9.32272 0.418945 9.875 0.418945Z" fill="#EBEBF5" fill-opacity="0.6"/>
</svg>
