<svg width="23" height="18" viewBox="0 0 23 18" fill="none" xmlns="http://www.w3.org/2000/svg">
<path d="M22.7133 8.84217H15.9296L19.3214 3.75439L22.7133 8.84217Z" fill="#EBEBF5" fill-opacity="0.6"/>
<path fill-rule="evenodd" clip-rule="evenodd" d="M20.3458 8.78931C20.3636 10.5118 19.8656 12.2001 18.9161 13.6373C17.9664 15.0744 16.6085 16.1946 15.017 16.8536C13.4256 17.5127 11.6735 17.6805 9.98586 17.3355C8.29827 16.9906 6.75229 16.1486 5.54712 14.9178L6.97612 13.5185C7.90199 14.4641 9.08978 15.111 10.3864 15.376C11.683 15.6411 13.0291 15.5122 14.2518 15.0058C15.4745 14.4994 16.5179 13.6388 17.2474 12.5347C17.977 11.4305 18.3596 10.1333 18.3459 8.81003L20.3458 8.78931Z" fill="#EBEBF5" fill-opacity="0.6"/>
<path d="M0.656006 8.84204H7.4397L4.04785 13.9298L0.656006 8.84204Z" fill="#EBEBF5" fill-opacity="0.6"/>
<path fill-rule="evenodd" clip-rule="evenodd" d="M8.35056 0.856778C9.94 0.19812 11.6899 0.0294951 13.3759 0.372528C15.0618 0.71556 16.6068 1.55461 17.8125 2.78198L16.3858 4.18354C15.4594 3.24056 14.2724 2.59592 12.9771 2.33237C11.6818 2.06882 10.3374 2.19837 9.11622 2.70442C7.89503 3.21047 6.85285 4.06994 6.12364 5.17242C5.39444 6.2749 5.01141 7.57018 5.0236 8.89203L3.02368 8.91046C3.00782 7.19008 3.50634 5.50414 4.45551 4.06909C5.40468 2.63405 6.76115 1.51542 8.35056 0.856778Z" fill="#EBEBF5" fill-opacity="0.6"/>
</svg>
