<svg width="21" height="18" viewBox="0 0 21 18" fill="none" xmlns="http://www.w3.org/2000/svg">
<path d="M0.234375 12.086C0.653952 11.9851 1.07558 11.8821 1.46445 11.7875C1.46445 8.49802 1.45012 5.18542 1.47264 1.87491C1.48083 0.748288 2.10303 0.111409 3.20211 0.107205C8.0426 0.0882883 12.8831 0.0882883 17.7236 0.107205C18.7817 0.111409 19.4182 0.723065 19.4571 1.76351C19.5022 2.98892 19.4715 4.21433 19.4735 5.44185C19.4735 5.75293 19.4735 6.06611 19.4735 6.3772C19.363 6.42344 19.2545 6.47178 19.144 6.51803C18.9803 6.17331 18.6958 5.83701 18.6773 5.48389C18.618 4.33204 18.6466 3.17389 18.6569 2.01784C18.663 1.27166 18.3151 0.937459 17.5926 0.937459C12.8544 0.943765 8.11628 0.945867 3.37813 0.937459C2.59833 0.937459 2.2729 1.29689 2.277 2.0872C2.29132 4.96051 2.29337 7.83172 2.277 10.705C2.27086 11.5626 2.64336 11.8926 3.45591 11.8863C6.04705 11.8674 8.63615 11.88 11.2273 11.88C11.5527 11.88 11.8781 11.88 12.2015 11.88C12.2404 11.9578 12.2813 12.0376 12.3202 12.1154C11.6182 12.8069 10.9428 13.53 10.1998 14.1711C9.97879 14.3623 9.57559 14.3918 9.25425 14.3939C7.17479 14.4128 5.09328 14.3455 3.01791 14.4254C1.75713 14.4737 0.838156 14.0681 0.236422 12.9309C0.236422 12.6514 0.236422 12.3697 0.236422 12.0902L0.234375 12.086Z" fill="#EBEBF5" fill-opacity="0.6"/>
<path d="M11.082 17.7653C9.76389 16.7459 9.70658 15.9766 10.8568 14.7764C11.3828 14.2278 11.8986 13.6666 12.4512 13.1453C13.3006 12.3424 13.9003 11.6046 13.8205 10.1796C13.6895 7.82331 16.1803 6.2742 18.4583 7.14019C18.1329 7.49121 17.8382 7.81701 17.5332 8.13439C16.3175 9.40815 16.0289 10.3666 16.6797 10.9951C17.3347 11.6257 18.1943 11.344 19.4571 10.045C19.7437 9.75076 19.9668 9.38923 20.2328 9.04032C20.4825 9.31987 20.591 9.44178 20.6995 9.56369V11.2473C19.844 13.1832 18.5607 14.335 16.3216 13.8663C16.1067 13.8222 15.7812 14.0786 15.5807 14.2741C14.4099 15.4259 13.2597 16.6009 12.1033 17.7674H11.0799L11.082 17.7653Z" fill="#EBEBF5" fill-opacity="0.6"/>
</svg>
