<svg width="24" height="24" viewBox="0 0 24 24" fill="none" xmlns="http://www.w3.org/2000/svg">
<path fill-rule="evenodd" clip-rule="evenodd" d="M15.6667 1.5C15.3905 1.5 15.1667 1.27614 15.1667 1C15.1667 0.723858 15.3905 0.5 15.6667 0.5H23C23.2761 0.5 23.5 0.723858 23.5 1V8.33333C23.5 8.60948 23.2761 8.83333 23 8.83333C22.7239 8.83333 22.5 8.60948 22.5 8.33333V2.20711L16.0202 8.68689C15.825 8.88215 15.5084 8.88215 15.3131 8.68689C15.1179 8.49163 15.1179 8.17504 15.3131 7.97978L21.7929 1.5H15.6667ZM1 15.1667C1.27614 15.1667 1.5 15.3905 1.5 15.6667V21.7929L7.97978 15.3131C8.17504 15.1179 8.49163 15.1179 8.68689 15.3131C8.88215 15.5084 8.88215 15.825 8.68689 16.0202L2.20711 22.5H8.33334C8.60948 22.5 8.83334 22.7239 8.83334 23C8.83334 23.2761 8.60948 23.5 8.33334 23.5H1C0.723858 23.5 0.5 23.2761 0.5 23V15.6667C0.5 15.3905 0.723858 15.1667 1 15.1667Z" fill="white"/>
</svg>
