<svg width="23" height="21" viewBox="0 0 23 21" fill="none" xmlns="http://www.w3.org/2000/svg">
<path d="M4.89052 20.7866C5.29795 21.0986 5.81469 20.9913 6.43081 20.5527L11.6877 16.7605L16.9545 20.5527C17.5706 20.9913 18.0774 21.0986 18.4948 20.7866C18.9022 20.4844 18.9916 19.9872 18.7432 19.2756L16.6663 13.2121L21.9728 9.46867C22.5889 9.03973 22.8374 8.59131 22.6784 8.10388C22.5194 7.63596 22.0523 7.40199 21.2872 7.41174L14.7782 7.45074L12.8007 1.35796C12.5622 0.636571 12.2044 0.275879 11.6877 0.275879C11.1809 0.275879 10.8231 0.636571 10.5846 1.35796L8.60709 7.45074L2.09812 7.41174C1.33295 7.40199 0.86589 7.63596 0.706892 8.10388C0.537957 8.59131 0.796328 9.03973 1.41244 9.46867L6.71899 13.2121L4.64208 19.2756C4.39365 19.9872 4.48309 20.4844 4.89052 20.7866Z" fill="#EBEBF5" fill-opacity="0.6"/>
</svg>
