<svg width="18" height="16" viewBox="0 0 18 16" fill="none" xmlns="http://www.w3.org/2000/svg">
<path d="M16.9465 9.05475C15.9408 9.53187 14.3858 9.75498 13.5483 10.4758C12.5906 11.2962 12.3984 12.9678 11.8664 14.0662C11.7119 14.382 11.5437 14.3202 11.3858 14.0422C10.8401 13.0742 10.7405 11.533 9.91671 10.6509C9.13753 9.81677 7.41441 9.57306 6.39153 9.06848C6.26796 9.01013 6.22676 8.84537 6.25423 8.71493C6.28855 8.5639 8.72907 7.80188 9.11694 7.60966C10.5826 6.8854 10.7337 5.24466 11.3034 3.86479C11.4305 3.56273 11.4785 3.25724 11.8527 3.60392C12.4774 4.98036 12.6044 6.79273 14.0666 7.56847C14.8973 8.00783 16.006 8.24468 16.8813 8.62569C17.0769 8.72866 17.0701 8.88656 16.9465 9.05475Z" fill="white" fill-opacity="0.6"/>
<path d="M4.36184 0.0169472C4.45452 0.0787324 4.97283 1.78812 5.13072 2.09018C5.71082 3.19545 6.88131 3.21261 7.90763 3.68287C8.18223 3.80987 8.14447 3.91971 7.88703 4.06731C7.21769 4.44832 6.03691 4.53756 5.47741 5.11766C4.84926 5.7664 4.8012 7.05359 4.24514 7.75383C4.03232 7.75383 3.48999 5.87624 3.31493 5.55702C2.7417 4.50667 1.47853 4.56502 0.603245 4.06731C0.352671 3.92314 0.297751 3.80644 0.579217 3.68287C1.69478 3.19202 2.76229 3.21948 3.36985 2.02153C3.57237 1.61993 3.91905 0.301845 4.08381 0.0993273C4.15589 0.0135146 4.29319 -0.0276754 4.36528 0.0203797L4.36184 0.0169472Z" fill="white" fill-opacity="0.6"/>
<path d="M5.76662 13.0297C5.79408 13.1704 5.72886 13.1979 5.63275 13.2631C5.32039 13.4793 4.5824 13.596 4.19796 13.8054C3.3364 14.2757 3.42221 15.2642 2.9245 15.9919C2.75974 16.0297 2.80779 15.9301 2.76317 15.8272C2.55036 15.3397 2.35127 14.3992 1.98056 14.0526C1.51374 13.6132 0.532039 13.5308 0 13.1498C0 12.961 1.37987 12.5972 1.62014 12.4667C2.47484 12.0033 2.39246 10.929 2.92107 10.2287C3.01374 10.2287 3.45654 11.6086 3.56295 11.8111C3.99887 12.6315 4.96684 12.7104 5.76319 13.0297H5.76662Z" fill="white" fill-opacity="0.6"/>
</svg>
