<svg width="14" height="14" viewBox="0 0 14 14" fill="none" xmlns="http://www.w3.org/2000/svg">
<path d="M13.9636 5.37023C13.8719 5.08675 13.6205 4.8854 13.323 4.85859L9.28222 4.49168L7.68438 0.751797C7.56657 0.477711 7.29825 0.300293 7.00013 0.300293C6.70201 0.300293 6.4337 0.477711 6.31588 0.752438L4.71805 4.49168L0.676621 4.85859C0.379677 4.88604 0.128877 5.08675 0.0366966 5.37023C-0.0554842 5.65372 0.0296468 5.96465 0.254277 6.16066L3.30863 8.83935L2.40797 12.8067C2.34207 13.0985 2.45529 13.4 2.69733 13.575C2.82743 13.669 2.97964 13.7168 3.13314 13.7168C3.26548 13.7168 3.39675 13.6811 3.51457 13.6106L7.00013 11.5274L10.4844 13.6106C10.7394 13.764 11.0608 13.75 11.3023 13.575C11.5444 13.3995 11.6576 13.0978 11.5917 12.8067L10.691 8.83935L13.7453 6.16119C13.97 5.96465 14.0557 5.65425 13.9636 5.37023Z" fill="#FFC107"/>
</svg>
