<svg width="19" height="19" viewBox="0 0 19 19" fill="none" xmlns="http://www.w3.org/2000/svg">
<path fill-rule="evenodd" clip-rule="evenodd" d="M9.19774 5.42C7.11138 5.42 5.42004 7.11133 5.42004 9.1977C5.42004 11.2841 7.11138 12.9754 9.19774 12.9754C11.2841 12.9754 12.9754 11.2841 12.9754 9.1977C12.9754 7.11133 11.2841 5.42 9.19774 5.42ZM3.92004 9.1977C3.92004 6.2829 6.28295 3.92 9.19774 3.92C12.1125 3.92 14.4754 6.2829 14.4754 9.1977C14.4754 12.1125 12.1125 14.4754 9.19774 14.4754C6.28295 14.4754 3.92004 12.1125 3.92004 9.1977Z" fill="#EBEBF5" fill-opacity="0.6"/>
<path fill-rule="evenodd" clip-rule="evenodd" d="M9.20007 0C9.61429 0 9.95007 0.335786 9.95007 0.75V2.25923C9.95007 2.67345 9.61429 3.00923 9.20007 3.00923C8.78586 3.00923 8.45007 2.67345 8.45007 2.25923V0.75C8.45007 0.335786 8.78586 0 9.20007 0Z" fill="#EBEBF5" fill-opacity="0.6"/>
<path fill-rule="evenodd" clip-rule="evenodd" d="M9.20007 15.39C9.61429 15.39 9.95007 15.7258 9.95007 16.14V17.6492C9.95007 18.0634 9.61429 18.3992 9.20007 18.3992C8.78586 18.3992 8.45007 18.0634 8.45007 17.6492V16.14C8.45007 15.7258 8.78586 15.39 9.20007 15.39Z" fill="#EBEBF5" fill-opacity="0.6"/>
<path fill-rule="evenodd" clip-rule="evenodd" d="M15.39 9.2C15.39 8.78578 15.7258 8.45 16.14 8.45H17.6492C18.0635 8.45 18.3992 8.78578 18.3992 9.2C18.3992 9.61421 18.0635 9.95 17.6492 9.95H16.14C15.7258 9.95 15.39 9.61421 15.39 9.2Z" fill="#EBEBF5" fill-opacity="0.6"/>
<path fill-rule="evenodd" clip-rule="evenodd" d="M0 9.2C0 8.78578 0.335786 8.45 0.75 8.45H2.25923C2.67345 8.45 3.00923 8.78578 3.00923 9.2C3.00923 9.61421 2.67345 9.95 2.25923 9.95H0.75C0.335786 9.95 0 9.61421 0 9.2Z" fill="#EBEBF5" fill-opacity="0.6"/>
<path fill-rule="evenodd" clip-rule="evenodd" d="M4.82037 13.5803C5.11326 13.8732 5.11326 14.3481 4.82037 14.641L3.75318 15.7082C3.46029 16.0011 2.98541 16.0011 2.69252 15.7082C2.39963 15.4153 2.39963 14.9404 2.69252 14.6475L3.75971 13.5803C4.0526 13.2874 4.52748 13.2874 4.82037 13.5803Z" fill="#EBEBF5" fill-opacity="0.6"/>
<path fill-rule="evenodd" clip-rule="evenodd" d="M13.5804 13.5797C13.8733 13.2868 14.3481 13.2868 14.641 13.5797L15.7082 14.6469C16.0011 14.9398 16.0011 15.4146 15.7082 15.7075C15.4153 16.0004 14.9405 16.0004 14.6476 15.7075L13.5804 14.6403C13.2875 14.3474 13.2875 13.8726 13.5804 13.5797Z" fill="#EBEBF5" fill-opacity="0.6"/>
<path fill-rule="evenodd" clip-rule="evenodd" d="M2.69036 2.68967C2.98326 2.39677 3.45813 2.39677 3.75102 2.68967L4.81821 3.75686C5.11111 4.04975 5.11111 4.52462 4.81821 4.81752C4.52532 5.11041 4.05045 5.11041 3.75755 4.81752L2.69036 3.75033C2.39747 3.45743 2.39747 2.98256 2.69036 2.68967Z" fill="#EBEBF5" fill-opacity="0.6"/>
<path fill-rule="evenodd" clip-rule="evenodd" d="M13.5797 4.81967C13.2868 4.52678 13.2868 4.0519 13.5797 3.75901L14.6468 2.69182C14.9397 2.39893 15.4146 2.39893 15.7075 2.69182C16.0004 2.98471 16.0004 3.45959 15.7075 3.75248L14.6403 4.81967C14.3474 5.11256 13.8725 5.11256 13.5797 4.81967Z" fill="#EBEBF5" fill-opacity="0.6"/>
</svg>
